{
  "accessors": [
    {
      "bufferView": 2,
      "componentType": 5126,
      "count": 368,
      "max": [
        0.8154174089431763,
        0.4528398811817169,
        0.011859279125928879
      ],
      "min": [
        -0.8131766319274902,
        -1.0062906742095947,
        -0.011859280988574028
      ],
      "type": "VEC3"
    },
    {
      "bufferView": 2,
      "byteOffset": 4416,
      "componentType": 5126,
      "count": 368,
      "max": [
        0.9999997019767761,
        0.9863426685333252,
        0.9999960064888
      ],
      "min": [
        -0.9808109998703003,
        -0.9985824823379517,
        -0.9999960064888
      ],
      "type": "VEC3"
    },
    {
      "bufferView": 1,
      "componentType": 5126,
      "count": 368,
      "max": [
        0.9675983786582947,
        0.9539020657539368
      ],
      "min": [
        0.21889686584472656,
        0.07804813981056213
      ],
      "type": "VEC2"
    },
    {
      "bufferView": 0,
      "componentType": 5125,
      "count": 1020,
      "type": "SCALAR"
    },
    {
      "bufferView": 2,
      "byteOffset": 8832,
      "componentType": 5126,
      "count": 242,
      "max": [
        2.259737253189087,
        2.500649929046631,
        2.428880214691162
      ],
      "min": [
        -0.6582357883453369,
        -2.500649929046631,
        -1.701236367225647
      ],
      "type": "VEC3"
    },
    {
      "bufferView": 2,
      "byteOffset": 11736,
      "componentType": 5126,
      "count": 242,
      "max": [
        0.9702482223510742,
        0.9216496348381042,
        0.946158230304718
      ],
      "min": [
        -0.994380533695221,
        -0.9216495156288147,
        -0.9562667608261108
      ],
      "type": "VEC3"
    },
    {
      "bufferView": 1,
      "byteOffset": 2944,
      "componentType": 5126,
      "count": 242,
      "max": [
        0.984865665435791,
        0.9818416833877563
      ],
      "min": [
        0.06123417615890503,
        0.0
      ],
      "type": "VEC2"
    },
    {
      "bufferView": 0,
      "byteOffset": 4080,
      "componentType": 5125,
      "count": 276,
      "type": "SCALAR"
    },
    {
      "bufferView": 2,
      "byteOffset": 14640,
      "componentType": 5126,
      "count": 620,
      "max": [
        10.496750831604004,
        0.47851914167404175,
        1.2306909561157227
      ],
      "min": [
        0.7319226264953613,
        -0.47851914167404175,
        -1.1459048986434937
      ],
      "type": "VEC3"
    },
    {
      "bufferView": 2,
      "byteOffset": 22080,
      "componentType": 5126,
      "count": 620,
      "max": [
        0.8586844205856323,
        0.9625880122184753,
        0.9966752529144287
      ],
      "min": [
        -0.9109997749328613,
        -0.9625878930091858,
        -0.9991161227226257
      ],
      "type": "VEC3"
    },
    {
      "bufferView": 1,
      "byteOffset": 4880,
      "componentType": 5126,
      "count": 620,
      "max": [
        0.8777640461921692,
        0.9663455486297607
      ],
      "min": [
        0.0,
        0.0
      ],
      "type": "VEC2"
    },
    {
      "bufferView": 0,
      "byteOffset": 5184,
      "componentType": 5125,
      "count": 924,
      "type": "SCALAR"
    },
    {
      "bufferView": 2,
      "byteOffset": 29520,
      "componentType": 5126,
      "count": 1616,
      "max": [
        10.024941444396973,
        0.5284740328788757,
        1.2490352392196655
      ],
      "min": [
        2.903242349624634,
        -0.5284740328788757,
        -0.5680888295173645
      ],
      "type": "VEC3"
    },
    {
      "bufferView": 2,
      "byteOffset": 48912,
      "componentType": 5126,
      "count": 1616,
      "max": [
        0.9930066466331482,
        1.0,
        0.9952495098114014
      ],
      "min": [
        -0.9797530770301819,
        -0.9999438524246216,
        -0.9978059530258179
      ],
      "type": "VEC3"
    },
    {
      "bufferView": 1,
      "byteOffset": 9840,
      "componentType": 5126,
      "count": 1616,
      "max": [
        0.9958410263061523,
        1.0
      ],
      "min": [
        0.0,
        0.0
      ],
      "type": "VEC2"
    },
    {
      "bufferView": 0,
      "byteOffset": 8880,
      "componentType": 5125,
      "count": 2058,
      "type": "SCALAR"
    },
    {
      "bufferView": 2,
      "byteOffset": 68304,
      "componentType": 5126,
      "count": 202,
      "max": [
        11.7655029296875,
        1.2043843269348145,
        1.1434540748596191
      ],
      "min": [
        9.82399845123291,
        -1.2043843269348145,
        -0.31606584787368774
      ],
      "type": "VEC3"
    },
    {
      "bufferView": 2,
      "byteOffset": 70728,
      "componentType": 5126,
      "count": 202,
      "max": [
        0.8509833812713623,
        0.9705378413200378,
        0.9967784285545349
      ],
      "min": [
        -0.9688136577606201,
        -0.9705379605293274,
        -0.9943634867668152
      ],
      "type": "VEC3"
    },
    {
      "bufferView": 1,
      "byteOffset": 22768,
      "componentType": 5126,
      "count": 202,
      "max": [
        0.9575905799865723,
        0.9622764587402344
      ],
      "min": [
        0.07399892807006836,
        0.0
      ],
      "type": "VEC2"
    },
    {
      "bufferView": 0,
      "byteOffset": 17112,
      "componentType": 5125,
      "count": 258,
      "type": "SCALAR"
    }
  ],
  "asset": {
    "extras": {
      "author": "NechoFell (https://sketchfab.com/NechoFell)",
      "license": "CC-BY-4.0 (http://creativecommons.org/licenses/by/4.0/)",
      "source": "https://sketchfab.com/3d-models/ice-sword-85f4deecea8f4c66b90cb3d6a313885b",
      "title": "Ice Sword"
    },
    "generator": "Sketchfab-14.36.1",
    "version": "2.0"
  },
  "bufferViews": [
    {
      "buffer": 0,
      "byteLength": 18144,
      "name": "floatBufferViews",
      "target": 34963
    },
    {
      "buffer": 0,
      "byteLength": 24384,
      "byteOffset": 18144,
      "byteStride": 8,
      "name": "floatBufferViews",
      "target": 34962
    },
    {
      "buffer": 0,
      "byteLength": 73152,
      "byteOffset": 42528,
      "byteStride": 12,
      "name": "floatBufferViews",
      "target": 34962
    }
  ],
  "buffers": [
    {
      "byteLength": 115680,
      "uri": "scene.bin"
    }
  ],
  "images": [
    {
      "uri": "textures/material_baseColor.png"
    },
    {
      "uri": "textures/material_metallicRoughness.png"
    },
    {
      "uri": "textures/material_emissive.png"
    }
  ],
  "materials": [
    {
      "doubleSided": true,
      "emissiveFactor": [
        1.0,
        1.0,
        1.0
      ],
      "emissiveTexture": {
        "index": 2
      },
      "name": "material",
      "pbrMetallicRoughness": {
        "baseColorTexture": {
          "index": 0
        },
        "metallicRoughnessTexture": {
          "index": 1
        }
      }
    }
  ],
  "meshes": [
    {
      "name": "1_Blade_UV_0",
      "primitives": [
        {
          "attributes": {
            "NORMAL": 1,
            "POSITION": 0,
            "TEXCOORD_0": 2
          },
          "indices": 3,
          "material": 0,
          "mode": 4
        }
      ]
    },
    {
      "name": "2_Guard_UV_0",
      "primitives": [
        {
          "attributes": {
            "NORMAL": 5,
            "POSITION": 4,
            "TEXCOORD_0": 6
          },
          "indices": 7,
          "material": 0,
          "mode": 4
        }
      ]
    },
    {
      "name": "3_Handle_UV_0",
      "primitives": [
        {
          "attributes": {
            "NORMAL": 9,
            "POSITION": 8,
            "TEXCOORD_0": 10
          },
          "indices": 11,
          "material": 0,
          "mode": 4
        }
      ]
    },
    {
      "name": "4_Handle-Wrap_UV_0",
      "primitives": [
        {
          "attributes": {
            "NORMAL": 13,
            "POSITION": 12,
            "TEXCOORD_0": 14
          },
          "indices": 15,
          "material": 0,
          "mode": 4
        }
      ]
    },
    {
      "name": "5_Pommel_UV_0",
      "primitives": [
        {
          "attributes": {
            "NORMAL": 17,
            "POSITION": 16,
            "TEXCOORD_0": 18
          },
          "indices": 19,
          "material": 0,
          "mode": 4
        }
      ]
    }
  ],
  "nodes": [
    {
      "children": [
        1
      ],
      "matrix": [
        1.0,
        0.0,
        0.0,
        0.0,
        0.0,
        2.220446049250313e-16,
        -1.0,
        0.0,
        0.0,
        1.0,
        2.220446049250313e-16,
        0.0,
        0.0,
        0.0,
        0.0,
        1.0
      ],
      "name": "Sketchfab_model"
    },
    {
      "children": [
        2
      ],
      "matrix": [
        0.009999999776482582,
        0.0,
        0.0,
        0.0,
        0.0,
        0.0,
        0.009999999776482582,
        0.0,
        0.0,
        -0.009999999776482582,
        0.0,
        0.0,
        0.0,
        0.0,
        0.0,
        1.0
      ],
      "name": "3649eaea58f84587ab5a92f45e9d0648.fbx"
    },
    {
      "children": [
        3,
        5,
        7,
        9,
        11
      ],
      "name": "RootNode"
    },
    {
      "children": [
        4
      ],
      "matrix": [
        55.083274841308594,
        0.0,
        0.0,
        0.0,
        0.0,
        4.928235530853266,
        2.1542001685762537e-07,
        0.0,
        0.0,
        -2.9527084140628388e-06,
        67.55009460449212,
        0.0,
        0.0,
        0.0,
        0.0,
        1.0
      ],
      "name": "1_Blade"
    },
    {
      "mesh": 0,
      "name": "1_Blade_UV_0"
    },
    {
      "children": [
        6
      ],
      "matrix": [
        2.690626859664917,
        0.0,
        0.0,
        0.0,
        0.0,
        -4.383587559665181e-07,
        -2.6906268596648815,
        0.0,
        0.0,
        3.350466966628984,
        -5.458603544830899e-07,
        0.0,
        44.475318908691406,
        -0.3933694660663605,
        1.0862712684911457e-07,
        1.0
      ],
      "name": "2_Guard"
    },
    {
      "mesh": 1,
      "name": "2_Guard_UV_0"
    },
    {
      "children": [
        8
      ],
      "matrix": [
        2.690626859664917,
        0.0,
        0.0,
        0.0,
        0.0,
        -4.383587559665181e-07,
        -2.6906268596648815,
        0.0,
        0.0,
        3.350466966628984,
        -5.458603544830899e-07,
        0.0,
        44.475318908691406,
        -0.3933694660663605,
        1.0862712684911457e-07,
        1.0
      ],
      "name": "3_Handle"
    },
    {
      "mesh": 2,
      "name": "3_Handle_UV_0"
    },
    {
      "children": [
        10
      ],
      "matrix": [
        2.690626859664917,
        0.0,
        0.0,
        0.0,
        0.0,
        -4.383587559665181e-07,
        -2.6906268596648815,
        0.0,
        0.0,
        3.350466966628984,
        -5.458603544830899e-07,
        0.0,
        44.475318908691406,
        -0.3933694660663605,
        1.0862712684911457e-07,
        1.0
      ],
      "name": "4_Handle-Wrap"
    },
    {
      "mesh": 3,
      "name": "4_Handle-Wrap_UV_0"
    },
    {
      "children": [
        12
      ],
      "matrix": [
        2.690626859664917,
        0.0,
        0.0,
        0.0,
        0.0,
        -4.383587559665181e-07,
        -2.6906268596648815,
        0.0,
        0.0,
        3.350466966628984,
        -5.458603544830899e-07,
        0.0,
        44.753509521484375,
        -0.30314597487449646,
        1.2074946198481484e-07,
        1.0
      ],
      "name": "5_Pommel"
    },
    {
      "mesh": 4,
      "name": "5_Pommel_UV_0"
    }
  ],
  "samplers": [
    {
      "magFilter": 9729,
      "minFilter": 9987,
      "wrapS": 10497,
      "wrapT": 10497
    }
  ],
  "scene": 0,
  "scenes": [
    {
      "name": "Sketchfab_Scene",
      "nodes": [
        0
      ]
    }
  ],
  "textures": [
    {
      "sampler": 0,
      "source": 0
    },
    {
      "sampler": 0,
      "source": 1
    },
    {
      "sampler": 0,
      "source": 2
    }
  ]
}
