<?xml version="1.0" encoding="UTF-8"?>
<svg version="1.1" viewBox="0 0 2000 2000" width="500" height="500" xmlns="http://www.w3.org/2000/svg">
<path transform="translate(708,577)" d="m0 0h47l41 4 29 5 30 8 22 8 25 12 14 8 17 12 14 12 14 14 11 14 10 15 12 23 3 10-10 7-27 16-16 10-28 17-14 8-9 3-5-2-4-5-6-11-7-11-13-16-12-11-13-9-17-9-27-9-21-4-25-2h-19l-25 2-23 5-24 8-17 9-12 8-13 11-10 10-12 16-8 14-9 21-6 18-7 30-3 21-2 18-1 16v57l3 37 4 26 6 25 8 24 8 18 10 16 9 11 8 9 8 7 14 10 21 11 21 7 20 4 22 2h22l23-2 25-5 18-6 17-9 13-10 8-8 10-14 7-15 5-16 4-19 1-8 1-49-162-1v-108l1-1h295l1 5-1 372h-128l-1-5v-81l1-5-11-1-2 6-10 18-10 14-9 11-13 13-16 12-18 10-20 8-24 6-22 3-11 1h-42l-29-3-24-5-21-6-21-8-22-11-21-14-14-11-12-11-11-11-11-14-12-17-12-20-12-24-9-23-5-15-7-26-7-35-4-33-2-36v-56l2-33 4-30 6-28 8-30 10-26 10-22 14-24 11-16 11-14 9-10 11-12 10-9 15-12 21-14 18-10 21-10 25-9 30-8 32-5z" fill="#6C348A"/>
<path transform="translate(1329,614)" d="m0 0h21l25 1 29 4 24 5 26 8 26 11 19 10 15 10 13 10 13 12 17 17 9 11 11 15 11 19 8 16 10 23 6 19 7 28 5 25 3 26 1 18v60l-2 27-4 28-6 28-9 31-10 23-8 16-9 15-14 19-15 16-12 11-18 14-21 13-19 10-20 8-25 8-31 8-4 2 1 8 8 11 6 5v2l4 2 11 7 17 8 17 5 16 2 18 1 26-2 21-4h10l3 2 2 7 5 36 9 49-1 4-10 4-26 4-25 3h-40l-27-3-27-6-21-7-19-9-16-10-13-10-13-12-9-9-13-17-9-15-8-16-7-18-5-15-24-5-26-7-24-9-21-10-21-13-16-12-13-11-15-15-11-14-11-15-12-20-11-23-10-26-7-25-5-25-5-37-2-25v-46l3-33 4-28 5-25 8-28 10-25 8-17 13-22 10-14 10-13 15-16 7-7 11-9 16-12 21-12 23-11 20-7 25-7 26-5 17-2zm-5 106-17 2-23 5-20 8-16 9-14 11-13 13-13 19-9 17-8 22-6 25-5 30-1 9-1 21v39l2 31 5 32 5 21 7 20 8 17 10 16 12 14 11 10 14 10 17 9 20 7 20 4 19 2h24l24-3 24-6 18-8 14-8 14-11 12-12 11-15 7-12 8-19 8-27 5-27 3-26 1-24v-25l-1-25-3-25-6-31-7-24-9-20-8-14-9-12-9-10-11-10-14-9-16-8-17-6-19-4-18-2z" fill="#6240FA"/>
<path transform="translate(1304,615)" d="m0 0h10l7 1 4 5v1l10 2 8 1v4l2 1v3l7-1 6 1v-2l6 1 5-1 4 4v2l2-1h6l1 3-3 5-8 4h-8l-4 4-1 3-5 2h-3l-1 3-5 2-1 4-5 3h-7l-8 2-3 8 1 6-4 3 2 5 1 4-9 6-9 4-10 2-5 3-5 1v2l-7 1-1 5-4 2-6 1v2l8-1 1-1h7l3 2h-2v3l-19 8-14 8-14 11-12 12-13 19-9 17-8 22-6 25-5 30-1 9-1 21v39l2 31 5 32 5 21 7 20 8 17 10 16 12 14 10 9 14 10 17 9 20 7 20 4-4 1 1 3 5 1 3 3 5 1 1 2 7 2-2 5 3 2v4 2h-2v10l-4 6-4 2-4 4h-3l-2 5-5 7 1 6-3 1 1 5 7 1 3 9 5 10 4 12 4 1 5 10 2 10 2 4v4h4l2 7 6 4 2 1 1 3 2-1 1 6v2h3l2 3-1 7 3-1 2 4-1 3 6 12 5 2 4 8v3l-8 2-1 5h-4l-2 4 10 9v2l4 1 5 3v2l4 2 3 2-1 2 3-1 2 1v3l-6-2-16-9-14-10-14-12-13-13-13-17-9-15-8-16-7-18-5-15-24-5-26-7-24-9-21-10-21-13-16-12-13-11-15-15-11-14-11-15-12-20-11-23-10-26-7-25-5-25-5-37-2-25v-46l3-33 4-28 5-25 8-28 10-25 8-17 13-22 10-14 10-13 15-16 7-7 11-9 16-12 21-12 23-11 20-7 25-7 26-5z" fill="#8B46FA"/>
</svg>
