<svg width="1440" height="1080" viewBox="0 0 1440 1080" fill="none" xmlns="http://www.w3.org/2000/svg">
<path d="M1016.76 -69.2754L1016.96 -70.2564L1016.76 -69.2754C999.011 -72.7771 966.903 -76.0829 934.831 -78.223C902.758 -80.3631 870.824 -81.3304 853.419 -80.1759C672.482 -68.1782 493.758 0.779417 294.004 135.755C194.263 203.149 65.2194 315.303 -31.1764 418.388C-94.4876 486.089 -183.831 592.522 -219.603 642.849C-223.828 648.789 -235.846 665.429 -246.318 679.827C-304.427 759.73 -381.99 882.23 -430.935 971.409C-609.208 1296.22 -717.75 1623.25 -754.567 1946.44C-763.881 2028.19 -765.744 2060.53 -766.406 2151.94C-769.222 2540.84 -630.159 2838.34 -389.751 2958.85C-323.01 2992.31 -260.085 3009.57 -181.15 3016.04C-118.216 3021.2 -90.7601 3020.86 -36.4699 3014.25C144.214 2992.25 335.287 2906.98 532.208 2760.36C588.808 2718.22 615.414 2696.09 678.751 2638.45C818.041 2511.7 942.304 2366.09 1067.19 2183.28C1103.98 2129.44 1190.81 1984.35 1223.39 1922.3C1392.18 1600.8 1488.53 1296.97 1525.58 969.453C1535.34 883.174 1536.93 724.546 1528.84 645.173C1511.5 475.256 1474.02 343.763 1410.28 229.137C1321.64 69.7298 1181.02 -36.8796 1016.76 -69.2754Z" stroke="#4D4D4D" stroke-width="2"/>
<path fill-rule="evenodd" clip-rule="evenodd" d="M321.977 40.9066C320.528 41.8889 318.849 44.9312 318.167 47.8105C316.085 56.6047 318.2 71.517 323.837 87.7826C324.817 90.6127 325.574 92.9364 325.517 92.9469C325.461 92.9574 324.078 91.6931 322.445 90.1379C308.015 76.3984 293.143 67.6928 283.807 67.5228C278.545 67.4266 276.271 70.7363 278.248 75.6141C281.753 84.2684 295.212 95.0319 313.21 103.577C315.248 104.544 316.924 105.382 316.934 105.438C316.945 105.495 314.504 105.622 311.511 105.721C289.857 106.438 272.779 111.543 268.141 118.686C264.578 124.172 270.348 128.235 282.136 128.541C290.351 128.754 306.463 125.35 317.614 121.045C318.75 120.606 319.691 120.306 319.704 120.378C319.718 120.45 318.456 121.846 316.901 123.479C303.162 137.909 294.458 152.782 294.288 162.118C294.192 167.38 297.501 169.654 302.379 167.678C311.045 164.167 321.821 150.694 330.342 132.714C331.308 130.676 332.157 128.998 332.229 128.985C332.301 128.972 332.358 129.957 332.356 131.175C332.335 143.129 334.934 159.392 338.079 166.985C341.452 175.132 345.484 179.401 349.163 178.719C352.841 178.037 355.074 172.606 355.303 163.791C355.516 155.575 352.111 139.462 347.806 128.31C347.367 127.174 347.068 126.233 347.14 126.22C347.212 126.207 348.606 127.468 350.238 129.024C361.585 139.842 374.159 148.178 382.787 150.603C389.978 152.624 394.143 151.658 394.998 147.771C396.71 139.995 381.099 125.851 359.475 115.585C357.437 114.618 355.759 113.767 355.746 113.695C355.732 113.623 356.718 113.566 357.936 113.568C369.889 113.589 386.151 110.99 393.743 107.846C404.637 103.334 408.567 97.4724 403.275 93.628C396.384 88.6231 378.611 89.9806 358.139 97.0751C355.309 98.0556 352.986 98.8117 352.975 98.7554C352.965 98.6987 354.229 97.316 355.784 95.6826C369.523 81.2527 378.228 66.3795 378.397 57.0437C378.493 51.7816 375.184 49.5073 370.306 51.4836C361.653 54.9892 350.89 68.4483 342.346 86.4477C341.379 88.4851 340.541 90.1611 340.484 90.1716C340.428 90.182 340.301 87.7417 340.201 84.7481C339.623 67.2697 336.191 52.5634 330.963 45.1632C328.064 41.0591 324.35 39.2998 321.977 40.9066Z" fill="#311D4A"/>
<path fill-rule="evenodd" clip-rule="evenodd" d="M170.559 175.023C169.583 175.684 168.452 177.733 167.993 179.671C166.591 185.592 168.015 195.632 171.811 206.584C172.471 208.489 172.98 210.054 172.942 210.061C172.904 210.068 171.973 209.216 170.873 208.169C161.158 198.919 151.145 193.058 144.859 192.943C141.317 192.878 139.786 195.107 141.116 198.391C143.476 204.218 152.538 211.464 164.656 217.218C166.028 217.869 167.156 218.433 167.163 218.471C167.17 218.509 165.527 218.594 163.512 218.661C148.933 219.144 137.434 222.581 134.311 227.39C131.913 231.084 135.798 233.819 143.734 234.025C149.265 234.169 160.113 231.877 167.621 228.978C168.386 228.683 169.019 228.481 169.028 228.53C169.037 228.578 168.188 229.518 167.141 230.617C157.891 240.333 152.03 250.346 151.916 256.632C151.851 260.175 154.079 261.706 157.363 260.376C163.198 258.012 170.453 248.94 176.19 236.835C176.84 235.463 177.412 234.333 177.46 234.324C177.509 234.315 177.548 234.979 177.546 235.799C177.532 243.847 179.282 254.796 181.399 259.908C183.671 265.394 186.385 268.268 188.862 267.809C191.338 267.35 192.842 263.693 192.996 257.758C193.139 252.227 190.847 241.378 187.948 233.87C187.653 233.105 187.451 232.472 187.5 232.463C187.548 232.454 188.487 233.303 189.586 234.351C197.225 241.634 205.691 247.246 211.5 248.879C216.342 250.24 219.146 249.59 219.722 246.973C220.875 241.737 210.364 232.214 195.805 225.302C194.433 224.651 193.303 224.079 193.294 224.03C193.285 223.982 193.948 223.943 194.768 223.944C202.816 223.958 213.765 222.209 218.877 220.092C226.212 217.054 228.858 213.107 225.294 210.519C220.655 207.149 208.688 208.063 194.906 212.84C193 213.5 191.436 214.009 191.429 213.971C191.422 213.933 192.273 213.002 193.32 211.902C202.57 202.187 208.431 192.173 208.545 185.888C208.609 182.345 206.381 180.814 203.097 182.144C197.271 184.504 190.025 193.566 184.272 205.685C183.621 207.057 183.057 208.185 183.019 208.192C182.981 208.199 182.895 206.556 182.828 204.541C182.439 192.773 180.128 182.871 176.609 177.889C174.657 175.126 172.156 173.941 170.559 175.023Z" fill="#311D4A"/>
<path fill-rule="evenodd" clip-rule="evenodd" d="M15.5904 327.595C14.8788 328.077 14.0543 329.571 13.7195 330.985C12.6973 335.303 13.7357 342.624 16.5034 350.611C16.9848 352 17.3561 353.141 17.3284 353.146C17.3005 353.151 16.6217 352.531 15.8198 351.767C8.73511 345.021 1.43287 340.747 -3.15064 340.663C-5.73411 340.616 -6.85068 342.241 -5.88035 344.636C-4.15916 348.885 2.44886 354.17 11.2859 358.365C12.2862 358.84 13.109 359.251 13.1142 359.279C13.1193 359.307 11.9212 359.369 10.4515 359.418C-0.1802 359.77 -8.5655 362.277 -10.8428 365.783C-12.5919 368.477 -9.75871 370.472 -3.97123 370.622C0.0622781 370.727 7.97322 369.055 13.4482 366.942C14.0059 366.726 14.4678 366.579 14.4744 366.615C14.4809 366.65 13.8616 367.335 13.0979 368.137C6.35248 375.222 2.07848 382.524 1.99515 387.108C1.94798 389.692 3.57292 390.808 5.96771 389.838C10.2228 388.114 15.5135 381.499 19.6973 372.671C20.1714 371.671 20.5882 370.847 20.6236 370.84C20.659 370.834 20.6871 371.318 20.6861 371.916C20.676 377.785 21.952 385.77 23.4958 389.498C25.1523 393.498 27.1318 395.594 28.9379 395.259C30.744 394.924 31.8404 392.258 31.9526 387.929C32.0572 383.896 30.3856 375.984 28.2719 370.509C28.0565 369.951 27.9094 369.489 27.9448 369.483C27.9801 369.476 28.6645 370.096 29.4658 370.86C35.037 376.171 41.2105 380.264 45.4468 381.454C48.9775 382.447 51.0224 381.973 51.4426 380.064C52.2832 376.246 44.6183 369.302 34.001 364.261C33.0005 363.786 32.1767 363.369 32.1701 363.333C32.1636 363.298 32.6473 363.27 33.2453 363.271C39.1142 363.281 47.0985 362.005 50.8263 360.461C56.1752 358.246 58.1048 355.368 55.5062 353.481C52.123 351.023 43.3965 351.69 33.3454 355.173C31.9559 355.654 30.8151 356.026 30.81 355.998C30.8048 355.97 31.4253 355.291 32.189 354.489C38.9344 347.404 43.2084 340.102 43.2917 335.518C43.3389 332.935 41.714 331.818 39.3192 332.788C35.0703 334.509 29.786 341.118 25.5909 349.955C25.1161 350.955 24.7049 351.778 24.677 351.783C24.6494 351.789 24.5869 350.59 24.5381 349.121C24.254 340.539 22.5689 333.318 20.0023 329.685C18.5789 327.67 16.7551 326.806 15.5904 327.595Z" fill="#311D4A"/>
</svg>
