<svg width="1440" height="1080" viewBox="0 0 1440 1080" fill="none" xmlns="http://www.w3.org/2000/svg">
<path d="M1004.76 -3.27537L1004.96 -4.25635L1004.76 -3.27538C987.011 -6.7771 954.903 -10.0829 922.831 -12.223C890.758 -14.3631 858.824 -15.3304 841.419 -14.1759C660.482 -2.17817 481.758 66.7794 282.004 201.755C182.263 269.149 53.2194 381.303 -43.1764 484.388C-106.488 552.089 -195.831 658.522 -231.603 708.849C-235.828 714.789 -247.846 731.429 -258.318 745.827C-316.427 825.73 -393.99 948.23 -442.935 1037.41C-621.208 1362.22 -729.75 1689.25 -766.567 2012.44C-775.881 2094.19 -777.744 2126.53 -778.406 2217.94C-781.222 2606.84 -642.159 2904.34 -401.751 3024.85C-335.01 3058.31 -272.085 3075.57 -193.15 3082.04C-130.216 3087.2 -102.76 3086.86 -48.4699 3080.25C132.214 3058.25 323.287 2972.98 520.208 2826.36C576.808 2784.22 603.414 2762.09 666.751 2704.45C806.041 2577.7 930.304 2432.09 1055.19 2249.28C1091.98 2195.44 1178.81 2050.35 1211.39 1988.3C1380.18 1666.8 1476.53 1362.97 1513.58 1035.45C1523.34 949.174 1524.93 790.546 1516.84 711.173C1499.5 541.256 1462.02 409.763 1398.28 295.137C1309.64 135.73 1169.02 29.1204 1004.76 -3.27537Z" stroke="#4D4D4D" stroke-width="2"/>
<path fill-rule="evenodd" clip-rule="evenodd" d="M309.977 106.907C308.528 107.889 306.849 110.931 306.167 113.81C304.085 122.605 306.2 137.517 311.837 153.783C312.817 156.613 313.574 158.936 313.517 158.947C313.461 158.957 312.078 157.693 310.445 156.138C296.015 142.398 281.143 133.693 271.807 133.523C266.545 133.427 264.271 136.736 266.248 141.614C269.753 150.268 283.212 161.032 301.21 169.577C303.248 170.544 304.924 171.382 304.934 171.438C304.945 171.495 302.504 171.622 299.511 171.721C277.857 172.438 260.779 177.543 256.141 184.686C252.578 190.172 258.348 194.235 270.136 194.541C278.351 194.754 294.463 191.35 305.614 187.045C306.75 186.606 307.691 186.306 307.704 186.378C307.718 186.45 306.456 187.846 304.901 189.479C291.162 203.909 282.458 218.782 282.288 228.118C282.192 233.38 285.501 235.654 290.379 233.678C299.045 230.167 309.821 216.694 318.342 198.714C319.308 196.676 320.157 194.998 320.229 194.985C320.301 194.972 320.358 195.957 320.356 197.175C320.335 209.129 322.934 225.392 326.079 232.985C329.452 241.132 333.484 245.401 337.163 244.719C340.841 244.037 343.074 238.606 343.303 229.791C343.516 221.575 340.111 205.462 335.806 194.31C335.367 193.174 335.068 192.233 335.14 192.22C335.212 192.207 336.606 193.468 338.238 195.024C349.585 205.842 362.159 214.178 370.787 216.603C377.978 218.624 382.143 217.658 382.998 213.771C384.71 205.995 369.099 191.851 347.475 181.585C345.437 180.618 343.759 179.767 343.746 179.695C343.732 179.623 344.718 179.566 345.936 179.568C357.889 179.589 374.151 176.99 381.743 173.846C392.637 169.334 396.567 163.472 391.275 159.628C384.384 154.623 366.611 155.981 346.139 163.075C343.309 164.056 340.986 164.812 340.975 164.755C340.965 164.699 342.229 163.316 343.784 161.683C357.523 147.253 366.228 132.379 366.397 123.044C366.493 117.782 363.184 115.507 358.306 117.484C349.653 120.989 338.89 134.448 330.346 152.448C329.379 154.485 328.541 156.161 328.484 156.172C328.428 156.182 328.301 153.742 328.201 150.748C327.623 133.27 324.191 118.563 318.963 111.163C316.064 107.059 312.35 105.3 309.977 106.907Z" fill="#FDFDFD" fill-opacity="0.9"/>
<path fill-rule="evenodd" clip-rule="evenodd" d="M152.559 250.023C151.583 250.684 150.452 252.733 149.993 254.671C148.591 260.592 150.015 270.632 153.811 281.584C154.471 283.489 154.98 285.054 154.942 285.061C154.904 285.068 153.973 284.216 152.873 283.169C143.158 273.919 133.145 268.058 126.859 267.943C123.317 267.878 121.786 270.107 123.116 273.391C125.476 279.218 134.538 286.464 146.656 292.218C148.028 292.869 149.156 293.433 149.163 293.471C149.17 293.509 147.527 293.594 145.512 293.661C130.933 294.144 119.434 297.581 116.311 302.39C113.913 306.084 117.798 308.819 125.734 309.025C131.265 309.169 142.113 306.877 149.621 303.978C150.386 303.683 151.019 303.481 151.028 303.53C151.037 303.578 150.188 304.518 149.141 305.617C139.891 315.333 134.03 325.346 133.916 331.632C133.851 335.175 136.079 336.706 139.363 335.376C145.198 333.012 152.453 323.94 158.19 311.835C158.84 310.463 159.412 309.333 159.46 309.324C159.509 309.315 159.548 309.979 159.546 310.799C159.532 318.847 161.282 329.796 163.399 334.908C165.671 340.394 168.385 343.268 170.862 342.809C173.338 342.35 174.842 338.693 174.996 332.758C175.139 327.227 172.847 316.378 169.948 308.87C169.653 308.105 169.451 307.472 169.5 307.463C169.548 307.454 170.487 308.303 171.586 309.351C179.225 316.634 187.691 322.246 193.5 323.879C198.342 325.24 201.146 324.59 201.722 321.973C202.875 316.737 192.364 307.214 177.805 300.302C176.433 299.651 175.303 299.079 175.294 299.03C175.285 298.982 175.948 298.943 176.768 298.944C184.816 298.958 195.765 297.209 200.877 295.092C208.212 292.054 210.858 288.107 207.294 285.519C202.655 282.149 190.688 283.063 176.906 287.84C175 288.5 173.436 289.009 173.429 288.971C173.422 288.933 174.273 288.002 175.32 286.902C184.57 277.187 190.431 267.173 190.545 260.888C190.609 257.345 188.381 255.814 185.097 257.144C179.271 259.504 172.025 268.566 166.272 280.685C165.621 282.057 165.057 283.185 165.019 283.192C164.981 283.199 164.895 281.556 164.828 279.541C164.439 267.773 162.128 257.871 158.609 252.889C156.657 250.126 154.156 248.941 152.559 250.023Z" fill="#FDFDFD" fill-opacity="0.8"/>
<path fill-rule="evenodd" clip-rule="evenodd" d="M3.59039 393.595C2.87877 394.077 2.0543 395.571 1.71949 396.985C0.697265 401.303 1.73573 408.624 4.50337 416.611C4.9848 418 5.35606 419.141 5.32841 419.146C5.30054 419.151 4.62167 418.531 3.81975 417.767C-3.26489 411.021 -10.5671 406.747 -15.1506 406.663C-17.7341 406.616 -18.8507 408.241 -17.8803 410.636C-16.1592 414.885 -9.55114 420.17 -0.714084 424.365C0.286207 424.84 1.10904 425.251 1.11421 425.279C1.11934 425.307 -0.0787613 425.369 -1.54847 425.418C-12.1802 425.77 -20.5655 428.277 -22.8428 431.783C-24.5919 434.477 -21.7587 436.472 -15.9712 436.622C-11.9377 436.727 -4.02678 435.055 1.44822 432.942C2.00593 432.726 2.46781 432.579 2.47437 432.615C2.48094 432.65 1.86161 433.335 1.09786 434.137C-5.64752 441.222 -9.92152 448.524 -10.0048 453.108C-10.052 455.692 -8.42708 456.808 -6.03229 455.838C-1.77724 454.114 3.51352 447.499 7.6973 438.671C8.17143 437.671 8.58819 436.847 8.62358 436.84C8.65897 436.834 8.68712 437.318 8.68614 437.916C8.67596 443.785 9.952 451.77 11.4958 455.498C13.1523 459.498 15.1318 461.594 16.9379 461.259C18.744 460.924 19.8404 458.258 19.9526 453.929C20.0572 449.896 18.3856 441.984 16.2719 436.509C16.0565 435.951 15.9094 435.489 15.9448 435.483C15.9801 435.476 16.6645 436.096 17.4658 436.86C23.037 442.171 29.2105 446.264 33.4468 447.454C36.9775 448.447 39.0224 447.973 39.4426 446.064C40.2832 442.246 32.6183 435.302 22.001 430.261C21.0005 429.786 20.1767 429.369 20.1701 429.333C20.1636 429.298 20.6473 429.27 21.2453 429.271C27.1142 429.281 35.0985 428.005 38.8263 426.461C44.1752 424.246 46.1048 421.368 43.5062 419.481C40.123 417.023 31.3965 417.69 21.3454 421.173C19.9559 421.654 18.8151 422.026 18.81 421.998C18.8048 421.97 19.4253 421.291 20.189 420.489C26.9344 413.404 31.2084 406.102 31.2917 401.518C31.3389 398.935 29.714 397.818 27.3192 398.788C23.0703 400.509 17.786 407.118 13.5909 415.955C13.1161 416.955 12.7049 417.778 12.677 417.783C12.6494 417.789 12.5869 416.59 12.5381 415.121C12.254 406.539 10.5689 399.318 8.00232 395.685C6.57893 393.67 4.75513 392.806 3.59039 393.595Z" fill="#FDFDFD" fill-opacity="0.7"/>
</svg>
