<svg width="621" height="616" viewBox="0 0 621 616" fill="none" xmlns="http://www.w3.org/2000/svg">
<rect width="621" height="616" fill="#1E1E1E"/>
<rect width="1728" height="1117" transform="translate(-938 -240)" fill="#311D4A"/>
<path d="M303.66 596.292C464.261 596.292 594.453 466.09 594.453 305.477C594.453 144.865 464.261 14.6626 303.66 14.6626C143.06 14.6626 12.8672 144.865 12.8672 305.477C12.8672 466.09 143.06 596.292 303.66 596.292Z" fill="#EBDFD7"/>
<path d="M50.7206 243.632L49.2031 243.37C49.2802 242.923 57.276 198.342 88.1886 164.153L89.3287 165.185C58.7165 199.043 50.7976 243.193 50.7206 243.632Z" fill="white"/>
<path d="M92.857 135.896L91.5859 135.033C91.8324 134.671 116.575 98.7793 156.269 81.2688L156.893 82.6786C117.615 100.004 93.1035 135.541 92.857 135.896Z" fill="white"/>
<path d="M577.476 300.2H575.935C575.935 244.911 550.846 194.798 550.592 194.298L551.963 193.604C552.217 194.105 577.476 244.533 577.476 300.2Z" fill="white"/>
<path d="M547.48 271.373C546.294 249.348 539.122 230.813 539.053 230.628L540.486 230.066C540.555 230.251 547.811 249.009 549.021 271.288L547.48 271.373Z" fill="white"/>
<path d="M2.39069 233.155L0.880859 232.831C0.973297 232.385 10.7024 188.034 44.7964 143.214L46.0212 144.146C12.1352 188.697 2.48313 232.716 2.39069 233.155Z" fill="#B7B7B7"/>
<path d="M50.5497 109.21L49.3711 108.224C49.4635 108.116 58.4993 97.3464 70.0232 86.4688L71.0785 87.5858C59.6162 98.4018 50.6344 109.102 50.5497 109.21Z" fill="#B7B7B7"/>
<path d="M88.6494 87.532L87.4785 86.5305C87.6095 86.3764 100.813 71.1231 126.01 53.9284C149.25 38.0665 187.75 17.2511 239.215 8.12219L239.484 9.63982C188.289 18.7225 149.989 39.43 126.88 55.1995C101.845 72.2786 88.7726 87.3779 88.6494 87.532Z" fill="#B7B7B7"/>
<path d="M593.714 206.362C580.75 153.514 539.615 107.893 539.199 107.438L540.339 106.398C540.755 106.853 582.152 152.775 595.209 205.992L593.714 206.362Z" fill="#B7B7B7"/>
<path d="M605.136 283.298C603.603 264.078 599.937 247.253 597.133 236.522L598.627 236.129C601.447 246.922 605.136 263.839 606.677 283.175L605.136 283.298Z" fill="#B7B7B7"/>
<path d="M613.494 355.944L611.992 355.598C613.317 349.866 614.473 343.649 615.428 337.124L616.953 337.348C615.99 343.911 614.819 350.167 613.494 355.944Z" fill="#B7B7B7"/>
<path d="M619.803 308.513L618.263 308.428C619.472 286.241 618.401 264.848 615.59 255.195L617.069 254.764C619.927 264.571 621.021 286.172 619.803 308.513Z" fill="#B7B7B7"/>
<path d="M595.561 378.701L594.098 378.231C596.801 369.819 599.097 358.109 600.923 343.449L602.448 343.642C600.615 358.394 598.296 370.188 595.561 378.701Z" fill="#B7B7B7"/>
<path d="M603.836 330.769L602.303 330.63C602.865 324.529 603.112 320.477 603.112 320.43L604.652 320.523C604.645 320.561 604.398 324.652 603.836 330.769Z" fill="#B7B7B7"/>
<path d="M447.848 40.4469C407.476 14.7474 339.858 5.91891 339.18 5.83417L339.372 4.30884C339.542 4.33195 356.666 6.53521 378.581 11.9047C398.825 16.8659 427.411 25.6173 448.68 39.1527L447.848 40.4469Z" fill="#B7B7B7"/>
<path d="M414.169 12.7829C403.338 8.0066 378.172 2.32897 377.918 2.27505L378.257 0.772827C378.511 0.826753 403.824 6.5352 414.793 11.3808L414.169 12.7829Z" fill="#B7B7B7"/>
<path d="M86.4321 527.791C83.166 525.21 79.9385 522.506 76.8418 519.764L77.8663 518.608C80.9475 521.335 84.152 524.024 87.395 526.581L86.4321 527.791Z" fill="#B7B7B7"/>
<path d="M60.4023 503.601C16.2557 455.453 7.79762 402.914 7.71289 402.39L9.23814 402.159C9.31517 402.683 17.7193 454.775 61.5347 502.561L60.4023 503.601Z" fill="#B7B7B7"/>
<path d="M72.5051 499.618C56.6983 486.584 41.9237 456.84 41.7773 456.539L43.1562 455.861C43.3025 456.154 57.9385 485.605 73.4834 498.432L72.5051 499.618Z" fill="#B7B7B7"/>
<path d="M225.612 598.534C203.142 594.235 180.941 586.593 159.627 575.816L160.32 574.437C181.512 585.145 203.573 592.741 225.905 597.016L225.612 598.534Z" fill="#B7B7B7"/>
<path d="M132.405 559.938C121.359 552.543 115.173 547.058 115.111 547.004L116.136 545.856C116.197 545.91 122.314 551.333 133.26 558.66L132.405 559.938Z" fill="#B7B7B7"/>
<path d="M317.61 614.72L317.533 613.179C323.234 612.901 328.811 612.47 334.103 611.9L334.272 613.433C328.949 614.011 323.341 614.442 317.61 614.72Z" fill="#B7B7B7"/>
<path d="M297.359 615.074C262.094 614.689 232.545 609.404 232.244 609.35L232.521 607.832C232.814 607.886 262.248 613.156 297.374 613.533L297.359 615.074Z" fill="#B7B7B7"/>
<path d="M128.815 514.001C80.2238 479.928 62.3217 425.879 62.1445 425.339L63.6081 424.862C63.7853 425.401 81.541 478.973 129.701 512.738L128.815 514.001Z" fill="white"/>
<path d="M235.055 572.958C196.917 566.255 158.733 540.725 158.355 540.463L159.218 539.185C159.596 539.439 197.518 564.792 235.325 571.432L235.055 572.958Z" fill="white"/>
<path d="M172.313 526.651C162.16 523.469 149.905 512.106 149.389 511.628L150.436 510.504C150.56 510.619 162.954 522.105 172.768 525.187L172.313 526.651Z" fill="white"/>
<path d="M354.788 56.3551C347.046 61.0697 313.376 80.7758 289.072 99.3109C285.205 102.261 282.324 106.306 280.807 110.928C277.656 120.55 274.829 131.235 274.028 134.332C273.843 135.048 273.936 135.811 274.305 136.45C276.578 140.456 289.034 154.246 356.898 178.251L372.828 143.792C372.828 143.792 362.768 79.6742 359.679 58.2579C359.363 56.1086 356.891 55.0763 354.788 56.3551Z" fill="white"/>
<path d="M508.063 441.725L424.523 451.54C410.973 453.134 399.126 461.431 393.002 473.626L355.611 548.76C354.016 551.934 350.473 553.621 347.006 552.859L333.719 549.931C324.398 547.874 315.085 553.406 312.427 562.573L310.347 569.761C309.192 573.743 311.01 577.981 314.692 579.891L376.032 611.684C380.099 613.787 385.098 612.378 387.463 608.456L449.111 508.054L534.316 502.685L508.063 441.725Z" fill="#311D4A"/>
<path d="M460.781 377.569L466.874 362.285L517.276 364.989L498.966 434.191L460.781 377.569Z" fill="#311D4A"/>
<path d="M454.42 340.63C454.42 340.63 459.958 326.293 459.874 318.505C459.766 308.143 460.89 287.058 454.289 288.052C450.268 288.653 449.066 298.406 448.573 302.596C448.381 304.253 447.741 305.84 446.632 307.088C445.053 308.867 442.811 309.553 441.633 301.487C439.715 288.344 440.131 263.053 432.497 267.683C428.63 270.033 430.702 292.998 428.514 291.981C426.326 290.964 426.596 256.282 417.291 260.064C414.217 261.312 414.91 277.883 415.542 287.15C415.581 287.667 414.826 287.774 414.71 287.266C413.455 281.665 411.529 273.507 409.988 268.723C408.332 263.569 404.48 266.266 404.48 270.025C404.48 278.114 405.852 295.147 405.852 295.147L454.42 340.63Z" fill="#311D4A"/>
<path d="M583.792 386.644L597.658 410.525L565.305 514.525C562.27 525.072 550.207 531.651 539.376 529.848L497.733 525.226C492.387 524.332 490.469 527.075 492.341 532.159L510.312 614.627C513.363 622.924 508.633 632.045 500.09 634.333L438.126 650.896C432.126 652.499 426.133 648.308 425.586 642.122L422.019 620.836C421.873 619.211 421.411 612.686 425.1 610.051C430.493 606.199 438.966 600.807 438.966 600.807C441.824 599.274 442.117 594.69 441.277 591.562L417.736 500.012C413.892 485.69 422.805 474.589 437.433 472.155C455.921 469.073 486.733 462.14 486.733 462.14L499.929 376.051C501.662 369.218 507.971 364.542 515.019 364.881L535.263 365.844L583.792 386.644Z" fill="#FFF3A1"/>
<path d="M575.839 364.011C580.048 346.186 569.01 328.323 551.186 324.114C533.362 319.905 515.501 330.944 511.292 348.769C507.084 366.594 518.121 384.457 535.945 388.666C553.769 392.875 571.63 381.837 575.839 364.011Z" fill="#FFF3A1"/>
<path d="M242.413 355.937L352.614 256.235C358.306 251.082 366.633 251.49 373.374 255.165C387 262.599 410.372 275.888 431.216 298.475C448.718 317.441 477.797 347.555 481.233 373.047C481.626 375.966 480.609 378.894 478.567 381.012C444.966 415.825 376.616 479.943 368.975 486.461C350.888 501.891 303.984 467.055 277.262 435.994C266.1 423.028 228.447 369.11 242.413 355.937Z" fill="white"/>
<path d="M601.432 392.745C591.202 382.676 573.716 383.277 562.932 392.522L524.701 427.342C522.606 429.083 519.502 428.814 517.738 426.741L490.654 395.079C486.294 389.972 483.659 383.624 483.12 376.937L482.142 364.865C482.072 364.049 481.88 363.247 481.556 362.493L476.618 349.781C475.941 348.033 473.583 347.817 472.559 349.389C471.172 351.522 470.417 354.735 470.417 357.924C470.417 364.087 471.866 370.743 469.555 370.743C466.473 370.743 462.814 364.688 461.251 359.003C459.456 352.462 458.562 347.247 455.396 344.35C453.964 343.041 451.414 343.904 451.021 346.084C450.104 351.106 451.16 360.567 451.244 365.936C451.267 367.477 449.889 367.446 449.465 365.574C448.163 359.773 444.612 342.047 444.612 342.047C444.05 339.713 440.83 339.443 439.898 341.662C437.232 348.033 438.226 361.892 438.711 367.045C438.758 367.5 438.141 367.685 437.933 367.284C436.647 364.881 434.375 360.151 432.749 354.126C432.387 352.786 430.554 352.493 429.876 353.703C427.835 357.377 428.875 366.152 429.421 369.757C429.475 370.096 429.013 370.25 428.844 369.957C427.958 368.401 427.28 366.93 426.594 365.173C425.709 362.901 423.806 364.203 423.644 365.643C423.105 370.504 422.828 377.453 424.892 386.359C425.639 389.571 428.343 399.208 440.46 413.699L505.166 485.344C516.721 499.981 531.526 496.121 539.83 489.966C560.629 474.558 599.021 436.602 599.021 436.602C613.626 424.276 610.568 401.735 601.432 392.745Z" fill="#FFF3A1"/>
<path d="M312.073 415.386C273.403 374.048 253.244 362.131 243.4 361.029C241.22 360.782 239.332 362.485 239.348 364.68C239.463 384.818 267.826 425.039 277.255 436.009C298.777 461.038 333.418 488.518 355.526 490.174C357.221 490.297 358.592 488.826 358.4 487.146C357.059 475.329 347.723 453.497 312.073 415.386Z" fill="#311D4A"/>
<path d="M274.635 137.013C277.693 144.378 312.835 167.034 356.881 178.258L358.191 175.431C341.097 160.447 311.548 145.41 289.61 139.748C281.568 137.675 277.184 136.712 274.635 137.013Z" fill="#311D4A"/>
<path d="M358.985 71.2001C354.949 67.8336 350.15 65.5995 344.734 64.5595L345.027 63.0496C350.704 64.1435 355.727 66.4854 359.971 70.0137L358.985 71.2001Z" fill="black"/>
<path d="M417.883 326.732L401.576 313.073C399.018 310.932 395.698 309.938 392.386 310.338C379.175 311.925 344.634 316.571 333.056 322.934C328.766 325.291 319.476 335.583 319.476 335.583C316.109 339.073 316.094 344.597 319.445 348.11L340.644 371.537C342.115 373.162 344.596 373.347 346.29 371.96L363.237 358.078C365.071 356.576 365.255 353.834 363.638 352.092L360.225 348.441C358.862 347.162 359.494 344.874 361.327 344.481L416.435 332.648C419.177 332.04 420.048 328.542 417.883 326.732ZM392.486 350.621C389.836 348.741 386.539 348.58 384.043 350.644L332.848 392.93C329.767 395.472 329.575 401.658 332.186 404.686C334.212 407.035 338.294 411.719 340.274 414.123C343.933 418.568 349.942 418.706 352.892 416.018L366.711 403.422C367.967 402.282 369.908 402.359 371.064 403.599L373.991 406.743C376.063 408.915 379.483 409.023 381.686 406.989L396.946 392.891C399.835 390.218 399.858 385.658 396.985 382.961L395.575 381.636C394.258 380.404 394.273 378.3 395.606 377.091L402.631 370.689C405.25 368.301 406.182 362.947 402.877 359.827C402.885 359.827 395.914 353.063 392.486 350.621Z" fill="#311D4A"/>
<path d="M280.883 141.134C290.597 148.784 315.986 162.697 347.346 172.873L348.378 170.709C335.421 159.7 305.911 146.026 281.515 139.848C280.752 139.655 280.259 140.649 280.883 141.134Z" fill="black"/>
<path d="M245.942 369.033C250.348 363.456 289.28 399.778 302.475 413.237C325.061 436.263 357.861 480.829 349.957 482.909C345.035 484.203 314.585 467.147 282.44 430.809C257.982 403.153 243.223 372.477 245.942 369.033Z" fill="black"/>
<path d="M506.053 47.6344L504.912 40.7165C503.965 34.9618 498.272 32.1423 492.772 34.099C485.562 36.6567 476.211 39.6919 471.142 43.6362C469.131 45.2001 468.038 47.6653 468.246 50.1998C470.102 72.7177 472.228 90.2667 473.237 98.0167C473.592 100.767 472.683 103.533 470.757 105.528L448.264 128.924L471.073 140.587L513.771 100.798L506.053 47.6344Z" fill="#190335"/>
<path d="M356.889 178.258L373.204 142.968C376.031 136.859 381.993 132.814 388.71 132.437L422.519 130.565C430.839 130.103 438.935 127.699 446.16 123.547C452.076 120.149 459.356 120.18 465.241 123.639C469.108 125.912 473.992 125.488 477.412 122.584L489.621 112.215C491.023 111.021 491.778 109.241 491.663 107.408C491.015 97.593 488.959 65.4531 488.697 49.7838C488.658 47.6036 489.883 45.593 491.84 44.6377C499.966 40.6703 512.692 38.7367 522.444 40.4007C524.855 40.809 526.743 42.7888 526.897 45.2309C527.551 55.9236 520.249 67.3791 520.249 67.3791L526.681 115.735C528.098 126.397 523.546 136.974 514.834 143.276L474.215 172.642C471.134 174.869 467.929 176.933 464.617 178.805C456.752 183.266 448.34 186.686 439.597 188.974L408.469 197.117L356.889 178.258Z" fill="#FFF3A1"/>
<path d="M370.886 146.55L389.797 143.684L404.495 159.3L376.009 186.409L360.941 169.384L370.886 146.55Z" fill="#311D4A"/>
<path d="M417.15 137.711C420.852 123.55 412.374 109.071 398.214 105.369C384.055 101.668 369.577 110.146 365.875 124.307C362.174 138.467 370.652 152.947 384.811 156.648C398.971 160.35 413.449 151.871 417.15 137.711Z" fill="#FFF3A1"/>
<path d="M323.667 121.29L328.681 113.547C329.529 112.238 329.013 110.481 327.588 109.842L325.492 108.902C324.229 108.332 324.067 106.606 325.207 105.813L347.6 90.2898C348.733 89.504 348.479 87.763 347.169 87.3239L336.916 83.942C335.699 83.5414 334.374 83.7186 333.303 84.4273L311.257 99.0258C309.901 99.9194 308.807 101.152 308.068 102.593L304.971 108.632C303.408 111.683 304.748 115.419 307.891 116.775L320.516 122.237C321.664 122.738 322.997 122.33 323.667 121.29ZM350.142 117.869L349.002 117.16C347.986 116.529 347.6 115.242 348.093 114.156L349.603 110.843C350.489 108.902 349.734 106.606 347.87 105.566L342.809 102.747C340.822 101.645 338.318 102.362 337.232 104.357L321.941 132.229C320.924 134.085 321.487 136.412 323.243 137.598L328.658 141.242C330.653 142.583 333.373 141.92 334.536 139.817L338.919 131.828C339.574 130.642 341.083 130.241 342.239 130.942L342.84 131.312C344.157 132.121 345.883 131.628 346.576 130.249L351.098 121.313C351.729 120.088 351.306 118.593 350.142 117.869Z" fill="#311D4A"/>
<path d="M436.81 144.293C429.4 137.675 418.1 138.068 411.159 145.171L390.53 166.295C388.92 167.943 386.548 168.598 384.321 168.013L353.655 159.962C351.537 159.408 349.619 158.267 348.117 156.673L339.312 147.336C338.58 146.558 337.263 146.696 336.793 147.652C336.308 148.63 336.007 150.232 336.508 152.829C337.617 158.606 334.266 158.591 330.862 155.864C329.105 154.462 326.386 152.274 324.168 150.479C322.481 149.115 319.993 150.333 319.985 152.497C319.969 155.132 320.347 158.152 321.864 159.839C318.768 169.13 323.967 180.161 332.202 184.614C341.708 189.752 392.941 205.584 392.941 205.584C397.917 207.055 403.302 205.676 406.961 202.001L437.596 171.233C445.114 163.698 444.752 151.388 436.81 144.293Z" fill="#FFF3A1"/>
<path d="M375.493 113.447C372.212 115.828 369.654 119.256 368.137 123.339C364.716 132.545 367.944 142.436 375.154 148.345C379.037 151.527 384.96 152.282 390.845 148.646C394.674 146.28 397.57 142.475 399.25 137.96C402.192 130.049 400.205 121.844 394.951 115.966C390.637 111.152 380.962 109.472 375.493 113.447Z" fill="black"/>
<path d="M183.661 411.85C180.719 400.634 177.445 386.182 175.719 381.274C175.65 381.082 175.411 380.55 175.234 380.435C173.686 379.402 164.596 375.05 154.074 376.806C150.815 377.353 139.63 376.313 135.155 379.71C133.768 380.758 133.244 382.53 133.121 384.263C132.49 393.608 130.934 422.481 131.195 432.227C131.242 433.975 132.443 435.547 134.161 435.894C153.119 439.753 175.165 437.974 184.986 430.555C186.072 429.731 186.681 428.429 186.558 427.065C186.311 424.454 185.633 419.361 183.661 411.85Z" fill="white"/>
<path d="M75.3395 337.024L44.0186 327.233C42.3932 326.724 41.3764 325.106 41.6152 323.419L46.4528 289.577C46.7917 287.189 45.1356 284.978 42.7476 284.631L23.1816 281.642C22.265 281.511 20.293 282.197 20.293 284.831C20.293 286.118 20.6473 286.834 21.3021 287.62L24.8378 291.88C25.5003 292.674 25.7853 293.722 25.6159 294.738L21.4331 320.623L35.7531 351.122L70.5481 354.843L75.3395 337.024Z" fill="#311D4A"/>
<path d="M13.4611 293.359L40.684 336.184C41.4158 337.34 42.5866 338.156 43.9193 338.457L50.0202 339.813C52.0461 340.26 54.1644 339.905 55.9285 338.827L58.2856 337.386C62.9614 334.52 68.654 333.85 73.869 335.553L111.214 347.732L100.298 381.775L63.4775 372.792C60.2807 372.014 57.1378 371.059 54.0489 369.927C49.4578 368.247 42.7407 365.682 38.6503 363.671C28.1048 358.487 24.646 354.45 22.9282 351.23C17.4667 340.991 3.97089 317.788 2.2685 315.045C0.0577049 311.486 -4.80299 311.178 -7.38354 310.508C-8.97808 310.092 -10.149 309.391 -10.796 307.873L-11.1272 307.103C-11.5201 306.186 -11.212 305.123 -10.3954 304.553L7.4912 292.057C9.4786 290.671 12.2286 291.264 13.4611 293.359Z" fill="#FFF3A1"/>
<path d="M127.869 371.036L160.823 371.013C163.511 370.998 166.284 371.799 167.702 373.424C168.549 374.395 170.059 376.49 170.86 377.499C171.415 378.208 171.214 379.125 170.413 378.932L166.415 377.499L167.124 379.949C167.609 381.274 166.4 381.875 165.375 381.359L161.393 379.479C161.493 380.589 160.322 381.374 159.328 380.858C157.495 379.903 156.794 379.287 154.26 377.561C153.628 377.137 152.881 376.922 152.118 376.96C145.324 377.299 140.533 378.147 136.388 379.841C133.315 381.097 133.238 384.294 133.184 385.296C133.092 386.983 130.811 392.036 130.811 392.036L109.358 387.622L105.561 373.339L127.869 371.036Z" fill="#311D4A"/>
<path d="M115.342 374.842C124.684 374.842 132.258 366.95 132.258 357.215C132.258 347.481 124.684 339.589 115.342 339.589C105.999 339.589 98.4258 347.481 98.4258 357.215C98.4258 366.95 105.999 374.842 115.342 374.842Z" fill="#FFF3A1"/>
<path d="M122.7 398.831C122.7 398.831 112.293 417.212 110.729 428.074C110.228 431.572 112.778 434.784 116.29 435.2C119.403 435.562 124.217 435.739 131.466 435.162C130.418 431.888 132.806 402.783 133.831 391.019C133.969 389.44 132.02 388.593 130.95 389.764L122.7 398.831Z" fill="white"/>
<path d="M158.227 390.072C160.453 394.709 168.857 412.405 170.652 419.508C170.875 420.386 170.182 421.218 169.281 421.164C161.062 420.617 153.127 421.819 149.746 422.435C148.883 422.589 148.113 421.888 148.182 421.018L150.478 392.676C150.516 392.175 150.84 391.736 151.302 391.551L156.517 389.425C157.172 389.155 157.919 389.44 158.227 390.072Z" fill="white"/>
<path d="M168.718 413.784C164.912 403.831 157.679 388.947 157.679 388.947L155.977 389.64L164.049 421.025C166.291 421.002 168.633 421.141 170.975 421.364C170.867 419.87 169.981 417.104 168.718 413.784Z" fill="#190335"/>
<path d="M170.982 421.364C170.975 421.233 164.766 416.195 164.766 416.195C163.703 415.386 162.27 415.278 161.107 415.918L148.975 422.566C151.902 422.004 161.438 420.44 170.982 421.364Z" fill="#311D4A"/>
<path d="M109.605 362.392C109.32 365.466 110.005 368.355 111.369 370.782C112.285 372.407 114.011 373.455 115.883 373.455C115.891 373.455 115.906 373.455 115.914 373.455C124.341 373.455 131.173 366.337 131.173 357.555C131.173 357.539 131.173 357.516 131.173 357.501C131.158 353.795 128.508 350.644 125.003 350.059C123.933 349.882 122.816 349.835 121.668 349.936C115.336 350.513 110.213 355.806 109.605 362.392Z" fill="black"/>
<path d="M164.18 392.321L160.544 392.745C160.251 392.776 160.105 392.406 160.336 392.229L163.386 389.926C164.58 389.024 163.864 387.129 162.377 387.245C159.072 387.499 154.813 387.853 151.77 388.177C151.269 388.231 151.046 387.553 151.485 387.299C152.848 386.52 153.565 386.143 154.982 385.349C157.008 384.209 155.013 382.607 152.694 382.692C148.357 382.861 144.036 385.473 140.747 385.473C134.8 385.473 118.338 384.672 118.338 384.672C117.037 384.625 115.827 383.963 115.095 382.884L101.723 363.094C97.979 358.148 90.9153 357.231 86.0392 361.06C81.4096 364.688 80.4159 371.306 83.7821 376.136L103.364 401.227C105.174 403.546 107.924 404.948 110.866 405.048L153.503 404.401C158.587 404.408 162.161 399.802 162.616 397.406C163.925 396.52 164.858 395.549 165.528 394.671C166.306 393.639 165.474 392.167 164.18 392.321Z" fill="#FFF3A1"/>
<path d="M111.714 210.021C111.714 210.021 115.334 223.626 124.462 242.068C137.404 268.207 143.72 278.676 150.376 289.901C158.479 303.567 183.222 317.426 230.958 287.851C280.42 257.214 272.879 237.03 269.597 230.004C267.656 225.844 251.903 196.401 238.831 174.052C233.731 165.332 228.917 157.882 225.712 153.075C223.047 149.077 218.764 146.481 213.988 145.941C200.97 144.47 173.393 144.616 145.037 165.162C105.944 193.496 111.714 210.021 111.714 210.021Z" fill="white"/>
<path d="M271.586 244.965C272.888 238.394 270.053 231.676 264.53 227.87C250.525 218.21 223.095 217.794 188.315 239.765C150.1 263.908 149.214 284.338 154.899 295.655C166.038 306.648 190.056 313.189 230.952 287.851C260.262 269.701 269.552 255.218 271.586 244.965Z" fill="#311D4A"/>
<path d="M162.054 294.908C157.301 288.105 157.209 266.797 192.882 243.848C228.84 220.713 260.385 227.292 265.022 239.765C269.659 252.237 243.823 275.079 215.044 289.7C189.008 302.935 167.323 302.45 162.054 294.908Z" fill="black"/>
<path d="M131.165 430.216C128.03 430.208 124.725 430.378 121.421 430.64C113.979 431.233 112.978 433.575 113.679 434.291C114.334 434.961 115.327 435.324 116.29 435.431C119.402 435.793 125.827 436.001 132.667 435.2C131.165 433.544 131.173 432.743 131.165 430.216Z" fill="black"/>
<path d="M183.492 384.348C181.266 381.598 179.995 381.937 175.928 381.875C177.653 387.838 180.657 400.403 183.662 411.858C186.666 423.306 186.681 429.13 186.681 429.13C190.456 428.629 193.499 428.067 200.886 426.826C206.917 425.809 207.457 420.817 204.337 416.195L183.492 384.348Z" fill="white"/>
<path d="M183.731 431.441C184.163 430.347 183.454 429.253 181.644 428.359C178.047 426.572 171.006 425.17 157.287 425.94C144.638 426.649 138.221 429.777 134.994 432.535C133.268 434.014 133.384 435.154 134.909 436.078C153.92 440.693 173.586 438.12 183.731 431.441Z" fill="#311D4A"/>
<path d="M201.671 426.965C203.197 426.572 203.435 424.939 202.642 424.369C202.303 424.13 201.902 423.883 201.425 423.637C197.673 421.711 191.68 421.734 185.949 422.42C186.673 426.872 186.804 427.943 185.988 429.453C190.656 429.13 201.217 427.08 201.671 426.965Z" fill="black"/>
<path d="M157.271 205.514C155.03 199.875 154.96 193.589 157.602 189.467C158.219 188.504 159.351 186.933 158.781 185.947L153.82 178.751C152.773 176.933 150.038 178.074 148.782 179.761C142.597 188.104 140.286 198.974 144.908 210.576C151.694 227.639 164.296 232.631 177.284 229.457C179.387 228.941 180.411 226.561 179.325 224.689L175.535 218.41C174.703 216.97 173.109 216.176 171.445 216.307C165.837 216.762 160.291 213.095 157.271 205.514ZM194.269 185.384C184.448 169.831 168.841 167.458 158.619 171.341C156.832 172.018 156.023 174.091 156.978 175.747L162.556 183.304C163.218 184.445 164.528 184.999 165.814 184.753C171.268 183.697 177.969 185.808 182.383 192.479C185.888 197.78 185.881 206.077 180.319 211.408C179.102 212.578 179.225 214.589 180.072 216.053L183.631 222.193C185.041 224.619 188.192 224.85 190.341 223.055C200.416 214.643 201.156 196.293 194.269 185.384Z" fill="#311D4A"/>
<path d="M414.293 184.298C413.761 184.298 413.222 184.16 412.729 183.875C408.954 181.679 402.145 177.388 398.948 173.405C398.047 172.28 398.07 170.64 399.017 169.499L409.024 157.435C410.079 156.157 411.951 155.933 413.284 156.919C416.427 159.253 422.15 163.568 425.193 166.264C426.418 167.35 426.61 169.153 425.639 170.462C422.142 175.192 418.653 180.308 416.889 182.927C416.28 183.813 415.294 184.298 414.293 184.298ZM411.42 157.844C410.965 157.844 410.511 158.036 410.202 158.414L400.196 170.478C399.718 171.056 399.695 171.872 400.15 172.435C403.308 176.371 410.541 180.816 413.507 182.542C414.223 182.958 415.14 182.75 415.602 182.064C417.382 179.429 420.879 174.299 424.392 169.538C424.877 168.875 424.784 167.959 424.16 167.412C421.164 164.754 415.479 160.471 412.352 158.152C412.074 157.944 411.743 157.844 411.42 157.844Z" fill="black"/>
<path d="M559.89 458.55C559.698 458.55 559.505 458.542 559.305 458.519C557.702 458.365 556.262 457.587 555.253 456.339L538.653 435.732C536.681 433.282 536.966 429.715 539.292 427.604L557.641 411.018C558.85 409.924 560.406 409.385 562.024 409.5C563.649 409.616 565.113 410.363 566.16 411.604L583.724 432.535C585.827 435.038 585.495 438.782 583 440.885L563.695 457.14C562.617 458.065 561.284 458.55 559.89 458.55ZM540.332 428.752C538.606 430.316 538.398 432.951 539.854 434.769L556.454 455.376C557.202 456.3 558.265 456.878 559.451 456.994C560.637 457.109 561.793 456.747 562.702 455.985L582.006 439.73C583.855 438.174 584.093 435.4 582.545 433.544L564.982 412.613C564.212 411.688 563.118 411.134 561.916 411.057C560.714 410.98 559.559 411.372 558.673 412.181L540.332 428.752Z" fill="black"/>
<path d="M469.208 422.412L468.006 421.449L476.657 410.595C477.165 409.955 476.988 409.285 476.649 408.869C476.31 408.453 475.686 408.145 474.955 408.515L465.179 413.545C463.901 414.2 462.452 413.884 461.559 412.767C460.665 411.65 460.696 410.163 461.62 409.069L470.317 398.8C470.857 398.161 470.679 397.475 470.34 397.051C469.994 396.628 469.37 396.304 468.63 396.697L443.433 409.524L442.732 408.153L467.922 395.326C469.185 394.656 470.649 394.964 471.542 396.081C472.443 397.206 472.42 398.692 471.496 399.794L462.799 410.063C462.26 410.695 462.429 411.38 462.768 411.804C463.107 412.228 463.731 412.551 464.471 412.174L474.238 407.143C475.494 406.496 476.934 406.797 477.828 407.883C478.721 408.969 478.729 410.448 477.851 411.55L469.208 422.412Z" fill="black"/>
<path d="M511.146 438.385L499.902 468.708L501.347 469.243L512.591 438.921L511.146 438.385Z" fill="black"/>
<path d="M528.785 444.972L527.332 445.484L540.301 482.334L541.754 481.823L528.785 444.972Z" fill="black"/>
<path d="M528.249 470.484L526.725 470.709L529.4 488.825L530.924 488.599L528.249 470.484Z" fill="black"/>
<path d="M510.915 463.499L508.145 478.014L509.658 478.302L512.428 463.788L510.915 463.499Z" fill="black"/>
<path d="M387.616 172.537L386.262 173.272L400.239 199.028L401.593 198.293L387.616 172.537Z" fill="black"/>
<path d="M387.703 186.224L386.223 186.65L390.539 201.665L392.02 201.239L387.703 186.224Z" fill="black"/>
<path d="M380.736 174.979L379.4 197.543L380.938 197.634L382.274 175.07L380.736 174.979Z" fill="black"/>
<path d="M340.02 183.728L338.533 183.327L342.493 168.521C342.739 167.589 343.579 167.011 344.542 167.111C345.497 167.211 346.198 167.959 346.252 168.914L346.691 177.781C346.706 178.027 346.876 178.104 346.984 178.127C347.091 178.151 347.276 178.158 347.392 177.935L353.108 166.657L354.479 167.35L348.771 178.628C348.37 179.414 347.53 179.815 346.668 179.63C345.805 179.445 345.204 178.736 345.158 177.858L344.719 168.991C344.703 168.714 344.503 168.652 344.388 168.644C344.272 168.629 344.064 168.652 343.995 168.914L340.02 183.728Z" fill="black"/>
<path d="M498.389 106.196L498.146 107.718L520.693 111.312L520.936 109.79L498.389 106.196Z" fill="black"/>
<path d="M499.937 113.098L499.377 114.533L520.545 122.8L521.105 121.365L499.937 113.098Z" fill="black"/>
<path d="M500.236 119.047L499.068 120.052L514.037 137.448L515.205 136.443L500.236 119.047Z" fill="black"/>
<path d="M477.296 532.082L477.212 532.074L433.165 527.036L433.342 525.503L477.343 530.533C478.406 530.518 478.983 529.786 479.176 529.108C479.368 528.423 479.237 527.483 478.298 526.928L427.611 503C426.032 502.061 425.439 500.296 426.101 498.663C426.764 497.03 428.428 496.175 430.138 496.591L470.34 505.535C471.496 505.812 472.258 505.134 472.567 504.464C472.867 503.809 472.898 502.815 472.004 502.122L438.326 485.474L439.012 484.095L472.867 500.843C474.454 502.007 474.562 503.825 473.969 505.111C473.375 506.398 471.919 507.492 470.001 507.037L429.799 498.093C428.589 497.8 427.827 498.532 427.534 499.249C427.241 499.957 427.28 501.013 428.335 501.645L479.022 525.572C480.47 526.435 481.086 527.968 480.663 529.524C480.223 531.08 478.906 532.082 477.296 532.082Z" fill="black"/>
<path d="M97.9486 386.721C97.7868 386.721 97.625 386.713 97.4633 386.69C96.5004 386.551 95.6453 386.004 95.1138 385.188L91.0774 379.002C90.0683 377.461 90.4919 375.365 92.0249 374.341L97.4093 370.728C98.95 369.695 101.045 370.104 102.085 371.629L105.821 377.099C106.799 378.532 106.538 380.458 105.22 381.582L100.144 385.912C99.5277 386.443 98.7497 386.721 97.9486 386.721ZM99.2966 371.706C98.9423 371.706 98.588 371.806 98.2721 372.014L92.8876 375.627C92.0557 376.19 91.8246 377.322 92.3715 378.17L96.4079 384.356C96.7007 384.802 97.1629 385.095 97.6867 385.172C98.2182 385.249 98.742 385.095 99.1425 384.749L104.219 380.419C104.935 379.803 105.082 378.755 104.542 377.977L100.806 372.507C100.467 371.983 99.882 371.706 99.2966 371.706Z" fill="black"/>
<path d="M112.553 387.306L104.119 396.146L105.234 397.21L113.667 388.37L112.553 387.306Z" fill="black"/>
<path d="M109.982 395.409L107.734 399.952L109.115 400.635L111.363 396.092L109.982 395.409Z" fill="black"/>
<path d="M116.146 387.141L113.002 402.145L114.51 402.461L117.654 387.457L116.146 387.141Z" fill="black"/>
<path d="M133.684 399.255C133.645 399.255 133.614 399.255 133.576 399.255C132.551 399.208 131.681 398.554 131.357 397.583L129.986 393.438L131.45 392.953L132.821 397.098C133.006 397.645 133.491 397.714 133.638 397.714C133.784 397.714 134.277 397.699 134.508 397.167L135.841 394.047C136.164 393.292 136.834 392.753 137.643 392.606C138.452 392.46 139.269 392.714 139.839 393.3L143.867 397.429C144.222 397.791 144.653 397.752 144.946 397.591C145.239 397.429 145.508 397.082 145.393 396.589L143.521 388.577L145.023 388.231L146.895 396.243C147.149 397.321 146.664 398.407 145.693 398.939C144.715 399.47 143.544 399.293 142.766 398.5L138.737 394.371C138.521 394.147 138.221 394.055 137.928 394.116C137.628 394.17 137.381 394.371 137.266 394.648L135.933 397.768C135.54 398.685 134.67 399.255 133.684 399.255Z" fill="black"/>
<path d="M34.3812 337.491L23.3496 341.277L23.8497 342.734L34.8813 338.948L34.3812 337.491Z" fill="black"/>
<path d="M31.3293 342.402L25.3984 347.343L26.3844 348.526L32.3153 343.586L31.3293 342.402Z" fill="black"/>
<path d="M35.7257 342.701L31.1152 354.563L32.5513 355.121L37.1617 343.259L35.7257 342.701Z" fill="black"/>
<path d="M-5.59654 308.135C-5.76601 308.135 -5.94317 308.12 -6.11264 308.081L-7.44531 307.789L-7.11408 306.286L-5.78141 306.579C-5.53491 306.633 -5.28073 306.579 -5.08045 306.44C-4.87246 306.294 -4.74148 306.078 -4.71067 305.824L-4.57202 304.746C-4.47958 304.06 -4.10214 303.444 -3.53211 303.051C-2.96208 302.658 -2.24571 302.535 -1.57554 302.696L1.07434 303.351C1.35936 303.421 1.6521 303.351 1.86779 303.159C2.09118 302.966 2.19904 302.689 2.17593 302.396L2.04494 300.917C1.97561 300.131 2.27604 299.376 2.86918 298.86C3.46232 298.344 4.24803 298.144 5.01834 298.328L6.75154 298.737C7.03656 298.806 7.3216 298.729 7.54499 298.536C7.76067 298.344 7.87623 298.066 7.84542 297.774C7.76068 296.926 8.11501 296.117 8.79289 295.601C9.47076 295.085 10.3489 294.962 11.1423 295.27L13.1298 296.033L12.5751 297.473L10.5877 296.711C10.295 296.595 9.97919 296.641 9.72498 296.834C9.47078 297.026 9.34752 297.319 9.37833 297.635C9.45536 298.429 9.15494 299.176 8.5618 299.7C7.96866 300.224 7.17525 300.424 6.40494 300.239L4.67173 299.831C4.38672 299.769 4.10168 299.838 3.87829 300.023C3.6626 300.216 3.54704 300.485 3.57786 300.778L3.70884 302.257C3.77817 303.043 3.47003 303.813 2.86918 304.322C2.26834 304.83 1.45951 305.031 0.696897 304.838L-1.95298 304.183C-2.19948 304.122 -2.45368 304.168 -2.66937 304.314C-2.88505 304.461 -3.01601 304.676 -3.05452 304.938L-3.19317 306.017C-3.28561 306.687 -3.64766 307.295 -4.20999 307.688C-4.61055 307.981 -5.09584 308.135 -5.59654 308.135Z" fill="black"/>
<path d="M497.287 56.9175C497.264 56.9175 497.248 56.9175 497.225 56.9175C496.44 56.8944 495.762 56.4321 495.454 55.7157L494.206 52.8191C494.098 52.5726 493.882 52.5418 493.79 52.5418C493.79 52.5418 493.79 52.5418 493.782 52.5418C493.69 52.5418 493.466 52.5726 493.366 52.8268L491.972 56.3089L490.539 55.7388L491.933 52.2567C492.234 51.5018 492.95 51.0164 493.759 51.001C493.767 51.001 493.774 51.001 493.782 51.001C494.583 51.001 495.3 51.4709 495.615 52.2028L496.863 55.0994C496.963 55.3382 497.179 55.369 497.272 55.3767C497.356 55.3767 497.572 55.3613 497.688 55.1225L498.589 53.3198C498.889 52.7189 499.467 52.3107 500.129 52.2336C500.8 52.1489 501.454 52.4031 501.886 52.9193L503.372 54.6526C503.534 54.8375 503.734 54.8144 503.812 54.799C503.889 54.7836 504.081 54.7219 504.151 54.4831L505.052 51.471C505.252 50.8084 505.768 50.3 506.446 50.1151C507.116 49.9302 507.825 50.1074 508.326 50.585L511.237 53.3121C511.407 53.4739 511.607 53.4431 511.684 53.4123C511.761 53.3892 511.938 53.3121 511.992 53.081L512.562 50.6158C512.724 49.9302 513.209 49.3909 513.88 49.1675C514.55 48.9441 515.266 49.0905 515.798 49.545L517.885 51.3246C518.07 51.4787 518.263 51.4324 518.34 51.4016C518.417 51.3708 518.594 51.2861 518.632 51.0472L519.025 48.6052C519.141 47.881 519.649 47.2801 520.342 47.0413C521.043 46.8025 521.806 46.9643 522.345 47.465C522.546 47.6499 522.753 47.5806 522.838 47.5498C522.923 47.5113 523.108 47.4034 523.108 47.1338V45.3773H524.649V47.1338C524.649 47.9427 524.194 48.636 523.454 48.9595C522.715 49.2831 521.891 49.1444 521.298 48.5975C521.12 48.428 520.92 48.4742 520.843 48.505C520.766 48.5281 520.581 48.6206 520.543 48.8594L520.15 51.3015C520.034 52.0179 519.557 52.6034 518.871 52.8576C518.186 53.1118 517.446 52.9809 516.891 52.5032L514.804 50.7237C514.627 50.5773 514.442 50.6158 514.365 50.639C514.295 50.6621 514.118 50.7468 514.064 50.9702L513.494 53.4354C513.333 54.1364 512.824 54.6834 512.131 54.8991C511.438 55.1071 510.714 54.9376 510.182 54.4446L507.27 51.7175C507.101 51.5634 506.916 51.5942 506.839 51.6096C506.762 51.6327 506.585 51.7021 506.523 51.9178L505.622 54.9299C505.414 55.631 504.836 56.1548 504.127 56.3089C503.411 56.463 502.671 56.2087 502.202 55.6541L500.715 53.9207C500.569 53.7513 500.391 53.7589 500.314 53.7667C500.245 53.7744 500.06 53.8206 499.96 54.0132L499.059 55.8158C498.727 56.4938 498.05 56.9175 497.287 56.9175Z" fill="black"/>
<path d="M495.032 45.206L494.256 46.5369L501.608 50.8255L502.385 49.4946L495.032 45.206Z" fill="black"/>
<path d="M501.955 42.372L501.207 43.7189L510.763 49.0272L511.511 47.6803L501.955 42.372Z" fill="black"/>
<path d="M510.692 41.4253L510.031 42.8174L517.896 46.5484L518.556 45.1564L510.692 41.4253Z" fill="black"/>
<path d="M380.83 603.965H379.29V596.577C379.29 595.56 378.766 594.651 377.895 594.135C377.025 593.619 375.97 593.604 375.084 594.089L371.825 595.884C370.454 596.639 368.829 596.616 367.488 595.815C366.14 595.021 365.339 593.611 365.339 592.048V589.505C365.339 588.542 364.877 587.68 364.076 587.14C363.275 586.601 362.296 586.509 361.411 586.886L357.228 588.635C355.872 589.205 354.331 589.058 353.114 588.242C351.89 587.425 351.158 586.062 351.158 584.598V583.758C351.158 582.795 350.703 581.94 349.902 581.401C349.101 580.862 348.13 580.762 347.245 581.131L343.239 582.772C341.883 583.327 340.35 583.173 339.141 582.356C337.924 581.54 337.2 580.184 337.2 578.72C337.2 577.749 336.738 576.887 335.929 576.355C335.12 575.816 334.142 575.731 333.256 576.109L330.144 577.426C328.942 577.934 327.594 577.88 326.438 577.287C325.283 576.694 324.451 575.631 324.166 574.36L323.765 572.603C323.573 571.771 323.034 571.078 322.279 570.701C321.516 570.315 320.638 570.292 319.86 570.639L314.329 573.066L313.713 571.656L319.244 569.229C320.445 568.705 321.809 568.736 322.98 569.329C324.151 569.922 324.99 570.993 325.283 572.272L325.684 574.029C325.868 574.853 326.408 575.538 327.155 575.924C327.902 576.309 328.78 576.34 329.558 576.016L332.67 574.699C334.026 574.121 335.567 574.267 336.799 575.084C338.024 575.901 338.756 577.264 338.756 578.736C338.756 579.698 339.21 580.554 340.011 581.093C340.812 581.632 341.775 581.725 342.669 581.362L346.675 579.722C348.03 579.167 349.563 579.321 350.773 580.138C351.99 580.954 352.714 582.31 352.714 583.774V584.613C352.714 585.576 353.176 586.439 353.977 586.979C354.778 587.518 355.756 587.61 356.642 587.233L360.825 585.484C362.181 584.922 363.722 585.068 364.939 585.877C366.163 586.693 366.888 588.057 366.888 589.521V592.063C366.888 593.08 367.411 593.989 368.282 594.505C369.152 595.021 370.208 595.037 371.093 594.551L374.352 592.756C375.723 592.001 377.348 592.024 378.689 592.826C380.037 593.619 380.838 595.029 380.838 596.593V603.965H380.83Z" fill="black"/>
<path d="M554.051 367.785C546.933 379.34 527.983 385.396 518.755 372.977C508.502 359.172 515.812 329.813 537.15 328.581C542.018 328.296 546.871 329.89 550.707 333.064C560.444 341.13 562.031 354.827 554.051 367.785Z" fill="black"/>
<path d="M529.716 352.485C527.097 360.582 524.093 369.534 520.326 364.942C517.985 362.084 516.56 355.213 518.231 348.68C519.548 343.534 523.23 338.596 526.889 336.007C528.784 334.667 530.703 334.359 532.235 335.175C536.149 337.248 532.651 343.403 529.716 352.485Z" fill="#74BAAB"/>
<path d="M381.786 127.607C377.835 131.836 373.39 136.466 371.564 131.643C370.432 128.647 370.963 123.37 373.813 119.757C376.055 116.906 380.076 115.288 383.519 115.234C385.307 115.211 386.855 115.889 387.856 117.145C390.383 120.342 386.216 122.861 381.786 127.607Z" fill="#74BAAB"/>
<path d="M123.601 359.85C123.655 357.085 123.763 354.019 125.881 355.143C127.199 355.844 129.733 361.399 126.829 364.796C126.282 365.435 125.473 365.636 124.741 365.505C122.885 365.181 123.54 362.947 123.601 359.85Z" fill="#74BAAB"/>
<path d="M179.025 431.718C179.356 431.002 178.763 430.301 177.284 429.754C174.334 428.667 168.595 427.889 157.464 428.66C147.204 429.368 142.05 431.533 139.47 433.39C138.091 434.384 138.199 435.131 139.462 435.693C154.976 438.328 170.898 436.263 179.025 431.718Z" fill="black"/>
<path d="M448.681 365.744C447.395 360.004 443.859 342.37 443.82 342.193L445.33 341.893C445.369 342.07 448.897 359.681 450.183 365.405L448.681 365.744Z" fill="black"/>
<path d="M464.294 367.615C462.707 365.312 461.32 362.246 460.488 359.211C460.196 358.148 459.926 357.115 459.672 356.121C458.37 351.137 457.346 347.193 454.857 344.92L455.897 343.78C458.724 346.361 459.803 350.498 461.166 355.729C461.421 356.715 461.69 357.739 461.983 358.795C462.776 361.676 464.078 364.572 465.572 366.737L464.294 367.615Z" fill="black"/>
<path d="M471.605 367.97L470.064 367.924C470.103 366.714 469.987 365.135 469.871 363.463C469.756 361.745 469.617 359.804 469.617 357.924C469.617 354.496 470.465 351.153 471.882 348.965L473.176 349.804C471.913 351.753 471.158 354.781 471.158 357.924C471.158 359.742 471.281 361.583 471.404 363.355C471.528 365.065 471.643 366.683 471.605 367.97Z" fill="black"/>
<path d="M521.514 429.245C519.88 429.245 518.271 428.56 517.138 427.242L504.312 412.251L505.483 411.249L518.309 426.241C519.796 427.982 522.438 428.213 524.202 426.749L562.41 391.952C564.505 390.157 566.862 388.654 569.427 387.483L570.066 388.885C567.632 389.995 565.398 391.42 563.426 393.107L525.211 427.912C524.133 428.806 522.815 429.245 521.514 429.245Z" fill="black"/>
<path d="M524.054 496.26C517.468 496.26 510.528 493.417 504.535 485.821L489.775 469.482L490.915 468.449L505.713 484.827C516.544 498.548 530.602 495.828 539.345 489.349C546.339 484.165 556.076 475.876 568.286 464.705L569.326 465.845C557.078 477.047 547.295 485.374 540.262 490.59C535.809 493.879 530.078 496.26 524.054 496.26Z" fill="black"/>
<path d="M428.143 370.335C427.288 368.833 426.579 367.331 425.848 365.451L427.288 364.896C427.997 366.722 428.652 368.124 429.484 369.572L428.143 370.335Z" fill="black"/>
<path d="M437.218 367.639C435.971 365.304 433.629 360.466 431.965 354.319L433.452 353.918C435.069 359.92 437.357 364.634 438.574 366.907L437.218 367.639Z" fill="black"/>
<path d="M543.543 390.257C531.087 390.257 519.656 383.454 513.709 372.5L515.065 371.76C520.742 382.214 531.657 388.716 543.543 388.716V390.257Z" fill="black"/>
<path d="M334.713 158.421C333.488 158.421 331.986 157.759 330.391 156.48C328.635 155.078 325.916 152.882 323.689 151.095L324.66 149.893C326.886 151.688 329.598 153.876 331.354 155.278C332.995 156.596 334.589 157.181 335.321 156.734C335.984 156.334 336.138 154.97 335.76 152.983C335.306 150.61 335.421 148.707 336.115 147.313L337.493 147.998C337.124 148.746 336.785 150.163 337.27 152.69C337.802 155.463 337.416 157.266 336.115 158.052C335.706 158.298 335.229 158.421 334.713 158.421Z" fill="black"/>
<path d="M391.084 166.834L389.982 165.755L410.611 144.632C417.852 137.213 429.592 136.813 437.326 143.715L436.301 144.863C429.184 138.507 418.384 138.877 411.721 145.703L391.084 166.834Z" fill="black"/>
<path d="M437.046 170.698L416.115 191.731L417.207 192.818L438.138 171.785L437.046 170.698Z" fill="black"/>
<path d="M105.791 370.489L101.092 363.533C99.436 361.345 96.9787 359.92 94.2132 359.557C91.4478 359.203 88.7132 359.95 86.5178 361.668L85.5703 360.459C88.0969 358.479 91.2321 357.616 94.4135 358.032C97.5949 358.448 100.407 360.081 102.348 362.639L107.07 369.626L105.791 370.489Z" fill="black"/>
<path d="M131.51 407.769L130.598 425.711L132.136 425.789L133.049 407.847L131.51 407.769Z" fill="black"/>
<path d="M177.875 385.772L176.381 386.148L183.911 416.029L185.405 415.653L177.875 385.772Z" fill="black"/>
</svg>
