<svg width="88" height="90" viewBox="0 0 88 90" fill="none" xmlns="http://www.w3.org/2000/svg">
<g clip-path="url(#clip0_73_32126)">
<path d="M0 0H88V90H0V0Z" fill="#311D4A"/>
<path d="M0 0H88V90H0V0ZM41.8468 5.64854L35.2 5.93096L31.2681 6.21339L27.1489 6.6841L23.4979 7.24895L19.0043 8.19038L16.4766 8.84937L15.634 9.22594V55.2615L16.0085 57.5209L16.5702 59.4038L17.4128 61.2866L18.6298 63.3577L19.566 64.6757L20.783 66.2762L21.7191 67.3117L22.3745 68.0648L23.4043 69.1946L24.9957 70.795L25.7447 71.454L26.8681 72.4895L28.1787 73.6192L29.1149 74.3724L30.6128 75.5962L32.1106 76.7259L33.5149 77.7615L35.0128 78.7971L36.3234 79.7385L37.8213 80.6799L39.8809 81.9979L43.1574 83.9749L45.1234 85.1046L45.4979 85.2929L45.966 85.1987L47.3702 84.2573L48.8681 83.3159L50.2723 82.3745L52.4255 80.8682L53.9234 79.8326L55.234 78.8912L56.2638 78.0439L57.2936 77.3849L58.6979 76.1611L60.0085 75.2197L61.0383 74.2782L62.3489 73.2427L63.2851 72.3954L64.034 71.7364L65.2511 70.6067L66.3745 69.5711L68.3404 67.5941L68.9957 66.841L70.0255 65.7113L71.0553 64.3933L71.9915 63.1695L72.6468 62.228L73.583 60.6276L74.5191 58.6506L75.0808 56.9561L75.3617 55.6381L75.4553 54.5084V50.5544L75.3617 37.4686V17.3222L75.4553 9.22594L74.5191 8.84937L72.4596 8.28452L67.4979 7.24895L63.7532 6.6841L59.4468 6.21339L55.5149 5.93096L51.6766 5.74268L48.5872 5.64854H41.8468Z" fill="#FCFCFC"/>
<path d="M19.6595 47.2594H24.6212L27.7106 47.3536L35.0127 47.2594H43.251L43.9064 47.3536V51.9665L44 79.0795L43.4383 78.7971L41.8468 77.8556L40.3489 77.0084L38.7574 75.8787L36.6978 74.5607L35.6681 73.8075L33.8893 72.5837L32.6723 71.6423L31.8298 70.9833V70.795L32.2042 70.7008V70.5126L32.3915 70.3243L31.8298 70.7008L31.3617 70.6067L30.5191 69.8536L29.4893 69.0063L28.6468 68.2531L28.7404 67.8766L29.1149 67.7824V67.5941L29.3957 67.3117L29.0212 67.4059V67.5941L28.6468 67.8766L28.1787 67.7824L27.7106 67.3117V67.1234L27.2425 66.9351L26.7744 66.3703L25.651 65.2406L25.7447 64.864L26.2127 64.7699L26.4 64.2992L25.8383 64.6757L25.5574 64.9582L25.183 64.7699L24.0595 63.546L22.7489 61.7573L21.7191 60.0628L20.9702 58.7448L20.4085 57.3326L19.9404 55.7322L19.6595 54.0377V47.2594Z" fill="#F4F4F5"/>
<path d="M48.4936 47.2594H57.5745L59.9149 47.3536H60.0085L62.3489 47.2594L62.6298 47.8243V47.3536L64.5021 47.2594L65.0638 47.3536V47.636L65.1574 47.3536L66.8425 47.2594L67.6851 47.3536H67.8723H71.3362L71.4298 47.4477V53.7552L71.2425 54.9791L70.7745 56.4854L70.1191 57.9916L69.4638 59.1213L68.9957 59.9686L67.9659 61.3808L67.5915 61.9456L66.7489 62.887L65.6255 64.1109L64.9702 64.9582L64.1276 65.8996L63.3787 66.5586L62.9106 66.9351L62.1617 67.6883H61.9745L61.7872 68.0649L60.8511 68.9121L60.1021 69.477L59.4468 70.0418L58.1362 71.0774L57.0128 72.113L55.4213 73.2427L54.017 74.2782L52.8936 75.1255L51.3957 76.1611L49.8042 77.3849L48.3064 78.2322L47.8383 78.5146H47.6511V74.8431L47.5574 67.4059V47.3536L48.4936 47.2594Z" fill="#FAFAFA"/>
<path d="M43.8128 51.9665H43.9064L44 79.0795L43.4383 78.7971L41.8468 77.8556L40.3489 77.0084L38.7574 75.8787L36.6979 74.5607L35.6681 73.8075L33.8894 72.5837L32.6723 71.6423L31.8298 70.9833V70.795L32.2042 70.7008V70.5125L32.3915 70.3243L31.8298 70.7008L31.3617 70.6067L30.9872 70.2301L31.1745 69.8536L31.5489 69.3828L32.2979 68.818L32.4851 68.5356H32.6723L32.8596 68.159L33.3277 67.6883L33.7021 67.2176L33.7957 67.0293H33.4213V66.841H33.234V66.6527L32.7659 66.4644L32.4851 66.2761L32.017 66.3703L30.9872 67.1234L30.6128 67.2176V67.0293L31.3617 66.6527L32.5787 65.6171L33.1404 64.9582L33.234 65.1464L33.7021 65.3347L33.983 65.4289L34.4511 65.1464L34.9191 64.6757L35.4808 64.3933L36.1362 64.1109H36.417L36.3234 62.1339L36.5106 61.9456L37.3532 61.7573L38.7574 61.569L39.0383 61.2866L37.634 61.4749H36.8851L36.6042 61.3807L36.5106 61.6632V61.0983L36.1362 61.4749L35.5745 61.569L35.9489 61.1925H36.1362L36.3234 60.6276L35.4808 60.8159L34.4511 61.1925L33.7957 61.2866L31.3617 61.0042L29.0213 60.0628L28.0851 59.2155L27.8042 58.6506V56.6736L30.5191 57.6151L32.5787 58.3682L33.234 58.5565L33.6085 58.2741L35.0128 57.7092L36.6979 57.1443L37.9149 56.5795H38.1021V59.0272L37.8213 59.4979L36.9787 60.1569L36.5106 60.3452L36.6042 61.0042H36.7915V61.1925H38.6638V60.3452L38.2894 60.5335V61.0983L38.1957 60.7218L37.7277 60.8159L37.3532 60.6276L38.1021 60.251L38.6638 60.0628H39.5064L39.4128 59.2155L39.3191 59.0272L39.1319 59.2155L38.9447 59.0272L38.6638 58.6506L38.4766 57.6151V56.4854H38.9447L39.0383 56.6736V57.2385L39.8808 57.1443V56.1088H39.9745V57.1443H40.5362L40.7234 57.3326L40.817 55.3556V55.1674L37.7277 56.1088L35.1064 57.0502L33.3277 57.7092L33.0468 57.8033L32.2979 57.5209L30.7064 57.0502L28.3659 56.2029L24.5277 55.0732L23.4979 54.6966V54.6025L25.4638 54.1318L28.3659 53.2845L32.4851 52.1548L33.234 52.0607L37.2596 53.0962L41.8468 54.2259L42.4085 54.4142L42.034 54.6966L41.2851 54.9791L41.1915 55.1674V57.7092L41.6596 57.6151V55.1674H41.9404V57.1443L41.8468 57.6151L42.1277 57.5209L42.4085 57.6151V56.8619L42.2213 56.7678H42.4085L42.5021 56.5795H43.6255L43.8128 56.6736V53.9435L43.1574 54.0377L42.1277 53.8494V53.7552H43.8128V52.9079H42.5021V52.6255L43.8128 52.7197V51.9665Z" fill="#E3E2E2"/>
<path d="M47.5574 15.4393H50.4596L50.5532 15.91L49.617 18.9226L48.9617 20.9937V21.4644L51.6766 22.6883L57.1064 25.0418L60.8511 26.7364L61.2255 27.113V30.0314L60.1021 30.5962L56.7319 32.0084L54.8596 32.7615L52.0511 33.9854L49.7106 34.9268L47.9319 35.6799L47.4638 35.7741V31.9142L50.0851 30.9728L52.9872 29.749L55.1404 28.9958L56.1702 28.5251L54.6723 27.772L51.3021 26.3598L48.4 25.136L47.7447 24.8536L47.3702 26.3598L46.3404 29.749L44.9362 34.2678L42.783 41.5167L41.8468 44.341L41.4723 44.9059L41.0042 45L40.9106 44.7176L42.783 36.3389L42.9702 35.3033L39.0383 33.6088L32.5787 30.7845L30.7064 29.9372L30.3319 29.6548V27.3954L30.4255 26.7364L31.1745 26.2657L33.7957 25.136L37.9149 23.4414L41.4723 21.9351L44.0936 20.8996L44.2808 20.9937L44.1872 24.7594L41.4723 25.8891L38.383 27.0188L35.7617 28.0544L35.3872 28.2427L36.9787 28.9017L39.6 30.0314L43.7191 31.9142L44.8425 26.8305L45.7787 22.3117L46.7149 17.9812L47.183 15.6276L47.5574 15.4393Z" fill="#FCFCFB"/>
<path d="M57.2 52.1548L64.2213 52.249L64.1276 52.4372L65.8128 52.5314L66.1872 53.0962L66.6553 54.0377L67.217 54.6967V54.8849H67.4042L67.7787 55.7322L68.0596 56.0146V56.2971H67.217L67.1234 55.9205L66.1872 56.1088H66L66.2808 57.0502L67.3106 59.9686L67.7787 60.91L68.0596 61.0983L67.8723 61.569L67.1234 62.5105L66.2808 63.3577L65.4383 64.3933L65.0638 64.864L64.783 64.9582H64.1276V65.1464L64.4085 65.2406L63.8468 65.3347H62.7234L62.3489 65.0523H61.7872L61.2255 65.3347L60.5702 65.4289L60.0085 65.2406L59.634 65.0523V64.864L58.9787 65.1464L58.6042 65.3347H57.7617L57.2 65.1464L57.1064 64.864L56.4511 65.1464L55.8894 65.3347H55.0468L54.017 64.864L53.9234 64.3933L54.1106 64.205L55.0468 64.1109H54.2979L53.7362 64.2992V62.3222L53.4553 62.0398H52.7064L53.4553 62.1339V63.8285L53.1745 63.9226H51.6766L51.583 63.1695H51.3957V63.3577L50.834 63.4519L50.6468 62.887L50.5532 62.4163L50.3659 62.6046L50.2723 63.2636H49.8042L49.617 63.8285H48.0255L47.8383 63.7343V62.1339L47.9319 62.0398H50.7404L51.3957 62.228L51.4894 62.3222L51.7702 61.8515H50.6468L48.4936 61.9456H47.8383V61.2866L47.9319 61.1925H48.4936V61.3808L48.9617 61.2866V60.7218L49.1489 60.4393V54.7908L49.0553 53.3787H52.9872L53.7362 53.6611L54.3915 54.3201L54.7659 54.8849L54.5787 54.4142L54.7659 54.3201L55.1404 54.5084V54.3201L54.8596 54.1318L55.3276 54.0377L55.5149 54.2259L55.983 53.7552L56.0766 53.1904L55.7957 53.0962V52.4372L54.5787 52.5314L54.3915 52.6255L54.2979 52.908H54.1106L54.017 52.3431L54.4851 52.249L57.2 52.1548Z" fill="#F6F6F7"/>
<path d="M0 0H88V1.12971L82.383 1.22385H0.655319V89.6234H88V90H0V0Z" fill="#19191D"/>
<path d="M47.6511 47.5418H49.4298V47.7301H47.7447V48.6715L48.3064 48.5774H49.4298L49.3362 52.249L49.0553 52.3431L48.9617 51.59L49.0553 49.7071L49.1489 48.8598H47.8383V61.9456L49.1489 61.8515L50.7404 61.7573L51.7702 61.8515L51.583 62.4163L51.3021 62.228L50.5532 62.1339H47.9319L47.8383 63.7343L49.617 63.8285L49.7106 63.1695L50.2723 63.2636V62.6046L50.5532 62.3222L50.7404 62.887L50.834 63.3577H51.3957V63.1695H51.583L51.6766 63.3577V63.9226L53.4553 63.8285V62.1339L51.8638 62.0397V61.9456H53.4553L53.8298 62.3222V64.205L54.2979 64.0167L55.8893 64.1109V64.205L54.1106 64.2992L54.017 64.6757L54.1106 64.864L55.0468 65.2406H55.8893L57.0128 64.864L57.2 64.7699V65.1464L57.7617 65.2406H58.6042L59.2596 64.864L59.8213 64.7699L59.7276 65.0523L60.6638 65.3347L61.4128 65.1464L61.7872 64.9582H62.4425L62.7234 65.2406H63.8468L64.1276 65.1464V64.9582L64.9702 64.864L64.4085 65.523L63.1915 66.7469L62.4425 67.4059L62.1617 67.6883H61.9745L61.7872 68.0649L60.8511 68.9121L60.1021 69.477L59.4468 70.0418L58.1362 71.0774L57.0128 72.113L55.4213 73.2427L54.017 74.2782L52.8936 75.1255L51.3957 76.1611L49.8042 77.3849L48.3064 78.2322L47.8383 78.5146H47.6511V74.8431L47.5574 67.4059V61.0983L47.6511 47.5418Z" fill="#E3E2E1"/>
<path d="M34.7319 47.2594H43.2511L43.9064 47.3536V51.6841L43.8128 52.7197H42.5021V52.8138L43.8128 52.908V53.7552L42.4085 53.8494L43.8128 53.9435V56.6736H42.5021L42.4085 56.8619V57.6151H41.8468V55.1674L41.7532 55.4498V57.6151L41.1915 57.8033L41.0979 57.7092V55.1674L41.2851 54.8849L42.2213 54.5084L42.3149 54.4142L39.9745 53.8494L36.2298 52.908L36.1362 52.7197V48.7657L40.1617 48.8598V48.6715H36.1362L35.8553 48.5774V51.4958L33.5149 51.3075L33.4213 51.1192V49.613L33.5149 49.3305L33.7957 49.4247L33.983 49.613L34.0766 49.2364H33.5149L33.4213 48.5774V48.2008H33.234V49.1423H32.5787L32.9532 50.3661L33.1404 49.5188H33.234L33.3277 51.2134L32.766 51.3075H30.7064L30.6128 50.8368V49.8013L30.9872 49.613L31.1745 49.2364H31.5489V49.0481L31.3617 49.1423H30.6128L30.4255 48.4833L30.3319 49.1423H29.7702L29.9574 49.4247L30.0511 49.9895L30.2383 49.613L30.4255 50.0837V51.2134L30.3319 51.3075H27.8979V49.4247H28.366L28.4596 49.1423L27.8042 48.954L27.7106 47.9184L27.8042 47.4477H30.4255L30.5191 47.7301L30.7064 47.4477L34.7319 47.2594Z" fill="#F9F9F9"/>
<path d="M0.561702 1.22385H0.655319V89.6234H88V90H0V2.54184L0.280851 2.25941L0.374468 2.73012H0.561702V1.22385Z" fill="#1C202A"/>
<path d="M61.4128 47.2594H62.3489L62.6298 47.8243V47.3536L64.5021 47.2594L65.0638 47.3536V47.636L65.1574 47.3536L66.8426 47.2594L67.6851 47.3536H67.8723H71.3362L71.4298 47.4477V53.7552L71.2425 54.9791L70.7745 56.4854L70.1191 57.9916L69.4638 59.1213L68.9957 59.9686L68.1532 61.0983L67.6851 60.91L67.0298 59.4979L66.1872 57.0502L66 56.4854L65.9064 56.0146L66.9362 55.9205L67.217 55.8264V56.2029L68.0596 56.2971L67.7787 55.8264L67.4979 55.4498L67.4043 54.8849H67.217L67.0298 54.5084L66.5617 54.0377L65.8128 52.6255L63.1915 52.4372V52.3431L64.783 52.249H67.7787L67.5915 51.7782L67.3106 51.0251L67.1234 50.931V50.7427H65.6255L65.4383 51.1192L65.2511 51.2134L65.3447 51.9665L65.0638 51.7782L64.8766 51.3075L64.5957 50.6485H64.783V50.8368L65.1574 50.931V50.6485L64.8766 50.5544L65.3447 50.4603H66.6553L66.2808 49.8013L66 48.954H64.783L64.2213 49.1423L64.034 49.9895H63.8468L63.4723 48.954H62.3489L61.6936 49.1423L61.6 49.7071L61.8808 50.3661L63.2851 50.4603L63.3787 50.6485L61.8808 50.7427H60.7574L60.1957 51.4958L59.9149 51.59L59.4468 50.7427L59.3532 50.5544H59.7277L60.0085 51.2134L60.1957 51.1192L60.4766 50.5544L61.5064 50.3661L61.3191 49.4247H61.1319L60.8511 49.0481V48.8598L59.634 48.954L59.166 49.2364L59.0723 49.3305L58.9787 49.9895L58.6979 49.7071L58.6043 49.2364H58.8851L59.0723 48.8598H58.5106L58.417 49.0481L58.3234 48.954H57.1064L56.6383 49.2364L56.4511 49.4247L56.3574 49.1423L56.2638 49.613L55.8894 49.1423V48.8598H53.3617V51.7782L53.1745 51.9665H51.0213V49.4247L51.1149 48.954L50.2723 48.8598V52.6255L50.0851 53.0021L49.9915 52.6255V49.3305L50.0851 48.6715H60.383L60.1021 48.1067L60.0085 47.3536L61.4128 47.2594Z" fill="#FAFAFA"/>
<path d="M63.4724 53.1904H64.4085L65.0638 53.4728L65.5319 54.4142L65.9064 55.9205L66.1872 56.5795L66.6553 58.1799L67.3106 59.9686L67.7787 60.91V61.2866L65.3447 61.3808L64.8766 61.2866V61.0983L65.1575 61.0042L65.0638 60.251L64.8766 59.7803L64.6894 58.9331L64.1277 57.0502L63.9404 56.4854H63.7532L63.566 57.4268L62.6298 59.7803L62.2553 60.6276V61.1925L61.6 61.0983L60.383 61.3808H58.6979L57.6681 61.0042L56.6383 60.251L55.983 59.4038L55.6085 58.3682V56.6736L55.7958 55.8264L56.5447 54.6025L57.2936 53.9435L58.6043 53.2845H61.6L62.0681 54.0377V54.6967L61.8809 55.3556L61.4128 55.2615L60.4766 54.9791L59.4468 54.8849L58.5106 55.3556L58.0426 56.1088L57.8553 56.6736V57.8033L58.1362 58.7448L58.6043 59.3096L59.2596 59.6862L60.0085 59.7803L60.4766 59.4979L60.8511 58.9331L61.5064 57.0502L61.8809 56.2029L62.6298 54.4142L63.2851 53.3787L63.4724 53.1904Z" fill="#311D4A"/>
<path d="M32.9532 52.0607L34.0766 52.249L38.0085 53.2845L41.8468 54.2259L42.4085 54.4142L42.034 54.6967L36.6979 56.4854L33.3277 57.7092L33.0468 57.8033L32.2979 57.5209L30.7064 57.0502L28.3659 56.2029L24.5277 55.0732L23.4979 54.6967V54.6025L25.4638 54.1318L28.3659 53.2845L32.4851 52.1548L32.9532 52.0607Z" fill="#311D4A"/>
<path d="M57.1064 64.7699L57.2 65.1464L57.7617 65.2406H58.6042L59.2596 64.864L59.8213 64.7699L59.7276 65.0523L60.6638 65.3347L61.4128 65.1464L61.7872 64.9582H62.4425L62.7234 65.2406H63.8468L64.1276 65.1464V64.9582L64.9702 64.864L64.4085 65.523L63.1915 66.7469L62.4425 67.4059L62.1617 67.6883H61.9745L61.7872 68.0649L60.851 68.9121L60.1021 69.477L59.4468 70.0418L58.1362 71.0774L57.0128 72.113L55.4213 73.2427H55.1404L54.6723 72.8661L54.017 72.2071V71.5481L54.7659 71.6423L54.5787 71.454L53.9234 71.3598L53.8298 71.2657L53.9234 68.9121L54.7659 69.1946L55.6085 69.3828L55.7957 69.2887L55.0468 69.1946L54.3915 68.9121L54.017 68.7238V68.0649L54.2042 67.9707L55.0468 68.0649L55.1404 68.2531L55.8893 67.9707L54.6723 67.7824L54.5787 67.8766H53.8298L53.9234 67.5941H54.5787V67.4059L54.017 67.5L53.9234 67.4059V65.1464L54.8596 65.3347L55.1404 65.6172L55.7957 65.4289L56.0766 65.1464L57.0128 64.864L57.1064 64.7699Z" fill="#F5F6F6"/>
<path d="M19.6595 47.2594H24.6212L27.7106 47.3536H32.5787V47.4477L30.7064 47.5418L30.4255 47.8243V47.4477H27.8042V48.1067L27.8978 48.954L28.9276 49.0481V49.1423L28.4595 49.2364L28.3659 49.4247H27.8978V51.3075L30.3319 51.2134V50.0837L30.2383 49.7071L30.051 50.0837L29.7702 49.2364L29.4893 49.0481L30.3319 49.1423V48.295L30.5191 48.2008L30.6127 49.1423L31.5489 49.0481V49.2364L31.1744 49.3305L30.8936 49.8013H30.6127L30.7064 50.931V51.2134H33.3276L33.1404 49.7071L32.9532 50.5544H32.8595L32.5787 49.3305V49.0481L33.234 49.1423V48.2008H33.4212L33.5149 49.0481V49.2364L34.1702 49.1423L33.983 49.8013L33.5149 49.3305V51.3075L35.7617 51.4017L35.8553 48.5774L40.1617 48.6715V48.8598H36.417L36.1361 48.7657L36.2298 51.0251V52.7197L35.8553 52.8138L33.234 52.1548L32.1106 52.3431L28.3659 53.3787L27.4298 53.5669V51.9665L27.617 51.59H20.034L19.9404 51.4017L21.7191 51.3075V49.5188H21.4383V49.8954L21.0638 49.8013V49.1423L21.6255 48.954V47.3536H19.7532L19.8468 48.3891L20.3149 48.8598L20.1276 49.3305L20.034 49.8954L19.7532 49.8013V54.0377H19.6595V47.2594Z" fill="#E4E3E2"/>
<path d="M49.0553 53.3787H52.9872L53.7362 53.6611L54.3915 54.3201L54.766 54.9791L54.8596 55.3556V56.0146L54.5787 56.7678L54.017 57.4268L53.5489 57.7092H53.3617L53.5489 58.2741L54.2043 59.2155L55.0468 60.1569L55.983 61.2866V61.3808H53.6426L52.8 60.4393L51.8638 59.1213L51.3958 58.5565L51.2085 58.4623L51.4894 61.2866H49.0553V60.5335L49.1489 60.4393V54.7908L49.0553 53.3787Z" fill="#311D4A"/>
<path d="M43.8128 47.7301H43.9064V51.6841L43.8128 52.7197H42.5021V52.8138L43.8128 52.9079V53.7552L42.4085 53.8494L43.8128 53.9435V56.6736H42.5021L42.4085 56.8619V57.6151H41.8468V55.1674L41.7532 55.4498V57.6151L41.1915 57.8033L41.0979 57.7092V55.1674L41.2851 54.8849L42.2213 54.5084L42.3149 54.4142L39.9745 53.8494L36.2298 52.9079L36.1362 52.7197V48.7657L39.9745 48.8598L40.0681 49.1423L39.8809 49.613L36.7915 49.5188L36.8851 51.59L36.7915 51.7782L39.8809 51.8724L39.9745 53.3787L40.0681 51.8724L40.2553 51.7782L40.9106 51.9665V53.4728L40.817 53.7552H41.0979L41.0043 53.5669V49.5188L41.0979 48.7657L43.8128 48.6715V47.7301Z" fill="#FAFAFA"/>
<path d="M61.4128 47.2594H62.3489L62.6298 47.8243V47.3536L64.5021 47.2594L65.0638 47.3536V47.636L65.1574 47.3536L66.8426 47.2594L67.6851 47.3536L67.966 48.6715L70.6808 48.5774L71.0553 48.6715L70.9617 48.954H69.5574L69.0894 49.4247L69.2766 50.1778L69.3702 50.3661L69.8383 50.4603L70.3064 51.3075V51.8724L70.0255 51.9665L69.8383 51.0251H69.6511L69.3702 50.7427L68.3404 50.8368L67.8723 51.2134V52.0607L67.4979 51.59L67.3106 51.0251L67.1234 50.931V50.7427H65.6255L65.4383 51.1192L65.2511 51.2134L65.3447 51.9665L65.0638 51.7782L64.8766 51.3075L64.5957 50.6485H64.783V50.8368L65.1574 50.931V50.6485L64.8766 50.5544L65.3447 50.4603H66.6553L66.2808 49.8013L66 48.954H64.783L64.2213 49.1423L64.034 49.9895H63.8468L63.4723 48.954H62.3489L61.6936 49.1423L61.6 49.7071L61.8808 50.3661L63.2851 50.4603L63.3787 50.6485L61.8808 50.7427H60.7574L60.1957 51.4958L59.9149 51.59L59.4468 50.7427L59.3532 50.5544H59.7277L60.0085 51.2134L60.1957 51.1192L60.4766 50.5544L61.5064 50.3661L61.3191 49.4247H61.1319L60.8511 49.0481V48.8598L59.634 48.954L59.166 49.2364L59.0723 49.3305L58.9787 49.9895L58.6979 49.7071L58.6043 49.2364H58.8851L59.0723 48.8598H58.5106L58.417 49.0481L58.3234 48.954H57.1064L56.6383 49.2364L56.4511 49.4247L56.3574 49.1423L56.2638 49.613L55.8894 49.1423V48.8598H53.3617V51.7782L53.1745 51.9665H51.0213V49.4247L51.1149 48.954L50.2723 48.8598V52.6255L50.0851 53.0021L49.9915 52.6255V49.3305L50.0851 48.6715H60.383L60.1021 48.1067L60.0085 47.3536L61.4128 47.2594Z" fill="#F8F8F8"/>
<path d="M37.9149 56.5795H38.1021V59.0272L37.8213 59.4979L36.9787 60.1569L36.0426 60.6276L34.4511 61.1925L33.7957 61.2866L31.3617 61.0042L29.0213 60.0628L28.0851 59.2155L27.8043 58.6506V56.6736L30.5192 57.6151L32.5787 58.3682L33.234 58.5565L33.6085 58.2741L35.0128 57.7092L36.6979 57.1444L37.9149 56.5795Z" fill="#311D4A"/>
<path d="M30.2383 89.6234H88V90H0.374451L0.561685 89.9059V89.7176L30.2383 89.6234Z" fill="#1A1A1F"/>
<path d="M21.9064 47.2594H24.6213L27.0553 47.3536L27.5234 47.4477L27.617 48.2008L27.5234 49.1423H26.9617L27.1489 49.613H27.5234V51.3075L26.0255 51.4017L25.0894 51.3075L24.9957 51.1192L25.0894 49.5188L25.7447 49.1423L24.5276 49.0481V49.2364L23.9659 49.1423L24.2468 49.4247L24.434 49.8013L24.5276 49.613H24.7149L24.8085 49.8954V51.3075L24.2468 51.4017H22.4681L22 51.3075L21.9064 50.8368V49.613H22.1872H22.3745L22.5617 49.2364H22.7489V49.0481H22.2808H21.9064V47.2594Z" fill="#FCFCFC"/>
<path d="M47.7447 48.7657H49.1489L49.2426 49.0481L49.1489 49.7071L49.0553 51.7782L49.1489 52.4372V53.7552L49.2426 54.7908V60.4393L49.0553 60.7218L48.9617 61.2866L48.4936 61.3807V61.1925L47.8383 61.2866L47.7447 57.9916V48.7657Z" fill="#FAFAFA"/>
<path d="M62.0681 54.1318L62.2553 54.4142V54.6025L62.5362 54.5084L62.4426 55.1674L61.6936 56.9561L61.3192 57.8975L60.8511 59.1213L60.2894 59.7803L59.7277 59.8745L58.8851 59.592L58.2298 59.0272L57.8553 58.2741L57.7617 57.8033V56.6736L58.1362 55.7322L58.5107 55.2615L59.4468 54.7908L60.9447 54.9791L61.8809 55.3556L62.0681 54.1318Z" fill="#F9F9F9"/>
<path d="M36.2298 64.3933L36.417 64.4874L36.3234 64.9582H36.1362L36.0425 65.4289H36.2298L36.3234 65.1464H36.417L36.5106 65.8054L36.417 66.3703L36.3234 66.5586L36.417 66.7469L36.5106 67.9707L36.3234 68.2531L36.1362 67.8766V67.5H35.9489V67.3117H35.3872V67.5L35.8553 67.5941L36.1362 68.159L36.0425 68.6297H35.8553V68.818L35.5745 68.9121L35.2 69.2887L33.8894 70.2301L33.234 70.795L33.4213 71.1715L33.7021 71.454L33.5149 71.5481L32.9532 71.1715V70.9833H32.766V70.795L33.3277 70.4184L33.7021 70.2301V69.9477L33.3277 69.7594L32.5787 69.2887H32.017L31.4553 69.7594L31.1745 70.136L30.9872 70.0418L31.5489 69.3828L32.2979 68.818L32.4851 68.5356H32.6723L32.8596 68.159L33.3277 67.6883L33.7021 67.2176L33.7957 67.0293H33.4213V66.841H33.234V66.6527L32.766 66.4644L32.4851 66.2761L32.017 66.3703L30.9872 67.1234L30.6128 67.2176V67.0293L31.3617 66.6527L32.5787 65.6172L33.1404 64.9582L33.234 65.1464L33.7021 65.3347L33.983 65.4289L34.4511 65.1464L35.0128 64.864L35.4808 64.5816L36.2298 64.3933Z" fill="#E9EAEC"/>
<path d="M36.2298 68.6297H36.417V74.1841L36.0426 74.09L33.4213 72.2071L31.9234 71.0774L31.8298 70.795L32.2043 70.7008V70.5126L32.3915 70.3243L31.8298 70.7008L31.3617 70.6067L30.9872 70.136L31.4553 69.6653L32.017 69.1946H32.5787L33.7021 69.9477V70.2301L32.9532 70.795H32.766V70.9833H32.9532V71.1715L33.3277 71.3598H33.5149L33.1404 70.9833L33.3277 70.6067L34.3575 69.7594L35.4809 69.0063H35.9489V69.1946H36.1362L36.2298 69.0063H36.0426L36.2298 68.6297Z" fill="#F6F6F7"/>
<path d="M67.8724 47.3536H71.3362L71.4298 47.4477V50.7427L71.3362 52.249H68.0596L67.7787 51.7782V51.2134L68.3404 50.7427L69.3702 50.6485L69.6511 50.8368V51.0251H69.8383L70.0255 51.4958V51.9665L70.2128 51.8724V51.3075L69.8383 50.7427V50.4603H69.3702L69.0894 49.9895L68.9958 49.4247L69.3702 48.954L69.5575 48.8598H70.9617L71.0553 48.6716H67.966L67.6851 47.9184L67.7787 47.4477L67.8724 47.3536Z" fill="#FCFCFC"/>
<path d="M67.0298 47.3536H67.6851L67.9659 48.6716L70.6808 48.5774L71.0553 48.6716L70.9617 48.954H69.5574L69.0894 49.4247L69.2766 50.1778L69.3702 50.3661L69.8383 50.4603L70.3064 51.3075V51.8724L70.0255 51.9665L69.8383 51.0251H69.6511L69.3702 50.7427L68.3404 50.8368L67.8723 51.2134V52.0607L67.4979 51.59L67.3106 51.0251L67.1234 50.931V50.7427H65.6255L65.4383 51.1193L65.2511 51.2134L65.3447 51.9665L65.0638 51.7782L64.8766 51.3075L64.5957 50.6485H64.783V50.8368L65.1574 50.931V50.6485L64.8766 50.5544L65.3447 50.4603H66.6553L66.2808 49.8013L66 48.954H64.783L64.2213 49.1423L64.034 49.9895H63.8468L63.4723 48.954L63.2851 48.7657L65.4383 48.6716L65.5319 48.3891L65.6255 48.5774H67.7787L67.3106 47.5418L67.0298 47.3536Z" fill="#DCDBDC"/>
<path d="M32.6723 51.4017L34.5447 51.4958L35.9489 51.59V52.5314L35.7617 52.6255L36.0426 52.7197L35.1064 52.6255L33.234 52.1548L32.1106 52.3431L28.366 53.3787H27.8043V51.59L28.9277 51.4958H30.8L32.6723 51.4017Z" fill="#FBFBFB"/>
<path d="M50.0851 48.6715H54.3915L54.017 48.8598H53.3617V51.7782L53.1745 51.9665H51.0213V49.4247L51.1149 48.954L50.2723 48.8598V52.6255L50.0851 53.0021L49.9915 52.6255V49.3305L50.0851 48.6715Z" fill="#F2F3F4"/>
<path d="M51.7702 61.9456L53.4553 62.1339V63.8284L53.1745 63.9226H51.6766L51.583 63.1695H51.3957V63.3577L50.834 63.4519L50.6468 62.887L50.5532 62.4163L50.3659 62.6046L50.2723 63.2636H49.8042L49.617 63.8284H48.0255L47.8383 63.7343V62.1339L47.9319 62.0397H50.7404L51.3957 62.228L51.4894 62.3222L51.7702 61.9456Z" fill="#FCFCFC"/>
<path d="M39.9745 74.9372L40.3489 75.1255L40.5362 75.0314H42.1277L42.4085 75.5962L43.2511 76.2552L43.8128 76.9142V77.8557L43.4383 77.6674L43.1575 77.3849L43.4383 77.8557L43.8128 78.0439V78.5146H44V79.0795L43.4383 78.7971L41.8468 77.8557L40.3489 77.0084L39.3192 76.2552V75.5962L39.5064 75.6904L39.7872 75.408L40.2553 75.5962L40.0681 76.0669V76.3494L40.2553 76.2552L40.4426 75.8787L40.9106 75.5962L41.0043 75.408L41.3787 75.5021L41.7532 75.8787V76.0669H41.9404L41.8468 75.5962L41.566 75.5021H41.9404L41.8468 75.2197H41.6596L41.4723 75.408L41.0043 75.3138L40.5362 75.5021L39.9745 75.3138L39.8809 75.1255L39.9745 74.9372Z" fill="#FAF9FA"/>
<path d="M36.6979 72.3954L38.1021 72.4895H39.4128L39.5064 73.9017L39.4128 74.3724V75.0314L39.1319 75.5021H38.9447L38.8511 75.408V75.7845L38.4766 75.6904L36.6979 74.5607L36.6042 74.4665V72.4895L36.6979 72.3954Z" fill="#FCFCFC"/>
<path d="M63.5659 52.5314H65.8128L66.1872 53.0962L66.6553 54.0377L67.217 54.6967V54.8849H67.4042L67.7787 55.7322L68.0596 56.0146V56.2971H67.217L67.1234 55.9205L66.1872 56.1088L65.8128 55.9205L65.3447 54.1318L64.9702 53.4728L64.4085 53.2845L63.7532 53.1904V52.7197L63.5659 52.5314Z" fill="#FBFBFB"/>
<path d="M67.8724 47.3536H71.3362L71.4298 47.4477V50.6485H70.6809L71.0553 50.3661H71.3362L71.2426 49.4247L71.1489 49.7071H70.9617L70.7745 48.8598H70.9617L71.0553 48.6716H67.966L67.6851 47.9184L67.7787 47.4477L67.8724 47.3536Z" fill="#FCFCFC"/>
<path d="M37.166 69.1946H38.5702L38.6638 69.5711V70.8891L38.5702 71.1715H36.7915L36.8851 71.3598L38.6638 71.454V72.2071H36.6979V69.2887L37.166 69.1946Z" fill="#FDFDFD"/>
<path d="M37.0723 49.613L39.4128 49.7071L39.5064 50.272V49.7071L39.7872 49.8013L39.8809 51.59L38.4766 51.6841H37.0723L36.9787 51.59L37.0723 49.613Z" fill="#FDFDFD"/>
<path d="M48.4936 75.3138L49.617 75.5962L49.9915 76.0669L50.0851 75.5962L50.2723 75.6904L50.366 76.3494L50.2723 76.5377H50.5532L50.6468 76.3494L50.5532 76.8201L49.617 77.4791L48.3064 78.2322L47.8383 78.5146H47.6511L47.7447 76.9142H48.2128L48.4 77.0084L48.3064 76.7259H47.8383V75.4079L48.4 75.5962L48.8681 76.0669V76.2552L49.2426 76.4435L49.5234 76.6318L48.4936 75.5021V75.3138Z" fill="#FAFAFA"/>
<path d="M53.4553 72.3954H53.5489V74.4665L53.4553 74.749L52.3319 75.5021L51.9575 75.7845L51.583 75.6904V75.0314L51.9575 74.9372L51.4894 74.4665V73.3368L51.7702 73.0544H53.1745L53.4553 73.1485V72.8661H51.6766L51.3958 72.6778V72.4895H53.3617L53.4553 72.3954Z" fill="#FBFBFB"/>
<path d="M37.5404 61.8515H38.5702L38.6638 62.0397V63.3577L38.8511 63.4519L38.5702 64.0167L38.1957 64.1109H37.3532L36.8851 63.8285L36.9787 64.205L37.634 64.2992H39.4128V64.4874L38.5702 64.5816H36.6042L36.6979 62.228L37.166 61.9456L37.5404 61.8515Z" fill="#FDFDFD"/>
<path d="M41.0043 58.3682H42.3149V59.9686L41.7532 60.1569H40.5362L40.3489 59.5921L39.9745 59.6862L40.0681 59.7803L39.9745 60.0628H39.6V58.8389L39.9745 58.5565L40.4426 58.4623H40.7234L41.0043 58.3682Z" fill="#FDFDFD"/>
<path d="M57.2 52.1548L61.9745 52.249V52.4372L61.7872 52.5314H59.4468L59.2596 53.0021L58.9787 52.8138V52.4372L58.5106 52.6255L58.6043 53.0021H58.417L58.2298 52.4372H57.0128L56.8255 53.0021H56.6383L56.4511 53.4728L55.7021 54.6025L55.3277 55.2615L55.0468 55.3557V55.1674H54.8596L54.766 55.3557L54.6723 54.6967L54.5787 54.4142L54.766 54.3201L55.1404 54.5084V54.3201L54.8596 54.1318L55.3277 54.0377L55.5149 54.2259L55.983 53.7552L56.0766 53.1904L55.7958 53.0962V52.4372L54.5787 52.5314L54.3915 52.6255L54.2979 52.908H54.1106L54.017 52.3431L54.4851 52.249L57.2 52.1548Z" fill="#DCDCDC"/>
<path d="M37.9149 65.523L38.5702 65.6172L38.6638 65.8054V67.5941H36.6979V65.8054L37.2596 65.6172L37.9149 65.523Z" fill="#FDFDFD"/>
<path d="M67.8723 52.0607L68.6213 52.3431L68.3404 52.5314L67.0298 52.6255L66.8426 53.0021L66.5617 53.1904L66.6553 53.6611L66.8426 54.0377H68.3404L68.7149 53.9435L68.1532 54.6025L67.7787 55.0732L67.8723 55.4498L68.0596 55.8264L68.3404 56.0146H69.6511V56.2029H69.4638L69.3702 56.6736L68.9021 56.7678L68.8085 56.3912L68.5277 56.2971L68.8085 56.7678V57.0502H68.6213V56.7678H68.4341V56.4854L68.1532 56.3912L67.7787 55.8264L67.4979 55.4498L67.4043 54.8849H67.217L67.0298 54.5084L66.5617 54.0377L65.8128 52.6255L63.1915 52.4372V52.3431L64.783 52.249H67.7787L67.8723 52.0607Z" fill="#DDDDDE"/>
<path d="M57.1064 48.8598H58.3234H58.5106H59.0723L58.8851 49.3305L58.6042 49.2364L58.8851 49.8013L58.9787 50.3661L58.8851 50.4603H56.8255L56.5447 50.1778L56.4511 49.613H56.2638V49.1423L56.4511 49.0481L56.5447 49.2364L56.8255 48.954L57.1064 48.8598Z" fill="#FBFBFB"/>
<path d="M48.3064 73.0544H49.617L49.9915 74.2782L49.617 74.6548L49.5234 74.9372H48.5872L48.4936 75.0314L48.7745 75.1255L47.9319 75.2197L47.8383 74.8431H48.1191L47.8383 74.6548V73.1485L48.3064 73.0544Z" fill="#FDFDFD"/>
<path d="M51.583 69.1946H53.3617L53.4553 69.9477V70.8891L53.3617 71.0774L52.8 71.1715H51.8638L51.583 71.0774L51.4893 70.4184L51.583 69.1946Z" fill="#FDFDFD"/>
<path d="M52.2383 65.6172H53.0808L53.3617 65.7113L53.4553 65.8996V67.5L53.3617 67.5941H51.9574L51.583 67.4059V65.8054L52.2383 65.6172Z" fill="#FDFDFD"/>
<path d="M56.4511 67.6883L57.1064 67.7824L57.7617 68.0649L57.6681 68.3473L57.0128 68.7239L56.3575 69.0063L55.983 69.1946H55.0468L54.3915 68.9121L54.017 68.7239V68.0649L54.2043 67.9707L55.0468 68.0649L55.1404 68.2531L56.4511 67.6883Z" fill="#FCFCFB"/>
<path d="M40.5362 61.9456H42.2213V63.9226L41.6596 64.0167H40.6298L40.5362 63.9226V61.9456Z" fill="#FDFDFD"/>
<path d="M59.634 48.8598H60.8511L61.1319 49.2364V49.4247H61.3192L61.6 50.4603H59.3532L58.9787 49.8954V49.3305L59.3532 48.954L59.634 48.8598Z" fill="#FCFCFC"/>
<path d="M40.9106 69.1946H42.2213L42.3149 69.2887V70.9833L42.2213 71.1715H40.6298L40.5362 71.0774V69.3828L40.9106 69.1946Z" fill="#FDFDFD"/>
<path d="M64.783 48.8598H65.5319L66 48.954L66.2809 49.4247L66.5617 50.1778L66.6553 50.4603L64.783 50.5544L64.2213 50.3661L64.0341 49.8954V49.3305L64.3149 48.954L64.783 48.8598Z" fill="#FCFCFC"/>
<path d="M48.1191 69.1946H49.4298L49.617 69.2887L49.7106 70.0418V70.9833L49.617 71.0774H47.8383V69.2887L48.1191 69.1946Z" fill="#FDFDFD"/>
<path d="M62.3489 48.8598H63.4723L63.8468 49.613L64.034 50.4603H61.8808L61.6 50.0837L61.5064 49.3305L61.7872 48.954L62.3489 48.8598Z" fill="#FCFCFC"/>
<path d="M67.5915 48.8598H68.5277L68.9957 49.9895L69.0894 50.4603H66.8425L66.4681 49.8013V49.3305H66.6553L66.7489 49.0481L67.5915 48.8598Z" fill="#FCFCFC"/>
<path d="M47.9319 65.7113H49.5234L49.7106 65.8996V67.4059L49.617 67.5H47.8383V65.8054L47.9319 65.7113Z" fill="#FDFDFD"/>
<path d="M40.7234 65.6172H42.2213L42.3149 65.7113V66.9351L42.1277 67.5H40.5362V65.7113L40.7234 65.6172Z" fill="#FDFDFD"/>
<path d="M61.4128 47.2594H62.3489L62.9106 48.3891V48.6715H60.4766L60.1957 47.9184L60.2894 47.4477L61.4128 47.2594Z" fill="#FBFBFB"/>
<path d="M69.5574 48.8598H70.7745L70.9617 49.3305V49.7071H71.1489L71.2425 49.3305L71.3362 49.4247V50.3661L71.0553 50.4603H69.3702L69.0893 49.9895L68.9957 49.4247L69.3702 48.954L69.5574 48.8598Z" fill="#FDFDFD"/>
<path d="M71.3362 50.7427H71.4298V53.7552L71.2425 53.3787L70.7745 53.1904L70.6808 52.6255L70.7745 52.4372L69.6511 52.5314L69.3702 53.0962L69.0894 53.3787L69.3702 53.8494V54.0377L71.1489 53.9435L70.9617 54.4142L70.8681 54.9791H70.4V54.5084H69.9319L70.1191 55.0732L70.5872 56.1088H70.3064L69.9319 55.1674V54.9791H69.7447L68.8085 53.5669L68.5276 52.9079V52.6255L68.9021 53.0021L69.2766 52.8138V52.5314L68.9957 52.3431L69.3702 52.249H71.3362V50.7427Z" fill="#D6D7D8"/>
<path d="M40.6298 73.0544H42.1277L42.3149 73.7134L42.2213 74.749L41.9404 74.8431H40.817L40.5362 74.6548V73.1485L40.6298 73.0544Z" fill="#FDFDFD"/>
<path d="M68.9957 49.613L69.3702 50.3661L69.8383 50.4603L70.3064 51.3075V51.8724L70.0255 51.9665L69.8383 51.0251H69.6511L69.3702 50.7427L68.3404 50.8368L67.8723 51.2134V52.0607L67.4979 51.59L67.3106 51.0251L67.1234 50.931V50.7427H65.6255L65.4383 51.1193L65.2511 51.2134L65.3447 51.9665L65.0638 51.7782L64.8766 51.3075L64.5957 50.6485H64.783V50.8368L65.1574 50.931V50.6485L64.8766 50.5544L65.3447 50.4603H66.6553L66.4681 49.9895L66.6553 49.8954L66.8425 50.4603H69.0894L68.9021 49.8954L68.9957 49.613Z" fill="#D7D7D8"/>
<path d="M66.2809 47.2594H66.8426L67.4043 47.5418L67.8723 48.6715H65.6255L65.2511 47.9184V47.4477L65.4383 47.3536L66.2809 47.2594Z" fill="#FCFCFC"/>
<path d="M62.4425 52.4372H64.1276V52.5314L63.8468 52.6255L63.7532 53.1904L63.2851 53.4728L62.7234 54.4142L62.5362 54.6967L62.2553 54.6025L61.7872 53.6611L61.6936 53.1904L62.0681 52.5314L62.4425 52.4372Z" fill="#FBFBFA"/>
<path d="M69.651 52.4372H70.7745L70.8681 53.1904L71.3362 53.3787V53.9435L71.1489 54.1318V53.9435L70.9617 54.0377L69.5574 54.1318L69.0893 53.6611L68.9957 53.3787L69.3702 53.0021L69.651 52.4372Z" fill="#FDFDFD"/>
<path d="M39.9745 49.1423H40.0681V53.3787L39.8809 53.4728V51.8724H37.0723L36.7915 51.7782L36.6979 49.5188L37.0723 49.4247L39.8809 49.5188L39.9745 49.1423ZM37.0723 49.613L36.9787 51.59L37.0723 51.6841H38.4766L39.8809 51.59L39.7872 49.8013H39.5064V49.9895L39.4128 49.7071L37.0723 49.613Z" fill="#DCDBDC"/>
<path d="M47.6511 47.5418H49.4298V47.7301H47.7447V48.6715L48.3064 48.5774H49.4298L49.3362 52.249L49.0553 52.3431L48.9617 51.59L49.0553 49.7071L49.1489 48.8598H47.8383L47.7447 57.9916H47.6511V47.5418Z" fill="#DDDDDD"/>
<path d="M60.0085 47.3536H60.5702L60.2893 47.5418L60.4766 48.6716H62.0681V48.8598H61.1319L61.0383 49.0481L60.8511 48.954H59.634L59.1659 49.2364L59.0723 49.3305L58.9787 49.9895L58.6979 49.7071L58.6042 49.2364H58.8851L59.0723 48.8598H58.5106L58.417 49.0481L58.3234 48.954H57.1064L56.6383 49.2364L56.4511 49.4247L56.3574 49.1423L56.2638 49.613L55.8893 49.1423V48.8598H54.1106L54.3915 48.6716H60.383L60.1021 48.1067L60.0085 47.3536Z" fill="#BBBEC4"/>
<path d="M50.4596 47.2594H57.5745L57.9489 47.4477H57.7617L57.6681 48.0126L57.5745 47.8243L57.2936 47.7301V47.4477L55.4213 47.5418V48.2008H55.234L55.1404 47.636H53.2681L50.1787 47.5418L50.4596 47.2594Z" fill="#F3F3F2"/>
<path d="M39.9745 74.9372L40.3489 75.1255L40.5362 75.0314H42.1277L42.4085 75.5962L43.2511 76.2552L43.8128 76.9142V77.8557L43.4383 77.6674L43.0638 77.2908V77.1025H42.8766L42.5021 76.5377L42.2213 76.3494V76.1611H42.0341L41.8468 75.5962L41.566 75.5021H41.9404L41.8468 75.2197H41.6596L41.4723 75.408L41.0043 75.3138L40.5362 75.5021L39.9745 75.3138L39.8809 75.1255L39.9745 74.9372Z" fill="#FCFCFC"/>
<path d="M35.8553 48.5774L40.1617 48.6716V48.8598H36.417L36.1362 48.7657L36.2298 51.0251V52.7197L35.8553 52.8138L35.7617 52.4372H35.8553V51.6841L34.5447 51.59L34.451 51.4017H35.7617L35.8553 48.5774Z" fill="#E1E1E0"/>
<path d="M53.3617 63.9226H53.5489L53.4553 65.4289H51.6766L51.583 64.9582L51.7702 64.5816L52.6128 64.4874H51.0213L51.1149 64.0167L51.7702 64.1109V64.3933L51.9574 64.2992L53.2681 64.205L53.3617 63.9226Z" fill="#FDFDFD"/>
<path d="M51.3957 54.7908L52.0511 54.8849L52.2383 54.9791V55.1674H52.4255L52.7064 55.7322L52.6128 56.2971L52.1447 56.6736L51.6766 56.8619H51.3021V54.8849L51.3957 54.7908Z" fill="#F3F3F4"/>
<path d="M50.0851 48.6715H51.3957L51.3021 49.8954V51.6841L52.1447 51.7782L51.9574 51.9665H51.0213V49.4247L51.1149 48.954L50.2723 48.8598V52.6255L50.0851 53.0021L49.9915 52.6255V49.3305L50.0851 48.6715Z" fill="#D4D4D6"/>
<path d="M21.5319 51.9665H22L22.0936 52.4372V52.6255L22.2808 52.7197L22.1872 52.4372L22.4681 52.1548L22.5617 52.6255L22.4681 53.3787H22.2808L22.1872 52.9079L22 52.8138L22.0936 54.0377L22.1872 54.4142L23.966 54.5084V54.6025L23.4979 54.6966H20.5957L20.4085 54.5084H21.5319L21.7191 53.6611V52.5314L21.2511 52.4372L21.5319 51.9665Z" fill="#E4E3E2"/>
<path d="M36.6979 67.7824L38.6638 67.9707L38.7574 68.6297L38.6638 68.818L37.166 69.0063L36.6979 69.1946V68.2531L37.3532 68.0649H36.6042L36.6979 67.7824Z" fill="#FDFDFD"/>
<path d="M67.8723 52.0607L68.6213 52.3431L68.3404 52.5314L67.0298 52.6255L66.8426 53.0021L66.5617 53.1904L66.4681 53.5669H66.2809L65.8128 52.6255L63.1915 52.4372V52.3431L64.783 52.249H67.7787L67.8723 52.0607Z" fill="#D8D9DB"/>
<path d="M51.583 71.3598H52.7064L53.4553 71.454V72.2071L53.3617 72.3013H52.3319L51.6766 72.2071L51.4893 71.7364L51.583 71.3598Z" fill="#FCFCFC"/>
<path d="M48.5872 67.9707L49.617 68.0649L49.7106 68.818L48.3064 69.0063H47.8383V68.159L47.9319 68.0649L48.5872 67.9707Z" fill="#FDFDFD"/>
<path d="M51.583 68.0648H53.4553L53.3617 68.9121H52.5191L51.6766 68.818L51.583 68.7238V68.0648Z" fill="#FDFDFD"/>
<path d="M53.6425 71.454H53.7362L53.9234 72.3954V72.6778V72.8661L54.2042 72.772L55.0468 73.2427L54.9532 73.6192L54.1106 74.1841L53.7362 74.09L53.6425 71.454Z" fill="#FBFBFB"/>
<path d="M47.7447 76.9142H48.2128L48.5872 77.1966L48.9617 77.2908L49.2426 77.6674L48.2128 78.3264L47.6511 78.5146L47.7447 76.9142Z" fill="#F7F7F7"/>
<path d="M48.0255 71.3598H49.4298L49.7106 71.454V72.113L49.4298 72.2071H48.0255L47.8383 72.113L47.9319 71.454L48.0255 71.3598Z" fill="#FAFAFA"/>
<path d="M68.8085 53.1904L69.0894 53.4728L69.3702 53.8494V54.0377L71.1489 53.9435L70.9617 54.4142L70.8681 54.9791H70.4V54.5084H69.9319L70.1191 55.0732L70.5872 56.1088H70.3064L69.9319 55.1674V54.9791H69.7447L68.8085 53.5669V53.1904Z" fill="#DBDBDB"/>
<path d="M36.9787 64.6757L37.166 64.7699V64.864L38.6638 64.6757L38.7574 65.1464V65.3347L36.6979 65.6172L36.6042 65.523V64.7699L36.9787 64.6757Z" fill="#FDFDFD"/>
<path d="M40.817 48.6715H43.4383V48.7657H41.0979V53.7552H40.817V51.9665L40.2553 51.8724L40.4425 51.6841H40.817V48.6715Z" fill="#D1D1D4"/>
<path d="M43.6255 73.0544H43.8128V75.0314H43.3447L43.1575 74.749L43.0638 73.7134V73.2427L43.6255 73.0544Z" fill="#FDFDFD"/>
<path d="M40.6298 64.6757H42.2213V65.3347L42.1277 65.4289H40.4426L40.5362 64.7699L40.6298 64.6757Z" fill="#FCFCFC"/>
<path d="M54.3915 48.6715H58.6979V48.8598H58.5106L58.417 49.0481L58.3234 48.954H57.1064L56.6383 49.2364L56.4511 49.4247L56.3574 49.1423L56.2638 49.613L55.8893 49.1423V48.8598H54.1106L54.3915 48.6715Z" fill="#BABDC4"/>
<path d="M61.2255 49.3305H61.4128L61.7872 50.272L61.8808 50.3661L63.2851 50.4603L63.3787 50.6485L61.8808 50.7427H60.7574L60.1957 51.4958L59.9149 51.59L59.4468 50.7427L59.3532 50.5544H59.7276L60.0085 51.2134L60.1957 51.1192L60.4766 50.5544L61.5064 50.3661L61.2255 49.3305Z" fill="#A2A7B3"/>
<path d="M41.8468 71.3598L42.3149 71.454V72.113H40.5362V71.454L41.8468 71.3598Z" fill="#FDFDFD"/>
<path d="M43.7192 57.6151H43.8128V59.8745L43.6255 60.1569H43.4383V59.9686H42.9702V59.1213L43.4383 58.5565H43.6255V57.8975L43.7192 57.6151Z" fill="#FDFDFD"/>
<path d="M39.9745 73.0544H40.2553L40.3489 73.8075V74.6548L40.0681 74.8431V74.6548L39.5064 74.749L39.6 73.431L39.6936 73.1485L39.9745 73.0544Z" fill="#F8F8F8"/>
<path d="M40.5362 60.3452H42.3149L42.2213 61.0983H41.1915L40.6298 61.0042L40.5362 60.3452Z" fill="#FCFCFC"/>
<path d="M54.1106 48.954L54.2979 49.0481V50.3661L55.983 50.4603L55.8894 50.7427L55.1404 50.6485L55.3277 51.4017L55.2341 51.59H55.0468V51.3075H54.8596V50.7427H54.2979V51.2134H54.017V49.4247L54.1106 48.954Z" fill="#B3B6BF"/>
<path d="M43.8128 51.9665H43.9064V57.3326H43.8128V56.7678L43.4383 56.6736L43.6255 56.5795L43.8128 56.6736V53.9435L43.1574 54.0377L42.1277 53.8494V53.7552H43.8128V52.9079H42.5021V52.6255L43.8128 52.7197V51.9665Z" fill="#E4E3E2"/>
<path d="M43.0638 47.2594L43.9064 47.3536L43.8128 47.7301H40.6298L40.7234 47.5418L41.3787 47.3536L43.0638 47.2594Z" fill="#A1A7B6"/>
<path d="M21.8128 55.0732L22.3745 55.1674H22.9362V55.3557L22.6553 55.5439H22.0936L22.3745 56.0146L22.6553 56.2029V56.4854L22.2809 56.3912L21.9064 56.1088L21.8128 55.6381H21.4383L21.5319 56.2971L21.2511 56.0146L21.3447 55.4498H21.1575V55.1674L21.8128 55.0732Z" fill="#E4E3E2"/>
<path d="M48.0255 64.6757H48.5872L48.7745 64.7699L49.2425 64.6757L49.1489 65.3347L49.0553 65.523H47.8383V64.7699L48.0255 64.6757Z" fill="#FCFCFC"/>
<path d="M41.4723 68.0648H42.2213V68.7238L40.817 68.818L40.5362 68.7238V68.2531L40.6298 68.159L41.4723 68.0648Z" fill="#FDFDFD"/>
<path d="M40.1617 65.523L40.3489 65.6172V66.6527L40.2553 67.5H39.7872L39.6936 67.3117L39.7872 66.9351L39.6936 66.841L39.7872 65.6172L40.1617 65.523Z" fill="#FDFDFD"/>
<path d="M47.7447 74.9372L48.1191 75.1255L48.4936 75.2197L48.7745 75.6904L49.7106 76.7259H49.4298L48.8681 76.2552L48.3064 75.5962L47.8383 75.408V76.7259H48.3064L48.7745 77.2908L48.3064 77.1025L47.7447 76.9142L47.6511 76.7259V75.0314L47.7447 74.9372Z" fill="#B4B7BF"/>
<path d="M56.2638 49.613H56.4511L56.7319 50.272L57.3872 50.4603V50.6485L58.2298 50.5544L57.9489 51.2134L57.5745 51.4017V51.59H57.3872L57.1064 50.7427L56.6383 50.5544L56.3574 50.272L56.2638 49.613Z" fill="#D3D5D9"/>
<path d="M24.434 51.9665H25.183L25.2766 52.5314L25.0894 53.4728L24.9021 53.5669L24.8085 53.2845L24.7149 52.2489L24.6213 52.4372L24.5277 53.3787H24.3404L24.1532 52.1548L24.434 51.9665Z" fill="#E4E3E2"/>
<path d="M43.7192 62.228H43.8128V63.9226H43.0638V62.887L43.1575 62.6046L43.4383 62.4163H43.7192V62.228Z" fill="#FDFDFD"/>
<path d="M50.1787 48.8598H50.2723V52.6255L50.0851 53.0021L49.9915 52.6255V49.3305L50.1787 48.8598Z" fill="#DDDCDD"/>
<path d="M55.2341 47.2594H57.5745L57.9489 47.4477H57.7617L57.6681 48.0126L57.5745 47.8243L57.2936 47.7301V47.4477L55.4213 47.5418V48.2008H55.2341L55.1404 47.636H53.2681V47.5418L55.2341 47.4477V47.2594Z" fill="#B9BBC2"/>
<path d="M39.8808 68.9121L40.2553 69.0063L40.3489 69.1004L40.2553 70.6067L40.0681 70.9833H40.2553V71.1715L39.7872 71.2657V69.3828L39.8808 68.9121Z" fill="#FDFDFD"/>
<path d="M55.983 53.8494L56.0766 54.0377L55.3277 55.2615L55.0468 55.3556V55.1674H54.8596L54.766 55.3556L54.6724 54.6967L54.5787 54.4142L54.766 54.3201L55.1404 54.5084V54.3201L54.8596 54.1318L55.3277 54.0377L55.5149 54.2259L55.983 53.8494Z" fill="#E4E3E2"/>
<path d="M58.9787 49.8954L59.3532 50.3661L60.8511 50.4603L60.4766 50.5544L60.2894 51.1193L60.0085 51.3075L59.7277 50.7427V50.5544L59.2596 50.6485H58.6043L58.1362 50.7427L57.9489 50.6485H57.3872V50.4603L58.8851 50.3661L58.9787 49.8954Z" fill="#E1E0E0"/>
<path d="M41.566 75.1255L42.0341 75.2197L41.8468 75.5962L42.0341 75.8787L41.9404 76.1611L41.4723 75.6904L41.0043 75.408L40.817 75.7845L40.4426 75.9728L40.2553 76.3494L39.8809 76.4435L40.2553 75.3138L40.7234 75.408L41.0043 75.2197L41.4723 75.3138L41.566 75.1255Z" fill="#E4E3E2"/>
<path d="M62.7234 47.8243L62.9106 48.0125L63.0979 48.6715H64.5958V48.7657L62.3489 48.954L61.6936 49.1423L61.5064 49.613L61.4128 49.3305L61.1319 49.4247L60.8511 48.954L61.1319 48.8598H62.0681V48.6715H62.9106L62.6298 48.1067L62.7234 47.8243Z" fill="#E0E0DF"/>
<path d="M43.4383 69.477H43.6255L43.7191 69.7594V71.2657H43.2511L43.1574 71.1716V69.6653H43.4383V69.477Z" fill="#FDFDFD"/>
<path d="M68.9958 49.613L69.3702 50.3661L69.8383 50.4603L70.3064 51.3075V51.8724L70.0255 51.9665L69.8383 51.0251H69.6511L69.3702 50.7427H68.4341V50.4603H69.0894L68.9021 49.8954L68.9958 49.613Z" fill="#D8D8D9"/>
<path d="M41.0979 76.2552H41.2851L41.1915 76.6318L41.5659 76.8201L42.2213 77.3849L42.6893 77.9498V78.2322L42.1276 78.0439L41.4723 77.6674L41.8468 77.4791L41.4723 77.1025L40.817 76.7259L40.7234 76.4435L41.0979 76.2552Z" fill="#E4E3E2"/>
<path d="M36.7915 49.4247L37.4468 49.5188L37.0723 49.613V51.59L39.4128 51.6841V51.7782H36.7915L36.6979 49.5188L36.7915 49.4247Z" fill="#B3B6BE"/>
<path d="M36.2298 72.3954L36.417 72.4895V74.1841L36.0426 74.09L35.6681 73.8075L35.7617 73.431L36.1362 72.4895L36.2298 72.3954Z" fill="#FAFAFA"/>
<path d="M43.3447 65.6172L43.8128 65.7113L43.7191 66.2762V67.0293L43.6255 67.3117H43.1574V65.8996L43.3447 65.8054V65.6172Z" fill="#FDFDFD"/>
<path d="M59.0723 52.249H61.9745V52.4372L61.7872 52.5314H59.4468L59.2596 53.0021L58.9787 52.8138L59.0723 52.249Z" fill="#C6C7CC"/>
<path d="M39.9745 61.8515L40.3489 61.9456V63.1695L39.8808 63.4519L39.6936 63.1695L39.7872 62.0397H39.9745V61.8515Z" fill="#FDFDFD"/>
<path d="M61.7872 64.9582H62.4425L62.7234 65.2406H64.034L63.9404 65.523H62.817L62.1617 65.2406L61.5064 65.3347L61.0383 65.523L60.6638 65.4289V65.3347L61.4128 65.1464L61.7872 64.9582ZM60.1021 65.2406L60.5702 65.3347V65.7113H60.383V65.4289H60.1021V65.2406Z" fill="#B3B6BE"/>
<path d="M42.6894 54.8849H43.3447L43.2511 55.4498V55.9205L42.5021 56.0146V54.9791L42.6894 54.8849Z" fill="#E5E4E3"/>
<path d="M71.3362 47.4477H71.4298V50.6485H70.6808L71.0553 50.3661H71.3362L71.2425 49.4247L71.1489 49.7071H70.9617L70.7745 48.8598H70.9617L71.0553 48.6715H71.3362V47.4477Z" fill="#DDDDDD"/>
<path d="M53.4553 72.3954H53.5489V73.0544L53.4553 72.8661H51.6766L51.3958 72.6778V72.4895H53.3617L53.4553 72.3954Z" fill="#FDFDFD"/>
<path d="M38.4766 51.59H39.7872V51.7782H40.0681V53.3787L39.8808 53.4728V51.8724H37.0723V51.7782L38.4766 51.6841V51.59Z" fill="#E4E3E2"/>
<path d="M36.5106 48.5774L40.1617 48.6716V48.8598H36.417L36.5106 48.5774Z" fill="#888FA0"/>
<path d="M37.8213 50.1778H38.4766L38.7574 50.272V50.931L38.2894 51.0251L38.1957 50.8368V50.272L37.9149 51.0251L37.634 50.931V50.272L37.8213 50.1778Z" fill="#DADADA"/>
<path d="M36.3234 60.4393H36.5106L36.6043 61.0042H36.7915V61.1925L38.1021 61.2866V61.3808L37.634 61.4749H36.8851L36.6043 61.3808L36.5106 61.6632V61.0983L36.1362 61.4749L35.5745 61.569L35.9489 61.1925H36.1362L36.3234 60.6276V60.4393Z" fill="#CACBCF"/>
<path d="M62.1617 50.6485H63.2851L62.817 51.4017V51.9665H62.6298L62.2553 51.1192L62.1617 50.6485Z" fill="#D6D6D9"/>
<path d="M69.8383 50.4603H70.8681L70.9617 50.7427H70.7745L70.6808 51.2134L70.2128 51.3075L69.8383 50.7427V50.4603Z" fill="#E4E3E2"/>
<path d="M57.1064 67.2176L57.3872 67.3117L57.0128 67.6883L57.8553 67.8766L58.0425 67.9707L58.9787 67.6883V67.8766L57.7617 68.4414L57.3872 68.5356L57.6681 68.2531V68.0649L56.451 67.6883L56.7319 67.5941V67.4059L57.1064 67.2176Z" fill="#C5C6CB"/>
<path d="M43.0638 56.7678H43.4383H43.8128V57.5209L42.8766 57.4268L42.6894 57.3326V56.8619L43.0638 56.7678Z" fill="#FBFBFB"/>
<path d="M40.817 48.6715H43.4383V48.7657H41.0979L41.0043 50.4602H40.817V48.6715Z" fill="#7B8397"/>
<path d="M39.9745 64.205H42.3149L42.5021 64.3933L42.2213 64.4875H39.6936L39.9745 64.205Z" fill="#FDFDFD"/>
<path d="M64.8766 50.5544H65.9064L65.4383 51.1193L65.2511 51.2134L65.3447 51.9665L65.0638 51.7782L64.8766 51.3075L64.5957 50.6485H64.783V50.8368L65.1574 50.931V50.6485L64.8766 50.5544Z" fill="#A6AAB6"/>
<path d="M65.7191 48.7657H67.1234L66.9362 48.8598V49.0481L66.6553 49.3305H66.4681L66.5617 49.9895H66.3745L66 49.1423V48.8598L65.7191 48.7657Z" fill="#A6AAB5"/>
<path d="M38.2894 72.772H38.7575L38.9447 73.2427L38.8511 73.9958L38.6638 73.7134L38.5702 73.1485L37.6341 73.0544L36.7915 73.1485V72.9602L37.0724 72.8661L38.2894 72.772Z" fill="#E4E3E2"/>
<path d="M39.7872 75.408L40.2553 75.5962L40.0681 76.0669L39.8809 76.4435L39.3192 76.2552V75.5962L39.5064 75.6904L39.7872 75.408Z" fill="#FBFBFB"/>
<path d="M23.1234 59.8745H23.4042L23.6851 60.4393L24.0596 60.5335V60.8159H24.2468V61.0042L24.9021 61.0983L24.8085 61.3808H24.3404V61.1925L23.9659 61.0042L23.3106 60.4393V60.2511L22.9362 60.1569L23.1234 59.8745Z" fill="#6A7183"/>
<path d="M69.4638 56.0146H69.6511V56.2029H69.4638L69.3702 56.6736L68.9021 56.7678L68.8085 56.3912L68.5277 56.2971L68.8085 56.7678V57.0502H68.6213V56.7678H68.4341V56.1088L69.4638 56.0146Z" fill="#C2C4C9"/>
<path d="M68.2468 48.7657H69.5575V48.954L69.0894 49.4247L68.9958 49.8954L68.7149 49.613L68.5277 48.954L68.2468 48.7657Z" fill="#A0A5B2"/>
<path d="M63.2851 48.7657H64.5957L64.1276 49.3305L64.034 49.9895H63.8468L63.4723 48.954L63.2851 48.7657Z" fill="#959BAA"/>
<path d="M50.0851 73.0544H50.2724L50.366 75.0314L50.2724 75.3138H50.0851L49.8979 74.8431L50.0851 73.0544Z" fill="#FDFDFD"/>
<path d="M56.8255 66.182L57.2 66.2761V66.4644L57.9489 66.6527L58.5106 66.5586L58.9787 66.4644L58.6042 66.7469L58.3234 66.9351L57.7617 67.1234L57.3872 67.2176L57.6681 66.7469L57.1064 66.5586H56.2638L56.4511 66.3703L56.8255 66.182Z" fill="#9EA3AF"/>
<path d="M39.9745 74.9372L40.3489 75.1255L40.5362 75.0314H42.1277V75.3138L41.6596 75.2197L41.4723 75.408L41.0043 75.3138L40.5362 75.5021L39.9745 75.3138L39.8809 75.1255L39.9745 74.9372Z" fill="#FDFDFD"/>
<path d="M67.8723 47.3536H71.3362V47.4477H70.3064L70.4 48.1067L69.9319 47.8243V47.4477L67.966 47.5418L67.7787 47.636L67.8723 47.3536Z" fill="#C9CACE"/>
<path d="M50.7404 73.3368L51.0213 73.6192L50.834 74.5607V74.749L51.2085 74.6548L51.3021 74.2782L51.3957 75.1255L50.9277 75.0314L50.6468 74.8431L50.5532 74.5607L50.6468 73.431L50.7404 73.3368Z" fill="#FDFDFD"/>
<path d="M35.4808 71.6423H35.6681L35.7617 71.8305L36.1362 71.7364L36.2298 72.4895L36.1362 72.6778H35.9489V72.113H35.2V71.8305L35.4808 71.6423ZM35.0128 72.0188L35.1064 72.3013L34.7319 72.3954L34.8255 72.113L35.0128 72.0188Z" fill="#D0D1D4"/>
<path d="M68.2468 52.249H69.3702V52.5314L69.2766 52.8138L68.9021 53.0962L68.5277 52.7197L68.3404 52.8138L68.2468 52.249Z" fill="#E4E3E2"/>
<path d="M49.1489 50.4603L49.3362 50.5544V52.249L49.0553 52.3431L48.9617 51.59L49.0553 50.6485L49.1489 50.4603Z" fill="#C3C5CA"/>
<path d="M37.4468 49.5188H39.5064L39.6 49.8013L39.5064 50.931H39.4128V49.7071H37.4468V49.5188Z" fill="#E4E3E2"/>
<path d="M57.1064 64.7699L57.2 65.1464L58.6042 65.3347L58.5106 65.523L57.6681 65.8996L57.4808 65.8054L57.7617 65.523L57.0128 65.2406L56.451 65.1464L56.7319 64.9582L57.1064 64.7699Z" fill="#C9CACF"/>
<path d="M64.2213 52.249H65.7192L65.9064 52.4372L65.8128 52.5314H64.1277L63.1915 52.4372V52.3431L64.2213 52.249Z" fill="#BCBEC5"/>
<path d="M64.034 49.8954L64.2213 50.1778L64.3149 50.3661L65.1574 50.6485V50.931L64.783 50.8368V50.6485L64.4085 50.7427H63.4723L63.2851 50.4603H64.034L63.9404 49.9895L64.034 49.8954Z" fill="#E6E5E4"/>
<path d="M43.2511 75.408H43.8128V76.5377L43.4383 76.3494L43.2511 75.408Z" fill="#FDFDFD"/>
<path d="M53.9234 72.113L54.5787 72.6778L55.234 73.1485V73.431H55.0468V73.2427L54.1106 72.8661H53.9234L53.8298 72.5837L53.9234 72.113Z" fill="#E0DFDF"/>
<path d="M59.3532 50.5544H59.7276L60.0085 51.2134L60.1957 51.1193L60.4766 50.5544H60.9447L60.5702 51.0251L60.1021 51.59H59.9149L59.4468 50.7427L59.3532 50.5544Z" fill="#AEB1BB"/>
<path d="M54.3915 48.6715H55.7021L56.0766 48.8598V49.0481L56.5447 48.954L56.6383 49.2364L56.4511 49.4247L56.3574 49.1423L56.2638 49.613L55.8893 49.1423V48.8598H54.1106L54.3915 48.6715Z" fill="#8B91A2"/>
<path d="M51.3957 60.5335H51.4894V61.0983L52.5191 61.3808L53.1745 61.569V61.6632L51.8638 61.569V61.3808H50.2723V61.2866L51.3957 61.1925V60.5335Z" fill="#E4E3E2"/>
<path d="M51.8638 50.272H52.4255V50.931L52.3319 51.0251H51.7702V50.3661L51.8638 50.272Z" fill="#B7BAC2"/>
<path d="M29.8638 62.0397L30.4255 62.228L31.0808 62.6046L30.9872 62.7929H30.8V63.0753L30.3319 63.4519L30.2383 63.6402H30.0511V63.8285L29.7702 63.9226L29.9574 63.546H30.1447L30.3319 63.1695L30.5191 62.887H30.7064L30.6128 62.6046L29.9574 62.3222L29.8638 62.0397Z" fill="#8C91A0"/>
<path d="M68.8085 57.0502L69.183 57.5209L69.2766 57.8975L68.9958 57.9916H68.3404L67.4043 57.7092V57.6151H68.0596L68.9958 57.8033L68.8085 57.4268V57.0502Z" fill="#D9D9DA"/>
<path d="M24.1532 55.8264L24.5277 55.9205V56.2029L24.6213 56.5795L25.0894 56.8619V57.3326L24.7149 57.1443L24.1532 56.2029V55.8264Z" fill="#CDCED2"/>
<path d="M30.1447 51.8724H30.3319V52.3431L30.4255 51.8724H30.7064L30.8936 52.5314L31.0809 52.6255L30.4255 52.7197L30.1447 52.5314V51.8724Z" fill="#E4E4E3"/>
<path d="M61.9745 52.249H64.2213V52.3431L62.0681 52.5314L61.9745 52.8138L61.6936 52.6255L61.7872 52.4372H61.9745V52.249Z" fill="#E4E3E2"/>
<path d="M47.8383 72.3954H48.4L48.6808 72.6778H49.1489L49.0553 72.8661L47.8383 72.9603V72.3954Z" fill="#FDFDFD"/>
<path d="M49.2426 64.1109H50.0851L50.2723 64.205V64.4874H48.9617L48.7745 64.2992L49.2426 64.205V64.1109Z" fill="#FDFDFD"/>
<path d="M54.4851 70.3243L55.0468 70.4184H55.7957L56.2638 70.3243L56.0766 70.6067L55.5149 70.8891L55.234 70.9833V70.7008L54.4851 70.5125V70.3243Z" fill="#C8C9CD"/>
<path d="M33.8894 69.9477L34.0766 70.0418L33.234 70.795L33.4213 71.1715L33.7021 71.454L33.5149 71.5481L32.9532 71.1715V70.9833H32.766V70.795L33.3277 70.4184L33.8894 69.9477Z" fill="#C8C9CD"/>
<path d="M53.1745 49.0481L53.3617 49.4247V51.1192L53.1745 51.2134L53.0808 49.3305L53.1745 49.0481Z" fill="#C4C5CB"/>
<path d="M35.9489 72.772L36.0425 73.0544L35.6681 73.7134L35.1064 73.431L35.0128 73.1485L35.6681 73.0544L35.9489 72.9602V72.772Z" fill="#E4E3E2"/>
<path d="M29.2085 60.1569L29.6766 60.251L30.6128 60.6276L30.4255 60.7218L30.3319 60.91H29.9574L29.7702 60.8159V60.6276L29.2085 60.251V60.1569Z" fill="#E7E6E5"/>
<path d="M53.2681 51.1192H53.3617V51.7782L53.1745 51.9665H51.9575L52.1447 51.7782L53.0809 51.6841L53.1745 51.2134L53.2681 51.1192Z" fill="#DFDFDF"/>
<path d="M23.5915 58.9331L23.966 59.1213L24.434 59.4979V59.6862H24.8085L24.7149 60.0628H24.3404V59.6862L23.966 59.5921L23.5915 59.1213V58.9331Z" fill="#6C7384"/>
<path d="M41.7532 49.4247H41.9404V51.2134L41.7532 51.3075L41.6596 51.1192L41.7532 49.4247Z" fill="#DBDBDC"/>
<path d="M41.566 75.1255L42.0341 75.2197L41.8468 75.5962L42.0341 75.8787L41.9404 76.1611L41.4724 75.6904L41.0043 75.3138L41.2851 75.2197L41.4724 75.3138L41.566 75.1255Z" fill="#D7D7D8"/>
<path d="M38.6638 61.2866H39.0383L38.9447 61.569L38.7574 61.6632L37.7277 61.7573L37.634 61.4749L37.7277 61.3807L38.6638 61.2866Z" fill="#FDFDFD"/>
<path d="M58.7915 48.7657H59.634V48.954L59.166 49.2364L59.0723 49.3305L58.9787 49.9895L58.6979 49.7071L58.6042 49.2364H58.8851L59.0723 48.8598L58.7915 48.7657Z" fill="#9BA0AD"/>
<path d="M38.6638 74.1841H38.8511L38.7574 75.1255L38.6638 75.4079L38.383 75.3138V75.0314L38.1957 74.8431L38.5702 74.4665L38.6638 74.1841Z" fill="#E4E3E2"/>
<path d="M54.5787 67.6883L55.983 67.8766L55.8894 68.0649L55.0468 68.3473V68.0649L54.4851 67.9707L54.5787 67.6883Z" fill="#CECFD2"/>
<path d="M56.5447 61.0042L57.9489 61.569L58.417 61.6632V61.8515H57.8553L56.8255 61.3807H56.5447V61.0042Z" fill="#D6D7D8"/>
<path d="M54.2043 68.818L55.0468 69.1004L55.983 69.1946L55.6085 69.477L54.766 69.2887L54.2043 69.1004V68.818Z" fill="#9399A8"/>
<path d="M56.2638 49.613H56.4511L56.7319 50.272L57.3872 50.4603V50.6485H57.2L57.1064 50.931V50.7427L56.6383 50.5544L56.3574 50.272L56.2638 49.613Z" fill="#A9ADB8"/>
<path d="M39.2255 68.818H39.4128V69.8536L39.1319 69.7594L38.9447 69.477V69.0063L39.2255 68.818Z" fill="#FDFDFD"/>
<path d="M26.1192 59.8745H26.4V60.1569L26.1192 60.2511L25.5575 60.91H25.183L25.3702 60.5335L25.9319 60.1569L26.1192 59.8745Z" fill="#656D82"/>
<path d="M55.7021 48.6715H57.0128L56.8255 49.0481L56.5447 49.1423V48.954L56.0766 49.0481L55.983 48.8598L55.7021 48.6715Z" fill="#D6D7DA"/>
<path d="M55.983 52.4372H56.7319L56.6383 52.908H56.4511L56.3574 53.1904L56.2638 52.908H55.983V52.4372Z" fill="#FCFCFC"/>
<path d="M49.2426 49.0481H49.3362V50.5544L49.0553 50.6485V49.7071L49.2426 49.0481Z" fill="#E4E3E2"/>
<path d="M61.1319 48.8598H61.8809L61.5064 49.613L61.4128 49.3305L61.1319 49.4247L60.8511 48.954L61.1319 48.8598Z" fill="#E7E6E5"/>
<path d="M26.1191 58.3682L26.4 58.4623V58.7448L25.9319 58.8389L25.2766 59.4979L24.8085 59.6862L25.2766 59.1213L26.0255 58.4623L26.1191 58.3682Z" fill="#2A3553"/>
<path d="M57.2936 69.0063L58.0425 69.2887L58.5106 69.1004L58.8851 69.1946L58.0425 69.5711H57.6681V69.3828L57.2936 69.1946V69.0063Z" fill="#BCBEC5"/>
<path d="M59.5404 67.6883L60.1021 67.7824L60.4766 67.9707H61.0383V68.159H60.7575V68.3473H60.4766V68.159L60.0085 68.0649L59.5404 67.7824V67.6883Z" fill="#C1C3C9"/>
<path d="M32.3915 65.8054L32.4851 66.0879L30.9872 67.1234L30.6128 67.2176V67.0293L31.3617 66.6527L32.3915 65.8054Z" fill="#253150"/>
<path d="M61.6 65.0523L61.9745 65.1464L61.0383 65.523L60.6638 65.4289V65.3347L61.4128 65.1464L61.6 65.0523ZM60.1021 65.2406L60.5702 65.3347V65.7113H60.383V65.4289H60.1021V65.2406Z" fill="#8A91A2"/>
<path d="M33.1404 64.9582L33.234 65.1464L32.6723 65.8054L32.7659 66.182L33.234 66.4644V66.6527L32.7659 66.4644L32.3915 66.0879L32.5787 65.6172L33.1404 64.9582Z" fill="#B1B4BB"/>
<path d="M42.6894 50.272L42.783 50.4602L42.6894 50.8368H43.0638V50.3661L43.2511 50.4602V51.0251H42.5957L42.4085 50.931V50.5544H42.5957L42.6894 50.272Z" fill="#999FAC"/>
<path d="M56.1702 71.454L56.451 71.5481L55.7021 72.113L55.234 72.0188L54.8596 71.8305V71.7364H55.7021L56.1702 71.454Z" fill="#A1A6B2"/>
<path d="M59.166 63.7343L59.5404 63.8285L58.3234 64.2992L57.7617 64.3933L57.5745 64.1109L58.6979 63.9226L59.166 63.7343Z" fill="#747C91"/>
<path d="M49.0553 60.6276H49.1489V61.1925L49.3362 61.3808L49.0553 61.6632H48.4936V61.3808L48.9617 61.2866V60.7218L49.0553 60.6276Z" fill="#E4E3E2"/>
<path d="M23.4979 57.5209L23.9659 57.6151L24.434 58.0858V58.2741L24.9021 58.1799L24.8085 58.4623L24.2468 58.3682L23.9659 57.9916V57.8033L23.4979 57.6151V57.5209Z" fill="#6A738A"/>
<path d="M67.1234 55.8264L67.217 56.2029L66.9362 56.7678H66.7489L66.8426 56.3912L66.2809 56.2029L66.5617 56.0146L67.1234 55.8264Z" fill="#C5C7CC"/>
<path d="M41.0043 51.6841L41.0979 51.9665V53.7552H40.817V51.8724H41.0043V51.6841Z" fill="#E4E3E2"/>
<path d="M65.4383 48.3891L65.7191 48.6715V48.8598L66 48.954H64.4085L64.5957 48.8598V48.6715H65.4383V48.3891Z" fill="#D9D9DA"/>
<path d="M65.9064 56.0146H66.5617L66.9362 56.2971H66.6553V56.4854L66.0936 56.5795L65.9064 56.2971V56.0146Z" fill="#EDECEB"/>
<path d="M47.7447 76.9142H47.8383L47.9319 78.0439L48.3064 78.2322L47.8383 78.5146H47.6511L47.7447 76.9142Z" fill="#E4E3E2"/>
<path d="M69.7447 50.8368L70.1192 51.0251L70.3064 51.3075V51.8724L70.0255 51.9665L69.7447 50.8368Z" fill="#B9BBC3"/>
<path d="M70.4936 48.5774L71.0553 48.6716L70.9617 48.954L69.5574 48.8598V48.6716L70.4936 48.5774Z" fill="#C9CACE"/>
<path d="M42.5958 74.4665H42.783L42.8766 74.9372L43.1575 75.0314V75.2197L42.5021 75.408V75.1255L42.5958 75.0314V74.4665Z" fill="#FDFDFD"/>
<path d="M22.8426 61.3808H23.3107V61.569H23.4979V61.7573L23.966 61.9456L24.0596 62.3222L23.3107 61.7573L22.749 61.569L22.8426 61.3808Z" fill="#A1A5B0"/>
<path d="M59.634 66.4644L60.1021 66.5586L60.2894 66.6527L61.4128 66.5586L61.2255 66.7469L60.7574 66.9351H60.1021V66.7469L59.634 66.5586V66.4644Z" fill="#8E94A4"/>
<path d="M50.0851 48.6715H51.3958L51.3021 49.1423L51.1149 48.954H50.0851V48.6715Z" fill="#838A9C"/>
<path d="M57.0128 70.2301L57.8553 70.5126L58.5106 70.7008L58.2298 70.8891L58.1362 70.795H57.6681L57.1064 70.4184L57.0128 70.2301Z" fill="#D8D8D9"/>
<path d="M48.3064 48.5774H49.4298L49.3362 49.0481L49.1489 48.8598L48.2128 48.7657L48.3064 48.5774Z" fill="#9197A6"/>
<path d="M43.0638 77.2908L43.4383 77.4791V77.6674L43.9064 77.7615V78.5146H43.8128V78.0439L43.3447 77.8556L43.0638 77.2908Z" fill="#D7D7D9"/>
<path d="M69.8383 50.6485H70.4936V51.1192L70.2128 51.3075L69.8383 50.6485Z" fill="#FDFDFD"/>
<path d="M59.7277 50.6485H60.4766L60.1957 51.2134H59.9149L59.7277 50.6485Z" fill="#FDFDFD"/>
<path d="M42.0341 76.1611H42.2213V76.3494L42.5958 76.5377L42.8766 76.9142V77.1025L42.5021 76.9142L42.1277 76.5377L42.0341 76.1611Z" fill="#B8BAC2"/>
<path d="M58.7915 56.1088L58.8851 56.4854L58.7915 56.8619L58.417 56.6736L58.5106 56.2029L58.7915 56.1088Z" fill="#B8BAC2"/>
<path d="M63.1915 52.4372H64.1277V52.5314L63.8468 52.6255L63.7532 53.1904H63.4723V52.5314L63.1915 52.4372Z" fill="#E4E3E2"/>
<path d="M32.3915 68.9121L33.234 69.2887L33.3276 69.6653L32.5787 69.2887L32.1106 69.1946L32.3915 68.9121Z" fill="#B6B9C1"/>
<path d="M32.3915 67.2176L32.5787 67.3117V67.5L31.9234 67.8766L31.3617 68.3473L31.1745 68.2531L31.9234 67.5941L32.3915 67.2176Z" fill="#253251"/>
<path d="M29.2085 65.8054L29.3958 65.8996L28.9277 66.3703L28.2723 66.9351L28.0851 66.841L29.2085 65.8054Z" fill="#2B3755"/>
<path d="M54.8596 65.2406L55.8893 65.3347L55.7957 65.523L54.9532 65.7113L54.8596 65.2406Z" fill="#CACBCF"/>
<path d="M28.6468 60.4393V60.7218L27.7106 61.4749L27.4298 61.3808L28.3659 60.6276L28.6468 60.4393Z" fill="#263454"/>
<path d="M64.3149 59.7803L64.6894 59.8745L63.6596 60.3452L63.0979 60.4393V60.251L63.8468 59.9686L64.3149 59.7803Z" fill="#D7D7D8"/>
<path d="M61.4128 56.0146L61.5064 56.2971L61.3192 56.3912L61.1319 56.7678L60.8511 56.3912L60.5702 56.2971V56.1088H61.2255L61.4128 56.0146Z" fill="#7C8497"/>
<path d="M68.5276 52.5314H69.3702L69.2766 52.8138L68.9021 53.0962L68.5276 52.7197V52.5314Z" fill="#FCFCFC"/>
<path d="M54.8596 50.6485H55.1404L55.3276 51.4017L55.234 51.59H55.0468V51.3075H54.8596V50.6485Z" fill="#BDBFC6"/>
<path d="M58.6979 66.4644L58.9787 66.5586L58.3234 66.9351L57.7617 67.1234L57.3872 67.2176L57.6681 66.841L58.6979 66.4644Z" fill="#9399A8"/>
<path d="M39.2255 63.2636H39.4128L39.5064 63.9226L39.1319 64.0167L39.0383 63.546L39.2255 63.2636Z" fill="#FDFDFD"/>
<path d="M59.9149 54.8849H60.4766L59.8213 55.9205L59.634 56.0146L59.8213 55.4498L60.0085 55.0732L59.9149 54.8849Z" fill="#C2C4C9"/>
<path d="M42.1277 53.7552H43.4383V54.0377L42.4085 53.9435L42.1277 53.7552Z" fill="#DDDCDD"/>
<path d="M68.8085 53.1904L69.0894 53.4728L69.5574 54.2259H69.2766L68.8085 53.5669V53.1904Z" fill="#AEB1BB"/>
<path d="M42.6894 50.1778L43.2511 50.272L43.0638 50.8368H42.6894V50.1778Z" fill="#F3F2F2"/>
<path d="M26.2128 64.2992H26.4L26.2128 64.7699L25.7447 64.9582L25.5574 65.1464V64.864L26.2128 64.2992Z" fill="#888F9E"/>
<path d="M70.2128 47.3536H71.3362V47.4477H70.3064L70.4 48.1067L69.9319 47.8243L70.1191 47.7301L70.2128 47.3536Z" fill="#E4E3E2"/>
<path d="M57.4808 47.2594L57.9489 47.3536L57.7617 47.4477L57.6681 48.0126L57.5745 47.8243L57.2936 47.7301V47.3536L57.4808 47.2594Z" fill="#A5A9B5"/>
<path d="M48.7745 75.1255H49.8043L49.8979 75.408L48.8681 75.3138L48.7745 75.1255Z" fill="#FDFDFD"/>
<path d="M23.1234 59.8745H23.4042L23.6851 60.5335H23.4042L23.3106 60.2511L22.9362 60.1569L23.1234 59.8745Z" fill="#9A9EA9"/>
<path d="M59.5404 56.0146V56.2971L59.3532 56.6736L59.166 56.5795L59.5404 56.0146ZM59.0724 56.6736L59.166 56.8619L58.8851 57.4268H58.7915L58.8851 56.7678L59.0724 56.6736Z" fill="#697289"/>
<path d="M69.8383 54.7908L70.1191 55.0732L70.5872 56.1088H70.3064L69.8383 54.9791V54.7908Z" fill="#777F94"/>
</g>
<defs>
<clipPath id="clip0_73_32126">
<rect width="88" height="90" fill="white"/>
</clipPath>
</defs>
</svg>
