<?xml version="1.0" encoding="UTF-8"?>
<svg version="1.1" viewBox="0 0 1980 1488" width="495" height="372" xmlns="http://www.w3.org/2000/svg">
<path transform="translate(735,446)" d="m0 0h2l4 25 5 19-1 6-9 9-11 17-8 16-6 15-6 20-5 26-1 7v17l4 13 6 9 8 7 11 5 8 2 44 2 29 4 23 6 25 9 19 9 22 13 12 8 16 13 13 12 7 8 9 10 11 14 10 15 12 21 11 23-1 2-12-14-9-11-14-14-17-13-10-7-14-10-23-12-25-10-24-7-18-4-17-2-18-1h-20l-30 3-20 4-10 3v3l7 6 9 4h9l18-3 15-1h23l26 2 22 4 24 7 28 13 18 10 20 14 15 13 8 7 7 8 12 14 12 17 9 14 3 4 10-2 6-2v-12l-2-10 7-2 44-7 16-6 12-9 7-5v-2h-42l-15 1-16-2-13-5-12-9-8-9-13-22-6-9 3-2 27-12 30-10 32-7 34-5 10-1 3-1 1 1 30 1 11-4 5-5 4-8 2-6-52-3-1 2v-2l-24 2-33 5-26 6-35 11-14 2h-11l-14-2-21-8-13-8 1-4 8-7 11-9 15-11 23-15 14-8 23-11 25-10 28-8 27-6 31-5 10-4 9-7 6-7 5-12 1-4v-15l-5-15-8-16-10-18-16-23 1-4 8-7 10-10 7-8 3 1 8 11 10 14 12 20 11 22 8 21 7 23 5 26 2 14 1 14v32l-2 24-5 23-7 25-11 28-12 23-14 21-10 13-10 11-7 8-20 20-11 9-16 11-24 14-26 12-22 8-24 6-26 4-25 2h-23l-34-4-26-6-23-8-23-10-22-12-24-16-11-9-14-12-18-18-11-14-13-18-11-19-9-17-10-26-6-20-6-28-2-16-1-14v-24l2-23 4-24 7-25 9-25 14-29 9-14 10-14 10-13 9-10zm72 361-35 5v3l12 7 9 3 13 1 18-1 27 2 19 3 16 4 17 5 18 8 21 11 17 12 9 5 8 1 12-1 2-1-2-4-11-10-19-14-20-12-15-7-24-9-19-5-26-5-11-1z" fill="#65AD40"/>
<path transform="translate(995,266)" d="m0 0 18 1 21 4 17 5 14 7-3 3-18 4-14 5-16 9-10 8-14 14-11 15-11 20-8 20-7 23-5 26-2 22v40l3 26 5 24 3 13 3 1 2-5 10-16 10-13 11-13 5-6h2l2-4 8-7 15-11 21-12 17-10 11-7 14-10 13-11 9-9 7-9 9-12 5-9 4-7-4 5-18 21-8 7-10 9-18 13-18 11-23 12-18 11-17 13-13 11-4 5-4 1-1-3 3-22 6-19 8-16 7-11 8-10 12-14 13-11 19-12 17-8 26-10 16-8 14-8 16-12 8-7 11-14 8-10 2 3-1 36-2 22-4 20-5 16-7 17-8 14-9 12-12 13-12 11-19 13-17 10-15 8-28 13-21 11-17 12-8 7-11 16-7 15-4 14-3 27-5 19-5 12-6 11-9 12-6 7-11 8-1-4 8-17 4-15 3-17 1-9v-30l-2-30-3-27-9-49-3-21-1-12v-30l3-26 5-22 6-20v-2l-8 17-6 18-4 20-2 25v23l2 25 6 38 3 15-4-4-12-22-11-18-12-22-9-21-5-15-4-17-1-7v-28l4-18 5-14 9-17 8-12 12-14 13-13 19-14 15-7 19-6 12-2z" fill="#65AD40"/>
<path transform="translate(756,384)" d="m0 0 2 3 8 31 4 10 9 14 11 12 8 7 19 12 12 8 16 12 14 12 8 8 9 11 9 14 7 15 4 13 1 7-3 1-30-15-20-11-13-9-13-11-12-12-9-11 8 16 6 10 11 13 9 9 12 9 23 12 33 14 12 5 10 5 4 5 4 9 2 10v23l-4-2-6-10-9-10-7-6-16-10-19-9-17-7-15-9-18-14-12-11-11-11-13-17-11-18-8-16-6-16-4-15-2-13v-31l2-19z" fill="#65AD40"/>
<path transform="translate(706,996)" d="m0 0h17l16 2 12 5 6 4 6 10 3 12v9l-4 10-8 12-7 9 1 9 12 22 9 12 4 6v5l-4 3h-13l-7-8-10-15-10-17-7-8-2-1h-8l-5 5-2 3-1 5v10l2 11v6l-6 7-5 2h-9l-6-3-4-4v-8l4-13v-75l-1-13v-10l6-3zm5 13-6 3-3 5v40l2 3 5 1h10l10-3 9-6 4-6 2-9v-11l-4-8-7-6-9-3z" fill="#65AD40"/>
<path transform="translate(1038 1e3)" d="m0 0 9 1 5 4 2 3v8l-4 16 1 7-2 3-1 60-1 13-3 8-1 1h-7l-6-4-5-5-8-10-16-25-18-27-11-14-5-4-1 19v62l-6 7-2 1h-11l-4-2v-7l3-10 2-23v-66l-2-9v-6h14l8 4 10 9 9 11 8 11 17 25 12 17 5 6 2 1v-17l1-28h-5v-1h5l-1-34 4-4z" fill="#65AD40"/>
<path transform="translate(560,996)" d="m0 0h20l12 3 8 5 3 3 1 3v7l-3 5-3 1-16-6-11-3h-11l-12 4-8 6-6 10-5 16v22l4 15 6 10 8 7 13 4h9l10-4 5-5 2-5-1-10-6-10-3-4v-3h19l11 3 2 3v18l-2 16-3 9-7 6-11 4-7 2h-26l-13-4-11-6-7-6-9-13-5-13-3-14v-18l3-17 8-16 7-9 12-9 13-5z" fill="#65AD40"/>
<path transform="translate(1354,997)" d="m0 0 10 1 6 3-1 5-9 12-10 14-6 10-8 13-2 6 10 19 12 18 14 19 1 6-4 4-3 1h-15l-6-4-6-10-14-26-5-7-4 2-7 10-9 17-6 14-4 3-3 1h-13l-4-2-1-7 8-11 12-16 10-17 6-10-1-5-8-15-11-19-13-17-2-3v-4l8-2 19-2 3 5 8 17 10 16 4 5 2 1 2-4 9-12 6-10 6-13 5-5z" fill="#65AD40"/>
<path transform="translate(1477,996)" d="m0 0h9l7 3 6 9 10 25 17 50 11 26v10l-7 6-3 1h-10l-4-4-9-26-2-4-5-2-15-1-18 2-5 3-4 8-7 21-2 3h-7l-6-3-4-6v-7l8-17 11-30 10-30 8-20 7-14zm5 27-3 4-14 39-1 7 2 1h29l3-2-2-12-7-26-4-11z" fill="#65AD40"/>
<path transform="translate(1146,997)" d="m0 0h47l6 3 3 4-1 7-3 3-33-1-10 2-5 6-2 8v12l3 7 5 3h14l5-1h9l5 4 1 2v9l-5 6-5 1-10-2h-15l-6 3-3 9 1 17 3 9 2 2 4 1h21l21-3 6 2 1 2v7l-7 8-7 1h-55l-11-2-6-3-1-5 3-15 2-31 1-23v-31l-3-9v-6l6-3z" fill="#65AD40"/>
<path transform="translate(394,995)" d="m0 0 5 2 6 9 4 8 13 36 14 39 9 21v8l-4 5-7 3h-9l-5-5-8-24-2-5-7-2-11-1h-11l-14 3v2h-2l-2 6-5 16-4 10-4 1-8-3-4-5-1-2v-8l8-17 9-25 15-44 8-18 6-7 4-2zm-5 27-5 10-9 25-3 12v4l2 1h27l4-1-1-9-9-33-4-9z" fill="#65AD40"/>
<path transform="translate(853,997)" d="m0 0h9l9 3 4 4-3 10-2 7-1 18v63l2 9 3 7-1 6-5 4h-22l-6-3-2-3 1-7 4-10 2-13v-67l-4-11-3-5v-5l5-4z" fill="#65AD40"/>
<path transform="translate(704,1038)" d="m0 0 2 1-1 2z" fill="#65AD40"/>
<path transform="translate(934,682)" d="m0 0 2 1h-3z" fill="#65AD40"/>
<path transform="translate(992,499)" d="m0 0 2 1z" fill="#65AD40"/>
<path transform="translate(1115,697)" d="m0 0" fill="#65AD40"/>
<path transform="translate(936,679)" d="m0 0" fill="#65AD40"/>
<path transform="translate(940,678)" d="m0 0" fill="#65AD40"/>
<path transform="translate(995,498)" d="m0 0" fill="#65AD40"/>
</svg>
