<svg width="581" height="482" viewBox="0 0 581 482" fill="none" xmlns="http://www.w3.org/2000/svg">
<path d="M192.508 100.65H193.475L195.41 114.629L197.829 125.253L197.345 128.608L192.992 133.64L187.671 143.146L183.802 152.093L180.899 160.48L177.997 171.664L175.579 186.202L175.095 190.116V199.622L177.03 206.891L179.932 211.923L183.802 215.838L189.122 218.633L192.992 219.752L214.274 220.87L228.301 223.107L239.426 226.462L251.518 231.494L260.708 236.527L271.349 243.796L277.154 248.269L284.893 255.538L291.181 262.248L294.566 266.722L298.92 272.313L304.24 280.141L309.077 288.529L314.881 300.271L320.202 313.132L319.718 314.251L313.914 306.422L309.561 300.271L302.789 292.443L294.566 285.174L289.729 281.26L282.958 275.668L271.833 268.958L259.741 263.367L248.132 259.452L239.426 257.216L231.203 256.097L222.497 255.538H212.823L198.312 257.216L188.638 259.452L183.802 261.13V262.807L187.187 266.162L191.541 268.399H195.894L204.6 266.722L211.856 266.162H222.98L235.556 267.281L246.197 269.517L257.806 273.432L271.349 280.701L280.056 286.292L289.729 294.121L296.985 301.39L300.854 305.304L304.24 309.777L310.044 317.606L315.849 327.111L320.202 334.94L321.653 337.176L326.49 336.058L329.392 334.94V328.23L328.425 322.638L331.81 321.52L353.093 317.606L360.832 314.251L366.636 309.218L370.022 306.422V305.304H349.707L342.452 305.863L334.713 304.745L328.425 301.949L322.62 296.916L318.751 291.884L312.463 279.582L309.561 274.55L311.012 273.432L324.071 266.722L338.582 261.13L354.06 257.216L370.506 254.42L375.342 253.861L376.793 253.302L377.277 253.861L391.788 254.42L397.108 252.183L399.527 249.387L401.462 244.914L402.429 241.559L377.277 239.882L376.793 241V239.882L365.185 241L349.223 243.796L336.647 247.151L319.718 253.302L312.947 254.42H307.626L300.854 253.302L290.697 248.828L284.409 244.355L284.893 242.118L288.762 238.204L294.083 233.172L301.338 227.021L312.463 218.633L319.234 214.16L330.359 208.009L342.452 202.418L355.995 197.944L369.054 194.589L384.049 191.793L388.886 189.557L393.239 185.643L396.141 181.728L398.559 175.019L399.043 172.782V164.394L396.625 156.007L392.755 147.06L387.918 136.995L380.179 124.135L380.663 121.898L384.532 117.984L389.369 112.392L392.755 107.919L394.206 108.478L398.076 114.629L402.913 122.457L408.717 133.64L414.038 145.942L417.907 157.684L421.293 170.545L423.711 185.083L424.679 192.912L425.162 200.74V218.633L424.195 232.053L421.777 244.914L418.391 258.893L413.07 274.55L407.266 287.411L400.494 299.153L395.657 306.422L390.82 312.573L387.435 317.046L377.761 328.23L372.44 333.262L364.701 339.413L353.093 347.241L340.517 353.951L329.876 358.425L318.267 361.78L305.691 364.016L293.599 365.135H282.474L266.029 362.898L253.453 359.543L242.328 355.07L231.203 349.478L220.562 342.768L208.953 333.821L203.633 328.789L196.861 322.079L188.155 312.014L182.834 304.186L176.546 294.121L171.226 283.496L166.872 273.991L162.036 259.452L159.133 248.269L156.231 232.612L155.264 223.666L154.78 215.838V202.418L155.748 189.557L157.682 176.137L161.068 162.158L165.421 148.179L172.193 131.963L176.546 124.135L181.383 116.306L186.22 109.037L190.573 103.445L192.508 100.65ZM227.334 302.508L210.404 305.304V306.981L216.209 310.896L220.562 312.573L226.85 313.132L235.556 312.573L248.616 313.691L257.806 315.369L265.545 317.606L273.768 320.401L282.474 324.875L292.632 331.025L300.854 337.735L305.208 340.531L309.077 341.09L314.881 340.531L315.849 339.972L314.881 337.735L309.561 332.144L300.371 324.316L290.697 317.606L283.442 313.691L271.833 308.659L262.643 305.863L250.067 303.067L244.746 302.508H227.334Z" fill="#65AD40"/>
<path d="M318.268 0L326.974 0.559165L337.132 2.79582L345.354 5.59165L352.126 9.5058L350.675 11.1833L341.968 13.42L335.197 16.2158L327.458 21.2483L322.621 25.7216L315.849 33.5499L310.529 41.9374L305.208 53.1207L301.339 64.3039L297.953 77.1647L295.534 91.703L294.567 104.005V126.371L296.018 140.91L298.436 154.329L299.888 161.599L301.339 162.158L302.306 159.362L307.143 150.415L311.98 143.146L317.3 135.877L319.719 132.522H320.686L321.654 130.285L325.523 126.371L332.778 120.22L342.936 113.51L351.159 107.919L356.479 104.005L363.251 98.413L369.539 92.2622L373.892 87.2297L377.278 82.1972L381.631 75.4872L384.049 70.4548L385.984 66.5406L384.049 69.3364L375.343 81.0789L371.473 84.993L366.637 90.0255L357.93 97.2947L349.224 103.445L338.099 110.155L329.393 116.306L321.17 123.575L314.882 129.726L312.947 132.522L311.012 133.081L310.529 131.404L311.98 119.102L314.882 108.478L318.751 99.5313L322.137 93.3805L326.007 87.7889L331.811 79.9606L338.099 73.8097L347.289 67.0998L355.512 62.6265L368.088 57.0348L375.827 52.5615L382.598 48.0882L390.337 41.3782L394.207 37.464L399.527 29.6357L403.397 24.0441L404.364 25.7216L403.881 45.8515L402.913 58.1531L400.979 69.3364L398.56 78.2831L395.174 87.7889L391.305 95.6172L386.952 102.327L381.147 109.596L375.343 115.747L366.153 123.016L357.93 128.608L350.675 133.081L337.132 140.35L326.974 146.501L318.751 153.211L314.882 157.125L309.561 166.072L306.176 174.459L304.241 182.288L302.79 197.385L300.371 208.009L297.953 214.719L295.051 220.87L290.697 227.58L287.795 231.494L282.475 235.968L281.991 233.731L285.861 224.225L287.795 215.838L289.246 206.332L289.73 201.299V184.524L288.763 167.749L287.312 152.652L282.958 125.253L281.507 113.51L281.024 106.8V90.0255L282.475 75.4872L284.893 63.1856L287.795 52.0023V50.884L283.926 60.3898L281.024 70.4548L279.089 81.6381L278.122 95.6172V108.478L279.089 122.457L281.991 143.705L283.442 152.093L281.507 149.856L275.703 137.555L270.383 127.49L264.578 115.188L260.225 103.445L257.807 95.058L255.872 85.5522L255.388 81.6381V65.9814L257.323 55.9165L259.741 48.0882L264.095 38.5824L267.964 31.8724L273.768 24.0441L280.056 16.7749L289.246 8.94664L296.502 5.03248L305.692 1.67749L311.496 0.559165L318.268 0Z" fill="#65AD40"/>
<path d="M202.668 65.9822L203.635 67.6597L207.505 84.9938L209.44 90.5854L213.793 98.4137L219.114 105.124L222.983 109.038L232.173 115.748L237.977 120.221L245.716 126.931L252.488 133.641L256.358 138.114L260.711 144.265L265.064 152.094L268.45 160.481L270.385 167.75L270.868 171.664L269.417 172.223L254.906 163.836L245.233 157.685L238.945 152.653L232.657 146.502L226.853 139.792L222.499 133.641L226.369 142.588L229.271 148.179L234.592 155.449L238.945 160.481L244.749 165.514L255.874 172.223L271.836 180.052L277.64 182.848L282.477 185.643L284.412 188.439L286.346 193.472L287.314 199.063V211.924L285.379 210.806L282.477 205.214L278.124 199.623L274.738 196.268L266.999 190.676L257.809 185.643L249.586 181.729L242.331 176.697L233.624 168.868L227.82 162.718L222.499 156.567L216.211 147.061L210.891 136.996L207.021 128.049L204.119 119.103L202.184 110.715L201.217 103.446V86.1121L202.184 75.488L202.668 65.9822Z" fill="#65AD40"/>
<path d="M178.481 408.191H186.703L194.442 409.309L200.247 412.105L203.149 414.341L206.051 419.933L207.502 426.643V431.676L205.567 437.267L201.698 443.977L198.312 449.01L198.796 454.042L204.6 466.344L208.953 473.054L210.888 476.409V479.205L208.953 480.882H202.665L199.279 476.409L194.442 468.021L189.605 458.515L186.22 454.042L185.252 453.483H181.383L178.964 456.279L177.997 457.956L177.513 460.752V466.344L178.481 472.495V475.85L175.579 479.764L173.16 480.882H168.807L165.905 479.205L163.97 476.968V472.495L165.905 465.225V423.288L165.421 416.019V410.427L168.323 408.75L178.481 408.191ZM180.899 415.46L177.997 417.137L176.546 419.933V442.3L177.513 443.977L179.932 444.536H184.769L189.605 442.859L193.959 439.504L195.893 436.149L196.861 431.116V424.966L194.926 420.492L191.54 417.137L187.187 415.46H180.899Z" fill="#65AD40"/>
<path d="M339.065 410.427L343.419 410.986L345.837 413.223L346.804 414.9V419.374L344.87 428.32L345.353 432.235L344.386 433.912L343.902 467.462L343.419 474.731L341.968 479.204L341.484 479.764H338.098L335.196 477.527L332.777 474.731L328.908 469.139L321.169 455.16L312.463 440.063L307.142 432.235L304.724 429.998L304.24 440.622V475.29L301.338 479.204L300.37 479.764H295.05L293.115 478.645V474.731L294.566 469.139L295.533 456.279V419.374L294.566 414.341V410.986H301.338L305.207 413.223L310.044 418.255L314.397 424.406L318.267 430.557L326.49 444.536L332.294 454.042L334.712 457.397L335.68 457.956V448.45L336.163 432.794H333.745V432.235H336.163L335.68 413.223L337.614 410.986L339.065 410.427Z" fill="#65AD40"/>
<path d="M107.863 408.191H117.536L123.341 409.868L127.21 412.664L128.661 414.341L129.145 416.019V419.933L127.694 422.729L126.243 423.288L118.504 419.933L113.183 418.256H107.863L102.058 420.492L98.1889 423.847L95.2868 429.439L92.8683 438.385V450.687L94.8031 459.075L97.7052 464.666L101.575 468.58L107.863 470.817H112.216L117.053 468.58L119.471 465.785L120.439 462.989L119.955 457.397L117.053 451.805L115.602 449.569V447.891H124.792L130.112 449.569L131.08 451.246V461.311L130.112 470.258L128.661 475.29L125.275 478.645L119.955 480.882L116.569 482H103.993L97.7052 479.764L92.3847 476.409L88.9988 473.054L84.6456 465.785L82.2272 458.515L80.7761 450.687V440.622L82.2272 431.116L86.0967 422.17L89.4825 417.137L95.2868 412.105L101.575 409.309L107.863 408.191Z" fill="#65AD40"/>
<path d="M491.912 408.749L496.749 409.309L499.651 410.986L499.167 413.782L494.814 420.492L489.977 428.32L487.075 433.912L483.205 441.181L482.238 444.536L487.075 455.16L492.879 465.225L499.651 475.849L500.134 479.204L498.2 481.441L496.749 482H489.493L486.591 479.763L483.689 474.172L476.917 459.633L474.499 455.719L472.564 456.838L469.178 462.429L464.825 471.935L461.923 479.763L459.988 481.441L458.537 482H452.249L450.314 480.882L449.831 476.967L453.7 470.817L459.505 461.87L464.341 452.364L467.244 446.773L466.76 443.977L462.89 435.589L457.57 424.965L451.282 415.459L450.314 413.782V411.545L454.184 410.427L463.374 409.309L464.825 412.104L468.695 421.61L473.532 430.557L475.466 433.353L476.434 433.912L477.401 431.675L481.754 424.965L484.656 419.373L487.559 412.104L489.977 409.309L491.912 408.749Z" fill="#65AD40"/>
<path d="M551.406 408.191H555.759L559.145 409.868L562.047 414.901L566.884 428.88L575.107 456.838L580.428 471.376V476.968L577.042 480.323L575.591 480.882H570.754L568.819 478.645L564.466 464.107L563.498 461.87L561.08 460.752L553.825 460.193L545.118 461.311L542.7 462.989L540.765 467.462L537.379 479.205L536.412 480.882H533.026L530.124 479.205L528.189 475.85V471.935L532.059 462.43L537.379 445.655L542.216 428.88L546.086 417.696L549.472 409.868L551.406 408.191ZM553.825 423.288L552.374 425.525L545.602 447.332L545.118 451.246L546.086 451.805H560.113L561.564 450.687L560.596 443.977L557.211 429.439L555.276 423.288H553.825Z" fill="#65AD40"/>
<path d="M391.305 408.749H414.039L416.941 410.427L418.392 412.664L417.908 416.578L416.457 418.255L400.496 417.696L395.659 418.814L393.24 422.169L392.273 426.643V433.353L393.724 437.267L396.142 438.944H402.914L405.332 438.385H409.686L412.104 440.622L412.588 441.74V446.773L410.169 450.128L407.751 450.687L402.914 449.568H395.659L392.757 451.246L391.305 456.278L391.789 465.784L393.24 470.817L394.208 471.935L396.142 472.494H406.3L416.457 470.817L419.359 471.935L419.843 473.053V476.967L416.457 481.441L413.071 482H386.469L381.148 480.882L378.246 479.204L377.762 476.408L379.213 468.021L380.181 450.687L380.664 437.826V420.492L379.213 415.459V412.104L382.115 410.427L391.305 408.749Z" fill="#65AD40"/>
<path d="M27.5703 407.631L29.9887 408.75L32.8908 413.782L34.8256 418.256L41.1136 438.386L47.8852 460.193L52.2384 471.935V476.409L50.3036 479.205L46.9178 480.882H42.5646L40.1462 478.086L36.2767 464.666L35.3093 461.87L31.9235 460.752L26.6029 460.193H21.2823L14.5107 461.87V462.989H13.5433L12.5759 466.344L10.1575 475.29L8.22271 480.882L6.28796 481.441L2.41844 479.764L0.483689 476.968L0 475.85V471.376L3.86951 461.87L8.22271 447.891L15.478 423.288L19.3476 413.223L22.2497 409.309L24.1844 408.191L27.5703 407.631ZM25.1518 422.729L22.7334 428.321L18.3802 442.3L16.9291 449.01V451.246L17.8965 451.805H30.9561L32.8908 451.246L32.4072 446.214L28.054 427.761L26.1192 422.729H25.1518Z" fill="#65AD40"/>
<path d="M249.583 408.749H253.937L258.29 410.427L260.225 412.664L258.774 418.255L257.806 422.169L257.322 432.234V467.462L258.29 472.494L259.741 476.408L259.257 479.763L256.839 482H246.198L243.296 480.322L242.328 478.645L242.812 474.731L244.747 469.139L245.714 461.87V424.406L243.779 418.255L242.328 415.459V412.664L244.747 410.427L249.583 408.749Z" fill="#65AD40"/>
<path d="M177.516 431.675L178.483 432.234L177.999 433.353L177.516 431.675Z" fill="#65AD40"/>
<path d="M288.761 232.613L289.728 233.172H288.277L288.761 232.613Z" fill="#65AD40"/>
</svg>
