<svg width="594" height="694" viewBox="0 0 594 694" fill="none" xmlns="http://www.w3.org/2000/svg">
<path d="M508.791 81.9938C508.325 78.6112 506.892 75.4399 504.668 72.8697C502.443 70.2996 499.524 68.4425 496.27 67.5269L283.144 7.60366C280.106 6.74865 276.894 6.74865 273.856 7.60366L60.7297 67.5269C57.4751 68.442 54.556 70.2989 52.3315 72.8691C50.1069 75.4394 48.674 78.611 48.2088 81.9938C46.9726 90.9804 18.7723 303.314 91.1043 408.943C163.351 514.447 269.93 541.484 274.431 542.584C277.105 543.238 279.895 543.238 282.569 542.584C287.072 541.484 393.651 514.447 465.896 408.943C538.228 303.316 510.027 90.9827 508.791 81.9938Z" fill="url(#paint0_linear_1053_12)"/>
<path d="M254.131 177.544C254.131 164.085 265.042 153.175 278.5 153.175C291.958 153.175 302.869 164.085 302.869 177.544V372.494C302.869 385.952 291.958 396.862 278.5 396.862C265.042 396.862 254.131 385.952 254.131 372.494V177.544Z" fill="white"/>
<path d="M375.975 250.65C389.433 250.65 400.344 261.56 400.344 275.019C400.344 288.477 389.433 299.387 375.975 299.387H181.025C167.567 299.387 156.656 288.477 156.656 275.019C156.656 261.56 167.567 250.65 181.025 250.65L375.975 250.65Z" fill="white"/>
<path d="M4.56445 632C4.56445 625.133 6.09779 619 9.16445 613.6C12.2978 608.133 16.5311 603.9 21.8645 600.9C27.2645 597.833 33.2978 596.3 39.9645 596.3C47.7645 596.3 54.5978 598.3 60.4645 602.3C66.3311 606.3 70.4311 611.833 72.7645 618.9H56.6645C55.0645 615.567 52.7978 613.067 49.8645 611.4C46.9978 609.733 43.6645 608.9 39.8645 608.9C35.7978 608.9 32.1645 609.867 28.9645 611.8C25.8311 613.667 23.3645 616.333 21.5645 619.8C19.8311 623.267 18.9645 627.333 18.9645 632C18.9645 636.6 19.8311 640.667 21.5645 644.2C23.3645 647.667 25.8311 650.367 28.9645 652.3C32.1645 654.167 35.7978 655.1 39.8645 655.1C43.6645 655.1 46.9978 654.267 49.8645 652.6C52.7978 650.867 55.0645 648.333 56.6645 645H72.7645C70.4311 652.133 66.3311 657.7 60.4645 661.7C54.6645 665.633 47.8311 667.6 39.9645 667.6C33.2978 667.6 27.2645 666.1 21.8645 663.1C16.5311 660.033 12.2978 655.8 9.16445 650.4C6.09779 645 4.56445 638.867 4.56445 632ZM98.7223 620.2C100.522 617.267 102.856 614.967 105.722 613.3C108.656 611.633 111.989 610.8 115.722 610.8V625.5H112.022C107.622 625.5 104.289 626.533 102.022 628.6C99.8223 630.667 98.7223 634.267 98.7223 639.4V667H84.7223V611.6H98.7223V620.2ZM178.152 611.6L143.852 693.2H128.952L140.952 665.6L118.752 611.6H134.452L148.752 650.3L163.252 611.6H178.152ZM199.699 619.6C201.499 617.067 203.965 614.967 207.099 613.3C210.299 611.567 213.932 610.7 217.999 610.7C222.732 610.7 226.999 611.867 230.799 614.2C234.665 616.533 237.699 619.867 239.899 624.2C242.165 628.467 243.299 633.433 243.299 639.1C243.299 644.767 242.165 649.8 239.899 654.2C237.699 658.533 234.665 661.9 230.799 664.3C226.999 666.7 222.732 667.9 217.999 667.9C213.932 667.9 210.332 667.067 207.199 665.4C204.132 663.733 201.632 661.633 199.699 659.1V693.4H185.699V611.6H199.699V619.6ZM228.999 639.1C228.999 635.767 228.299 632.9 226.899 630.5C225.565 628.033 223.765 626.167 221.499 624.9C219.299 623.633 216.899 623 214.299 623C211.765 623 209.365 623.667 207.099 625C204.899 626.267 203.099 628.133 201.699 630.6C200.365 633.067 199.699 635.967 199.699 639.3C199.699 642.633 200.365 645.533 201.699 648C203.099 650.467 204.899 652.367 207.099 653.7C209.365 654.967 211.765 655.6 214.299 655.6C216.899 655.6 219.299 654.933 221.499 653.6C223.765 652.267 225.565 650.367 226.899 647.9C228.299 645.433 228.999 642.5 228.999 639.1ZM269.772 623.1V649.9C269.772 651.767 270.206 653.133 271.072 654C272.006 654.8 273.539 655.2 275.672 655.2H282.172V667H273.372C261.572 667 255.672 661.267 255.672 649.8V623.1H249.072V611.6H255.672V597.9H269.772V611.6H282.172V623.1H269.772ZM288.642 639.1C288.642 633.5 289.742 628.533 291.942 624.2C294.208 619.867 297.242 616.533 301.042 614.2C304.908 611.867 309.208 610.7 313.942 610.7C318.075 610.7 321.675 611.533 324.742 613.2C327.875 614.867 330.375 616.967 332.242 619.5V611.6H346.342V667H332.242V658.9C330.442 661.5 327.942 663.667 324.742 665.4C321.608 667.067 317.975 667.9 313.842 667.9C309.175 667.9 304.908 666.7 301.042 664.3C297.242 661.9 294.208 658.533 291.942 654.2C289.742 649.8 288.642 644.767 288.642 639.1ZM332.242 639.3C332.242 635.9 331.575 633 330.242 630.6C328.908 628.133 327.108 626.267 324.842 625C322.575 623.667 320.142 623 317.542 623C314.942 623 312.542 623.633 310.342 624.9C308.142 626.167 306.342 628.033 304.942 630.5C303.608 632.9 302.942 635.767 302.942 639.1C302.942 642.433 303.608 645.367 304.942 647.9C306.342 650.367 308.142 652.267 310.342 653.6C312.608 654.933 315.008 655.6 317.542 655.6C320.142 655.6 322.575 654.967 324.842 653.7C327.108 652.367 328.908 650.5 330.242 648.1C331.575 645.633 332.242 642.7 332.242 639.3ZM422.715 597.2L397.115 667H380.115L354.515 597.2H369.515L388.715 652.7L407.815 597.2H422.715ZM438.209 605C435.742 605 433.676 604.233 432.009 602.7C430.409 601.1 429.609 599.133 429.609 596.8C429.609 594.467 430.409 592.533 432.009 591C433.676 589.4 435.742 588.6 438.209 588.6C440.676 588.6 442.709 589.4 444.309 591C445.976 592.533 446.809 594.467 446.809 596.8C446.809 599.133 445.976 601.1 444.309 602.7C442.709 604.233 440.676 605 438.209 605ZM445.109 611.6V667H431.109V611.6H445.109ZM475.241 623.1V649.9C475.241 651.767 475.674 653.133 476.541 654C477.474 654.8 479.008 655.2 481.141 655.2H487.641V667H478.841C467.041 667 461.141 661.267 461.141 649.8V623.1H454.541V611.6H461.141V597.9H475.241V611.6H487.641V623.1H475.241ZM494.111 639.1C494.111 633.5 495.211 628.533 497.411 624.2C499.677 619.867 502.711 616.533 506.511 614.2C510.377 611.867 514.677 610.7 519.411 610.7C523.544 610.7 527.144 611.533 530.211 613.2C533.344 614.867 535.844 616.967 537.711 619.5V611.6H551.811V667H537.711V658.9C535.911 661.5 533.411 663.667 530.211 665.4C527.077 667.067 523.444 667.9 519.311 667.9C514.644 667.9 510.377 666.7 506.511 664.3C502.711 661.9 499.677 658.533 497.411 654.2C495.211 649.8 494.111 644.767 494.111 639.1ZM537.711 639.3C537.711 635.9 537.044 633 535.711 630.6C534.377 628.133 532.577 626.267 530.311 625C528.044 623.667 525.611 623 523.011 623C520.411 623 518.011 623.633 515.811 624.9C513.611 626.167 511.811 628.033 510.411 630.5C509.077 632.9 508.411 635.767 508.411 639.1C508.411 642.433 509.077 645.367 510.411 647.9C511.811 650.367 513.611 652.267 515.811 653.6C518.077 654.933 520.477 655.6 523.011 655.6C525.611 655.6 528.044 654.967 530.311 653.7C532.577 652.367 534.377 650.5 535.711 648.1C537.044 645.633 537.711 642.7 537.711 639.3ZM583.584 596L581.984 644.3H570.184L568.484 596H583.584ZM576.384 667.7C573.851 667.7 571.751 666.933 570.084 665.4C568.484 663.8 567.684 661.833 567.684 659.5C567.684 657.167 568.484 655.233 570.084 653.7C571.751 652.1 573.851 651.3 576.384 651.3C578.851 651.3 580.884 652.1 582.484 653.7C584.084 655.233 584.884 657.167 584.884 659.5C584.884 661.833 584.084 663.8 582.484 665.4C580.884 666.933 578.851 667.7 576.384 667.7Z" fill="url(#paint1_linear_1053_12)"/>
<defs>
<linearGradient id="paint0_linear_1053_12" x1="515.225" y1="543.075" x2="-116.614" y2="499.897" gradientUnits="userSpaceOnUse">
<stop stop-color="#92A3FD"/>
<stop offset="1" stop-color="#9DCEFF"/>
</linearGradient>
<linearGradient id="paint1_linear_1053_12" x1="48.1498" y1="638" x2="208.782" y2="765.113" gradientUnits="userSpaceOnUse">
<stop stop-color="#EB00FF"/>
<stop offset="1" stop-color="#6F9DF5"/>
</linearGradient>
</defs>
</svg>
