<svg width="978" height="1371" viewBox="0 0 978 1371" fill="none" xmlns="http://www.w3.org/2000/svg">
<path d="M427.875 0L454.77 1.96418L476.775 11.7851L496.335 29.4628L506.115 49.1046V76.6032L493.89 96.245L481.665 108.03L486.555 119.815L515.895 164.991L552.57 221.953L611.25 314.269L640.59 361.41L665.04 398.729L694.38 445.87L743.28 520.509L828.855 658.001L841.08 650.145L863.085 628.539L902.205 595.148L911.985 585.327L909.54 577.47L875.31 524.437L845.97 481.225L801.96 412.479L772.62 369.266L731.055 304.448L701.715 261.236L691.935 245.523L657.705 241.595L638.145 233.738L625.92 225.881L608.805 204.275L606.36 198.383V166.956L618.585 147.314L635.7 133.564L652.815 125.708L662.595 123.744H696.825L726.165 135.529L743.28 151.242L753.06 166.956L755.505 174.812V194.454L745.725 214.096L733.5 227.845L735.945 237.666L767.73 286.771L792.18 324.09L826.41 377.123L870.42 443.905L902.205 493.01L926.655 530.33L963.33 585.327L960.885 595.148L938.88 612.825L921.765 628.539L894.87 652.109L850.86 693.357L931.545 822.993L951.105 860.312L965.775 901.56L975.555 948.701L978 972.271V1005.66L973.11 1044.95L960.885 1090.12L941.325 1131.37L911.985 1176.55L882.645 1207.97L860.64 1227.61L826.41 1255.11L792.18 1276.72L750.615 1298.33L694.38 1319.93L655.26 1331.72L772.62 1337.61L826.41 1343.5L848.415 1349.39L845.97 1355.29L814.185 1361.18L784.845 1365.11L706.605 1369.04L618.585 1371H491.445L376.53 1369.04L278.73 1365.11L220.05 1357.25L212.715 1353.32V1347.43L249.39 1341.26L288.51 1337.33L317.85 1335.64L383.865 1333.68L376.53 1329.75L327.63 1314.04L288.51 1296.36L254.28 1276.72L227.385 1259.04L183.375 1223.69L158.925 1198.15L134.475 1168.69L107.58 1127.44L90.465 1090.12L78.24 1048.87L73.35 1019.41V952.629L80.685 915.309L92.91 877.99L105.135 848.527L68.46 817.1L46.455 795.494L12.225 766.032L0 754.246L4.89 744.425L46.455 693.357L78.24 654.073L117.36 604.968L136.92 581.398L134.475 573.542L122.25 553.9L119.805 546.043V528.365L129.585 506.759L146.7 491.046L168.705 481.225L183.375 477.297H210.27L234.72 485.153L254.28 498.903L266.505 514.616L271.395 526.401V549.971L261.615 569.613L246.945 583.362L222.495 595.148L215.16 597.112H173.595L168.705 606.933L144.255 636.395L105.135 685.5L63.57 736.569L53.79 750.318L83.13 775.852L105.135 795.494L122.25 813.172L127.14 815.136L132.03 805.315L166.26 760.139L190.71 730.676L220.05 693.357L256.725 646.216L293.4 601.04L330.075 553.9L371.64 502.831L410.76 455.691V449.798L396.09 432.12L391.2 422.299V392.837L400.98 375.159L418.095 359.446L440.1 349.625L449.88 347.66H481.665L506.115 355.517L520.785 365.338L535.455 384.98L540.345 396.765V420.335L525.675 443.905L508.56 457.655L491.445 465.511L452.325 469.44L420.54 512.652L386.31 559.792L349.635 610.861L281.175 705.142L268.95 720.855L293.4 716.927H320.295L359.415 722.819L396.09 734.605L422.985 748.354L440.1 760.139L457.215 781.745L466.995 799.423L469.44 811.208L486.555 815.136L506.115 828.885L515.895 850.491L513.45 870.133L503.67 881.918L486.555 893.703L479.22 897.632L476.775 954.593V1039.05L503.67 1046.91L520.785 1062.62L528.12 1076.37V1096.01L518.34 1111.73L498.78 1125.48L491.445 1127.44L496.335 1145.12L513.45 1176.55L528.12 1198.15L555.015 1221.72L581.91 1235.47L613.695 1243.33H665.04L699.27 1237.44L738.39 1225.65L770.175 1209.94L794.625 1194.22L819.075 1174.58L843.525 1149.05L865.53 1117.62L882.645 1086.19L894.87 1054.77L902.205 1021.38L904.65 1001.73V976.199L899.76 934.951L894.87 913.345L721.275 877.99L699.27 872.097L687.045 856.384L638.145 775.852L611.25 730.676L557.46 642.288L542.79 616.754L511.005 614.789L489 606.933L469.44 595.148L454.77 575.506L452.325 569.613V542.115L462.105 524.437L476.775 508.723L496.335 498.903L513.45 494.974H542.79L567.24 502.831L586.8 516.58L599.025 536.222L603.915 553.9L601.47 569.613L591.69 587.291L581.91 597.112L584.355 606.933L628.365 677.643L655.26 722.819L696.825 791.566L726.165 840.67L743.28 846.563L870.42 872.097L882.645 874.062L850.86 819.064L748.17 648.181L718.83 599.076L687.045 546.043L660.15 500.867L621.03 434.085L589.245 381.052L557.46 326.054L515.895 255.344L476.775 188.562L440.1 123.744L413.205 121.779L391.2 113.923L376.53 104.102L361.86 84.4599L356.97 74.639V47.1404L366.75 29.4628L383.865 13.7493L413.205 1.96418L427.875 0Z" fill="#32476B"/>
<path d="M303.179 752.284L339.854 754.249L374.084 762.105L403.424 775.855L422.984 791.568L437.654 811.21V815.138L418.094 826.923L408.314 840.673V866.207L415.649 877.992L427.874 887.813L457.214 899.598V1042.98L435.209 1054.77L425.429 1064.59L420.539 1074.41V1096.02L430.319 1111.73L444.989 1121.55L469.439 1129.41L484.109 1168.69L503.669 1200.12L520.784 1221.72L537.899 1235.47L572.129 1253.15L589.244 1259.04V1261.01H550.124L515.894 1257.08L459.659 1243.33L413.204 1225.65L381.419 1207.98L364.304 1196.19L342.299 1172.62L322.739 1141.19L312.959 1113.69L308.069 1088.16V1013.52L310.514 984.058V911.383L300.734 885.849L290.954 874.064L266.504 862.279L229.829 854.422L198.044 852.458L176.039 854.422L178.484 844.601L207.824 801.389L224.939 779.783L242.054 767.998L273.839 756.213L303.179 752.284Z" fill="#002642"/>
<path d="M682.182 921.199H740.862L772.647 929.056L806.877 944.769L831.327 962.447L850.887 984.053L863.112 1005.66L870.447 1029.23V1070.48L860.667 1094.05L841.107 1123.51L828.882 1135.3H823.992L821.547 1141.19L794.652 1156.9L762.867 1168.69L735.972 1174.58H687.072L647.952 1164.76L616.167 1151.01L586.827 1129.4L567.267 1101.9L557.487 1082.26L552.597 1058.69V1029.23L559.932 1003.69L577.047 978.161L596.607 958.519L613.722 944.769L643.062 931.02L682.182 921.199Z" fill="#8394B1"/>
<path d="M672.374 960.486L682.154 964.415L706.604 980.128L731.054 997.806L753.059 1013.52L760.394 1015.48V986.021L762.839 964.415H765.284L770.174 1031.2L772.619 1050.84L792.179 1037.09L814.184 1019.41V1025.3L789.734 1046.91L762.839 1074.41L753.059 1084.23L811.739 1088.16V1090.12L731.054 1094.05L709.049 1096.01L713.939 1103.87L738.389 1123.51L735.944 1127.44L704.159 1105.84L684.599 1092.09L667.484 1080.3L662.594 1078.34V1113.69H660.149L652.814 1068.52V1042.98L633.254 1056.73L623.474 1064.59H618.584L623.474 1056.73L638.144 1042.98L657.704 1023.34L672.374 1007.63H616.139V1005.66L713.939 997.806L709.049 989.949L691.934 978.164V974.236L682.154 970.307L672.374 960.486Z" fill="#002642"/>
<path d="M682.182 921.199H740.862L772.647 929.056L806.877 944.769L831.327 962.447L850.887 984.053L863.112 1005.66L870.447 1029.23V1070.48L860.667 1094.05L841.107 1123.51L828.882 1135.3H823.992L821.547 1141.19L794.652 1156.9L762.867 1168.69L735.972 1174.58H687.072L647.952 1164.76L616.167 1151.01L586.827 1129.4L567.267 1101.9L557.487 1082.26L552.597 1058.69V1029.23L559.932 1003.69L577.047 978.161L596.607 958.519L613.722 944.769L643.062 931.02L682.182 921.199ZM689.517 927.092L660.177 932.984L625.947 946.734L599.052 966.375L581.937 986.017L569.712 1005.66L564.822 1021.37V1066.55L572.157 1090.12L586.827 1113.69L603.942 1131.37L625.947 1147.08L655.287 1158.87L677.292 1164.76L689.517 1166.72H733.527L775.092 1156.9L799.542 1145.12L823.992 1127.44L843.552 1105.83L855.777 1082.26L860.667 1066.55V1033.16L850.887 1001.73L838.662 982.089L819.102 962.447L799.542 948.698L760.422 932.984L731.082 927.092H689.517Z" fill="#32476B"/>
<path d="M689.505 927.089H731.07L760.41 932.981L799.53 948.695L826.425 968.337L845.985 991.907L855.765 1013.51L860.655 1033.15V1066.55L850.875 1094.04L836.205 1115.65L806.865 1141.18L779.97 1154.93L743.295 1164.76L733.515 1166.72H689.505L662.61 1160.83L638.16 1152.97L613.71 1139.22L596.595 1125.47L584.37 1111.72L569.7 1084.22L564.81 1066.55V1021.37L574.59 995.835L591.705 974.229L616.155 952.623L647.94 936.91L677.28 929.053L689.505 927.089ZM704.175 932.981L669.945 938.874L640.605 948.695L613.71 964.408L589.26 989.943L577.035 1011.55L572.145 1029.23V1058.69L579.48 1086.19L596.595 1113.69L618.6 1133.33L643.05 1147.08L672.39 1156.9L699.285 1160.83H723.735L757.965 1154.93L792.195 1141.18L821.535 1119.58L836.205 1101.9L848.43 1078.33L853.32 1060.65V1037.08L845.985 1009.58L828.87 982.086L801.975 958.516L777.525 946.731L748.185 936.91L716.4 932.981H704.175Z" fill="#002642"/>
<path d="M701.715 1009.6L728.61 1011.56L743.28 1019.42L755.505 1031.2L760.395 1042.99L757.95 1058.7L748.17 1072.45L726.165 1084.23H696.825L677.265 1074.41L667.485 1064.59L665.04 1058.7V1039.06L672.375 1025.31L689.49 1013.52L701.715 1009.6Z" fill="#32476B"/>
<path d="M704.161 1017.45H721.276L735.946 1025.3L745.726 1033.16L748.171 1039.05V1054.77L740.836 1066.55L728.611 1074.41L709.051 1076.37L721.276 1066.55L728.611 1056.73V1037.09L723.721 1029.23L704.161 1019.41V1017.45Z" fill="#002642"/>
</svg>
