<svg width="271" height="130" viewBox="0 0 271 130" fill="none" xmlns="http://www.w3.org/2000/svg">
<path d="M231.7 89.1701C231.635 91.3613 232.178 93.5276 233.267 95.4299C234.187 97.0194 235.411 98.4123 236.869 99.5295C235.913 101.572 234.344 103.266 232.381 104.376L227.373 107.222C227.187 107.328 227.024 107.47 226.895 107.641C226.766 107.812 226.673 108.008 226.623 108.216C226.573 108.425 226.566 108.641 226.603 108.852C226.64 109.063 226.72 109.264 226.838 109.443C227.067 109.775 227.413 110.008 227.806 110.095C228.2 110.183 228.612 110.119 228.96 109.915L231.072 108.715L241.357 111.545C241.547 112.727 241.943 113.866 242.526 114.911C243.337 116.345 244.528 117.528 245.967 118.329C250.319 120.751 256.625 119.802 262.829 115.766C263.15 115.557 263.384 115.238 263.486 114.869C263.587 114.5 263.55 114.106 263.38 113.763C260.108 107.124 255.182 103.078 250.208 102.94C248.258 102.884 246.342 103.464 244.75 104.593C244.625 104.678 244.528 104.798 244.469 104.937C244.411 105.076 244.394 105.229 244.42 105.378C244.447 105.526 244.516 105.664 244.62 105.774C244.723 105.884 244.856 105.962 245.002 105.998L250.268 107.318C250.658 107.436 250.987 107.702 251.183 108.059C251.38 108.416 251.43 108.835 251.322 109.228C251.214 109.621 250.956 109.956 250.605 110.162C250.253 110.368 249.835 110.428 249.439 110.33L234.858 106.513C234.984 106.428 235.11 106.341 235.233 106.253C237.583 104.524 239.304 102.076 240.135 99.2795L244.33 85.5298C244.44 85.1302 244.704 84.7905 245.064 84.5856C245.424 84.3806 245.851 84.3272 246.251 84.437C246.65 84.5467 246.99 84.8108 247.195 85.171C247.4 85.5313 247.453 85.9581 247.344 86.3578L243.273 99.6792C243.232 99.8127 243.228 99.9546 243.261 100.09C243.293 100.226 243.361 100.35 243.458 100.451C243.555 100.551 243.677 100.624 243.812 100.661C243.946 100.698 244.088 100.699 244.223 100.663C247.649 99.7804 250.402 97.7463 252.065 94.7677C255.347 88.8899 254.016 80.31 248.504 71.8144C248.296 71.4932 247.977 71.2595 247.608 71.1579C247.238 71.0563 246.845 71.0938 246.501 71.2633C237.421 75.7502 231.887 82.4406 231.7 89.1701Z" fill="#1A8500"/>
<path d="M15.84 92.28C15.1467 94.7867 13.3867 96.4667 10.56 97.32C8 98.0667 5.70667 97.8 3.68 96.52C1.49333 95.1867 0.8 93.2133 1.6 90.6C2.29333 87.6133 3.62667 82.84 5.6 76.28C7.57333 69.72 8.96 65.1067 9.76 62.44C11.6267 55.8267 12.8 51.4533 13.28 49.32C14.9333 43.9867 16.1067 40.68 16.8 39.4C17.5467 38.12 18.1867 37.24 18.72 36.76C19.2533 36.2267 20.1067 35.6133 21.28 34.92C22.5067 34.2267 23.8133 33.6933 25.2 33.32C26.5867 32.9467 27.9733 32.7067 29.36 32.6C30.7467 32.44 32.16 32.3333 33.6 32.28C35.04 32.1733 36.64 31.9067 38.4 31.48C39.0933 31.48 39.7067 31.4267 40.24 31.32C40.8267 31.2133 41.3867 31.1333 41.92 31.08C43.1467 30.9733 44.3467 31.1067 45.52 31.48C46.7467 31.8533 47.6533 32.52 48.24 33.48C48.88 34.44 49.2 35.5333 49.2 36.76C49.2 37.9867 48.9333 39.2933 48.4 40.68C47.92 42.0667 47.2267 43.4 46.32 44.68C44.3467 47.4533 41.8667 49.4267 38.88 50.6C36.8 51.24 35.3067 51.56 34.4 51.56C33.4933 51.56 32.8533 51.4533 32.48 51.24C32.16 51.0267 31.9733 50.8667 31.92 50.76C31.8667 50.6533 31.68 50.84 31.36 51.32C30.88 52.0133 30.5333 52.7867 30.32 53.64C30.1067 54.4933 29.8667 55.1333 29.6 55.56C29.3333 55.9333 28.96 56.7067 28.48 57.88C28.0533 59.0533 27.4933 60.04 26.8 60.84C26.1067 61.5867 25.7067 62.04 25.6 62.2L32.64 61.48C33.76 61.3733 34.72 61.6133 35.52 62.2C36.3733 62.7333 36.96 63.4 37.28 64.2C37.6533 65 37.76 65.8 37.6 66.6C37.44 67.3467 36.96 67.9333 36.16 68.36C35.36 68.7333 34.8267 69.1333 34.56 69.56C34.3467 69.9333 34.16 70.3067 34 70.68C33.84 71.0533 33.6267 71.4267 33.36 71.8C33.1467 72.1733 32.64 72.52 31.84 72.84C30.1333 73.64 26.8533 74.28 22 74.76C21.7333 75.56 21.36 76.52 20.88 77.64C20.4533 78.7067 20 79.8267 19.52 81C18.1333 84.5733 17.3333 86.7333 17.12 87.48C16.96 88.2267 16.8267 88.84 16.72 89.32C16.4 90.76 16.1067 91.7467 15.84 92.28ZM52.3063 58.84C53.4263 58.04 54.8129 57.8533 56.4663 58.28C56.7863 58.3333 57.1063 58.36 57.4263 58.36C58.5996 55.96 60.6263 54.7067 63.5063 54.6C64.2529 54.5467 65.2929 54.4133 66.6263 54.2C67.9596 53.9867 69.5596 54.04 71.4263 54.36C73.3463 54.68 75.0263 55.24 76.4663 56.04C79.6129 57.7467 81.5063 60.2 82.1463 63.4C83.4263 68.0933 83.2396 73.2133 81.5863 78.76C79.8263 84.8933 76.8396 89.8 72.6263 93.48C70.7063 95.1867 68.6796 96.2533 66.5463 96.68C64.4129 97.16 62.4929 97.4267 60.7863 97.48C59.0796 97.5333 57.5063 97.5333 56.0663 97.48C54.6796 97.48 53.3196 97.3467 51.9863 97.08C49.1063 96.4933 46.7329 95.1333 44.8663 93C42.6796 90.6 41.7463 86.8667 42.0663 81.8C42.2796 77.32 43.3996 72.8133 45.4263 68.28C47.5063 63.6933 49.7996 60.5467 52.3063 58.84ZM66.3863 74.92C65.0529 75.3467 63.7996 75.5333 62.6263 75.48C62.0396 76.0667 61.5063 76.7067 61.0263 77.4C60.5996 78.04 60.0129 78.6533 59.2663 79.24C58.5196 79.7733 58.1463 79.9867 58.1463 79.88C57.2396 81.16 56.4929 82.4933 55.9063 83.88C55.3196 85.2133 55.3196 86.5733 55.9063 87.96C58.0396 88.1733 59.6129 88.12 60.6263 87.8C61.6396 87.48 62.5729 86.8667 63.4263 85.96C64.3329 85.0533 65.0263 83.9867 65.5063 82.76C66.4663 80.4667 66.7596 77.8533 66.3863 74.92ZM115.219 94.92C113.139 96.6267 110.659 97.9067 107.779 98.76C104.953 99.6667 102.099 100.147 99.2194 100.2C96.3394 100.253 93.646 99.9067 91.1394 99.16C88.6327 98.4133 86.6594 97.24 85.2194 95.64C83.5127 93.8267 82.926 92.0133 83.4594 90.2C83.726 89.4533 84.206 88.8667 84.8994 88.44C85.5394 88.0133 86.3394 87.9067 87.2994 88.12C87.9394 88.1733 88.3927 88.0133 88.6594 87.64C88.9794 87.2133 89.246 86.76 89.4594 86.28C89.6727 85.7467 89.9127 85.2667 90.1794 84.84C90.446 84.36 90.8727 84.12 91.4594 84.12C100.846 84.3867 105.726 83.56 106.099 81.64C105.459 81.0533 104.659 80.5467 103.699 80.12C102.793 79.6933 101.859 79.2667 100.899 78.84C98.5527 77.7733 96.9794 76.6 96.1794 75.32C95.166 74.7867 94.3927 73.5067 93.8594 71.48C93.5927 70.5733 93.4594 69.64 93.4594 68.68C93.4594 67.72 93.6194 66.84 93.9394 66.04C93.7794 63.96 95.0594 61.6667 97.7794 59.16C98.526 58.4667 99.4594 57.72 100.579 56.92C101.699 56.12 103.379 55.3467 105.619 54.6C107.859 53.8533 110.073 53.32 112.259 53C114.499 52.6267 116.499 52.4933 118.259 52.6C120.073 52.7067 121.353 53.1333 122.099 53.88C122.899 54.6267 123.513 55.56 123.939 56.68C124.419 57.8 124.579 58.8933 124.419 59.96C123.993 62.36 122.019 64.0133 118.499 64.92C114.073 65.56 111.939 66.1467 112.099 66.68C112.099 66.7867 111.913 66.92 111.539 67.08C115.646 69.9067 118.499 72.68 120.099 75.4C122.286 79.1333 122.606 83.2933 121.059 87.88C121.326 89.3733 119.993 91.24 117.059 93.48C116.366 94.0133 115.753 94.4933 115.219 94.92ZM157.848 81.16C156.835 81.64 155.848 82.0133 154.888 82.28C153.928 82.5467 152.808 82.8133 151.528 83.08C148.168 83.7733 145.741 84.1733 144.248 84.28C144.408 84.8133 145.208 85.4533 146.648 86.2C147.608 86.36 148.648 86.2267 149.768 85.8C150.941 85.32 152.141 84.8933 153.368 84.52C154.648 84.0933 155.875 83.8533 157.048 83.8C158.275 83.7467 159.421 84.2 160.488 85.16C160.915 86.12 161.261 86.68 161.528 86.84C161.795 87 162.035 87.08 162.248 87.08C162.461 87.08 162.701 87.16 162.968 87.32C163.235 87.48 163.608 88.0933 164.088 89.16C164.621 90.2267 164.488 91.24 163.688 92.2C162.941 93.16 161.768 93.9867 160.168 94.68C158.568 95.3733 156.701 95.9333 154.568 96.36C152.435 96.7867 150.301 97.08 148.168 97.24C143.368 97.6133 139.715 97.24 137.208 96.12C133.581 94.8933 131.235 92.4667 130.168 88.84C128.781 84.04 129.555 78.44 132.488 72.04C133.821 69.0533 135.928 65.8533 138.808 62.44C141.315 59.4533 144.115 57.2933 147.208 55.96C150.781 54.4133 154.515 53.6933 158.408 53.8C162.568 53.9067 165.448 55.72 167.048 59.24C167.848 61.1067 168.008 63.72 167.528 67.08C166.675 71.4533 165.555 74.5467 164.168 76.36C162.781 78.12 160.675 79.72 157.848 81.16ZM153.208 68.52C150.381 67.9333 148.168 69.5333 146.568 73.32C146.088 74.3333 145.715 75.4 145.448 76.52C147.261 76.7333 149.181 75.72 151.208 73.48C151.955 72.5733 152.515 71.6667 152.888 70.76C153.261 69.8 153.368 69.0533 153.208 68.52ZM204.522 53.72C206.602 53.9867 207.989 54.7333 208.682 55.96C209.429 57.1333 209.722 58.4133 209.562 59.8C209.402 61.1333 208.895 62.36 208.042 63.48C207.242 64.5467 206.335 65.1067 205.322 65.16C204.949 66.28 204.362 67.0533 203.562 67.48C202.762 67.9067 201.882 68.2 200.922 68.36C199.962 68.52 198.949 68.7067 197.882 68.92C196.869 69.08 195.909 69.5333 195.002 70.28C194.095 71.0267 193.322 71.7733 192.682 72.52C192.095 73.2133 191.615 73.9067 191.242 74.6C190.602 75.7733 190.042 77.2133 189.562 78.92C189.455 80.0933 190.015 81.1867 191.242 82.2C192.682 83.32 194.255 83.8267 195.962 83.72C197.669 83.56 199.029 83.64 200.042 83.96C201.109 84.2267 201.909 84.6267 202.442 85.16C203.615 86.3867 203.509 87.8 202.122 89.4C199.455 93.6667 194.975 96.2 188.682 97C186.815 97.2667 184.949 97.32 183.082 97.16C181.215 97.0533 179.402 96.36 177.642 95.08C175.882 93.8 174.495 92.0667 173.482 89.88C171.242 84.8667 171.429 79.0267 174.042 72.36C176.549 66.12 180.309 61.32 185.322 57.96C190.815 54.2267 197.215 52.8133 204.522 53.72Z" fill="#1A8500"/>
</svg>
