<svg width="400" height="433" viewBox="0 0 400 433" fill="none" xmlns="http://www.w3.org/2000/svg">
<path d="M165.309 269.76H233.307V275.824C233.307 284.583 225.744 291.705 216.444 291.705H182.172C172.872 291.705 165.309 284.583 165.309 275.824V269.76Z" fill="url(#paint0_linear_887_3)"/>
<path opacity="0.16" d="M180.074 269.822H220.478V273.416C220.478 278.613 215.981 282.848 210.462 282.848H190.09C184.571 282.848 180.074 278.613 180.074 273.416V269.822Z" fill="white"/>
<path d="M171.897 301.121H228.619V306.158C228.619 313.473 222.316 319.409 214.549 319.409H185.967C178.199 319.409 171.897 313.473 171.897 306.158V301.121Z" fill="url(#paint1_linear_887_3)"/>
<path opacity="0.16" d="M184.187 301.162H217.879V304.146C217.879 308.477 214.132 312.007 209.533 312.007H192.533C187.934 312.007 184.187 308.477 184.187 304.146V301.162Z" fill="white"/>
<path d="M262.39 203.49C262.39 209.586 262.39 215.65 262.424 221.746V242.44C279.083 242.376 295.741 242.312 312.4 242.28C313.967 242.28 316.386 242.055 318.975 240.9C322.348 239.392 324.222 237.018 325.175 235.734C331.921 226.943 335.804 218.794 335.804 218.794C338.905 212.313 342.413 205.96 345.616 199.512C349.227 192.164 350.692 189.437 355.87 179.074C358.97 172.85 363.501 163.93 369.258 152.894" fill="#5547D7" fill-opacity="0.5"/>
<path d="M255.216 132.183C256.817 133.242 264.653 126.055 278.688 110.623V119.189L263.222 135.841C262.949 155.765 262.677 175.689 262.404 195.645C262.506 195.71 284.684 204.34 291.668 205.784C299.81 207.484 305.601 207.741 311.256 205.527C314.97 204.083 317.354 202.062 318.445 201.1C325.905 194.587 344.267 176.876 369.511 152.749C378.539 136.803 387.533 120.858 396.561 104.912C398.06 101.575 402.999 89.5756 397.378 77.3516C395.879 74.1432 393.972 71.5444 392.132 69.5552C374.281 53.2565 356.123 36.1558 338.272 19.8571C330.947 19.6004 316.741 20.9159 302.706 29.2577C295.279 33.6532 285.979 36.6691 278.688 47.9627C278.552 48.1552 276.406 49.5027 276.303 49.6952C260.224 74.9453 257.124 104.366 255.318 123.36C254.841 128.814 254.364 131.638 255.216 132.183Z" fill="url(#paint2_linear_887_3)"/>
<path d="M262.378 194.667L263.128 194.956C271.304 197.747 278.731 200.025 286.123 202.88C288.576 203.779 292.971 205.126 297.536 205.447C300.023 205.64 303.395 206.634 308.267 205.158C313.139 203.683 316.613 201.34 317.601 200.538C320.02 198.613 326.016 192.966 330.99 188.411C337.088 182.828 343.492 176.828 349.318 171.021C353.644 166.722 360.458 160.305 369.213 152.894C358.55 164.765 350.476 174.839 345.094 181.833C331.535 199.48 326.902 208.046 313.99 214.752C303.77 220.045 295.458 220.527 292.085 220.559C290.722 220.559 282.785 220.559 274.336 216.837C271.168 215.425 269.056 214.014 267.523 212.73C266.33 211.736 265.444 210.773 264.933 210.228C264.15 209.361 263.4 208.559 262.344 206.698C262.276 206.602 262.413 206.313 262.344 206.153V194.635L262.378 194.667Z" fill="url(#paint3_linear_887_3)"/>
<path d="M137.61 203.005C137.61 209.101 137.61 215.165 137.576 221.26V241.955C120.917 241.89 104.258 241.826 87.5996 241.794C86.0325 241.794 83.6137 241.57 81.0246 240.415C77.652 238.907 75.7783 236.532 74.8244 235.249C68.0791 226.458 64.1954 218.309 64.1954 218.309C61.0953 211.828 57.5864 205.475 54.3841 199.026C50.773 191.679 49.3081 188.952 44.1299 178.589C41.0297 172.364 36.4988 163.445 30.7415 152.408" fill="#5547D7" fill-opacity="0.5"/>
<path d="M144.784 131.654C143.183 132.713 135.348 125.526 121.312 110.094V118.66L136.778 135.312C137.051 155.236 137.323 175.16 137.596 195.116C137.494 195.18 115.316 203.811 108.332 205.255C100.19 206.955 94.3988 207.212 88.7436 204.998C85.0303 203.554 82.6456 201.533 81.5555 200.57C74.0947 194.057 55.7325 176.347 30.4887 152.22C21.4609 136.274 12.4672 120.328 3.43939 104.383C1.94043 101.046 -2.99931 89.0465 2.62177 76.8225C4.12073 73.6141 6.02849 71.0153 7.86812 69.0261C25.7193 52.7274 44.2178 34.5999 62.069 18.3012C65.6801 18.1729 72.4254 16.2158 78.4553 17.7879C84.4852 19.36 90.1744 24.5255 97.2604 28.7285C104.823 33.1882 111.364 39.4125 118.791 51.0911C134.871 76.3412 142.842 103.837 144.648 122.831C145.125 128.285 145.602 131.109 144.75 131.654H144.784Z" fill="url(#paint4_linear_887_3)"/>
<path d="M137.602 194.152L136.853 194.441C128.677 197.232 121.25 199.51 113.857 202.365C111.405 203.264 107.01 204.611 102.445 204.932C99.958 205.125 96.5854 206.119 91.7138 204.643C86.8422 203.167 83.3673 200.825 82.3794 200.023C79.9606 198.098 73.9648 192.451 68.991 187.895C62.8929 182.313 56.4883 176.313 50.6628 170.506C46.3363 166.207 39.5228 159.79 30.7676 152.378C41.4306 164.249 49.5045 174.324 54.8871 181.318C68.4459 198.964 73.079 207.531 85.9905 214.236C96.2106 219.53 104.523 220.011 107.896 220.044C109.258 220.044 117.196 220.044 125.645 216.322C128.813 214.91 130.925 213.498 132.458 212.215C133.65 211.22 134.536 210.258 135.047 209.713C135.831 208.846 136.58 208.044 137.636 206.183C137.704 206.087 137.568 205.798 137.636 205.638V194.12L137.602 194.152Z" fill="url(#paint5_linear_887_3)"/>
<path d="M221.967 260.414H175.976C174.409 259.612 172.604 258.457 170.832 256.788C165.995 252.232 164.632 246.81 164.223 244.308C156.728 202.438 149.268 160.536 141.773 118.667C138.162 100.507 132.984 86.0373 128.691 75.8667C123.138 62.6801 117.926 50.5845 106.241 37.9113C92.4436 22.9922 81.4058 20.0084 77.8969 19.2063C71.4582 17.7304 65.8371 17.9229 62.0557 18.34C64.3382 15.0033 70.4362 7.07855 81.7465 2.74721C92.7502 -1.45579 102.425 0.148407 108.251 1.17509C125.318 4.22307 136.322 13.9445 140.819 18.5005C152.3 28.7994 161.873 35.2483 168.243 39.1305C168.89 39.5155 170.9 40.7347 173.592 42.2426C184.834 48.5632 191.341 52.2207 197.507 53.1512C200.198 53.5683 210.214 54.5629 223.466 43.9752C237.093 33.4516 250.686 22.9601 264.313 12.4366C268.503 9.00359 276.475 3.48514 287.853 1.52802C291.737 0.854255 295.314 0.725919 298.346 0.822171C303.796 0.950507 312.041 1.91303 320.796 6.01978C324.032 7.52773 326.792 9.22818 329.074 10.8645C332.174 13.9124 335.309 16.9604 338.409 20.0084C332.345 19.9122 321.682 20.5538 309.963 25.591C307.169 26.8102 297.664 31.1416 288.568 40.4138C283.663 45.4189 280.426 50.2957 278.348 53.9212C274.226 60.8834 269.865 69.3536 266.05 79.2676C262.405 88.7644 260.02 97.5554 258.453 105.127C257.227 110.838 256.136 116.934 255.217 123.319C254.603 127.618 254.126 131.757 253.752 135.8C251.776 150.783 249.8 165.766 247.824 180.781C244.247 195.732 240.636 210.684 237.059 225.635C236.139 232.725 235.219 239.848 234.299 246.939C234.163 248.094 233.788 249.89 232.63 251.751C230.382 255.377 228.44 258.264 227.247 258.681" fill="url(#paint6_linear_887_3)"/>
<path opacity="0.1" d="M217.087 230.988H181.453C180.261 230.378 178.83 229.447 177.467 228.164C173.72 224.635 172.664 220.432 172.323 218.507C166.531 186.07 160.74 153.665 154.949 121.228C152.155 107.175 148.135 95.978 144.831 88.0854C140.538 77.8827 136.484 68.5141 127.456 58.6964C116.793 47.1462 108.242 44.8361 105.517 44.1945C100.543 43.0394 96.1827 43.1999 93.2529 43.5207C95.0244 40.954 99.7257 34.7938 108.481 31.4571C116.998 28.2166 124.493 29.4358 128.989 30.2379C142.207 32.58 150.724 40.1198 154.199 43.649C163.091 51.6059 170.517 56.611 175.423 59.6269C175.934 59.9477 177.467 60.8781 179.545 62.0332C188.266 66.942 193.274 69.7654 198.078 70.4713C200.156 70.7921 207.923 71.5621 218.177 63.3486C228.704 55.1993 239.265 47.082 249.792 38.9327C253.028 36.2697 259.228 32.0025 268.018 30.4946C271.05 29.9812 273.775 29.8529 276.126 29.9492C280.35 30.0454 286.72 30.7833 293.5 33.9597C296.021 35.1468 298.133 36.4622 299.904 37.7135C302.323 40.0877 304.708 42.4298 307.127 44.8041C302.425 44.7399 294.181 45.2211 285.119 49.1354C282.939 50.0658 275.581 53.4347 268.563 60.6215C264.747 64.5036 262.26 68.2895 260.659 71.0808C257.457 76.471 254.084 83.0161 251.154 90.7163C248.327 98.0635 246.487 104.865 245.261 110.737C244.307 115.164 243.455 119.881 242.774 124.822C242.297 128.158 241.922 131.367 241.65 134.479C240.117 146.093 238.584 157.708 237.051 169.29C234.257 180.872 231.498 192.423 228.704 204.005C227.989 209.491 227.273 215.01 226.558 220.496C226.456 221.394 226.149 222.774 225.263 224.218C223.526 227.041 220.732 228.132 219.812 228.453" fill="url(#paint7_linear_887_3)"/>
<path d="M97.9356 366.677V408.377H91.0956V379.817L78.3756 408.377H73.6356L60.8556 379.817V408.377H54.0156V366.677H61.3956L76.0356 399.377L90.6156 366.677H97.9356ZM110.406 370.937C109.166 370.937 108.126 370.517 107.286 369.677C106.446 368.837 106.026 367.797 106.026 366.557C106.026 365.317 106.446 364.277 107.286 363.437C108.126 362.597 109.166 362.177 110.406 362.177C111.606 362.177 112.626 362.597 113.466 363.437C114.306 364.277 114.726 365.317 114.726 366.557C114.726 367.797 114.306 368.837 113.466 369.677C112.626 370.517 111.606 370.937 110.406 370.937ZM113.766 375.317V408.377H106.926V375.317H113.766ZM139.426 374.777C142.026 374.777 144.346 375.317 146.386 376.397C148.466 377.477 150.086 379.077 151.246 381.197C152.406 383.317 152.986 385.877 152.986 388.877V408.377H146.206V389.897C146.206 386.937 145.466 384.677 143.986 383.117C142.506 381.517 140.486 380.717 137.926 380.717C135.366 380.717 133.326 381.517 131.806 383.117C130.326 384.677 129.586 386.937 129.586 389.897V408.377H122.746V375.317H129.586V379.097C130.706 377.737 132.126 376.677 133.846 375.917C135.606 375.157 137.466 374.777 139.426 374.777ZM159.431 391.817C159.431 388.417 160.111 385.437 161.471 382.877C162.871 380.277 164.791 378.277 167.231 376.877C169.671 375.477 172.471 374.777 175.631 374.777C179.631 374.777 182.931 375.737 185.531 377.657C188.171 379.537 189.951 382.237 190.871 385.757H183.491C182.891 384.117 181.931 382.837 180.611 381.917C179.291 380.997 177.631 380.537 175.631 380.537C172.831 380.537 170.591 381.537 168.911 383.537C167.271 385.497 166.451 388.257 166.451 391.817C166.451 395.377 167.271 398.157 168.911 400.157C170.591 402.157 172.831 403.157 175.631 403.157C179.591 403.157 182.211 401.417 183.491 397.937H190.871C189.911 401.297 188.111 403.977 185.471 405.977C182.831 407.937 179.551 408.917 175.631 408.917C172.471 408.917 169.671 408.217 167.231 406.817C164.791 405.377 162.871 403.377 161.471 400.817C160.111 398.217 159.431 395.217 159.431 391.817ZM227.988 391.037C227.988 392.277 227.908 393.397 227.748 394.397H202.488C202.688 397.037 203.668 399.157 205.428 400.757C207.188 402.357 209.348 403.157 211.908 403.157C215.588 403.157 218.188 401.617 219.708 398.537H227.087C226.088 401.577 224.268 404.077 221.628 406.037C219.028 407.957 215.788 408.917 211.908 408.917C208.748 408.917 205.908 408.217 203.388 406.817C200.908 405.377 198.948 403.377 197.508 400.817C196.108 398.217 195.408 395.217 195.408 391.817C195.408 388.417 196.088 385.437 197.448 382.877C198.848 380.277 200.788 378.277 203.268 376.877C205.788 375.477 208.668 374.777 211.908 374.777C215.028 374.777 217.808 375.457 220.248 376.817C222.688 378.177 224.588 380.097 225.948 382.577C227.308 385.017 227.988 387.837 227.988 391.037ZM220.848 388.877C220.808 386.357 219.908 384.337 218.148 382.817C216.388 381.297 214.208 380.537 211.608 380.537C209.248 380.537 207.228 381.297 205.548 382.817C203.868 384.297 202.868 386.317 202.548 388.877H220.848ZM261.659 366.677V372.257H250.559V408.377H243.719V372.257H232.559V366.677H261.659ZM298.886 391.037C298.886 392.277 298.806 393.397 298.646 394.397H273.386C273.586 397.037 274.566 399.157 276.326 400.757C278.086 402.357 280.246 403.157 282.806 403.157C286.486 403.157 289.086 401.617 290.606 398.537H297.986C296.986 401.577 295.166 404.077 292.526 406.037C289.926 407.957 286.686 408.917 282.806 408.917C279.646 408.917 276.806 408.217 274.286 406.817C271.806 405.377 269.846 403.377 268.406 400.817C267.006 398.217 266.306 395.217 266.306 391.817C266.306 388.417 266.986 385.437 268.346 382.877C269.746 380.277 271.686 378.277 274.166 376.877C276.686 375.477 279.566 374.777 282.806 374.777C285.926 374.777 288.706 375.457 291.146 376.817C293.586 378.177 295.486 380.097 296.846 382.577C298.206 385.017 298.886 387.837 298.886 391.037ZM291.746 388.877C291.706 386.357 290.806 384.337 289.046 382.817C287.286 381.297 285.106 380.537 282.506 380.537C280.146 380.537 278.126 381.297 276.446 382.817C274.766 384.297 273.766 386.317 273.446 388.877H291.746ZM303.337 391.817C303.337 388.417 304.017 385.437 305.377 382.877C306.777 380.277 308.697 378.277 311.137 376.877C313.577 375.477 316.377 374.777 319.537 374.777C323.537 374.777 326.837 375.737 329.437 377.657C332.077 379.537 333.857 382.237 334.777 385.757H327.397C326.797 384.117 325.837 382.837 324.517 381.917C323.197 380.997 321.537 380.537 319.537 380.537C316.737 380.537 314.497 381.537 312.817 383.537C311.177 385.497 310.357 388.257 310.357 391.817C310.357 395.377 311.177 398.157 312.817 400.157C314.497 402.157 316.737 403.157 319.537 403.157C323.497 403.157 326.117 401.417 327.397 397.937H334.777C333.817 401.297 332.017 403.977 329.377 405.977C326.737 407.937 323.457 408.917 319.537 408.917C316.377 408.917 313.577 408.217 311.137 406.817C308.697 405.377 306.777 403.377 305.377 400.817C304.017 398.217 303.337 395.217 303.337 391.817ZM358.694 374.777C361.214 374.777 363.454 375.317 365.414 376.397C367.414 377.477 368.974 379.077 370.094 381.197C371.254 383.317 371.834 385.877 371.834 388.877V408.377H365.054V389.897C365.054 386.937 364.314 384.677 362.834 383.117C361.354 381.517 359.334 380.717 356.774 380.717C354.214 380.717 352.174 381.517 350.654 383.117C349.174 384.677 348.434 386.937 348.434 389.897V408.377H341.594V363.977H348.434V379.157C349.594 377.757 351.054 376.677 352.814 375.917C354.614 375.157 356.574 374.777 358.694 374.777Z" fill="url(#paint8_linear_887_3)"/>
<defs>
<linearGradient id="paint0_linear_887_3" x1="199.104" y1="293.053" x2="199.315" y2="270.658" gradientUnits="userSpaceOnUse">
<stop stop-color="#0A1027" stop-opacity="0.5"/>
<stop offset="1" stop-color="#5547D7"/>
</linearGradient>
<linearGradient id="paint1_linear_887_3" x1="200.036" y1="320.532" x2="200.248" y2="301.859" gradientUnits="userSpaceOnUse">
<stop stop-color="#5547D7" stop-opacity="0.1"/>
<stop offset="1" stop-color="#5547D7"/>
</linearGradient>
<linearGradient id="paint2_linear_887_3" x1="400.008" y1="113.447" x2="217.16" y2="113.447" gradientUnits="userSpaceOnUse">
<stop stop-color="#5547D7" stop-opacity="0.2"/>
<stop offset="1" stop-color="#5547D7"/>
</linearGradient>
<linearGradient id="paint3_linear_887_3" x1="262.344" y1="186.742" x2="369.247" y2="186.742" gradientUnits="userSpaceOnUse">
<stop stop-color="#5547D7" stop-opacity="0.1"/>
<stop offset="1" stop-color="#5547D7"/>
</linearGradient>
<linearGradient id="paint4_linear_887_3" x1="145.227" y1="111.858" x2="-37.5775" y2="111.858" gradientUnits="userSpaceOnUse">
<stop stop-color="#5547D7" stop-opacity="0.2"/>
<stop offset="1" stop-color="#5547D7"/>
</linearGradient>
<linearGradient id="paint5_linear_887_3" x1="137.602" y1="186.227" x2="30.7335" y2="186.227" gradientUnits="userSpaceOnUse">
<stop stop-color="#5547D7" stop-opacity="0.1"/>
<stop offset="1" stop-color="#5547D7"/>
</linearGradient>
<linearGradient id="paint6_linear_887_3" x1="182.04" y1="265.708" x2="199.031" y2="5.94299" gradientUnits="userSpaceOnUse">
<stop stop-color="#5547D7" stop-opacity="0.2"/>
<stop offset="1" stop-color="#5547D7"/>
</linearGradient>
<linearGradient id="paint7_linear_887_3" x1="198.044" y1="241.832" x2="200.038" y2="40.3418" gradientUnits="userSpaceOnUse">
<stop stop-color="#5547D7" stop-opacity="0.2"/>
<stop offset="1" stop-color="#5547D7"/>
</linearGradient>
<linearGradient id="paint8_linear_887_3" x1="633.193" y1="-90.3154" x2="220.024" y2="504.238" gradientUnits="userSpaceOnUse">
<stop stop-color="#0A1027"/>
<stop offset="1" stop-color="#5547D7"/>
</linearGradient>
</defs>
</svg>
