<svg width="1056" height="1056" viewBox="0 0 1056 1056" fill="none" xmlns="http://www.w3.org/2000/svg">
<rect width="1056" height="1056" rx="230" fill="url(#paint0_linear_466_1036)"/>
<g clip-path="url(#clip0_466_1036)">
<path d="M748.003 207.68C722.338 207.709 697.735 217.351 679.588 234.493C661.441 251.634 651.232 274.875 651.201 299.116C651.17 318.927 658.023 338.199 670.704 353.978C670.704 353.978 673.341 357.261 673.774 357.735L748.003 440.427L822.264 357.694C822.652 357.253 825.303 353.978 825.303 353.978L825.311 353.953C837.983 338.181 844.833 318.917 844.801 299.116C844.77 274.875 834.561 251.634 816.414 234.493C798.267 217.351 773.664 207.709 748.003 207.68ZM748.003 332.366C741.038 332.366 734.234 330.416 728.446 326.762C722.655 323.109 718.144 317.916 715.48 311.84C712.816 305.765 712.12 299.079 713.477 292.63C714.837 286.18 718.188 280.255 723.11 275.605C728.036 270.955 734.305 267.788 741.132 266.505C747.963 265.222 755.04 265.881 761.47 268.398C767.904 270.914 773.401 275.176 777.269 280.644C781.138 286.112 783.199 292.54 783.199 299.116C783.19 307.931 779.478 316.382 772.879 322.615C766.28 328.848 757.333 332.355 748.003 332.366Z" fill="white"/>
<path d="M299.201 847.735C347.802 847.735 387.201 810.519 387.201 764.611C387.201 718.703 347.802 681.487 299.201 681.487C250.6 681.487 211.201 718.703 211.201 764.611C211.201 810.519 250.6 847.735 299.201 847.735Z" fill="white"/>
<path fill-rule="evenodd" clip-rule="evenodd" d="M415.649 350.55C366.682 350.55 327.154 388.021 327.154 434.049V618.509C327.154 633.143 314.639 645.006 299.201 645.006C283.763 645.006 271.248 633.143 271.248 618.509V434.049C271.248 358.578 335.991 297.556 415.649 297.556C494.533 297.556 558.948 357.44 560.036 432.169L563.921 698.727C564.507 738.918 599.194 771.364 641.98 771.364C685.187 771.364 720.05 738.302 720.05 697.714V503.404C720.05 488.77 732.565 476.906 748.003 476.906C763.441 476.906 775.956 488.77 775.956 503.404V697.714C775.956 767.747 715.876 824.358 641.98 824.358C568.8 824.358 509.031 768.8 508.02 699.459L504.136 432.901C503.472 387.324 464.14 350.55 415.649 350.55Z" fill="white"/>
</g>
<defs>
<linearGradient id="paint0_linear_466_1036" x1="105.6" y1="-1.22017e-05" x2="994.4" y2="990.88" gradientUnits="userSpaceOnUse">
<stop stop-color="#00BD5E"/>
<stop offset="1" stop-color="#28A265"/>
</linearGradient>
<clipPath id="clip0_466_1036">
<rect width="633.6" height="640.64" fill="white" transform="translate(211.2 207.68)"/>
</clipPath>
</defs>
</svg>
