<svg width="489" height="515" viewBox="0 0 489 515" fill="none" xmlns="http://www.w3.org/2000/svg">
<ellipse cx="186.834" cy="190.097" rx="186.834" ry="190.097" transform="matrix(0.988104 -0.153786 0.161452 0.986881 31.6309 84.3198)" fill="url(#paint0_linear_830_4)"/>
<path d="M30.8354 274.509C41.2956 278.297 58.7928 272.767 57.461 276.266C56.1291 279.764 41.3264 284.681 30.8662 280.893C20.4061 277.104 3.76131 272.975 5.09318 269.476C6.42504 265.978 20.3753 270.721 30.8354 274.509Z" fill="url(#paint1_linear_830_4)"/>
<path d="M455.267 293.407C444.165 294.501 430.955 306.984 430.571 303.271C430.186 299.558 441.254 288.783 452.355 287.689C463.457 286.595 480.265 283.15 480.649 286.863C481.034 290.576 466.368 292.313 455.267 293.407Z" fill="url(#paint2_linear_830_4)"/>
<path d="M458.096 276.181C447.132 278.202 435.072 291.746 434.361 288.079C433.651 284.412 443.728 272.75 454.692 270.729C465.656 268.708 482.097 263.866 482.808 267.533C483.518 271.2 469.06 274.16 458.096 276.181Z" fill="url(#paint3_linear_830_4)"/>
<path d="M460.435 259.839C449.333 260.933 436.123 273.416 435.739 269.703C435.354 265.99 446.422 255.215 457.523 254.121C468.625 253.027 485.433 249.582 485.817 253.295C486.202 257.008 471.536 258.745 460.435 259.839Z" fill="url(#paint4_linear_830_4)"/>
<path d="M414.192 104.772C403.211 106.701 391.031 120.143 390.353 116.47C389.675 112.797 399.855 101.22 410.836 99.2914C421.818 97.3628 438.302 92.6595 438.98 96.3323C439.658 100.005 425.174 102.844 414.192 104.772Z" fill="url(#paint5_linear_830_4)"/>
<path d="M403.869 95.543C392.888 97.4716 380.708 110.914 380.03 107.241C379.352 103.568 389.532 91.9908 400.513 90.0623C411.494 88.1337 427.978 83.4303 428.656 87.1032C429.334 90.7761 414.85 93.6145 403.869 95.543Z" fill="url(#paint6_linear_830_4)"/>
<path d="M395.265 85.4721C384.284 87.4006 372.104 100.843 371.426 97.1703C370.748 93.4974 380.928 81.9199 391.909 79.9913C402.891 78.0628 419.375 73.3594 420.053 77.0323C420.731 80.7052 406.247 83.5435 395.265 85.4721Z" fill="url(#paint7_linear_830_4)"/>
<path d="M384.085 76.2382C373.103 78.1668 360.923 91.6093 360.245 87.9364C359.567 84.2635 369.747 72.686 380.729 70.7575C391.71 68.8289 408.194 64.1255 408.872 67.7984C409.55 71.4713 395.066 74.3096 384.085 76.2382Z" fill="url(#paint8_linear_830_4)"/>
<path d="M372.894 67.847C361.913 69.7755 349.733 83.2181 349.055 79.5452C348.377 75.8723 358.557 64.2948 369.538 62.3662C380.52 60.4377 397.004 55.7343 397.682 59.4072C398.36 63.0801 383.876 65.9184 372.894 67.847Z" fill="url(#paint9_linear_830_4)"/>
<path d="M360.896 59.6097C350.217 62.7624 339.71 77.487 338.601 73.9151C337.493 70.3432 346.234 57.6964 356.914 54.5437C367.593 51.391 383.41 44.8623 384.518 48.4342C385.627 52.0061 371.576 56.4571 360.896 59.6097Z" fill="url(#paint10_linear_830_4)"/>
<path d="M349.46 51.7212C339.161 55.9071 330.228 71.5891 328.756 68.1443C327.285 64.6994 334.675 51.2581 344.975 47.0722C355.274 42.8863 370.337 34.8368 371.808 38.2816C373.28 41.7265 359.76 47.5353 349.46 51.7212Z" fill="url(#paint11_linear_830_4)"/>
<path d="M336.66 46.0222C327.039 51.534 320.373 68.2541 318.436 65.0362C316.498 61.8182 321.948 47.5224 331.569 42.0106C341.19 36.4989 354.991 26.5283 356.929 29.7463C358.867 32.9642 346.281 40.5105 336.66 46.0222Z" fill="url(#paint12_linear_830_4)"/>
<path d="M323.463 39.9959C314.061 45.8577 308.047 62.8113 305.986 59.6669C303.925 56.5225 308.819 42.0363 318.22 36.1745C327.621 30.3127 341.027 19.8414 343.088 22.9858C345.148 26.1302 332.864 34.1341 323.463 39.9959Z" fill="url(#paint13_linear_830_4)"/>
<path d="M310.496 34.9155C301.719 41.6355 297.412 59.0763 295.049 56.1408C292.687 53.2053 296.123 38.3258 304.899 31.6058C313.676 24.8858 325.983 13.2006 328.345 16.1361C330.708 19.0717 319.273 28.1955 310.496 34.9155Z" fill="url(#paint14_linear_830_4)"/>
<path d="M296.154 30.6771C287.744 37.8297 284.365 55.4641 281.85 52.6513C279.335 49.8385 281.98 34.806 290.389 27.6534C298.799 20.5008 310.471 8.21214 312.986 11.0249C315.501 13.8377 304.564 23.5246 296.154 30.6771Z" fill="url(#paint15_linear_830_4)"/>
<path d="M281.199 27.7513C273.497 35.6254 271.788 53.4875 269.02 50.9113C266.251 48.3351 267.472 33.1295 275.175 25.2555C282.877 17.3814 293.346 4.10129 296.114 6.67749C298.883 9.2537 288.901 19.8773 281.199 27.7513Z" fill="url(#paint16_linear_830_4)"/>
<path d="M265.146 26.3425C258.241 34.8915 258.272 52.8313 255.266 50.5219C252.26 48.2125 252.002 32.9624 258.907 24.4133C265.812 15.8643 274.946 1.67831 277.952 3.98771C280.958 6.2971 272.051 17.7935 265.146 26.3425Z" fill="url(#paint17_linear_830_4)"/>
<path d="M249.464 25.286C243.127 34.2432 244.318 52.1453 241.169 50.0256C238.02 47.9059 236.775 32.7021 243.113 23.7449C249.45 14.7877 257.648 0.0674197 260.797 2.18709C263.946 4.30677 255.802 16.3287 249.464 25.286Z" fill="url(#paint18_linear_830_4)"/>
<path d="M234.072 25.6566C228.138 34.8729 230.122 52.7079 226.882 50.7231C223.642 48.7383 221.724 33.6012 227.658 24.385C233.592 15.1688 241.13 0.116406 244.37 2.10123C247.61 4.08605 240.006 16.4404 234.072 25.6566Z" fill="url(#paint19_linear_830_4)"/>
<path d="M219.189 25.5146C214.26 35.2781 218.117 52.8188 214.685 51.1701C211.252 49.5214 207.746 34.6576 212.675 24.8942C217.604 15.1307 223.512 -0.598897 226.944 1.0498C230.377 2.69849 224.119 15.7511 219.189 25.5146Z" fill="url(#paint20_linear_830_4)"/>
<path d="M462.096 243.635C451.024 244.987 438.124 257.775 437.648 254.072C437.173 250.369 447.974 239.339 459.045 237.987C470.117 236.634 486.835 232.798 487.311 236.501C487.786 240.204 473.167 242.282 462.096 243.635Z" fill="url(#paint21_linear_830_4)"/>
<path d="M460.892 229.392C449.82 230.744 436.92 243.532 436.444 239.829C435.969 236.126 446.77 225.096 457.841 223.744C468.913 222.391 485.631 218.555 486.106 222.258C486.582 225.961 471.963 228.039 460.892 229.392Z" fill="url(#paint22_linear_830_4)"/>
<path d="M461.402 215.109C450.331 216.461 437.431 229.249 436.955 225.546C436.48 221.843 447.28 210.813 458.352 209.461C469.423 208.108 486.142 204.272 486.617 207.975C487.093 211.678 472.474 213.756 461.402 215.109Z" fill="url(#paint23_linear_830_4)"/>
<path d="M459.656 199.996C448.585 201.349 435.685 214.136 435.209 210.433C434.734 206.73 445.534 195.701 456.606 194.348C467.677 192.996 484.396 189.16 484.871 192.863C485.347 196.566 470.728 198.644 459.656 199.996Z" fill="url(#paint24_linear_830_4)"/>
<path d="M457.074 184.891C446.003 186.244 433.103 199.031 432.627 195.328C432.151 191.625 442.952 180.596 454.024 179.243C465.095 177.891 481.814 174.054 482.289 177.757C482.765 181.46 468.146 183.539 457.074 184.891Z" fill="url(#paint25_linear_830_4)"/>
<path d="M452.612 172.502C441.541 173.854 428.641 186.642 428.165 182.939C427.69 179.236 438.49 168.206 449.562 166.854C460.633 165.501 477.352 161.665 477.827 165.368C478.303 169.071 463.684 171.149 452.612 172.502Z" fill="url(#paint26_linear_830_4)"/>
<path d="M446.754 161.391C435.682 162.744 422.782 175.531 422.307 171.828C421.831 168.125 432.632 157.096 443.703 155.743C454.775 154.391 471.493 150.555 471.969 154.258C472.444 157.961 457.825 160.039 446.754 161.391Z" fill="url(#paint27_linear_830_4)"/>
<path d="M442.548 148.39C431.476 149.743 418.576 162.53 418.101 158.827C417.625 155.124 428.426 144.095 439.497 142.742C450.569 141.39 467.287 137.554 467.763 141.257C468.238 144.96 453.619 147.038 442.548 148.39Z" fill="url(#paint28_linear_830_4)"/>
<path d="M434.561 138.506C423.49 139.859 410.59 152.646 410.114 148.943C409.639 145.24 420.44 134.21 431.511 132.858C442.582 131.505 459.301 127.669 459.776 131.372C460.252 135.075 445.633 137.153 434.561 138.506Z" fill="url(#paint29_linear_830_4)"/>
<path d="M428.685 126.144C417.613 127.497 404.713 140.284 404.237 136.581C403.762 132.878 414.563 121.849 425.634 120.496C436.706 119.144 453.424 115.307 453.899 119.01C454.375 122.713 439.756 124.792 428.685 126.144Z" fill="url(#paint30_linear_830_4)"/>
<path d="M423.517 115.236C412.445 116.588 399.545 129.376 399.069 125.673C398.594 121.97 409.395 110.94 420.466 109.588C431.538 108.235 448.256 104.399 448.731 108.102C449.207 111.805 434.588 113.883 423.517 115.236Z" fill="url(#paint31_linear_830_4)"/>
<path d="M51.4272 134.422C59.7061 141.718 78.859 142.036 76.0254 145.095C73.1919 148.153 56.882 148.123 48.6031 140.827C40.3242 133.53 26.3018 123.822 29.1353 120.763C31.9689 117.704 43.1483 127.125 51.4272 134.422Z" fill="url(#paint32_linear_830_4)"/>
<path d="M47.5454 149.748C56.9432 155.615 75.2451 153.832 73.1824 156.975C71.1197 160.119 55.5845 161.859 46.1867 155.992C36.7889 150.126 21.4216 142.645 23.4843 139.502C25.547 136.359 38.1477 143.881 47.5454 149.748Z" fill="url(#paint33_linear_830_4)"/>
<path d="M41.3095 164.117C51.2022 169.151 69.2709 165.797 67.5012 169.106C65.7314 172.415 50.4148 175.488 40.5221 170.454C30.6294 165.421 14.6443 159.294 16.414 155.986C18.1837 152.677 31.4168 159.083 41.3095 164.117Z" fill="url(#paint34_linear_830_4)"/>
<path d="M36.7143 179.261C47.1745 183.049 64.6718 177.519 63.3399 181.018C62.008 184.516 47.2053 189.433 36.7451 185.644C26.285 181.856 9.64022 177.726 10.9721 174.228C12.3039 170.729 26.2542 175.472 36.7143 179.261Z" fill="url(#paint35_linear_830_4)"/>
<path d="M34.1304 192.691C44.5905 196.479 62.0878 190.949 60.7559 194.448C59.424 197.946 44.6213 202.863 34.1612 199.075C23.701 195.286 7.05623 191.157 8.3881 187.658C9.71996 184.16 23.6702 188.903 34.1304 192.691Z" fill="url(#paint36_linear_830_4)"/>
<path d="M31.5464 207.794C42.0065 211.583 59.5038 206.053 58.1719 209.551C56.8401 213.05 42.0373 217.966 31.5772 214.178C21.117 210.39 4.47225 206.26 5.80411 202.762C7.13598 199.263 21.0862 204.006 31.5464 207.794Z" fill="url(#paint37_linear_830_4)"/>
<path d="M29.8286 222.062C40.2887 225.85 57.786 220.321 56.4541 223.819C55.1223 227.318 40.3195 232.234 29.8594 228.446C19.3993 224.658 2.75447 220.528 4.08634 217.029C5.4182 213.531 19.3685 218.274 29.8286 222.062Z" fill="url(#paint38_linear_830_4)"/>
<path d="M29.8286 235.491C40.2887 239.28 57.786 233.75 56.4541 237.248C55.1223 240.747 40.3195 245.663 29.8594 241.875C19.3993 238.087 2.75447 233.957 4.08634 230.459C5.4182 226.96 19.3685 231.703 29.8286 235.491Z" fill="url(#paint39_linear_830_4)"/>
<path d="M31.0171 247.483C41.4772 251.272 58.9745 245.742 57.6426 249.24C56.3108 252.739 41.508 257.655 31.0479 253.867C20.5877 250.079 3.94295 245.949 5.27482 242.451C6.60668 238.952 20.5569 243.695 31.0171 247.483Z" fill="url(#paint40_linear_830_4)"/>
<path d="M30.6899 262.346C41.1501 266.134 58.6473 260.604 57.3155 264.103C55.9836 267.601 41.1809 272.518 30.7207 268.73C20.2606 264.941 3.6158 260.812 4.94767 257.313C6.27953 253.815 20.2298 258.558 30.6899 262.346Z" fill="url(#paint41_linear_830_4)"/>
<path d="M204.057 25.817C199.797 35.8759 204.831 53.1308 201.294 51.7061C197.758 50.2815 193.256 35.6752 197.515 25.6163C201.774 15.5574 206.607 -0.517504 210.143 0.907126C213.68 2.33176 208.316 15.7581 204.057 25.817Z" fill="url(#paint42_linear_830_4)"/>
<path d="M189.041 29.3922C186.998 40.0913 195.569 55.9643 191.807 55.281C188.046 54.5977 180.554 41.2096 182.597 30.5106C184.64 19.8115 185.973 3.1103 189.735 3.79363C193.496 4.47695 191.084 18.6931 189.041 29.3922Z" fill="url(#paint43_linear_830_4)"/>
<path d="M174.313 32.4081C173.482 43.2609 183.78 58.1249 179.965 57.8468C176.149 57.5686 167.202 45.0597 168.033 34.2069C168.865 23.3541 168.318 6.61088 172.134 6.88901C175.949 7.16715 175.145 21.5553 174.313 32.4081Z" fill="url(#paint44_linear_830_4)"/>
<path d="M159.955 39.3135C160.894 50.1579 173.474 63.2458 169.661 63.5599C165.848 63.874 154.985 52.903 154.046 42.0585C153.107 31.2141 149.851 14.7661 153.664 14.452C157.477 14.1379 159.016 28.469 159.955 39.3135Z" fill="url(#paint45_linear_830_4)"/>
<path d="M145.303 45.6696C147.382 56.3621 161.277 68.1167 157.517 68.8121C153.758 69.5075 141.794 59.6862 139.715 48.9937C137.636 38.3013 132.661 22.2678 136.42 21.5723C140.179 20.8769 143.224 34.9772 145.303 45.6696Z" fill="url(#paint46_linear_830_4)"/>
<path d="M130.979 50.8909C133.982 61.3723 148.851 71.9328 145.166 72.9373C141.48 73.9417 128.704 65.1475 125.701 54.666C122.698 44.1845 116.344 28.6213 120.029 27.6169C123.714 26.6124 127.976 40.4094 130.979 50.8909Z" fill="url(#paint47_linear_830_4)"/>
<path d="M119.053 58.4478C122.116 68.9128 137.045 79.3923 133.366 80.4168C129.686 81.4412 116.86 72.7165 113.797 62.2515C110.734 51.7866 104.291 36.2581 107.971 35.2337C111.65 34.2092 115.99 47.9828 119.053 58.4478Z" fill="url(#paint48_linear_830_4)"/>
<path d="M105.624 66.8127C109.653 76.9614 125.5 86.0683 121.932 87.416C118.364 88.7637 104.775 81.2172 100.746 71.0685C96.7162 60.9198 88.8475 46.0297 92.4155 44.682C95.9835 43.3343 101.595 56.664 105.624 66.8127Z" fill="url(#paint49_linear_830_4)"/>
<path d="M95.3028 76.8835C99.3322 87.0322 115.179 96.1391 111.611 97.4868C108.043 98.8345 94.4537 91.288 90.4243 81.1393C86.3949 70.9906 78.5262 56.1005 82.0942 54.7528C85.6622 53.4051 91.2734 66.7348 95.3028 76.8835Z" fill="url(#paint50_linear_830_4)"/>
<path d="M85.835 87.7927C89.8644 97.9414 105.711 107.048 102.143 108.396C98.5751 109.744 84.9859 102.197 80.9565 92.0485C76.9272 81.8998 69.0584 67.0097 72.6264 65.662C76.1944 64.3143 81.8056 77.644 85.835 87.7927Z" fill="url(#paint51_linear_830_4)"/>
<path d="M78.9571 98.705C82.9865 108.854 98.8332 117.961 95.2652 119.308C91.6972 120.656 78.108 113.11 74.0786 102.961C70.0492 92.8122 62.1805 77.9221 65.7485 76.5744C69.3165 75.2267 74.9277 88.5564 78.9571 98.705Z" fill="url(#paint52_linear_830_4)"/>
<path d="M70.2772 110.074C75.5326 119.674 92.3901 126.849 89.0149 128.607C85.6397 130.365 71.2162 124.473 65.9609 114.872C60.7055 105.272 51.0523 91.4167 54.4275 89.659C57.8027 87.9012 65.0219 100.473 70.2772 110.074Z" fill="url(#paint53_linear_830_4)"/>
<path d="M58.971 121.036C64.7305 130.357 84.6628 135.073 80.4748 137.535C76.2868 139.997 59.7658 133.947 54.0063 124.626C48.2468 115.305 36.8858 104.491 41.0739 102.029C45.2619 99.5674 53.2115 111.715 58.971 121.036Z" fill="url(#paint54_linear_830_4)"/>
<path d="M176.425 105.457C176.556 104.322 177.73 103.586 178.81 103.959C224.261 119.626 233.297 134.086 223.533 170.067C223.322 170.847 222.607 171.402 221.799 171.402H219.648C219.017 171.402 218.432 171.733 218.106 172.273L217.04 174.04C216.637 174.708 215.827 175.036 215.069 174.854C174.613 165.154 171.446 148.426 176.425 105.457Z" fill="#7BDB01"/>
<path d="M148.469 199.361C148.285 198.235 149.209 197.192 150.345 197.239C211.633 199.768 225.952 215.057 226.389 262.433C226.397 263.237 225.801 263.941 225.008 264.046L224.224 264.15C223.48 264.248 223.068 265.075 223.439 265.728C223.825 266.408 223.333 267.266 222.552 267.309C169.782 270.197 157.341 253.377 148.469 199.361Z" fill="#7BDB01"/>
<path d="M318.636 101.618C319.723 101.174 320.954 101.913 321.087 103.087C329.194 174.405 309.664 197.624 251.18 212.351C250.644 212.486 250.158 211.977 250.333 211.446C250.596 210.651 249.526 210.138 249.076 210.842L248.874 211.158C248.513 211.722 247.657 211.55 247.513 210.897C234.246 151.028 253.612 128.13 318.636 101.618Z" fill="#7BDB01"/>
<path d="M269.886 325.02C271.575 322.483 275.325 322.849 275.139 325.891C275.009 328.008 275.079 327.495 284.955 327.188C298.835 324.996 292.784 330.136 302.318 338.358C302.531 338.541 302.737 338.756 302.909 338.979C314.4 353.865 323.42 355.767 337.735 360.854C338.879 361.26 339.64 362.346 339.64 363.559C339.64 365.154 338.348 366.446 336.753 366.446H185.268C182.041 366.446 180.266 362.696 182.311 360.2L185.021 356.891C185.163 356.719 185.308 356.561 185.492 356.435C190.651 352.89 218.589 353.867 239.388 350.184C239.743 350.121 240.091 350.003 240.413 349.841C256.19 341.908 262.769 335.709 269.886 325.02Z" fill="#BA5400"/>
<path d="M227.09 312.79C228.639 310.165 232.358 310.413 233.754 313.122C236.854 319.135 240.626 322.837 252.437 322.469C266.32 320.277 263.411 330.218 273.02 338.548C273.233 338.733 273.437 338.945 273.608 339.168C285.099 354.053 294.119 355.956 308.435 361.042C309.578 361.448 310.34 362.535 310.34 363.748C310.34 365.342 309.047 366.635 307.453 366.635H161.957C158.06 366.635 156.661 361.487 160.022 359.515L171.844 352.575C172.04 352.46 172.228 352.326 172.399 352.177C176.555 348.54 177.09 346.464 197.354 342.741C197.709 342.676 198.072 342.557 198.394 342.393C214.24 334.346 220.125 324.594 227.09 312.79Z" fill="#EB7900"/>
<path d="M216.437 140.253C216.767 140.558 216.938 141.008 216.859 141.45C215.764 147.539 216.698 151.207 216.984 157.436C216.992 157.604 217.035 157.773 217.11 157.924C231.23 186.439 236.184 203.697 239.736 230.702C239.917 232.075 241.968 232.138 242.231 230.78C245.475 214.007 248.673 202.797 254.785 185.193C254.848 185.011 254.867 184.814 254.84 184.623L252.402 167.765C252.372 167.556 252.396 167.34 252.481 167.147C253.328 165.203 254.274 164.768 256.378 165.257C256.713 165.334 256.989 165.567 257.141 165.875L260.053 171.798C260.454 172.616 261.584 172.706 262.11 171.962L270.036 160.767C286.176 141.485 275.183 158.997 275.051 163.396C275.042 163.693 275.008 163.993 274.865 164.254L262.067 187.496C261.596 188.351 262.288 189.38 263.258 189.268L277.773 187.58C278.282 187.521 278.783 187.788 278.965 188.266C279.423 189.47 279.4 190.362 278.851 191.622C278.715 191.934 278.437 192.157 278.109 192.248L262.096 196.69C262.001 196.716 261.91 196.754 261.825 196.803C258.223 198.883 256.963 201.518 254.92 206.399C254.895 206.459 254.874 206.524 254.859 206.587C249.468 229.302 247.045 241.956 245.284 264.03L246.785 331.215C246.794 331.61 246.61 331.986 246.285 332.209C244.547 333.404 243.339 333.767 241.199 332.201C240.902 331.984 240.74 331.624 240.744 331.256C240.999 308.662 239.817 297.334 232.655 283.039C225.516 270.171 218.006 257.865 211.944 257.865C205.882 257.865 199.82 260.433 197.294 259.92C194.769 259.407 190.222 258.269 194.769 255.81C199.315 253.351 201.336 251.186 206.387 251.186C211.325 251.186 190.78 237.941 189.852 237.344C189.822 237.325 189.802 237.314 189.771 237.298C185.284 234.901 187.723 229.236 191.84 231.672C194.321 233.14 198.156 235.991 200.826 238.035C201.761 238.751 203.16 237.817 202.968 236.655C202.474 233.664 202.679 231.343 202.829 228.065C202.844 227.739 202.988 227.429 203.241 227.222C204.718 226.019 205.832 225.776 207.734 226.315C208.153 226.434 208.456 226.793 208.534 227.222L211.87 245.639C211.918 245.905 212.056 246.148 212.258 246.327C221.831 254.823 227.343 261.059 234.629 273.419C235.275 274.514 236.984 274.004 236.908 272.735C234.459 232.006 229.611 208.014 212.204 168.043C212.044 167.674 211.706 167.403 211.31 167.333L200.664 165.45C200.443 165.411 200.235 165.311 200.072 165.156C198.557 163.713 198.463 162.748 199.981 161.12C200.197 160.889 200.503 160.767 200.819 160.767H206.505C207.388 160.767 207.969 159.846 207.589 159.049L200.473 144.122C200.376 143.92 200.344 143.697 200.331 143.474C200.171 140.809 195.824 134.468 203.634 140.553C203.778 140.665 203.903 140.816 203.982 140.98L211.279 156.054C211.835 157.202 213.561 156.806 213.561 155.53V141.29C213.561 140.935 213.721 140.599 213.985 140.362C215.983 138.555 214.709 138.66 216.437 140.253Z" fill="#549C00"/>
<path d="M289.388 237.049L281.54 241.23C280.426 241.823 280.252 243.348 281.203 244.177L289.679 251.566C289.786 251.66 289.882 251.765 289.964 251.881L294.844 258.753C295.588 259.801 297.158 259.755 297.84 258.666L303.267 249.991C303.407 249.768 303.594 249.578 303.816 249.434L311.967 244.159C313.132 243.405 313.042 241.671 311.805 241.042L303.925 237.035C303.634 236.886 303.388 236.662 303.215 236.385L297.992 228.037C297.272 226.888 295.589 226.915 294.907 228.088L290.098 236.365C289.93 236.655 289.684 236.892 289.388 237.049Z" fill="#FFE4B2"/>
<path d="M140.176 147.602L134.812 150.724C133.775 151.327 133.607 152.757 134.476 153.585L140.467 159.29C140.568 159.387 140.658 159.495 140.735 159.613L143.891 164.468C144.625 165.598 146.294 165.551 146.964 164.381L150.554 158.113C150.684 157.886 150.862 157.689 151.077 157.538L156.668 153.584C157.751 152.818 157.663 151.184 156.503 150.539L151.19 147.588C150.903 147.428 150.665 147.193 150.502 146.908L147.119 141.002C146.415 139.772 144.632 139.8 143.966 141.051L140.86 146.891C140.703 147.187 140.466 147.433 140.176 147.602Z" fill="#FFE4B2"/>
<path d="M483.56 310.227C483.56 426.101 353.631 510.803 227.233 510.803C100.835 510.803 0 442.046 0 326.172C0 210.299 194.469 365.616 320.867 365.616C447.265 365.616 483.56 194.354 483.56 310.227Z" fill="url(#paint55_linear_830_4)"/>
<path d="M478.071 325.566C478.071 432.579 351.393 510.805 228.158 510.805C104.923 510.805 6.61133 447.305 6.61133 340.292C6.61133 233.279 196.214 376.72 319.449 376.72C442.684 376.72 478.071 218.552 478.071 325.566Z" fill="#1D6923"/>
<path d="M474.408 336.751C474.408 439.726 349.698 515 228.377 515C107.057 515 10.2725 453.897 10.2725 350.922C10.2725 247.946 196.93 385.975 318.25 385.975C439.571 385.975 474.408 233.776 474.408 336.751Z" fill="url(#paint56_linear_830_4)"/>
<defs>
<linearGradient id="paint0_linear_830_4" x1="100.301" y1="62.0315" x2="189.659" y2="379.398" gradientUnits="userSpaceOnUse">
<stop offset="0.0200484" stop-color="#C29217"/>
<stop offset="0.389877" stop-color="#FFE605" stop-opacity="0.742865"/>
<stop offset="0.666667" stop-color="#C29217"/>
<stop offset="0.855158" stop-color="#FFE600"/>
<stop offset="1" stop-color="#FFE712" stop-opacity="0"/>
</linearGradient>
<linearGradient id="paint1_linear_830_4" x1="25.5246" y1="278.525" x2="52.2467" y2="269.34" gradientUnits="userSpaceOnUse">
<stop offset="0.0200484" stop-color="#C29217"/>
<stop offset="0.389877" stop-color="#FFE605" stop-opacity="0.742865"/>
<stop offset="0.666667" stop-color="#C29217"/>
<stop offset="0.855158" stop-color="#FFE600"/>
<stop offset="1" stop-color="#FFE712" stop-opacity="0"/>
</linearGradient>
<linearGradient id="paint2_linear_830_4" x1="458.22" y1="287.519" x2="438.571" y2="307.436" gradientUnits="userSpaceOnUse">
<stop offset="0.0200484" stop-color="#C29217"/>
<stop offset="0.389877" stop-color="#FFE605" stop-opacity="0.742865"/>
<stop offset="0.666667" stop-color="#C29217"/>
<stop offset="0.855158" stop-color="#FFE600"/>
<stop offset="1" stop-color="#FFE712" stop-opacity="0"/>
</linearGradient>
<linearGradient id="paint3_linear_830_4" x1="460.52" y1="270.068" x2="442.69" y2="291.551" gradientUnits="userSpaceOnUse">
<stop offset="0.0200484" stop-color="#C29217"/>
<stop offset="0.389877" stop-color="#FFE605" stop-opacity="0.742865"/>
<stop offset="0.666667" stop-color="#C29217"/>
<stop offset="0.855158" stop-color="#FFE600"/>
<stop offset="1" stop-color="#FFE712" stop-opacity="0"/>
</linearGradient>
<linearGradient id="paint4_linear_830_4" x1="463.388" y1="253.952" x2="443.739" y2="273.868" gradientUnits="userSpaceOnUse">
<stop offset="0.0200484" stop-color="#C29217"/>
<stop offset="0.389877" stop-color="#FFE605" stop-opacity="0.742865"/>
<stop offset="0.666667" stop-color="#C29217"/>
<stop offset="0.855158" stop-color="#FFE600"/>
<stop offset="1" stop-color="#FFE712" stop-opacity="0"/>
</linearGradient>
<linearGradient id="paint5_linear_830_4" x1="416.67" y1="98.6796" x2="398.652" y2="120.013" gradientUnits="userSpaceOnUse">
<stop offset="0.0200484" stop-color="#C29217"/>
<stop offset="0.389877" stop-color="#FFE605" stop-opacity="0.742865"/>
<stop offset="0.666667" stop-color="#C29217"/>
<stop offset="0.855158" stop-color="#FFE600"/>
<stop offset="1" stop-color="#FFE712" stop-opacity="0"/>
</linearGradient>
<linearGradient id="paint6_linear_830_4" x1="406.347" y1="89.4505" x2="388.329" y2="110.784" gradientUnits="userSpaceOnUse">
<stop offset="0.0200484" stop-color="#C29217"/>
<stop offset="0.389877" stop-color="#FFE605" stop-opacity="0.742865"/>
<stop offset="0.666667" stop-color="#C29217"/>
<stop offset="0.855158" stop-color="#FFE600"/>
<stop offset="1" stop-color="#FFE712" stop-opacity="0"/>
</linearGradient>
<linearGradient id="paint7_linear_830_4" x1="397.743" y1="79.3796" x2="379.726" y2="100.713" gradientUnits="userSpaceOnUse">
<stop offset="0.0200484" stop-color="#C29217"/>
<stop offset="0.389877" stop-color="#FFE605" stop-opacity="0.742865"/>
<stop offset="0.666667" stop-color="#C29217"/>
<stop offset="0.855158" stop-color="#FFE600"/>
<stop offset="1" stop-color="#FFE712" stop-opacity="0"/>
</linearGradient>
<linearGradient id="paint8_linear_830_4" x1="386.563" y1="70.1457" x2="368.545" y2="91.4792" gradientUnits="userSpaceOnUse">
<stop offset="0.0200484" stop-color="#C29217"/>
<stop offset="0.389877" stop-color="#FFE605" stop-opacity="0.742865"/>
<stop offset="0.666667" stop-color="#C29217"/>
<stop offset="0.855158" stop-color="#FFE600"/>
<stop offset="1" stop-color="#FFE712" stop-opacity="0"/>
</linearGradient>
<linearGradient id="paint9_linear_830_4" x1="375.372" y1="61.7545" x2="357.354" y2="83.0879" gradientUnits="userSpaceOnUse">
<stop offset="0.0200484" stop-color="#C29217"/>
<stop offset="0.389877" stop-color="#FFE605" stop-opacity="0.742865"/>
<stop offset="0.666667" stop-color="#C29217"/>
<stop offset="0.855158" stop-color="#FFE600"/>
<stop offset="1" stop-color="#FFE712" stop-opacity="0"/>
</linearGradient>
<linearGradient id="paint10_linear_830_4" x1="362.636" y1="53.2789" x2="347.227" y2="76.4743" gradientUnits="userSpaceOnUse">
<stop offset="0.0200484" stop-color="#C29217"/>
<stop offset="0.389877" stop-color="#FFE605" stop-opacity="0.742865"/>
<stop offset="0.666667" stop-color="#C29217"/>
<stop offset="0.855158" stop-color="#FFE600"/>
<stop offset="1" stop-color="#FFE712" stop-opacity="0"/>
</linearGradient>
<linearGradient id="paint11_linear_830_4" x1="350.537" y1="45.2516" x2="337.544" y2="69.8117" gradientUnits="userSpaceOnUse">
<stop offset="0.0200484" stop-color="#C29217"/>
<stop offset="0.389877" stop-color="#FFE605" stop-opacity="0.742865"/>
<stop offset="0.666667" stop-color="#C29217"/>
<stop offset="0.855158" stop-color="#FFE600"/>
<stop offset="1" stop-color="#FFE712" stop-opacity="0"/>
</linearGradient>
<linearGradient id="paint12_linear_830_4" x1="336.826" y1="39.4699" x2="327.256" y2="65.4805" gradientUnits="userSpaceOnUse">
<stop offset="0.0200484" stop-color="#C29217"/>
<stop offset="0.389877" stop-color="#FFE605" stop-opacity="0.742865"/>
<stop offset="0.666667" stop-color="#C29217"/>
<stop offset="0.855158" stop-color="#FFE600"/>
<stop offset="1" stop-color="#FFE712" stop-opacity="0"/>
</linearGradient>
<linearGradient id="paint13_linear_830_4" x1="323.375" y1="33.4421" x2="314.778" y2="59.7737" gradientUnits="userSpaceOnUse">
<stop offset="0.0200484" stop-color="#C29217"/>
<stop offset="0.389877" stop-color="#FFE605" stop-opacity="0.742865"/>
<stop offset="0.666667" stop-color="#C29217"/>
<stop offset="0.855158" stop-color="#FFE600"/>
<stop offset="1" stop-color="#FFE712" stop-opacity="0"/>
</linearGradient>
<linearGradient id="paint14_linear_830_4" x1="309.76" y1="28.4006" x2="303.699" y2="55.3937" gradientUnits="userSpaceOnUse">
<stop offset="0.0200484" stop-color="#C29217"/>
<stop offset="0.389877" stop-color="#FFE605" stop-opacity="0.742865"/>
<stop offset="0.666667" stop-color="#C29217"/>
<stop offset="0.855158" stop-color="#FFE600"/>
<stop offset="1" stop-color="#FFE712" stop-opacity="0"/>
</linearGradient>
<linearGradient id="paint15_linear_830_4" x1="295.074" y1="24.2079" x2="290.384" y2="51.4589" gradientUnits="userSpaceOnUse">
<stop offset="0.0200484" stop-color="#C29217"/>
<stop offset="0.389877" stop-color="#FFE605" stop-opacity="0.742865"/>
<stop offset="0.666667" stop-color="#C29217"/>
<stop offset="0.855158" stop-color="#FFE600"/>
<stop offset="1" stop-color="#FFE712" stop-opacity="0"/>
</linearGradient>
<linearGradient id="paint16_linear_830_4" x1="279.516" y1="21.4058" x2="277.283" y2="48.9514" gradientUnits="userSpaceOnUse">
<stop offset="0.0200484" stop-color="#C29217"/>
<stop offset="0.389877" stop-color="#FFE605" stop-opacity="0.742865"/>
<stop offset="0.666667" stop-color="#C29217"/>
<stop offset="0.855158" stop-color="#FFE600"/>
<stop offset="1" stop-color="#FFE712" stop-opacity="0"/>
</linearGradient>
<linearGradient id="paint17_linear_830_4" x1="262.856" y1="20.1805" x2="263.173" y2="47.8102" gradientUnits="userSpaceOnUse">
<stop offset="0.0200484" stop-color="#C29217"/>
<stop offset="0.389877" stop-color="#FFE605" stop-opacity="0.742865"/>
<stop offset="0.666667" stop-color="#C29217"/>
<stop offset="0.855158" stop-color="#FFE600"/>
<stop offset="1" stop-color="#FFE712" stop-opacity="0"/>
</linearGradient>
<linearGradient id="paint18_linear_830_4" x1="246.78" y1="19.2773" x2="248.798" y2="46.8387" gradientUnits="userSpaceOnUse">
<stop offset="0.0200484" stop-color="#C29217"/>
<stop offset="0.389877" stop-color="#FFE605" stop-opacity="0.742865"/>
<stop offset="0.666667" stop-color="#C29217"/>
<stop offset="0.855158" stop-color="#FFE600"/>
<stop offset="1" stop-color="#FFE712" stop-opacity="0"/>
</linearGradient>
<linearGradient id="paint19_linear_830_4" x1="231.123" y1="19.7669" x2="234.304" y2="47.224" gradientUnits="userSpaceOnUse">
<stop offset="0.0200484" stop-color="#C29217"/>
<stop offset="0.389877" stop-color="#FFE605" stop-opacity="0.742865"/>
<stop offset="0.666667" stop-color="#C29217"/>
<stop offset="0.855158" stop-color="#FFE600"/>
<stop offset="1" stop-color="#FFE712" stop-opacity="0"/>
</linearGradient>
<linearGradient id="paint20_linear_830_4" x1="215.634" y1="19.9525" x2="221.567" y2="46.9727" gradientUnits="userSpaceOnUse">
<stop offset="0.0200484" stop-color="#C29217"/>
<stop offset="0.389877" stop-color="#FFE605" stop-opacity="0.742865"/>
<stop offset="0.666667" stop-color="#C29217"/>
<stop offset="0.855158" stop-color="#FFE600"/>
<stop offset="1" stop-color="#FFE712" stop-opacity="0"/>
</linearGradient>
<linearGradient id="paint21_linear_830_4" x1="464.904" y1="237.68" x2="445.748" y2="258.048" gradientUnits="userSpaceOnUse">
<stop offset="0.0200484" stop-color="#C29217"/>
<stop offset="0.389877" stop-color="#FFE605" stop-opacity="0.742865"/>
<stop offset="0.666667" stop-color="#C29217"/>
<stop offset="0.855158" stop-color="#FFE600"/>
<stop offset="1" stop-color="#FFE712" stop-opacity="0"/>
</linearGradient>
<linearGradient id="paint22_linear_830_4" x1="463.7" y1="223.437" x2="444.544" y2="243.806" gradientUnits="userSpaceOnUse">
<stop offset="0.0200484" stop-color="#C29217"/>
<stop offset="0.389877" stop-color="#FFE605" stop-opacity="0.742865"/>
<stop offset="0.666667" stop-color="#C29217"/>
<stop offset="0.855158" stop-color="#FFE600"/>
<stop offset="1" stop-color="#FFE712" stop-opacity="0"/>
</linearGradient>
<linearGradient id="paint23_linear_830_4" x1="464.211" y1="209.154" x2="445.055" y2="229.523" gradientUnits="userSpaceOnUse">
<stop offset="0.0200484" stop-color="#C29217"/>
<stop offset="0.389877" stop-color="#FFE605" stop-opacity="0.742865"/>
<stop offset="0.666667" stop-color="#C29217"/>
<stop offset="0.855158" stop-color="#FFE600"/>
<stop offset="1" stop-color="#FFE712" stop-opacity="0"/>
</linearGradient>
<linearGradient id="paint24_linear_830_4" x1="462.465" y1="194.042" x2="443.308" y2="214.41" gradientUnits="userSpaceOnUse">
<stop offset="0.0200484" stop-color="#C29217"/>
<stop offset="0.389877" stop-color="#FFE605" stop-opacity="0.742865"/>
<stop offset="0.666667" stop-color="#C29217"/>
<stop offset="0.855158" stop-color="#FFE600"/>
<stop offset="1" stop-color="#FFE712" stop-opacity="0"/>
</linearGradient>
<linearGradient id="paint25_linear_830_4" x1="459.883" y1="178.937" x2="440.726" y2="199.305" gradientUnits="userSpaceOnUse">
<stop offset="0.0200484" stop-color="#C29217"/>
<stop offset="0.389877" stop-color="#FFE605" stop-opacity="0.742865"/>
<stop offset="0.666667" stop-color="#C29217"/>
<stop offset="0.855158" stop-color="#FFE600"/>
<stop offset="1" stop-color="#FFE712" stop-opacity="0"/>
</linearGradient>
<linearGradient id="paint26_linear_830_4" x1="455.421" y1="166.547" x2="436.265" y2="186.916" gradientUnits="userSpaceOnUse">
<stop offset="0.0200484" stop-color="#C29217"/>
<stop offset="0.389877" stop-color="#FFE605" stop-opacity="0.742865"/>
<stop offset="0.666667" stop-color="#C29217"/>
<stop offset="0.855158" stop-color="#FFE600"/>
<stop offset="1" stop-color="#FFE712" stop-opacity="0"/>
</linearGradient>
<linearGradient id="paint27_linear_830_4" x1="449.562" y1="155.437" x2="430.406" y2="175.805" gradientUnits="userSpaceOnUse">
<stop offset="0.0200484" stop-color="#C29217"/>
<stop offset="0.389877" stop-color="#FFE605" stop-opacity="0.742865"/>
<stop offset="0.666667" stop-color="#C29217"/>
<stop offset="0.855158" stop-color="#FFE600"/>
<stop offset="1" stop-color="#FFE712" stop-opacity="0"/>
</linearGradient>
<linearGradient id="paint28_linear_830_4" x1="445.356" y1="142.436" x2="426.2" y2="162.804" gradientUnits="userSpaceOnUse">
<stop offset="0.0200484" stop-color="#C29217"/>
<stop offset="0.389877" stop-color="#FFE605" stop-opacity="0.742865"/>
<stop offset="0.666667" stop-color="#C29217"/>
<stop offset="0.855158" stop-color="#FFE600"/>
<stop offset="1" stop-color="#FFE712" stop-opacity="0"/>
</linearGradient>
<linearGradient id="paint29_linear_830_4" x1="437.37" y1="132.552" x2="418.214" y2="152.92" gradientUnits="userSpaceOnUse">
<stop offset="0.0200484" stop-color="#C29217"/>
<stop offset="0.389877" stop-color="#FFE605" stop-opacity="0.742865"/>
<stop offset="0.666667" stop-color="#C29217"/>
<stop offset="0.855158" stop-color="#FFE600"/>
<stop offset="1" stop-color="#FFE712" stop-opacity="0"/>
</linearGradient>
<linearGradient id="paint30_linear_830_4" x1="431.493" y1="120.19" x2="412.337" y2="140.558" gradientUnits="userSpaceOnUse">
<stop offset="0.0200484" stop-color="#C29217"/>
<stop offset="0.389877" stop-color="#FFE605" stop-opacity="0.742865"/>
<stop offset="0.666667" stop-color="#C29217"/>
<stop offset="0.855158" stop-color="#FFE600"/>
<stop offset="1" stop-color="#FFE712" stop-opacity="0"/>
</linearGradient>
<linearGradient id="paint31_linear_830_4" x1="426.325" y1="109.281" x2="407.169" y2="129.649" gradientUnits="userSpaceOnUse">
<stop offset="0.0200484" stop-color="#C29217"/>
<stop offset="0.389877" stop-color="#FFE605" stop-opacity="0.742865"/>
<stop offset="0.666667" stop-color="#C29217"/>
<stop offset="0.855158" stop-color="#FFE600"/>
<stop offset="1" stop-color="#FFE712" stop-opacity="0"/>
</linearGradient>
<linearGradient id="paint32_linear_830_4" x1="44.5691" y1="136.666" x2="73.7892" y2="139.788" gradientUnits="userSpaceOnUse">
<stop offset="0.0200484" stop-color="#C29217"/>
<stop offset="0.389877" stop-color="#FFE605" stop-opacity="0.742865"/>
<stop offset="0.666667" stop-color="#C29217"/>
<stop offset="0.855158" stop-color="#FFE600"/>
<stop offset="1" stop-color="#FFE712" stop-opacity="0"/>
</linearGradient>
<linearGradient id="paint33_linear_830_4" x1="41.4819" y1="152.573" x2="69.6238" y2="149.397" gradientUnits="userSpaceOnUse">
<stop offset="0.0200484" stop-color="#C29217"/>
<stop offset="0.389877" stop-color="#FFE605" stop-opacity="0.742865"/>
<stop offset="0.666667" stop-color="#C29217"/>
<stop offset="0.855158" stop-color="#FFE600"/>
<stop offset="1" stop-color="#FFE712" stop-opacity="0"/>
</linearGradient>
<linearGradient id="paint34_linear_830_4" x1="35.5258" y1="167.454" x2="63.2457" y2="161.747" gradientUnits="userSpaceOnUse">
<stop offset="0.0200484" stop-color="#C29217"/>
<stop offset="0.389877" stop-color="#FFE605" stop-opacity="0.742865"/>
<stop offset="0.666667" stop-color="#C29217"/>
<stop offset="0.855158" stop-color="#FFE600"/>
<stop offset="1" stop-color="#FFE712" stop-opacity="0"/>
</linearGradient>
<linearGradient id="paint35_linear_830_4" x1="31.4035" y1="183.276" x2="58.1256" y2="174.092" gradientUnits="userSpaceOnUse">
<stop offset="0.0200484" stop-color="#C29217"/>
<stop offset="0.389877" stop-color="#FFE605" stop-opacity="0.742865"/>
<stop offset="0.666667" stop-color="#C29217"/>
<stop offset="0.855158" stop-color="#FFE600"/>
<stop offset="1" stop-color="#FFE712" stop-opacity="0"/>
</linearGradient>
<linearGradient id="paint36_linear_830_4" x1="28.8195" y1="196.707" x2="55.5416" y2="187.522" gradientUnits="userSpaceOnUse">
<stop offset="0.0200484" stop-color="#C29217"/>
<stop offset="0.389877" stop-color="#FFE605" stop-opacity="0.742865"/>
<stop offset="0.666667" stop-color="#C29217"/>
<stop offset="0.855158" stop-color="#FFE600"/>
<stop offset="1" stop-color="#FFE712" stop-opacity="0"/>
</linearGradient>
<linearGradient id="paint37_linear_830_4" x1="26.2356" y1="211.81" x2="52.9576" y2="202.626" gradientUnits="userSpaceOnUse">
<stop offset="0.0200484" stop-color="#C29217"/>
<stop offset="0.389877" stop-color="#FFE605" stop-opacity="0.742865"/>
<stop offset="0.666667" stop-color="#C29217"/>
<stop offset="0.855158" stop-color="#FFE600"/>
<stop offset="1" stop-color="#FFE712" stop-opacity="0"/>
</linearGradient>
<linearGradient id="paint38_linear_830_4" x1="24.5178" y1="226.078" x2="51.2398" y2="216.894" gradientUnits="userSpaceOnUse">
<stop offset="0.0200484" stop-color="#C29217"/>
<stop offset="0.389877" stop-color="#FFE605" stop-opacity="0.742865"/>
<stop offset="0.666667" stop-color="#C29217"/>
<stop offset="0.855158" stop-color="#FFE600"/>
<stop offset="1" stop-color="#FFE712" stop-opacity="0"/>
</linearGradient>
<linearGradient id="paint39_linear_830_4" x1="24.5178" y1="239.507" x2="51.2398" y2="230.323" gradientUnits="userSpaceOnUse">
<stop offset="0.0200484" stop-color="#C29217"/>
<stop offset="0.389877" stop-color="#FFE605" stop-opacity="0.742865"/>
<stop offset="0.666667" stop-color="#C29217"/>
<stop offset="0.855158" stop-color="#FFE600"/>
<stop offset="1" stop-color="#FFE712" stop-opacity="0"/>
</linearGradient>
<linearGradient id="paint40_linear_830_4" x1="25.7063" y1="251.499" x2="52.4283" y2="242.315" gradientUnits="userSpaceOnUse">
<stop offset="0.0200484" stop-color="#C29217"/>
<stop offset="0.389877" stop-color="#FFE605" stop-opacity="0.742865"/>
<stop offset="0.666667" stop-color="#C29217"/>
<stop offset="0.855158" stop-color="#FFE600"/>
<stop offset="1" stop-color="#FFE712" stop-opacity="0"/>
</linearGradient>
<linearGradient id="paint41_linear_830_4" x1="25.3791" y1="266.362" x2="52.1012" y2="257.177" gradientUnits="userSpaceOnUse">
<stop offset="0.0200484" stop-color="#C29217"/>
<stop offset="0.389877" stop-color="#FFE605" stop-opacity="0.742865"/>
<stop offset="0.666667" stop-color="#C29217"/>
<stop offset="0.855158" stop-color="#FFE600"/>
<stop offset="1" stop-color="#FFE712" stop-opacity="0"/>
</linearGradient>
<linearGradient id="paint42_linear_830_4" x1="200.134" y1="20.4952" x2="207.801" y2="47.0979" gradientUnits="userSpaceOnUse">
<stop offset="0.0200484" stop-color="#C29217"/>
<stop offset="0.389877" stop-color="#FFE605" stop-opacity="0.742865"/>
<stop offset="0.666667" stop-color="#C29217"/>
<stop offset="0.855158" stop-color="#FFE600"/>
<stop offset="1" stop-color="#FFE712" stop-opacity="0"/>
</linearGradient>
<linearGradient id="paint43_linear_830_4" x1="184.078" y1="24.973" x2="197.019" y2="49.5596" gradientUnits="userSpaceOnUse">
<stop offset="0.0200484" stop-color="#C29217"/>
<stop offset="0.389877" stop-color="#FFE605" stop-opacity="0.742865"/>
<stop offset="0.666667" stop-color="#C29217"/>
<stop offset="0.855158" stop-color="#FFE600"/>
<stop offset="1" stop-color="#FFE712" stop-opacity="0"/>
</linearGradient>
<linearGradient id="paint44_linear_830_4" x1="168.885" y1="28.5446" x2="184.445" y2="51.644" gradientUnits="userSpaceOnUse">
<stop offset="0.0200484" stop-color="#C29217"/>
<stop offset="0.389877" stop-color="#FFE605" stop-opacity="0.742865"/>
<stop offset="0.666667" stop-color="#C29217"/>
<stop offset="0.855158" stop-color="#FFE600"/>
<stop offset="1" stop-color="#FFE712" stop-opacity="0"/>
</linearGradient>
<linearGradient id="paint45_linear_830_4" x1="153.968" y1="36.3362" x2="173.042" y2="56.7777" gradientUnits="userSpaceOnUse">
<stop offset="0.0200484" stop-color="#C29217"/>
<stop offset="0.389877" stop-color="#FFE605" stop-opacity="0.742865"/>
<stop offset="0.666667" stop-color="#C29217"/>
<stop offset="0.855158" stop-color="#FFE600"/>
<stop offset="1" stop-color="#FFE712" stop-opacity="0"/>
</linearGradient>
<linearGradient id="paint46_linear_830_4" x1="139.034" y1="43.3095" x2="160.168" y2="61.7226" gradientUnits="userSpaceOnUse">
<stop offset="0.0200484" stop-color="#C29217"/>
<stop offset="0.389877" stop-color="#FFE605" stop-opacity="0.742865"/>
<stop offset="0.666667" stop-color="#C29217"/>
<stop offset="0.855158" stop-color="#FFE600"/>
<stop offset="1" stop-color="#FFE712" stop-opacity="0"/>
</linearGradient>
<linearGradient id="paint47_linear_830_4" x1="124.527" y1="49.0589" x2="147.204" y2="65.6326" gradientUnits="userSpaceOnUse">
<stop offset="0.0200484" stop-color="#C29217"/>
<stop offset="0.389877" stop-color="#FFE605" stop-opacity="0.742865"/>
<stop offset="0.666667" stop-color="#C29217"/>
<stop offset="0.855158" stop-color="#FFE600"/>
<stop offset="1" stop-color="#FFE712" stop-opacity="0"/>
</linearGradient>
<linearGradient id="paint48_linear_830_4" x1="112.591" y1="56.6509" x2="135.364" y2="73.0992" gradientUnits="userSpaceOnUse">
<stop offset="0.0200484" stop-color="#C29217"/>
<stop offset="0.389877" stop-color="#FFE605" stop-opacity="0.742865"/>
<stop offset="0.666667" stop-color="#C29217"/>
<stop offset="0.855158" stop-color="#FFE600"/>
<stop offset="1" stop-color="#FFE712" stop-opacity="0"/>
</linearGradient>
<linearGradient id="paint49_linear_830_4" x1="99.0205" y1="65.5986" x2="123.264" y2="79.9069" gradientUnits="userSpaceOnUse">
<stop offset="0.0200484" stop-color="#C29217"/>
<stop offset="0.389877" stop-color="#FFE605" stop-opacity="0.742865"/>
<stop offset="0.666667" stop-color="#C29217"/>
<stop offset="0.855158" stop-color="#FFE600"/>
<stop offset="1" stop-color="#FFE712" stop-opacity="0"/>
</linearGradient>
<linearGradient id="paint50_linear_830_4" x1="88.6992" y1="75.6694" x2="112.942" y2="89.9777" gradientUnits="userSpaceOnUse">
<stop offset="0.0200484" stop-color="#C29217"/>
<stop offset="0.389877" stop-color="#FFE605" stop-opacity="0.742865"/>
<stop offset="0.666667" stop-color="#C29217"/>
<stop offset="0.855158" stop-color="#FFE600"/>
<stop offset="1" stop-color="#FFE712" stop-opacity="0"/>
</linearGradient>
<linearGradient id="paint51_linear_830_4" x1="79.2314" y1="86.5786" x2="103.475" y2="100.887" gradientUnits="userSpaceOnUse">
<stop offset="0.0200484" stop-color="#C29217"/>
<stop offset="0.389877" stop-color="#FFE605" stop-opacity="0.742865"/>
<stop offset="0.666667" stop-color="#C29217"/>
<stop offset="0.855158" stop-color="#FFE600"/>
<stop offset="1" stop-color="#FFE712" stop-opacity="0"/>
</linearGradient>
<linearGradient id="paint52_linear_830_4" x1="72.3535" y1="97.4909" x2="96.5966" y2="111.799" gradientUnits="userSpaceOnUse">
<stop offset="0.0200484" stop-color="#C29217"/>
<stop offset="0.389877" stop-color="#FFE605" stop-opacity="0.742865"/>
<stop offset="0.666667" stop-color="#C29217"/>
<stop offset="0.855158" stop-color="#FFE600"/>
<stop offset="1" stop-color="#FFE712" stop-opacity="0"/>
</linearGradient>
<linearGradient id="paint53_linear_830_4" x1="63.5717" y1="109.645" x2="89.4474" y2="120.905" gradientUnits="userSpaceOnUse">
<stop offset="0.0200484" stop-color="#C29217"/>
<stop offset="0.389877" stop-color="#FFE605" stop-opacity="0.742865"/>
<stop offset="0.666667" stop-color="#C29217"/>
<stop offset="0.855158" stop-color="#FFE600"/>
<stop offset="1" stop-color="#FFE712" stop-opacity="0"/>
</linearGradient>
<linearGradient id="paint54_linear_830_4" x1="50.8927" y1="121.747" x2="78.122" y2="135.759" gradientUnits="userSpaceOnUse">
<stop offset="0.0200484" stop-color="#C29217"/>
<stop offset="0.389877" stop-color="#FFE605" stop-opacity="0.742865"/>
<stop offset="0.666667" stop-color="#C29217"/>
<stop offset="0.855158" stop-color="#FFE600"/>
<stop offset="1" stop-color="#FFE712" stop-opacity="0"/>
</linearGradient>
<linearGradient id="paint55_linear_830_4" x1="241.78" y1="269.994" x2="241.78" y2="510.803" gradientUnits="userSpaceOnUse">
<stop stop-color="#331E19"/>
<stop offset="0.760417" stop-color="#9D510A" stop-opacity="0.97"/>
</linearGradient>
<linearGradient id="paint56_linear_830_4" x1="242.34" y1="300.996" x2="242.34" y2="515" gradientUnits="userSpaceOnUse">
<stop stop-color="#2DA304"/>
<stop offset="1" stop-color="#55B533" stop-opacity="0"/>
</linearGradient>
</defs>
</svg>
