<svg width="1037" height="359" viewBox="0 0 1037 359" fill="none" xmlns="http://www.w3.org/2000/svg">
<path d="M359.3 67.8864H379.47L388.043 78.8288L399.288 91.7379L416.584 113.068H393.993L381.891 98.5959L374.73 88.3089L359.3 67.8864ZM417.29 53.3636C417.29 64.7263 415.105 74.3577 410.734 82.2578C406.364 90.1579 400.447 96.1586 392.984 100.26C385.555 104.361 377.218 106.412 367.973 106.412C358.695 106.412 350.341 104.344 342.911 100.21C335.482 96.0746 329.582 90.0739 325.212 82.2074C320.875 74.3073 318.707 64.6927 318.707 53.3636C318.707 42.0009 320.875 32.3696 325.212 24.4695C329.582 16.5694 335.482 10.5687 342.911 6.46733C350.341 2.366 358.695 0.315337 367.973 0.315337C377.218 0.315337 385.555 2.366 392.984 6.46733C400.447 10.5687 406.364 16.5694 410.734 24.4695C415.105 32.3696 417.29 42.0009 417.29 53.3636ZM391.774 53.3636C391.774 46.6402 390.816 40.9588 388.9 36.3196C387.017 31.6804 384.294 28.1674 380.731 25.7805C377.201 23.3937 372.948 22.2003 367.973 22.2003C363.031 22.2003 358.779 23.3937 355.215 25.7805C351.652 28.1674 348.912 31.6804 346.996 36.3196C345.113 40.9588 344.172 46.6402 344.172 53.3636C344.172 60.0871 345.113 65.7685 346.996 70.4077C348.912 75.0469 351.652 78.5599 355.215 80.9467C358.779 83.3336 363.031 84.527 367.973 84.527C372.948 84.527 377.201 83.3336 380.731 80.9467C384.294 78.5599 387.017 75.0469 388.9 70.4077C390.816 65.7685 391.774 60.0871 391.774 53.3636ZM517.474 71.5675V27.5455H542.082V105H518.583V90.5781H517.776C516.062 95.3182 513.137 99.0833 509.002 101.874C504.901 104.63 499.942 106.009 494.127 106.009C488.849 106.009 484.209 104.798 480.209 102.378C476.209 99.9574 473.099 96.5788 470.88 92.2422C468.661 87.8719 467.535 82.7621 467.502 76.9126V27.5455H492.16V72.0717C492.194 76.2739 493.303 79.5852 495.488 82.0057C497.673 84.4261 500.648 85.6364 504.414 85.6364C506.868 85.6364 509.07 85.0985 511.019 84.0227C513.003 82.9134 514.566 81.3165 515.709 79.2322C516.886 77.1143 517.474 74.5594 517.474 71.5675ZM615.112 106.311C610.17 106.311 605.783 105.487 601.95 103.84C598.152 102.159 595.143 99.638 592.924 96.2763C590.739 92.8809 589.646 88.6283 589.646 83.5185C589.646 79.2154 590.403 75.5848 591.915 72.6264C593.428 69.6681 595.513 67.2644 598.168 65.4155C600.824 63.5665 603.883 62.1714 607.346 61.2301C610.808 60.2552 614.506 59.5997 618.44 59.2635C622.844 58.8601 626.39 58.4399 629.08 58.0028C631.769 57.5322 633.719 56.8767 634.929 56.0362C636.173 55.1622 636.795 53.9351 636.795 52.3551V52.103C636.795 49.5144 635.904 47.5142 634.122 46.1023C632.34 44.6903 629.937 43.9844 626.911 43.9844C623.65 43.9844 621.028 44.6903 619.045 46.1023C617.061 47.5142 615.801 49.464 615.263 51.9517L592.521 51.1449C593.193 46.4384 594.924 42.2363 597.714 38.5384C600.538 34.8068 604.404 31.8821 609.312 29.7642C614.254 27.6127 620.188 26.5369 627.113 26.5369C632.055 26.5369 636.61 27.1252 640.778 28.3018C644.947 29.4448 648.578 31.1257 651.67 33.3445C654.763 35.5296 657.15 38.219 658.831 41.4126C660.545 44.6063 661.403 48.2538 661.403 52.3551V105H638.207V94.2088H637.602C636.223 96.831 634.458 99.0497 632.307 100.865C630.189 102.68 627.684 104.042 624.793 104.95C621.936 105.857 618.709 106.311 615.112 106.311ZM622.726 90.1747C625.382 90.1747 627.768 89.6368 629.886 88.5611C632.038 87.4853 633.752 86.0062 635.03 84.1236C636.307 82.2074 636.946 79.9886 636.946 77.4673V70.1051C636.24 70.4749 635.383 70.8111 634.374 71.1136C633.399 71.4162 632.324 71.7019 631.147 71.9709C629.97 72.2398 628.76 72.4751 627.516 72.6768C626.272 72.8785 625.079 73.0634 623.936 73.2315C621.616 73.6013 619.633 74.1728 617.986 74.946C616.372 75.7192 615.128 76.7277 614.254 77.9716C613.414 79.1818 612.994 80.6274 612.994 82.3082C612.994 84.8632 613.901 86.813 615.717 88.1577C617.566 89.5024 619.902 90.1747 622.726 90.1747ZM736.638 60.8267V105H711.98V27.5455H735.428V41.7656H736.286C738 37.0256 740.925 33.3108 745.06 30.6214C749.195 27.8984 754.12 26.5369 759.835 26.5369C765.281 26.5369 770.004 27.764 774.004 30.218C778.038 32.6385 781.165 36.0338 783.384 40.4041C785.636 44.7408 786.745 49.817 786.712 55.6328V105H762.053V60.4737C762.087 56.1707 760.994 52.8089 758.776 50.3885C756.59 47.968 753.548 46.7578 749.648 46.7578C747.06 46.7578 744.774 47.3293 742.79 48.4723C740.841 49.5817 739.328 51.1785 738.252 53.2628C737.21 55.3471 736.672 57.8684 736.638 60.8267ZM881.198 27.5455V45.6989H832.335V27.5455H881.198ZM842.571 8.98863H867.23V80.6442C867.23 82.157 867.465 83.384 867.936 84.3253C868.44 85.233 869.163 85.8885 870.104 86.2919C871.045 86.6617 872.171 86.8466 873.482 86.8466C874.424 86.8466 875.415 86.7625 876.458 86.5945C877.533 86.3928 878.34 86.2247 878.878 86.0902L882.61 103.891C881.433 104.227 879.769 104.647 877.617 105.151C875.499 105.656 872.961 105.975 870.003 106.109C864.221 106.378 859.262 105.706 855.127 104.092C851.026 102.445 847.883 99.8902 845.698 96.4276C843.546 92.965 842.504 88.6115 842.571 83.3672V8.98863ZM951.113 106.311C946.172 106.311 941.785 105.487 937.952 103.84C934.153 102.159 931.145 99.638 928.926 96.2763C926.741 92.8809 925.648 88.6283 925.648 83.5185C925.648 79.2154 926.405 75.5848 927.917 72.6264C929.43 69.6681 931.515 67.2644 934.17 65.4155C936.826 63.5665 939.885 62.1714 943.348 61.2301C946.81 60.2552 950.508 59.5997 954.442 59.2635C958.845 58.8601 962.392 58.4399 965.082 58.0028C967.771 57.5322 969.721 56.8767 970.931 56.0362C972.175 55.1622 972.797 53.9351 972.797 52.3551V52.103C972.797 49.5144 971.906 47.5142 970.124 46.1023C968.342 44.6903 965.939 43.9844 962.913 43.9844C959.652 43.9844 957.03 44.6903 955.047 46.1023C953.063 47.5142 951.803 49.464 951.265 51.9517L928.523 51.1449C929.195 46.4384 930.926 42.2363 933.716 38.5384C936.54 34.8068 940.406 31.8821 945.314 29.7642C950.256 27.6127 956.19 26.5369 963.115 26.5369C968.057 26.5369 972.612 27.1252 976.78 28.3018C980.949 29.4448 984.58 31.1257 987.672 33.3445C990.765 35.5296 993.152 38.219 994.833 41.4126C996.547 44.6063 997.405 48.2538 997.405 52.3551V105H974.209V94.2088H973.604C972.225 96.831 970.46 99.0497 968.309 100.865C966.191 102.68 963.686 104.042 960.795 104.95C957.938 105.857 954.711 106.311 951.113 106.311ZM958.728 90.1747C961.384 90.1747 963.77 89.6368 965.888 88.5611C968.04 87.4853 969.754 86.0062 971.032 84.1236C972.309 82.2074 972.948 79.9886 972.948 77.4673V70.1051C972.242 70.4749 971.385 70.8111 970.376 71.1136C969.401 71.4162 968.326 71.7019 967.149 71.9709C965.972 72.2398 964.762 72.4751 963.518 72.6768C962.274 72.8785 961.081 73.0634 959.938 73.2315C957.618 73.6013 955.635 74.1728 953.988 74.946C952.374 75.7192 951.13 76.7277 950.256 77.9716C949.416 79.1818 948.996 80.6274 948.996 82.3082C948.996 84.8632 949.903 86.813 951.719 88.1577C953.568 89.5024 955.904 90.1747 958.728 90.1747Z" fill="black"/>
<path d="M321.99 266V159.6H333.846V254.448H384.918V266H321.99ZM478.075 267.52C470.171 267.52 463.129 265.797 456.947 262.352C450.867 258.907 446.105 254.093 442.659 247.912C439.214 241.731 437.491 234.637 437.491 226.632C437.491 220.451 438.454 214.877 440.379 209.912C442.305 204.845 444.99 200.437 448.435 196.688C451.982 192.939 456.187 190.051 461.051 188.024C465.915 185.896 471.185 184.832 476.859 184.832C482.23 184.832 487.094 185.795 491.451 187.72C495.91 189.645 499.71 192.331 502.851 195.776C506.094 199.12 508.526 203.123 510.147 207.784C511.769 212.445 512.478 217.563 512.275 223.136L512.123 228.456H446.003L444.331 218.88H503.459L500.723 221.464V217.816C500.521 214.168 499.457 210.672 497.531 207.328C495.606 203.883 492.87 201.096 489.323 198.968C485.878 196.84 481.723 195.776 476.859 195.776C471.185 195.776 466.27 196.941 462.115 199.272C457.961 201.501 454.769 204.845 452.539 209.304C450.31 213.763 449.195 219.285 449.195 225.872C449.195 232.155 450.411 237.627 452.843 242.288C455.275 246.848 458.721 250.395 463.179 252.928C467.739 255.461 473.211 256.728 479.595 256.728C483.345 256.728 487.043 256.12 490.691 254.904C494.441 253.587 498.545 251.053 503.003 247.304L508.931 255.512C506.601 257.843 503.814 259.92 500.571 261.744C497.329 263.467 493.782 264.885 489.931 266C486.081 267.013 482.129 267.52 478.075 267.52ZM603.251 267.52C596.056 267.52 589.571 265.747 583.795 262.2C578.12 258.653 573.611 253.789 570.267 247.608C567.024 241.325 565.403 234.232 565.403 226.328C565.403 218.323 567.075 211.229 570.419 205.048C573.763 198.765 578.272 193.851 583.947 190.304C589.622 186.757 596.006 184.984 603.099 184.984C607.051 184.984 610.851 185.592 614.499 186.808C618.248 188.024 621.592 189.747 624.531 191.976C627.47 194.104 629.902 196.587 631.827 199.424C633.752 202.16 634.918 205.048 635.323 208.088L631.827 206.872V153.52H643.227V266H631.979L631.675 246.24L634.563 245.176C634.158 248.013 632.992 250.8 631.067 253.536C629.243 256.171 626.912 258.552 624.075 260.68C621.238 262.808 617.995 264.48 614.347 265.696C610.8 266.912 607.102 267.52 603.251 267.52ZM604.923 257.032C610.192 257.032 614.904 255.715 619.059 253.08C623.214 250.445 626.456 246.797 628.787 242.136C631.219 237.475 632.435 232.155 632.435 226.176C632.435 220.197 631.219 214.928 628.787 210.368C626.456 205.707 623.214 202.059 619.059 199.424C614.904 196.688 610.192 195.32 604.923 195.32C599.451 195.32 594.638 196.688 590.483 199.424C586.43 202.059 583.187 205.707 580.755 210.368C578.424 214.928 577.259 220.197 577.259 226.176C577.259 232.053 578.424 237.323 580.755 241.984C583.086 246.645 586.328 250.344 590.483 253.08C594.638 255.715 599.451 257.032 604.923 257.032ZM742.193 300.96C736.316 300.96 730.743 300.048 725.473 298.224C720.204 296.4 715.847 294.12 712.401 291.384L716.961 281.808C718.988 283.429 721.319 284.848 723.953 286.064C726.689 287.381 729.628 288.395 732.769 289.104C735.911 289.915 739.103 290.32 742.345 290.32C748.223 290.32 753.188 289.205 757.241 286.976C761.396 284.848 764.537 281.656 766.665 277.4C768.895 273.144 770.009 267.875 770.009 261.592V246.392L771.833 245.936C770.921 249.787 768.945 253.384 765.905 256.728C762.865 259.971 759.167 262.605 754.809 264.632C750.452 266.557 745.841 267.52 740.977 267.52C733.58 267.52 726.943 265.747 721.065 262.2C715.289 258.653 710.729 253.789 707.385 247.608C704.041 241.325 702.369 234.232 702.369 226.328C702.369 218.323 704.041 211.229 707.385 205.048C710.831 198.765 715.441 193.851 721.217 190.304C726.993 186.757 733.479 184.984 740.673 184.984C743.815 184.984 746.855 185.389 749.793 186.2C752.732 186.909 755.417 187.973 757.849 189.392C760.383 190.811 762.663 192.432 764.689 194.256C766.716 196.08 768.388 198.056 769.705 200.184C771.124 202.312 772.137 204.491 772.745 206.72L769.553 206.264L770.009 186.656H781.409V261.136C781.409 267.52 780.497 273.144 778.673 278.008C776.849 282.973 774.164 287.128 770.617 290.472C767.172 293.917 763.017 296.501 758.153 298.224C753.391 300.048 748.071 300.96 742.193 300.96ZM742.345 256.576C747.716 256.576 752.479 255.309 756.633 252.776C760.889 250.141 764.233 246.544 766.665 241.984C769.097 237.424 770.313 232.155 770.313 226.176C770.313 220.299 769.097 215.08 766.665 210.52C764.335 205.96 761.041 202.363 756.785 199.728C752.529 197.093 747.716 195.776 742.345 195.776C736.873 195.776 732.009 197.093 727.753 199.728C723.599 202.363 720.305 205.96 717.873 210.52C715.441 215.08 714.225 220.299 714.225 226.176C714.225 231.952 715.391 237.171 717.721 241.832C720.153 246.392 723.447 249.989 727.601 252.624C731.857 255.259 736.772 256.576 742.345 256.576ZM881.107 267.52C873.203 267.52 866.16 265.797 859.979 262.352C853.899 258.907 849.136 254.093 845.691 247.912C842.246 241.731 840.523 234.637 840.523 226.632C840.523 220.451 841.486 214.877 843.411 209.912C845.336 204.845 848.022 200.437 851.467 196.688C855.014 192.939 859.219 190.051 864.083 188.024C868.947 185.896 874.216 184.832 879.891 184.832C885.262 184.832 890.126 185.795 894.483 187.72C898.942 189.645 902.742 192.331 905.883 195.776C909.126 199.12 911.558 203.123 913.179 207.784C914.8 212.445 915.51 217.563 915.307 223.136L915.155 228.456H849.035L847.363 218.88H906.491L903.755 221.464V217.816C903.552 214.168 902.488 210.672 900.563 207.328C898.638 203.883 895.902 201.096 892.355 198.968C888.91 196.84 884.755 195.776 879.891 195.776C874.216 195.776 869.302 196.941 865.147 199.272C860.992 201.501 857.8 204.845 855.571 209.304C853.342 213.763 852.227 219.285 852.227 225.872C852.227 232.155 853.443 237.627 855.875 242.288C858.307 246.848 861.752 250.395 866.211 252.928C870.771 255.461 876.243 256.728 882.627 256.728C886.376 256.728 890.075 256.12 893.723 254.904C897.472 253.587 901.576 251.053 906.035 247.304L911.963 255.512C909.632 257.843 906.846 259.92 903.603 261.744C900.36 263.467 896.814 264.885 892.963 266C889.112 267.013 885.16 267.52 881.107 267.52ZM974.059 266V186.656H985.459L985.763 207.784L984.547 204.896C985.661 201.349 987.435 198.056 989.867 195.016C992.4 191.976 995.389 189.544 998.835 187.72C1002.28 185.896 1006.08 184.984 1010.23 184.984C1011.96 184.984 1013.58 185.136 1015.1 185.44C1016.62 185.643 1017.89 185.947 1018.9 186.352L1015.71 199.12C1014.39 198.512 1013.02 198.107 1011.6 197.904C1010.29 197.6 1009.02 197.448 1007.8 197.448C1004.36 197.448 1001.27 198.056 998.531 199.272C995.795 200.488 993.464 202.211 991.539 204.44C989.613 206.568 988.144 209.051 987.131 211.888C986.117 214.725 985.611 217.765 985.611 221.008V266H974.059Z" fill="black"/>
<path d="M44.7934 235.798C-12.6839 183.742 -10.5928 100.477 26.9964 53.3559C31.6789 59.9314 36.409 66.2833 40.7216 72.9397C41.3763 73.9503 40.4995 76.6428 39.6438 78.1043C28.9673 96.3381 23.9129 116.129 24.3055 137.591C25.184 185.617 59.4986 228.897 103.949 237.959C116.283 240.473 128.59 240.982 142.045 238.184C137.517 231.855 133.549 226.064 129.258 220.555C128.535 219.627 126.409 219.644 124.946 219.693C86.258 220.984 50.2522 190.76 44.2334 146.656C39.222 109.935 56.015 78.2401 82.8614 60.9549C83.9996 60.2221 85.2714 59.7229 86.994 58.857C116.483 99.4243 145.902 139.895 175.898 181.16C179.979 175.193 183.726 169.715 187.671 163.948C150.858 113.393 114.301 63.1902 76.739 11.6067C87.7721 8.85014 97.7193 5.22669 107.921 4.01413C150.745 -1.07588 187.301 12.9564 216.347 46.9721C234.96 68.7709 245 94.7443 247.326 124.165C249.145 147.159 245.111 168.926 236.265 189.797C234.95 192.901 235.277 194.931 237.176 197.584C252.593 219.12 267.859 240.778 283.164 262.404C283.77 263.26 284.316 264.163 285.487 265.96C276.858 265.96 268.947 266.121 261.053 265.798C259.774 265.745 258.363 263.711 257.368 262.31C241.616 240.13 225.975 217.86 210.151 195.739C208.049 192.801 208.111 190.731 209.735 187.548C230.398 147.053 228.714 107.372 202.788 70.5446C179.297 37.1765 146.595 25.0155 106.269 30.1523C111.47 36.9705 115.767 42.8938 120.439 48.4629C121.278 49.4625 123.665 49.1964 125.336 49.1847C160.729 48.9364 193.122 76.1684 201.934 113.606C210.734 150.989 194.791 190.242 163.142 208.942C162.853 209.113 162.509 209.178 161.551 209.522C132.537 168.571 103.396 127.443 73.4761 85.2138C69.6454 90.6674 66.0158 95.3795 62.9961 100.497C62.3497 101.592 63.4774 104.502 64.5252 105.993C84.7763 134.799 105.142 163.515 125.474 192.257C139.646 212.29 153.805 232.333 167.959 252.381C168.746 253.497 169.426 254.699 170.184 255.906C135.817 272.739 83.4249 270.055 44.7934 235.798Z" fill="#6565FD"/>
</svg>
