<svg width="1292" height="365" viewBox="0 0 1292 365" fill="none" xmlns="http://www.w3.org/2000/svg">
<path d="M359.095 67.8864H379.265L387.838 78.8288L399.083 91.7379L416.379 113.068H393.788L381.686 98.5959L374.525 88.3089L359.095 67.8864ZM417.085 53.3636C417.085 64.7263 414.9 74.3577 410.529 82.2578C406.159 90.1579 400.242 96.1586 392.779 100.26C385.35 104.361 377.013 106.412 367.768 106.412C358.49 106.412 350.136 104.344 342.706 100.21C335.277 96.0746 329.377 90.0739 325.007 82.2074C320.67 74.3073 318.502 64.6927 318.502 53.3636C318.502 42.0009 320.67 32.3696 325.007 24.4695C329.377 16.5694 335.277 10.5687 342.706 6.46733C350.136 2.366 358.49 0.315337 367.768 0.315337C377.013 0.315337 385.35 2.366 392.779 6.46733C400.242 10.5687 406.159 16.5694 410.529 24.4695C414.9 32.3696 417.085 42.0009 417.085 53.3636ZM391.569 53.3636C391.569 46.6402 390.611 40.9588 388.695 36.3196C386.812 31.6804 384.089 28.1674 380.526 25.7805C376.996 23.3937 372.743 22.2003 367.768 22.2003C362.826 22.2003 358.574 23.3937 355.01 25.7805C351.447 28.1674 348.707 31.6804 346.791 36.3196C344.908 40.9588 343.967 46.6402 343.967 53.3636C343.967 60.0871 344.908 65.7685 346.791 70.4077C348.707 75.0469 351.447 78.5599 355.01 80.9467C358.574 83.3336 362.826 84.527 367.768 84.527C372.743 84.527 376.996 83.3336 380.526 80.9467C384.089 78.5599 386.812 75.0469 388.695 70.4077C390.611 65.7685 391.569 60.0871 391.569 53.3636ZM517.269 71.5675V27.5455H541.877V105H518.378V90.5781H517.571C515.857 95.3182 512.932 99.0833 508.797 101.874C504.696 104.63 499.737 106.009 493.922 106.009C488.644 106.009 484.004 104.798 480.004 102.378C476.003 99.9574 472.894 96.5788 470.675 92.2422C468.456 87.8719 467.33 82.7621 467.297 76.9126V27.5455H491.955V72.0717C491.989 76.2739 493.098 79.5852 495.283 82.0057C497.468 84.4261 500.443 85.6364 504.208 85.6364C506.663 85.6364 508.864 85.0985 510.814 84.0227C512.798 82.9134 514.361 81.3165 515.504 79.2322C516.681 77.1143 517.269 74.5594 517.269 71.5675ZM614.906 106.311C609.965 106.311 605.578 105.487 601.745 103.84C597.946 102.159 594.938 99.638 592.719 96.2763C590.534 92.8809 589.441 88.6283 589.441 83.5185C589.441 79.2154 590.198 75.5848 591.71 72.6264C593.223 69.6681 595.307 67.2644 597.963 65.4155C600.619 63.5665 603.678 62.1714 607.141 61.2301C610.603 60.2552 614.301 59.5997 618.235 59.2635C622.638 58.8601 626.185 58.4399 628.874 58.0028C631.564 57.5322 633.514 56.8767 634.724 56.0362C635.968 55.1622 636.59 53.9351 636.59 52.3551V52.103C636.59 49.5144 635.699 47.5142 633.917 46.1023C632.135 44.6903 629.732 43.9844 626.706 43.9844C623.445 43.9844 620.823 44.6903 618.84 46.1023C616.856 47.5142 615.596 49.464 615.058 51.9517L592.316 51.1449C592.988 46.4384 594.719 42.2363 597.509 38.5384C600.333 34.8068 604.199 31.8821 609.107 29.7642C614.049 27.6127 619.983 26.5369 626.908 26.5369C631.85 26.5369 636.405 27.1252 640.573 28.3018C644.742 29.4448 648.373 31.1257 651.465 33.3445C654.558 35.5296 656.945 38.219 658.626 41.4126C660.34 44.6063 661.198 48.2538 661.198 52.3551V105H638.002V94.2088H637.396C636.018 96.831 634.253 99.0497 632.102 100.865C629.984 102.68 627.479 104.042 624.588 104.95C621.731 105.857 618.503 106.311 614.906 106.311ZM622.521 90.1747C625.177 90.1747 627.563 89.6368 629.681 88.5611C631.833 87.4853 633.547 86.0062 634.825 84.1236C636.102 82.2074 636.741 79.9886 636.741 77.4673V70.1051C636.035 70.4749 635.178 70.8111 634.169 71.1136C633.194 71.4162 632.119 71.7019 630.942 71.9709C629.765 72.2398 628.555 72.4751 627.311 72.6768C626.067 72.8785 624.874 73.0634 623.731 73.2315C621.411 73.6013 619.428 74.1728 617.781 74.946C616.167 75.7192 614.923 76.7277 614.049 77.9716C613.209 79.1818 612.789 80.6274 612.789 82.3082C612.789 84.8632 613.696 86.813 615.512 88.1577C617.361 89.5024 619.697 90.1747 622.521 90.1747ZM736.433 60.8267V105H711.775V27.5455H735.223V41.7656H736.08C737.795 37.0256 740.72 33.3108 744.855 30.6214C748.99 27.8984 753.914 26.5369 759.629 26.5369C765.075 26.5369 769.799 27.764 773.799 30.218C777.833 32.6385 780.96 36.0338 783.178 40.4041C785.431 44.7408 786.54 49.817 786.507 55.6328V105H761.848V60.4737C761.882 56.1707 760.789 52.8089 758.57 50.3885C756.385 47.968 753.343 46.7578 749.443 46.7578C746.855 46.7578 744.569 47.3293 742.585 48.4723C740.636 49.5817 739.123 51.1785 738.047 53.2628C737.005 55.3471 736.467 57.8684 736.433 60.8267ZM880.993 27.5455V45.6989H832.13V27.5455H880.993ZM842.366 8.98863H867.025V80.6442C867.025 82.157 867.26 83.384 867.73 84.3253C868.235 85.233 868.958 85.8885 869.899 86.2919C870.84 86.6617 871.966 86.8466 873.277 86.8466C874.219 86.8466 875.21 86.7625 876.252 86.5945C877.328 86.3928 878.135 86.2247 878.673 86.0902L882.404 103.891C881.228 104.227 879.564 104.647 877.412 105.151C875.294 105.656 872.756 105.975 869.798 106.109C864.016 106.378 859.057 105.706 854.922 104.092C850.821 102.445 847.678 99.8902 845.493 96.4276C843.341 92.965 842.299 88.6115 842.366 83.3672V8.98863ZM950.908 106.311C945.967 106.311 941.58 105.487 937.747 103.84C933.948 102.159 930.94 99.638 928.721 96.2763C926.536 92.8809 925.443 88.6283 925.443 83.5185C925.443 79.2154 926.2 75.5848 927.712 72.6264C929.225 69.6681 931.309 67.2644 933.965 65.4155C936.621 63.5665 939.68 62.1714 943.143 61.2301C946.605 60.2552 950.303 59.5997 954.237 59.2635C958.64 58.8601 962.187 58.4399 964.876 58.0028C967.566 57.5322 969.516 56.8767 970.726 56.0362C971.97 55.1622 972.592 53.9351 972.592 52.3551V52.103C972.592 49.5144 971.701 47.5142 969.919 46.1023C968.137 44.6903 965.734 43.9844 962.708 43.9844C959.447 43.9844 956.825 44.6903 954.842 46.1023C952.858 47.5142 951.598 49.464 951.06 51.9517L928.317 51.1449C928.99 46.4384 930.721 42.2363 933.511 38.5384C936.335 34.8068 940.201 31.8821 945.109 29.7642C950.051 27.6127 955.985 26.5369 962.91 26.5369C967.852 26.5369 972.407 27.1252 976.575 28.3018C980.744 29.4448 984.375 31.1257 987.467 33.3445C990.56 35.5296 992.947 38.219 994.628 41.4126C996.342 44.6063 997.2 48.2538 997.2 52.3551V105H974.004V94.2088H973.398C972.02 96.831 970.255 99.0497 968.104 100.865C965.986 102.68 963.481 104.042 960.59 104.95C957.733 105.857 954.505 106.311 950.908 106.311ZM958.523 90.1747C961.179 90.1747 963.565 89.6368 965.683 88.5611C967.835 87.4853 969.549 86.0062 970.827 84.1236C972.104 82.2074 972.743 79.9886 972.743 77.4673V70.1051C972.037 70.4749 971.18 70.8111 970.171 71.1136C969.196 71.4162 968.121 71.7019 966.944 71.9709C965.767 72.2398 964.557 72.4751 963.313 72.6768C962.069 72.8785 960.876 73.0634 959.733 73.2315C957.413 73.6013 955.43 74.1728 953.783 74.946C952.169 75.7192 950.925 76.7277 950.051 77.9716C949.211 79.1818 948.79 80.6274 948.79 82.3082C948.79 84.8632 949.698 86.813 951.513 88.1577C953.362 89.5024 955.699 90.1747 958.523 90.1747Z" fill="black"/>
<path d="M322.144 266V159.6H334V254.448H385.072V266H322.144ZM478.229 267.52C470.325 267.52 463.283 265.797 457.101 262.352C451.021 258.907 446.259 254.093 442.813 247.912C439.368 241.731 437.645 234.637 437.645 226.632C437.645 220.451 438.608 214.877 440.533 209.912C442.459 204.845 445.144 200.437 448.589 196.688C452.136 192.939 456.341 190.051 461.205 188.024C466.069 185.896 471.339 184.832 477.013 184.832C482.384 184.832 487.248 185.795 491.605 187.72C496.064 189.645 499.864 192.331 503.005 195.776C506.248 199.12 508.68 203.123 510.301 207.784C511.923 212.445 512.632 217.563 512.429 223.136L512.277 228.456H446.157L444.485 218.88H503.613L500.877 221.464V217.816C500.675 214.168 499.611 210.672 497.685 207.328C495.76 203.883 493.024 201.096 489.477 198.968C486.032 196.84 481.877 195.776 477.013 195.776C471.339 195.776 466.424 196.941 462.269 199.272C458.115 201.501 454.923 204.845 452.693 209.304C450.464 213.763 449.349 219.285 449.349 225.872C449.349 232.155 450.565 237.627 452.997 242.288C455.429 246.848 458.875 250.395 463.333 252.928C467.893 255.461 473.365 256.728 479.749 256.728C483.499 256.728 487.197 256.12 490.845 254.904C494.595 253.587 498.699 251.053 503.157 247.304L509.085 255.512C506.755 257.843 503.968 259.92 500.725 261.744C497.483 263.467 493.936 264.885 490.085 266C486.235 267.013 482.283 267.52 478.229 267.52ZM603.405 267.52C596.21 267.52 589.725 265.747 583.949 262.2C578.274 258.653 573.765 253.789 570.421 247.608C567.178 241.325 565.557 234.232 565.557 226.328C565.557 218.323 567.229 211.229 570.573 205.048C573.917 198.765 578.426 193.851 584.101 190.304C589.776 186.757 596.16 184.984 603.253 184.984C607.205 184.984 611.005 185.592 614.653 186.808C618.402 188.024 621.746 189.747 624.685 191.976C627.624 194.104 630.056 196.587 631.981 199.424C633.906 202.16 635.072 205.048 635.477 208.088L631.981 206.872V153.52H643.381V266H632.133L631.829 246.24L634.717 245.176C634.312 248.013 633.146 250.8 631.221 253.536C629.397 256.171 627.066 258.552 624.229 260.68C621.392 262.808 618.149 264.48 614.501 265.696C610.954 266.912 607.256 267.52 603.405 267.52ZM605.077 257.032C610.346 257.032 615.058 255.715 619.213 253.08C623.368 250.445 626.61 246.797 628.941 242.136C631.373 237.475 632.589 232.155 632.589 226.176C632.589 220.197 631.373 214.928 628.941 210.368C626.61 205.707 623.368 202.059 619.213 199.424C615.058 196.688 610.346 195.32 605.077 195.32C599.605 195.32 594.792 196.688 590.637 199.424C586.584 202.059 583.341 205.707 580.909 210.368C578.578 214.928 577.413 220.197 577.413 226.176C577.413 232.053 578.578 237.323 580.909 241.984C583.24 246.645 586.482 250.344 590.637 253.08C594.792 255.715 599.605 257.032 605.077 257.032ZM742.347 300.96C736.47 300.96 730.896 300.048 725.627 298.224C720.358 296.4 716 294.12 712.555 291.384L717.115 281.808C719.142 283.429 721.472 284.848 724.107 286.064C726.843 287.381 729.782 288.395 732.923 289.104C736.064 289.915 739.256 290.32 742.499 290.32C748.376 290.32 753.342 289.205 757.395 286.976C761.55 284.848 764.691 281.656 766.819 277.4C769.048 273.144 770.163 267.875 770.163 261.592V246.392L771.987 245.936C771.075 249.787 769.099 253.384 766.059 256.728C763.019 259.971 759.32 262.605 754.963 264.632C750.606 266.557 745.995 267.52 741.131 267.52C733.734 267.52 727.096 265.747 721.219 262.2C715.443 258.653 710.883 253.789 707.539 247.608C704.195 241.325 702.523 234.232 702.523 226.328C702.523 218.323 704.195 211.229 707.539 205.048C710.984 198.765 715.595 193.851 721.371 190.304C727.147 186.757 733.632 184.984 740.827 184.984C743.968 184.984 747.008 185.389 749.947 186.2C752.886 186.909 755.571 187.973 758.003 189.392C760.536 190.811 762.816 192.432 764.843 194.256C766.87 196.08 768.542 198.056 769.859 200.184C771.278 202.312 772.291 204.491 772.899 206.72L769.707 206.264L770.163 186.656H781.563V261.136C781.563 267.52 780.651 273.144 778.827 278.008C777.003 282.973 774.318 287.128 770.771 290.472C767.326 293.917 763.171 296.501 758.307 298.224C753.544 300.048 748.224 300.96 742.347 300.96ZM742.499 256.576C747.87 256.576 752.632 255.309 756.787 252.776C761.043 250.141 764.387 246.544 766.819 241.984C769.251 237.424 770.467 232.155 770.467 226.176C770.467 220.299 769.251 215.08 766.819 210.52C764.488 205.96 761.195 202.363 756.939 199.728C752.683 197.093 747.87 195.776 742.499 195.776C737.027 195.776 732.163 197.093 727.907 199.728C723.752 202.363 720.459 205.96 718.027 210.52C715.595 215.08 714.379 220.299 714.379 226.176C714.379 231.952 715.544 237.171 717.875 241.832C720.307 246.392 723.6 249.989 727.755 252.624C732.011 255.259 736.926 256.576 742.499 256.576ZM881.261 267.52C873.357 267.52 866.314 265.797 860.133 262.352C854.053 258.907 849.29 254.093 845.845 247.912C842.4 241.731 840.677 234.637 840.677 226.632C840.677 220.451 841.64 214.877 843.565 209.912C845.49 204.845 848.176 200.437 851.621 196.688C855.168 192.939 859.373 190.051 864.237 188.024C869.101 185.896 874.37 184.832 880.045 184.832C885.416 184.832 890.28 185.795 894.637 187.72C899.096 189.645 902.896 192.331 906.037 195.776C909.28 199.12 911.712 203.123 913.333 207.784C914.954 212.445 915.664 217.563 915.461 223.136L915.309 228.456H849.189L847.517 218.88H906.645L903.909 221.464V217.816C903.706 214.168 902.642 210.672 900.717 207.328C898.792 203.883 896.056 201.096 892.509 198.968C889.064 196.84 884.909 195.776 880.045 195.776C874.37 195.776 869.456 196.941 865.301 199.272C861.146 201.501 857.954 204.845 855.725 209.304C853.496 213.763 852.381 219.285 852.381 225.872C852.381 232.155 853.597 237.627 856.029 242.288C858.461 246.848 861.906 250.395 866.365 252.928C870.925 255.461 876.397 256.728 882.781 256.728C886.53 256.728 890.229 256.12 893.877 254.904C897.626 253.587 901.73 251.053 906.189 247.304L912.117 255.512C909.786 257.843 907 259.92 903.757 261.744C900.514 263.467 896.968 264.885 893.117 266C889.266 267.013 885.314 267.52 881.261 267.52ZM974.212 266V186.656H985.612L985.916 207.784L984.7 204.896C985.815 201.349 987.588 198.056 990.02 195.016C992.554 191.976 995.543 189.544 998.988 187.72C1002.43 185.896 1006.23 184.984 1010.39 184.984C1012.11 184.984 1013.73 185.136 1015.25 185.44C1016.77 185.643 1018.04 185.947 1019.05 186.352L1015.86 199.12C1014.54 198.512 1013.18 198.107 1011.76 197.904C1010.44 197.6 1009.17 197.448 1007.96 197.448C1004.51 197.448 1001.42 198.056 998.684 199.272C995.948 200.488 993.618 202.211 991.692 204.44C989.767 206.568 988.298 209.051 987.284 211.888C986.271 214.725 985.764 217.765 985.764 221.008V266H974.212Z" fill="black"/>
<path d="M44.7934 235.798C-12.6839 183.742 -10.5928 100.477 26.9964 53.3559C31.6789 59.9314 36.409 66.2833 40.7216 72.9397C41.3764 73.9503 40.4995 76.6428 39.6438 78.1043C28.9673 96.3381 23.9129 116.129 24.3055 137.591C25.184 185.617 59.4986 228.897 103.949 237.959C116.283 240.473 128.59 240.982 142.045 238.184C137.517 231.855 133.549 226.064 129.258 220.555C128.535 219.627 126.409 219.644 124.946 219.693C86.258 220.984 50.2522 190.76 44.2334 146.656C39.222 109.935 56.015 78.2401 82.8614 60.9549C83.9995 60.2221 85.2714 59.7229 86.994 58.857C116.483 99.4243 145.902 139.895 175.898 181.16C179.979 175.193 183.726 169.715 187.671 163.948C150.858 113.393 114.301 63.1902 76.739 11.6067C87.7721 8.85014 97.7193 5.22669 107.921 4.01413C150.745 -1.07588 187.301 12.9564 216.347 46.9721C234.96 68.7709 245 94.7443 247.326 124.165C249.145 147.159 245.111 168.926 236.265 189.797C234.95 192.901 235.277 194.931 237.176 197.584C252.593 219.12 267.859 240.778 283.164 262.404C283.77 263.26 284.316 264.163 285.487 265.96C276.858 265.96 268.947 266.121 261.053 265.798C259.774 265.745 258.363 263.711 257.368 262.31C241.616 240.13 225.975 217.86 210.151 195.739C208.049 192.801 208.111 190.731 209.735 187.548C230.398 147.053 228.714 107.372 202.788 70.5446C179.297 37.1765 146.595 25.0155 106.269 30.1523C111.47 36.9705 115.767 42.8938 120.439 48.4629C121.278 49.4625 123.665 49.1964 125.336 49.1847C160.729 48.9364 193.122 76.1684 201.934 113.606C210.734 150.989 194.791 190.242 163.142 208.942C162.853 209.113 162.509 209.178 161.551 209.522C132.537 168.571 103.396 127.443 73.4761 85.2138C69.6454 90.6674 66.0158 95.3795 62.9961 100.497C62.3497 101.592 63.4774 104.502 64.5252 105.993C84.7763 134.799 105.142 163.515 125.474 192.257C139.646 212.29 153.805 232.333 167.959 252.381C168.746 253.497 169.426 254.699 170.184 255.906C135.817 272.74 83.4249 270.055 44.7934 235.798Z" fill="#6565FD"/>
</svg>
