<svg width="2214" height="1386" viewBox="0 0 2214 1386" fill="none" xmlns="http://www.w3.org/2000/svg">
<ellipse cx="831.614" cy="357.281" rx="831.614" ry="357.281" transform="matrix(0.99978 -0.0209709 -0.0923224 0.995729 372.938 398.13)" fill="#008000"/>
<ellipse cx="831.614" cy="357.281" rx="831.614" ry="357.281" transform="matrix(0.99978 -0.0209709 -0.0923224 0.995729 372.938 398.13)" fill="#131E42"/>
<ellipse cx="609.369" cy="269.063" rx="609.369" ry="269.063" transform="matrix(0.99978 -0.0209709 -0.0923224 0.995729 585.682 448.172)" fill="#D9D9D9"/>
<rect width="579.164" height="726.587" transform="matrix(0.984003 -0.178151 0.421663 0.906753 306.35 726.848)" fill="#D9D9D9"/>
<rect width="15.7649" height="726.587" transform="matrix(0.984003 -0.178151 0.421663 0.906753 1212.29 709.227)" fill="#D9D9D9"/>
<rect width="15.7089" height="731.873" transform="matrix(0.974536 -0.22423 0.475925 0.879486 1513.86 572.392)" fill="#D9D9D9"/>
<g clip-path="url(#clip0_1004_129)">
<path d="M1529.95 596.472C1529.95 596.472 1314.57 678.573 1219.86 698.938C1197.36 703.776 1174.87 707.685 1153.68 710.442C1132.49 713.2 1113.01 714.752 1096.35 715.01C1079.69 715.268 1066.19 714.227 1056.6 711.946C1047.01 709.666 1041.53 706.19 1040.47 701.717C1039.41 697.245 1042.79 691.864 1050.42 685.881C1058.05 679.897 1069.78 673.43 1084.94 666.847C1100.1 660.264 1118.39 653.694 1138.77 647.514C1159.15 641.333 1181.22 635.662 1203.72 630.825C1298.43 610.46 1529.95 596.472 1529.95 596.472ZM1260.74 654.357C1260.13 651.776 1254.38 650.41 1244.77 650.559C1235.16 650.708 1222.46 652.36 1209.48 655.151C1196.5 657.942 1184.29 661.645 1175.55 665.443C1166.8 669.242 1162.23 672.825 1162.84 675.406C1163.45 677.987 1169.19 679.353 1178.81 679.204C1188.42 679.055 1201.11 677.403 1214.09 674.612C1227.08 671.821 1239.28 668.119 1248.03 664.32C1256.78 660.522 1261.35 656.938 1260.74 654.357Z" fill="#1E1E1E"/>
</g>
<rect width="14.6018" height="522.98" transform="matrix(0.73386 -0.679301 0.875754 0.482758 1745.28 640.711)" fill="#D9D9D9"/>
<rect width="100.857" height="36.5245" transform="matrix(0.970266 -0.242043 0.265067 0.96423 1161.71 656.549)" fill="#1E1E1E"/>
<rect width="13.4913" height="561.181" transform="matrix(-0.142512 -0.989793 0.970102 -0.2427 1489.72 534.25)" fill="#D9D9D9"/>
<ellipse cx="108.408" cy="79.9882" rx="108.408" ry="79.9882" transform="matrix(0.990672 -0.136272 0.144523 0.989501 945.086 652.249)" fill="#1E1E1E"/>
<rect width="13.4913" height="825.632" transform="matrix(-0.142512 -0.989793 0.970102 -0.2427 1030.86 496.555)" fill="#D9D9D9"/>
<g clip-path="url(#clip1_1004_129)">
<path d="M1047.8 682.975C1047.8 682.975 830.636 369.043 834.216 238.599C835.067 207.614 841.744 177.093 853.868 148.778C865.992 120.463 883.324 94.9087 904.875 73.5741C926.427 52.2395 951.775 35.5425 979.473 24.4363C1007.17 13.3302 1036.68 8.03239 1066.3 8.84549C1095.93 9.65859 1125.1 16.5666 1152.15 29.1752C1179.2 41.7838 1203.59 59.8459 1223.94 82.3304C1244.29 104.815 1260.19 131.281 1270.75 160.219C1281.3 189.156 1286.29 219.998 1285.44 250.982C1281.86 381.426 1047.8 682.975 1047.8 682.975ZM1057.98 312.204C1075.08 312.673 1091.67 306.02 1104.1 293.71C1116.54 281.399 1123.8 264.439 1124.29 246.56C1124.78 228.681 1118.46 211.348 1106.72 198.374C1094.98 185.399 1078.78 177.847 1061.68 177.378C1044.58 176.909 1027.99 183.561 1015.56 195.872C1003.12 208.182 995.859 225.143 995.368 243.022C994.878 260.901 1001.2 278.234 1012.94 291.208C1024.68 304.182 1040.88 311.734 1057.98 312.204Z" fill="#131E42"/>
</g>
<path d="M38.1102 984.155C38.1428 987.248 38.8883 990.023 40.3467 992.482C41.8047 994.908 43.7468 996.938 46.1731 998.573C48.5994 1000.21 51.3823 1001.71 54.5219 1003.07C57.6615 1004.44 60.9632 1005.74 64.4269 1006.97C67.8903 1008.17 71.3544 1009.44 74.8192 1010.77C78.2836 1012.07 81.5882 1013.65 84.733 1015.5C87.8774 1017.32 90.6664 1019.39 93.0999 1021.71C95.533 1024 97.4842 1026.89 98.9536 1030.39C100.423 1033.86 101.18 1037.76 101.226 1042.09C101.282 1047.39 100.162 1052.35 97.8671 1056.97C95.572 1061.58 92.3911 1065.55 88.3245 1068.88C84.2901 1072.18 79.3695 1074.79 73.5626 1076.71C67.7557 1078.62 61.4833 1079.62 54.7454 1079.69C52.1414 1079.72 49.389 1079.57 46.4882 1079.24C43.6204 1078.94 40.5709 1078.41 37.3398 1077.63C34.1413 1076.85 31.0548 1075.89 28.0804 1074.74C25.1059 1073.6 22.2421 1072.15 19.489 1070.39C16.768 1068.6 14.3868 1066.6 12.3453 1064.41C10.3038 1062.22 8.66507 1059.63 7.42907 1056.65C6.22527 1053.64 5.60532 1050.42 5.56921 1047C5.52347 1042.67 6.99819 1038.98 9.99338 1035.92C13.0208 1032.83 16.6991 1031.26 21.0283 1031.21C25.3574 1031.17 29.0518 1032.66 32.1113 1035.69C35.203 1038.68 36.7717 1042.34 36.8175 1046.67C36.847 1049.47 36.1908 1052.07 34.8488 1054.46C33.539 1056.82 31.736 1058.71 29.4397 1060.13C34.3518 1062.88 40.779 1064.21 48.7213 1064.13C55.7847 1064.05 61.1114 1062.9 64.7014 1060.69C68.324 1058.47 70.1102 1054.98 70.06 1050.23C70.0273 1047.14 69.282 1044.38 67.824 1041.95C66.3656 1039.49 64.4233 1037.44 61.9971 1035.81C59.5708 1034.18 56.7879 1032.68 53.6483 1031.31C50.5087 1029.94 47.2071 1028.66 43.7438 1027.46C40.28 1026.22 36.8159 1024.96 33.3515 1023.66C29.8867 1022.33 26.5821 1020.75 23.4377 1018.93C20.2929 1017.08 17.504 1015.01 15.0708 1012.72C12.6373 1010.4 10.6861 1007.51 9.21709 1004.04C7.74773 1000.54 6.99019 996.627 6.94445 992.298C6.88804 986.959 7.89365 982.001 9.96127 977.421C12.0611 972.809 15.0143 968.855 18.8208 965.559C22.6596 962.231 27.3847 959.609 32.9963 957.694C38.6079 955.779 44.7664 954.787 51.4717 954.716C54.0758 954.688 56.7793 954.839 59.5824 955.167C62.4178 955.463 65.3696 956.001 68.4379 956.783C71.5388 957.564 74.5113 958.525 77.3556 959.667C80.1998 960.809 82.9173 962.278 85.5081 964.073C88.131 965.836 90.3981 967.814 92.3094 970.008C94.2207 972.201 95.7455 974.789 96.8839 977.772C98.0548 980.755 98.6585 983.971 98.6949 987.422C98.7407 991.751 97.2498 995.462 94.2224 998.554C91.2273 1001.61 87.5651 1003.17 83.2359 1003.21C78.9067 1003.26 75.1962 1001.78 72.1045 998.787C69.045 995.76 67.4924 992.081 67.4467 987.752C67.4161 984.855 68.1204 982.194 69.5597 979.77C70.9987 977.313 72.9153 975.389 75.3096 973.996C70.9529 971.438 65.015 970.199 57.4959 970.278C50.6278 970.351 45.6589 971.477 42.5894 973.658C39.552 975.806 38.0589 979.305 38.1102 984.155ZM174.009 984.38C181.626 984.299 188.107 986.184 193.454 990.034C198.801 993.884 202.798 999.295 205.443 1006.27C208.121 1013.24 209.511 1021.56 209.613 1031.22C209.688 1038.29 208.828 1044.76 207.035 1050.64C205.274 1056.51 202.755 1061.49 199.477 1065.56C196.232 1069.6 192.277 1072.75 187.614 1075.01C182.982 1077.24 177.883 1078.39 172.317 1078.45C169.518 1078.48 166.878 1078.24 164.399 1077.75C161.92 1077.29 159.798 1076.69 158.032 1075.96C156.299 1075.23 154.645 1074.32 153.071 1073.23C151.497 1072.14 150.217 1071.11 149.23 1070.14C148.276 1069.18 147.336 1068.1 146.412 1066.9L146.682 1092.39L156.447 1092.29L156.612 1107.91L109.739 1108.41L109.574 1092.78L119.339 1092.68L118.39 1002.84L108.625 1002.94L108.46 987.319L137.462 987.012L143.49 998.326C144.741 996.522 146.172 994.88 147.784 993.398C154.168 987.503 162.909 984.497 174.009 984.38ZM146.237 1050.35C150.02 1057.15 155.102 1060.51 161.482 1060.44C167.927 1060.38 172.685 1057.8 175.756 1052.72C178.86 1047.65 180.363 1040.47 180.265 1031.19C180.219 1026.83 179.656 1022.82 178.576 1019.15C177.527 1015.45 176.128 1012.39 174.377 1009.96C172.658 1007.54 170.685 1005.67 168.458 1004.36C166.23 1003.02 163.912 1002.36 161.503 1002.38C158.248 1002.42 155.361 1003.36 152.841 1005.21C150.354 1007.03 148.022 1009.72 145.846 1013.29L146.237 1050.35ZM249.711 1036.61C250.044 1040.38 250.698 1043.75 251.673 1046.7C252.649 1049.65 253.814 1052.06 255.168 1053.94C256.555 1055.81 258.15 1057.36 259.954 1058.57C261.757 1059.76 263.605 1060.6 265.498 1061.1C267.391 1061.57 269.412 1061.79 271.56 1061.77C278.429 1061.7 283.769 1060.32 287.582 1057.65C291.427 1054.94 294.476 1050.8 296.729 1045.24L309.764 1049.6C308.626 1052.77 307.16 1055.76 305.366 1058.58C303.605 1061.37 301.468 1063.95 298.954 1066.32C296.44 1068.69 293.629 1070.73 290.522 1072.46C287.447 1074.15 283.962 1075.49 280.066 1076.48C276.17 1077.46 272.057 1077.98 267.728 1078.02C261.316 1078.09 255.233 1077.03 249.481 1074.85C243.76 1072.66 238.764 1069.59 234.49 1065.63C230.248 1061.64 226.859 1056.71 224.323 1050.84C221.82 1044.98 220.531 1038.58 220.458 1031.65C220.385 1024.71 221.537 1018.25 223.916 1012.27C226.327 1006.29 229.61 1001.24 233.766 997.128C237.954 992.982 242.884 989.723 248.556 987.352C254.261 984.981 260.319 983.761 266.731 983.693C273.144 983.625 279.21 984.717 284.931 986.968C290.684 989.218 295.682 992.372 299.924 996.429C304.199 1000.45 307.588 1005.43 310.092 1011.36C312.629 1017.29 313.934 1023.72 314.007 1030.66L312.843 1035.94L249.711 1036.61ZM249.888 1020.98L284.359 1020.62C283.433 1013.14 281.504 1007.71 278.571 1004.32C275.638 1000.93 271.779 999.266 266.994 999.316C264.618 999.341 262.49 999.754 260.61 1000.56C258.73 1001.32 257.051 1002.56 255.571 1004.27C254.091 1005.95 252.862 1008.19 251.882 1011C250.935 1013.78 250.27 1017.1 249.888 1020.98ZM352.049 1035.53C352.382 1039.3 353.036 1042.66 354.012 1045.62C354.987 1048.57 356.152 1050.98 357.506 1052.86C358.893 1054.73 360.488 1056.27 362.292 1057.49C364.095 1058.68 365.943 1059.52 367.836 1060.02C369.729 1060.49 371.75 1060.71 373.898 1060.69C380.767 1060.62 386.107 1059.24 389.92 1056.57C393.765 1053.86 396.814 1049.72 399.067 1044.16L412.102 1048.52C410.964 1051.69 409.498 1054.68 407.705 1057.5C405.943 1060.29 403.806 1062.86 401.292 1065.24C398.778 1067.61 395.967 1069.65 392.86 1071.38C389.785 1073.07 386.3 1074.41 382.404 1075.4C378.508 1076.38 374.395 1076.9 370.066 1076.94C363.654 1077.01 357.571 1075.95 351.819 1073.77C346.099 1071.58 341.102 1068.51 336.828 1064.55C332.586 1060.56 329.197 1055.63 326.661 1049.76C324.158 1043.9 322.869 1037.5 322.796 1030.56C322.723 1023.63 323.875 1017.17 326.254 1011.19C328.665 1005.21 331.948 1000.16 336.104 996.047C340.292 991.901 345.222 988.642 350.894 986.271C356.599 983.899 362.657 982.68 369.069 982.612C375.482 982.544 381.548 983.636 387.269 985.887C393.022 988.137 398.02 991.291 402.262 995.348C406.537 999.372 409.926 1004.35 412.431 1010.28C414.967 1016.21 416.272 1022.64 416.346 1029.58L415.181 1034.86L352.049 1035.53ZM352.226 1019.9L386.697 1019.54C385.771 1012.06 383.842 1006.63 380.909 1003.24C377.976 999.853 374.117 998.184 369.332 998.235C366.956 998.26 364.828 998.673 362.948 999.474C361.068 1000.24 359.389 1001.48 357.909 1003.19C356.429 1004.87 355.2 1007.11 354.22 1009.92C353.273 1012.7 352.608 1016.02 352.226 1019.9ZM460.732 1075.69C453.115 1075.77 446.633 1073.89 441.286 1070.04C435.939 1066.19 431.927 1060.78 429.249 1053.81C426.603 1046.84 425.23 1038.52 425.127 1028.85C425.053 1021.78 425.896 1015.31 427.657 1009.44C429.45 1003.56 431.97 998.599 435.215 994.56C438.492 990.489 442.447 987.338 447.079 985.108C451.742 982.845 456.857 981.684 462.424 981.625C465.223 981.596 467.862 981.828 470.341 982.323C472.82 982.785 474.927 983.382 476.66 984.112C478.425 984.842 480.095 985.752 481.669 986.842C483.243 987.933 484.507 988.961 485.462 989.927C486.449 990.894 487.404 991.974 488.328 993.169L488.059 967.682L478.294 967.785L478.129 952.161L515.236 951.769L516.35 1057.23L526.115 1057.13L526.28 1072.75L497.278 1073.06L491.251 1061.79C490 1063.57 488.585 1065.19 487.005 1066.67C480.622 1072.57 471.864 1075.57 460.732 1075.69ZM488.503 1009.72C484.72 1002.92 479.639 999.56 473.259 999.627C466.814 999.695 462.039 1002.27 458.935 1007.35C455.864 1012.43 454.377 1019.6 454.475 1028.88C454.521 1033.24 455.068 1037.27 456.117 1040.97C457.197 1044.64 458.597 1047.69 460.315 1050.11C462.066 1052.53 464.055 1054.42 466.283 1055.76C468.511 1057.07 470.829 1057.71 473.238 1057.69C476.493 1057.65 479.364 1056.73 481.851 1054.91C484.371 1053.06 486.719 1050.35 488.895 1046.78L488.503 1009.72ZM567.378 978.563C567.41 981.656 568.156 984.431 569.614 986.89C571.072 989.316 573.014 991.346 575.44 992.981C577.867 994.616 580.65 996.116 583.789 997.483C586.929 998.849 590.231 1000.15 593.694 1001.38C597.158 1002.58 600.622 1003.85 604.087 1005.18C607.551 1006.48 610.856 1008.05 614 1009.91C617.145 1011.73 619.934 1013.8 622.367 1016.12C624.8 1018.4 626.752 1021.3 628.221 1024.8C629.69 1028.27 630.447 1032.16 630.493 1036.49C630.549 1041.8 629.43 1046.76 627.134 1051.37C624.839 1055.99 621.658 1059.96 617.592 1063.29C613.557 1066.59 608.637 1069.2 602.83 1071.11C597.023 1073.03 590.751 1074.02 584.013 1074.1C581.409 1074.12 578.656 1073.97 575.756 1073.65C572.888 1073.35 569.838 1072.81 566.607 1072.03C563.409 1071.25 560.322 1070.29 557.348 1069.15C554.373 1068.01 551.509 1066.56 548.756 1064.8C546.035 1063.01 543.654 1061.01 541.613 1058.82C539.571 1056.63 537.932 1054.04 536.696 1051.06C535.493 1048.04 534.873 1044.83 534.837 1041.41C534.791 1037.08 536.266 1033.39 539.261 1030.33C542.288 1027.24 545.966 1025.67 550.296 1025.62C554.625 1025.58 558.319 1027.07 561.379 1030.09C564.47 1033.09 566.039 1036.75 566.085 1041.08C566.114 1043.88 565.458 1046.47 564.116 1048.87C562.806 1051.22 561.003 1053.11 558.707 1054.54C563.619 1057.29 570.046 1058.62 577.989 1058.53C585.052 1058.46 590.379 1057.31 593.969 1055.09C597.591 1052.87 599.378 1049.39 599.327 1044.64C599.295 1041.54 598.549 1038.78 597.091 1036.36C595.633 1033.9 593.691 1031.85 591.264 1030.22C588.838 1028.58 586.055 1027.08 582.916 1025.72C579.776 1024.35 576.474 1023.07 573.011 1021.87C569.547 1020.63 566.083 1019.37 562.619 1018.07C559.154 1016.74 555.849 1015.16 552.705 1013.34C549.56 1011.48 546.771 1009.41 544.338 1007.13C541.905 1004.81 539.953 1001.92 538.484 998.45C537.015 994.949 536.258 991.035 536.212 986.706C536.155 981.367 537.161 976.409 539.229 971.829C541.328 967.217 544.282 963.263 548.088 959.967C551.927 956.639 556.652 954.017 562.264 952.102C567.875 950.187 574.034 949.195 580.739 949.124C583.343 949.096 586.047 949.247 588.85 949.575C591.685 949.871 594.637 950.409 597.705 951.191C600.806 951.972 603.779 952.933 606.623 954.075C609.467 955.217 612.185 956.686 614.775 958.481C617.398 960.244 619.665 962.222 621.577 964.416C623.488 966.609 625.013 969.197 626.151 972.18C627.322 975.163 627.926 978.379 627.962 981.83C628.008 986.159 626.517 989.869 623.49 992.962C620.495 996.021 616.832 997.573 612.503 997.619C608.174 997.665 604.464 996.19 601.372 993.195C598.312 990.168 596.76 986.489 596.714 982.16C596.683 979.263 597.388 976.602 598.827 974.178C600.266 971.721 602.183 969.797 604.577 968.404C600.22 965.846 594.282 964.606 586.763 964.686C579.895 964.758 574.926 965.885 571.857 968.066C568.819 970.214 567.326 973.713 567.378 978.563ZM668.438 1032.19C668.771 1035.96 669.425 1039.32 670.4 1042.27C671.375 1045.23 672.54 1047.64 673.895 1049.51C675.282 1051.39 676.877 1052.93 678.68 1054.15C680.483 1055.33 682.332 1056.18 684.225 1056.68C686.118 1057.15 688.139 1057.37 690.287 1057.35C697.155 1057.27 702.496 1055.9 706.309 1053.22C710.154 1050.51 713.203 1046.38 715.456 1040.82L728.491 1045.18C727.352 1048.35 725.886 1051.34 724.093 1054.16C722.332 1056.94 720.195 1059.52 717.68 1061.89C715.166 1064.26 712.356 1066.31 709.249 1068.04C706.174 1069.73 702.689 1071.07 698.792 1072.05C694.896 1073.04 690.784 1073.55 686.455 1073.6C680.042 1073.67 673.96 1072.61 668.207 1070.42C662.487 1068.24 657.49 1065.16 653.216 1061.21C648.975 1057.21 645.586 1052.29 643.05 1046.42C640.546 1040.55 639.258 1034.15 639.185 1027.22C639.111 1020.29 640.264 1013.83 642.642 1007.85C645.053 1001.87 648.337 996.817 652.493 992.704C656.681 988.558 661.611 985.299 667.283 982.928C672.987 980.556 679.046 979.337 685.458 979.269C691.87 979.201 697.937 980.293 703.658 982.544C709.411 984.794 714.409 987.948 718.651 992.005C722.926 996.029 726.315 1001.01 728.819 1006.94C731.356 1012.87 732.661 1019.3 732.734 1026.23L731.569 1031.52L668.438 1032.19ZM668.615 1016.56L703.085 1016.19C702.16 1008.72 700.231 1003.28 697.298 999.897C694.365 996.51 690.506 994.842 685.721 994.892C683.345 994.917 681.217 995.33 679.337 996.131C677.457 996.9 675.777 998.139 674.298 999.847C672.818 1001.52 671.588 1003.77 670.609 1006.58C669.662 1009.35 668.997 1012.68 668.615 1016.56ZM804.494 978.011C809.051 977.963 813.045 978.539 816.476 979.74C819.907 980.941 822.724 982.62 824.928 984.778C827.132 986.903 828.919 989.635 830.289 992.974C831.691 996.28 832.673 999.85 833.234 1003.69C833.828 1007.49 834.15 1011.85 834.202 1016.76L834.594 1053.87L844.359 1053.77L844.524 1069.39L797.652 1069.89L797.487 1054.26L807.252 1054.16L806.839 1015.1C806.785 1009.95 806.271 1005.96 805.297 1003.1C804.355 1000.25 802.999 998.292 801.23 997.236C799.494 996.18 797.128 995.668 794.134 995.7C791.399 995.729 788.612 996.914 785.772 999.255C782.932 1001.6 780.248 1004.85 777.721 1009.01L777.957 1054.47L787.722 1054.36L787.887 1069.99L741.015 1070.48L740.85 1054.86L750.615 1054.76L749.996 996.166L740.23 996.269L740.065 980.645L770.386 980.325L777.361 993.484C778.543 991.291 779.905 989.323 781.45 987.581C783.026 985.807 784.897 984.192 787.063 982.737C789.261 981.249 791.837 980.098 794.79 979.286C797.744 978.473 800.979 978.048 804.494 978.011ZM880.881 1053.43C882.75 1054.68 885.556 1055.28 889.299 1055.24C892.652 1055.21 895.368 1054.99 897.447 1054.57C899.559 1054.16 901.147 1053.51 902.212 1052.62C903.276 1051.7 903.982 1050.69 904.329 1049.62C904.675 1048.51 904.839 1047.07 904.82 1045.31C904.798 1043.23 904.226 1041.45 903.104 1039.96C901.981 1038.48 900.471 1037.29 898.573 1036.4C896.676 1035.5 894.503 1034.73 892.054 1034.07C889.606 1033.38 887.027 1032.74 884.319 1032.15C881.61 1031.53 878.901 1030.86 876.192 1030.14C873.482 1029.38 870.9 1028.4 868.445 1027.19C865.991 1025.95 863.81 1024.49 861.904 1022.82C859.998 1021.11 858.477 1018.9 857.342 1016.18C856.206 1013.45 855.62 1010.32 855.582 1006.77C855.548 1003.51 855.907 1000.55 856.66 997.871C857.413 995.194 858.431 992.921 859.713 991.052C860.995 989.15 862.622 987.489 864.593 986.068C866.563 984.648 868.618 983.503 870.758 982.634C872.93 981.764 875.364 981.055 878.06 980.506C880.789 979.956 883.422 979.586 885.959 979.397C888.496 979.175 891.261 979.048 894.256 979.016C900.766 978.947 906.455 979.717 911.322 981.326C916.222 982.935 920.087 985.124 922.916 987.893C924.427 989.147 925.598 990.681 926.431 992.495C927.297 994.277 927.74 996.176 927.761 998.194C927.801 1001.97 926.501 1005.21 923.86 1007.9C921.219 1010.6 918.01 1011.97 914.235 1012.01C910.459 1012.05 907.222 1010.75 904.525 1008.11C901.828 1005.47 900.459 1002.26 900.419 998.483C900.405 997.116 900.586 995.796 900.963 994.522C899.094 993.272 896.288 992.667 892.545 992.707C887.956 992.755 884.527 993.345 882.26 994.476C880.026 995.606 878.925 997.669 878.957 1000.66C878.976 1002.55 879.466 1004.22 880.426 1005.68C881.385 1007.1 882.683 1008.27 884.32 1009.2C885.958 1010.1 887.855 1010.95 890.012 1011.78C892.202 1012.57 894.52 1013.24 896.967 1013.8C899.415 1014.33 901.928 1014.99 904.508 1015.78C907.088 1016.56 909.603 1017.37 912.054 1018.19C914.504 1019.01 916.811 1020.1 918.974 1021.48C921.169 1022.83 923.089 1024.35 924.735 1026.06C926.381 1027.77 927.69 1029.92 928.661 1032.51C929.632 1035.07 930.135 1037.95 930.168 1041.14C930.216 1045.7 929.494 1049.73 928.001 1053.22C926.54 1056.69 924.552 1059.51 922.035 1061.69C919.552 1063.86 916.445 1065.65 912.717 1067.06C908.987 1068.43 905.107 1069.4 901.077 1069.96C897.046 1070.53 892.557 1070.84 887.609 1070.89C877.616 1070.99 869.54 1069.17 863.38 1065.43C857.253 1061.69 854.154 1056.46 854.083 1049.76C854.043 1045.98 855.344 1042.74 857.985 1040.05C860.626 1037.35 863.834 1035.98 867.61 1035.94C871.386 1035.9 874.622 1037.2 877.32 1039.84C880.017 1042.48 881.386 1045.69 881.425 1049.47C881.44 1050.84 881.258 1052.16 880.881 1053.43ZM969.984 1029C970.316 1032.77 970.971 1036.14 971.946 1039.09C972.921 1042.04 974.086 1044.45 975.44 1046.33C976.827 1048.2 978.423 1049.75 980.226 1050.96C982.029 1052.15 983.877 1052.99 985.771 1053.49C987.664 1053.96 989.684 1054.18 991.833 1054.16C998.701 1054.09 1004.04 1052.71 1007.85 1050.04C1011.7 1047.33 1014.75 1043.19 1017 1037.63L1030.04 1041.99C1028.9 1045.16 1027.43 1048.15 1025.64 1050.97C1023.88 1053.76 1021.74 1056.34 1019.23 1058.71C1016.71 1061.08 1013.9 1063.12 1010.79 1064.85C1007.72 1066.54 1004.23 1067.88 1000.34 1068.87C996.442 1069.85 992.329 1070.37 988 1070.41C981.588 1070.48 975.505 1069.42 969.753 1067.24C964.033 1065.05 959.036 1061.98 954.762 1058.02C950.52 1054.03 947.132 1049.1 944.595 1043.23C942.092 1037.37 940.804 1030.97 940.73 1024.04C940.657 1017.1 941.81 1010.64 944.188 1004.66C946.599 998.679 949.882 993.631 954.038 989.518C958.226 985.372 963.157 982.113 968.828 979.742C974.533 977.37 980.591 976.151 987.004 976.083C993.416 976.015 999.483 977.107 1005.2 979.358C1010.96 981.608 1015.95 984.762 1020.2 988.819C1024.47 992.843 1027.86 997.82 1030.36 1003.75C1032.9 1009.68 1034.21 1016.11 1034.28 1023.05L1033.11 1028.33L969.984 1029ZM970.16 1013.37L1004.63 1013.01C1003.71 1005.53 1001.78 1000.1 998.843 996.711C995.91 993.324 992.051 991.655 987.266 991.706C984.89 991.731 982.762 992.144 980.883 992.945C979.003 993.714 977.323 994.953 975.843 996.661C974.364 998.337 973.134 1000.58 972.155 1003.39C971.207 1006.17 970.543 1009.49 970.16 1013.37Z" fill="#131E42"/>
<path d="M409.304 1245.13C409.304 1242.38 410.36 1240.14 412.472 1238.41C414.584 1236.68 417.112 1235.82 420.056 1235.82C423 1235.82 426.04 1236.52 429.176 1237.93C429.496 1237.16 430.232 1234.95 431.384 1231.3C432.6 1227.59 433.72 1222.76 434.744 1216.81C435.768 1210.79 436.28 1206.54 436.28 1204.04C436.28 1201.54 435.576 1199.66 434.168 1198.38V1197.42C437.88 1195.5 442.232 1194.54 447.224 1194.54L451.256 1194.92C451.576 1195.69 451.736 1197.16 451.736 1199.34C451.736 1206.5 450.456 1214.09 447.896 1222.09C445.336 1230.02 442.008 1236.81 437.912 1242.44C442.52 1244.87 446.328 1246.09 449.336 1246.09C452.344 1246.09 455.032 1244.74 457.4 1242.06C459.832 1239.3 461.72 1235.91 463.064 1231.88C465.944 1223.56 467.384 1216.04 467.384 1209.32C467.384 1202.54 465.592 1197.51 462.008 1194.25C458.424 1190.98 453.08 1189.35 445.976 1189.35C438.936 1189.35 432.408 1191.37 426.392 1195.4C420.44 1199.43 417.464 1204.1 417.464 1209.42C417.464 1211.66 418.008 1213.32 419.096 1214.41C420.184 1215.5 421.656 1216.36 423.512 1217C423.448 1219.43 422.744 1221.9 421.4 1224.39C418.776 1223.88 416.408 1222.44 414.296 1220.07C412.184 1217.64 411.128 1214.34 411.128 1210.18C411.128 1202.5 414.776 1196.14 422.072 1191.08C429.368 1185.96 438.488 1183.4 449.432 1183.4C458.648 1183.4 466.296 1185.54 472.376 1189.83C475.448 1192.01 477.816 1195.02 479.48 1198.86C481.208 1202.63 482.072 1207.5 482.072 1213.45C482.072 1219.34 480.76 1225.48 478.136 1231.88C475.512 1238.22 471.672 1243.53 466.616 1247.82C461.624 1252.1 456.216 1254.25 450.392 1254.25C444.632 1254.25 438.744 1252.23 432.728 1248.2C428.44 1252.17 424.088 1254.15 419.672 1254.15C416.664 1254.15 414.168 1253.35 412.184 1251.75C410.264 1250.09 409.304 1247.88 409.304 1245.13ZM419.384 1246.86C421.752 1246.86 423.864 1245.77 425.72 1243.59C423.352 1242.25 421.464 1241.58 420.056 1241.58C417.112 1241.58 415.64 1242.44 415.64 1244.17C415.64 1244.94 415.96 1245.58 416.6 1246.09C417.24 1246.6 418.168 1246.86 419.384 1246.86ZM487.175 1253.29H486.503C486.375 1252.78 486.311 1251.62 486.311 1249.83C486.311 1247.98 487.175 1243.05 488.903 1235.05C490.631 1227.05 491.495 1222.47 491.495 1221.32C491.495 1219.34 490.599 1217.16 488.807 1214.79L487.943 1213.64L488.039 1212.39C491.495 1211.43 497.031 1210.95 504.647 1210.95C505.415 1212.62 505.799 1214.95 505.799 1217.96C506.503 1216.81 507.975 1215.27 510.215 1213.35C512.455 1211.43 514.759 1210.47 517.127 1210.47C520.583 1210.47 522.311 1213.48 522.311 1219.5C521.991 1219.88 521.543 1220.39 520.967 1221.03C520.455 1221.61 519.367 1222.44 517.703 1223.53C516.103 1224.62 514.535 1225.29 512.999 1225.54C512.935 1225.54 512.391 1224.68 511.367 1222.95C510.343 1221.22 509.575 1220.36 509.063 1220.36C507.463 1220.94 506.055 1221.9 504.839 1223.24C501.895 1236.49 500.423 1245.06 500.423 1248.97C500.423 1250.38 500.455 1251.37 500.519 1251.94C498.279 1252.84 493.831 1253.29 487.175 1253.29ZM540.096 1216.42C540.096 1219.11 539.232 1223.75 537.504 1230.34C535.776 1236.87 534.912 1241.16 534.912 1243.21C534.912 1245.19 535.2 1246.18 535.776 1246.18C536.16 1246.18 537.632 1245.58 540.192 1244.36L541.344 1243.78L542.976 1247.14C542.4 1247.66 541.632 1248.3 540.672 1249.06C539.712 1249.83 537.92 1250.89 535.296 1252.23C532.672 1253.51 530.24 1254.15 528 1254.15C525.76 1254.15 524 1253.48 522.72 1252.14C521.44 1250.73 520.8 1248.87 520.8 1246.57C520.8 1244.2 521.6 1240.04 523.2 1234.09C524.8 1228.07 525.6 1224.17 525.6 1222.38C525.6 1219.69 524.768 1217.16 523.104 1214.79L522.24 1213.64L522.336 1212.39C525.728 1211.43 531.232 1210.95 538.848 1210.95C539.68 1211.91 540.096 1213.74 540.096 1216.42ZM529.152 1200.49C527.872 1199.21 527.232 1197.51 527.232 1195.4C527.232 1193.29 528.096 1191.43 529.824 1189.83C531.616 1188.23 533.664 1187.43 535.968 1187.43C538.272 1187.43 540.064 1188.07 541.344 1189.35C542.624 1190.63 543.264 1192.33 543.264 1194.44C543.264 1196.49 542.336 1198.31 540.48 1199.91C538.688 1201.51 536.672 1202.31 534.432 1202.31C532.192 1202.31 530.432 1201.7 529.152 1200.49ZM555.692 1210.47C558.508 1210.47 560.588 1211.05 561.932 1212.2C563.34 1213.35 564.044 1215.72 564.044 1219.3C564.044 1221.22 563.468 1225.16 562.316 1231.11C561.164 1237 560.588 1240.58 560.588 1241.86C560.588 1244.42 561.1 1245.7 562.124 1245.7C564.556 1245.7 567.212 1243.91 570.092 1240.33C573.036 1236.68 574.572 1233.64 574.7 1231.21L568.172 1223.91C568.428 1221.16 569.1 1218.66 570.188 1216.42C571.276 1214.18 572.3 1212.62 573.26 1211.72L574.604 1210.47C577.356 1210.47 579.436 1211.21 580.844 1212.68C582.252 1214.15 582.956 1215.88 582.956 1217.86C582.956 1222.92 581.708 1228.26 579.212 1233.9C576.716 1239.53 573.388 1244.33 569.228 1248.3C565.068 1252.2 560.844 1254.15 556.556 1254.15C553.868 1254.15 551.788 1253.32 550.316 1251.66C548.908 1249.99 548.204 1247.82 548.204 1245.13C548.204 1242.38 548.396 1238.7 548.78 1234.09C549.228 1229.48 549.452 1224.9 549.452 1220.36C549.452 1219.34 549.068 1218.12 548.3 1216.71C547.596 1215.3 546.86 1214.18 546.092 1213.35L546.38 1212.2C549.836 1211.05 552.94 1210.47 555.692 1210.47ZM583.777 1236.39C583.777 1228.39 586.177 1222.09 590.977 1217.48C595.841 1212.81 601.345 1210.47 607.489 1210.47C611.265 1210.47 614.369 1211.4 616.801 1213.26C619.233 1215.11 620.449 1217.61 620.449 1220.74C620.449 1223.82 619.649 1226.41 618.049 1228.52C616.513 1230.63 614.625 1232.26 612.385 1233.42C607.841 1235.66 603.681 1237.06 599.905 1237.64L597.601 1237.93C598.049 1243.94 600.513 1246.95 604.993 1246.95C606.529 1246.95 608.161 1246.57 609.889 1245.8C611.617 1245.03 612.961 1244.26 613.921 1243.5L615.361 1242.34L617.665 1245.42C617.153 1246.12 616.129 1247.05 614.593 1248.2C613.057 1249.35 611.617 1250.31 610.273 1251.08C606.561 1253.13 602.497 1254.15 598.081 1254.15C593.665 1254.15 590.177 1252.58 587.617 1249.45C585.057 1246.31 583.777 1241.96 583.777 1236.39ZM597.505 1233.22C600.769 1232.65 603.361 1231.27 605.281 1229.1C607.201 1226.92 608.161 1224.1 608.161 1220.65C608.161 1217.19 607.137 1215.46 605.089 1215.46C602.657 1215.46 600.769 1217.54 599.425 1221.7C598.145 1225.8 597.505 1229.64 597.505 1233.22ZM671.388 1240.42C671.388 1244.46 669.596 1247.75 666.012 1250.31C662.492 1252.87 658.46 1254.15 653.916 1254.15C649.372 1254.15 645.756 1253.19 643.068 1251.27C640.444 1249.35 639.132 1247.66 639.132 1246.18C639.132 1245.29 640.252 1243.85 642.492 1241.86C644.732 1239.82 646.62 1238.57 648.156 1238.12C651.356 1240.49 653.98 1244.23 656.028 1249.35C658.396 1249.16 659.58 1248.04 659.58 1245.99C659.58 1243.05 656.988 1238.89 651.804 1233.51C646.62 1228.07 644.028 1223.75 644.028 1220.55C644.028 1217.35 645.468 1214.89 648.348 1213.16C651.228 1211.37 654.684 1210.47 658.716 1210.47C662.812 1210.47 665.884 1211.21 667.932 1212.68C669.98 1214.09 671.004 1216.04 671.004 1218.54C671.004 1220.97 669.052 1224.36 665.148 1228.71C665.596 1229.16 666.172 1229.77 666.876 1230.54C667.58 1231.24 668.508 1232.62 669.66 1234.66C670.812 1236.71 671.388 1238.63 671.388 1240.42ZM662.172 1225.35C664.86 1223.05 666.204 1220.78 666.204 1218.54C666.204 1216.3 664.668 1215.18 661.596 1215.18C660.124 1215.18 658.908 1215.5 657.948 1216.14C656.988 1216.71 656.508 1217.38 656.508 1218.15C656.508 1219.56 657.916 1221.54 660.732 1224.1L662.172 1225.35ZM678.441 1253.29H676.617C676.617 1250.28 677.513 1244.52 679.305 1236.01C681.161 1227.5 682.089 1222.66 682.089 1221.51C682.089 1219.4 681.193 1217.16 679.401 1214.79L678.537 1213.64L678.633 1212.39C682.089 1211.43 687.625 1210.95 695.241 1210.95C696.137 1212.17 696.585 1214.15 696.585 1216.9C702.345 1212.62 706.921 1210.47 710.313 1210.47C714.601 1210.47 717.129 1212.68 717.897 1217.1C719.625 1215.69 721.865 1214.25 724.617 1212.78C727.433 1211.24 729.929 1210.47 732.105 1210.47C734.345 1210.47 736.201 1211.21 737.673 1212.68C739.145 1214.09 739.881 1216.07 739.881 1218.63C739.881 1221.19 739.177 1225.42 737.769 1231.3C736.361 1237.19 735.657 1241.16 735.657 1243.21C735.657 1245.19 735.945 1246.18 736.521 1246.18C736.905 1246.18 738.217 1245.58 740.457 1244.36L741.513 1243.78L743.241 1247.14C741.577 1248.81 739.305 1250.41 736.425 1251.94C733.609 1253.42 731.113 1254.15 728.937 1254.15C724.137 1254.15 721.737 1251.43 721.737 1245.99C721.737 1244.01 722.409 1240.04 723.753 1234.09C725.161 1228.07 725.865 1224.17 725.865 1222.38C725.865 1220.52 725.321 1219.59 724.233 1219.59C722.377 1219.59 720.265 1220.3 717.897 1221.7C717.769 1222.98 716.873 1227.34 715.209 1234.76C713.609 1242.18 712.809 1247.94 712.809 1252.04C710.953 1252.87 706.601 1253.29 699.753 1253.29C699.625 1252.58 699.561 1250.89 699.561 1248.2C699.561 1245.51 700.297 1240.94 701.769 1234.47C703.305 1228.01 704.073 1223.91 704.073 1222.18C704.073 1220.46 703.465 1219.59 702.249 1219.59C700.329 1219.59 698.217 1220.36 695.913 1221.9C695.785 1222.47 695.145 1225.29 693.993 1230.34C691.689 1240.46 690.537 1247.66 690.537 1251.94C688.297 1252.84 684.265 1253.29 678.441 1253.29ZM774.957 1213.26C775.085 1213.13 775.437 1212.3 776.013 1210.76C779.021 1210.76 783.053 1211.66 788.109 1213.45C786.509 1218.76 785.229 1224.33 784.269 1230.15C783.309 1235.91 782.829 1240.04 782.829 1242.54C782.829 1244.97 783.085 1246.18 783.597 1246.18C783.981 1246.18 785.389 1245.58 787.821 1244.36L788.973 1243.78L790.701 1247.14C790.125 1247.66 789.357 1248.3 788.397 1249.06C787.501 1249.83 785.773 1250.89 783.213 1252.23C780.653 1253.51 778.349 1254.15 776.301 1254.15C772.333 1254.15 770.029 1252.36 769.389 1248.78C765.293 1252.36 761.581 1254.15 758.253 1254.15C754.989 1254.15 752.205 1252.87 749.901 1250.31C747.661 1247.75 746.541 1243.72 746.541 1238.22C746.541 1229.64 748.301 1222.89 751.821 1217.96C755.341 1212.97 759.597 1210.47 764.589 1210.47C768.173 1210.47 771.629 1211.4 774.957 1213.26ZM764.013 1245.99C765.549 1245.99 767.277 1245.38 769.197 1244.17C769.645 1235.14 771.149 1226.22 773.709 1217.38C771.789 1216.55 770.157 1216.14 768.813 1216.14C766.509 1216.14 764.525 1218.41 762.861 1222.95C761.261 1227.43 760.461 1232.39 760.461 1237.83C760.461 1243.27 761.645 1245.99 764.013 1245.99ZM794.394 1253.29H793.722C793.594 1252.78 793.53 1251.62 793.53 1249.83C793.53 1247.98 794.394 1243.05 796.122 1235.05C797.85 1227.05 798.714 1222.47 798.714 1221.32C798.714 1219.34 797.818 1217.16 796.026 1214.79L795.162 1213.64L795.258 1212.39C798.714 1211.43 804.25 1210.95 811.866 1210.95C812.634 1212.62 813.018 1214.95 813.018 1217.96C813.722 1216.81 815.194 1215.27 817.434 1213.35C819.674 1211.43 821.978 1210.47 824.346 1210.47C827.802 1210.47 829.53 1213.48 829.53 1219.5C829.21 1219.88 828.762 1220.39 828.186 1221.03C827.674 1221.61 826.586 1222.44 824.922 1223.53C823.322 1224.62 821.754 1225.29 820.218 1225.54C820.154 1225.54 819.61 1224.68 818.586 1222.95C817.562 1221.22 816.794 1220.36 816.282 1220.36C814.682 1220.94 813.274 1221.9 812.058 1223.24C809.114 1236.49 807.642 1245.06 807.642 1248.97C807.642 1250.38 807.674 1251.37 807.738 1251.94C805.498 1252.84 801.05 1253.29 794.394 1253.29ZM859.366 1211.62C859.238 1213.22 858.694 1215.08 857.734 1217.19C855.302 1216.94 852.998 1216.81 850.822 1216.81H849.094C846.15 1231.08 844.678 1239.98 844.678 1243.5C844.678 1245.35 845.062 1246.28 845.83 1246.28C846.662 1246.28 848.806 1245.48 852.262 1243.88L853.99 1247.05C848.294 1251.78 843.014 1254.15 838.15 1254.15C835.91 1254.15 834.054 1253.45 832.582 1252.04C831.174 1250.63 830.47 1248.78 830.47 1246.47C830.47 1244.1 830.726 1241.45 831.238 1238.5C831.814 1235.56 832.582 1231.98 833.542 1227.75C834.502 1223.46 835.206 1220.01 835.654 1217.38C833.286 1217.58 831.526 1217.77 830.374 1217.96C830.246 1217.19 830.182 1216.17 830.182 1214.89C830.182 1213.54 830.278 1212.46 830.47 1211.62H836.518C837.03 1208.17 837.286 1204.9 837.286 1201.83L837.19 1198.86V1198.57C842.182 1196.84 846.886 1195.98 851.302 1195.98C851.558 1197.26 851.686 1198.86 851.686 1200.78C851.686 1202.7 851.142 1206.31 850.054 1211.62H859.366ZM857.054 1251.46C857.054 1246.86 858.846 1242.54 862.43 1238.5C865.758 1238.5 868.51 1239.5 870.686 1241.48C872.862 1243.4 873.95 1245.67 873.95 1248.3C873.95 1254.82 870.046 1262.54 862.238 1271.43L858.206 1268.84C862.174 1262.82 864.318 1258.57 864.638 1256.07L857.054 1251.46ZM929.107 1240.42C929.107 1244.46 927.315 1247.75 923.731 1250.31C920.211 1252.87 916.179 1254.15 911.635 1254.15C907.091 1254.15 903.475 1253.19 900.787 1251.27C898.163 1249.35 896.851 1247.66 896.851 1246.18C896.851 1245.29 897.971 1243.85 900.211 1241.86C902.451 1239.82 904.339 1238.57 905.875 1238.12C909.075 1240.49 911.699 1244.23 913.747 1249.35C916.115 1249.16 917.299 1248.04 917.299 1245.99C917.299 1243.05 914.707 1238.89 909.523 1233.51C904.339 1228.07 901.747 1223.75 901.747 1220.55C901.747 1217.35 903.187 1214.89 906.067 1213.16C908.947 1211.37 912.403 1210.47 916.435 1210.47C920.531 1210.47 923.603 1211.21 925.651 1212.68C927.699 1214.09 928.723 1216.04 928.723 1218.54C928.723 1220.97 926.771 1224.36 922.867 1228.71C923.315 1229.16 923.891 1229.77 924.595 1230.54C925.299 1231.24 926.227 1232.62 927.379 1234.66C928.531 1236.71 929.107 1238.63 929.107 1240.42ZM919.891 1225.35C922.579 1223.05 923.923 1220.78 923.923 1218.54C923.923 1216.3 922.387 1215.18 919.315 1215.18C917.843 1215.18 916.627 1215.5 915.667 1216.14C914.707 1216.71 914.227 1217.38 914.227 1218.15C914.227 1219.56 915.635 1221.54 918.451 1224.1L919.891 1225.35ZM963.616 1211.62C963.488 1213.22 962.944 1215.08 961.984 1217.19C959.552 1216.94 957.248 1216.81 955.072 1216.81H953.344C950.4 1231.08 948.928 1239.98 948.928 1243.5C948.928 1245.35 949.312 1246.28 950.08 1246.28C950.912 1246.28 953.056 1245.48 956.512 1243.88L958.24 1247.05C952.544 1251.78 947.264 1254.15 942.4 1254.15C940.16 1254.15 938.304 1253.45 936.832 1252.04C935.424 1250.63 934.72 1248.78 934.72 1246.47C934.72 1244.1 934.976 1241.45 935.488 1238.5C936.064 1235.56 936.832 1231.98 937.792 1227.75C938.752 1223.46 939.456 1220.01 939.904 1217.38C937.536 1217.58 935.776 1217.77 934.624 1217.96C934.496 1217.19 934.432 1216.17 934.432 1214.89C934.432 1213.54 934.528 1212.46 934.72 1211.62H940.768C941.28 1208.17 941.536 1204.9 941.536 1201.83L941.44 1198.86V1198.57C946.432 1196.84 951.136 1195.98 955.552 1195.98C955.808 1197.26 955.936 1198.86 955.936 1200.78C955.936 1202.7 955.392 1206.31 954.304 1211.62H963.616ZM990.488 1213.26C990.616 1213.13 990.968 1212.3 991.544 1210.76C994.552 1210.76 998.584 1211.66 1003.64 1213.45C1002.04 1218.76 1000.76 1224.33 999.8 1230.15C998.84 1235.91 998.36 1240.04 998.36 1242.54C998.36 1244.97 998.616 1246.18 999.128 1246.18C999.512 1246.18 1000.92 1245.58 1003.35 1244.36L1004.5 1243.78L1006.23 1247.14C1005.66 1247.66 1004.89 1248.3 1003.93 1249.06C1003.03 1249.83 1001.3 1250.89 998.744 1252.23C996.184 1253.51 993.88 1254.15 991.832 1254.15C987.864 1254.15 985.56 1252.36 984.92 1248.78C980.824 1252.36 977.112 1254.15 973.784 1254.15C970.52 1254.15 967.736 1252.87 965.432 1250.31C963.192 1247.75 962.072 1243.72 962.072 1238.22C962.072 1229.64 963.832 1222.89 967.352 1217.96C970.872 1212.97 975.128 1210.47 980.12 1210.47C983.704 1210.47 987.16 1211.4 990.488 1213.26ZM979.544 1245.99C981.08 1245.99 982.808 1245.38 984.728 1244.17C985.176 1235.14 986.68 1226.22 989.24 1217.38C987.32 1216.55 985.688 1216.14 984.344 1216.14C982.04 1216.14 980.056 1218.41 978.392 1222.95C976.792 1227.43 975.992 1232.39 975.992 1237.83C975.992 1243.27 977.176 1245.99 979.544 1245.99ZM1016.36 1253.38C1011.05 1253.38 1008.39 1250.44 1008.39 1244.55C1008.39 1243.14 1009.03 1239.08 1010.31 1232.36C1011.59 1225.64 1012.23 1220.04 1012.23 1215.56C1012.23 1214.6 1012.1 1213.7 1011.85 1212.87C1015.3 1211.53 1020.04 1210.86 1026.05 1210.86C1026.37 1211.75 1026.53 1213.29 1026.53 1215.46C1026.53 1217.64 1025.83 1221.99 1024.42 1228.52C1023.01 1235.05 1022.31 1239.3 1022.31 1241.29C1022.31 1243.27 1022.82 1244.26 1023.85 1244.26C1026.66 1244.26 1029.38 1243.27 1032.01 1241.29C1032.2 1238.92 1033.48 1229.29 1035.85 1212.39C1038.09 1211.5 1042.12 1211.05 1047.94 1211.05H1049.77C1049 1214.06 1047.72 1221.67 1045.93 1233.9C1044.2 1246.06 1042.95 1253.77 1042.18 1257.03C1041.41 1260.3 1040.36 1263.18 1039.01 1265.67C1037.73 1268.17 1036.13 1270.02 1034.21 1271.24C1032.36 1272.52 1030.47 1273.38 1028.55 1273.83C1026.63 1274.28 1024.13 1274.5 1021.06 1274.5C1018.05 1274.5 1015.17 1273.51 1012.42 1271.53C1009.73 1269.61 1008.39 1267.94 1008.39 1266.54C1008.39 1265.64 1009.51 1264.26 1011.75 1262.41C1014.05 1260.55 1015.97 1259.4 1017.51 1258.95C1020.77 1262.22 1023.17 1265.77 1024.71 1269.61C1026.37 1269.61 1027.85 1267.62 1029.12 1263.66C1030.41 1259.69 1031.27 1253.86 1031.72 1246.18C1030.18 1247.72 1027.85 1249.32 1024.71 1250.98C1021.57 1252.58 1018.79 1253.38 1016.36 1253.38ZM1100.76 1240.42C1100.76 1244.46 1098.97 1247.75 1095.39 1250.31C1091.87 1252.87 1087.83 1254.15 1083.29 1254.15C1078.75 1254.15 1075.13 1253.19 1072.44 1251.27C1069.82 1249.35 1068.51 1247.66 1068.51 1246.18C1068.51 1245.29 1069.63 1243.85 1071.87 1241.86C1074.11 1239.82 1075.99 1238.57 1077.53 1238.12C1080.73 1240.49 1083.35 1244.23 1085.4 1249.35C1087.77 1249.16 1088.95 1248.04 1088.95 1245.99C1088.95 1243.05 1086.36 1238.89 1081.18 1233.51C1075.99 1228.07 1073.4 1223.75 1073.4 1220.55C1073.4 1217.35 1074.84 1214.89 1077.72 1213.16C1080.6 1211.37 1084.06 1210.47 1088.09 1210.47C1092.19 1210.47 1095.26 1211.21 1097.31 1212.68C1099.35 1214.09 1100.38 1216.04 1100.38 1218.54C1100.38 1220.97 1098.43 1224.36 1094.52 1228.71C1094.97 1229.16 1095.55 1229.77 1096.25 1230.54C1096.95 1231.24 1097.88 1232.62 1099.03 1234.66C1100.19 1236.71 1100.76 1238.63 1100.76 1240.42ZM1091.55 1225.35C1094.23 1223.05 1095.58 1220.78 1095.58 1218.54C1095.58 1216.3 1094.04 1215.18 1090.97 1215.18C1089.5 1215.18 1088.28 1215.5 1087.32 1216.14C1086.36 1216.71 1085.88 1217.38 1085.88 1218.15C1085.88 1219.56 1087.29 1221.54 1090.11 1224.1L1091.55 1225.35ZM1133.83 1213.26C1133.96 1213.13 1134.31 1212.3 1134.89 1210.76C1137.9 1210.76 1141.93 1211.66 1146.98 1213.45C1145.38 1218.76 1144.1 1224.33 1143.14 1230.15C1142.18 1235.91 1141.7 1240.04 1141.7 1242.54C1141.7 1244.97 1141.96 1246.18 1142.47 1246.18C1142.86 1246.18 1144.26 1245.58 1146.7 1244.36L1147.85 1243.78L1149.58 1247.14C1149 1247.66 1148.23 1248.3 1147.27 1249.06C1146.38 1249.83 1144.65 1250.89 1142.09 1252.23C1139.53 1253.51 1137.22 1254.15 1135.18 1254.15C1131.21 1254.15 1128.9 1252.36 1128.26 1248.78C1124.17 1252.36 1120.46 1254.15 1117.13 1254.15C1113.86 1254.15 1111.08 1252.87 1108.78 1250.31C1106.54 1247.75 1105.42 1243.72 1105.42 1238.22C1105.42 1229.64 1107.18 1222.89 1110.7 1217.96C1114.22 1212.97 1118.47 1210.47 1123.46 1210.47C1127.05 1210.47 1130.5 1211.4 1133.83 1213.26ZM1122.89 1245.99C1124.42 1245.99 1126.15 1245.38 1128.07 1244.17C1128.52 1235.14 1130.02 1226.22 1132.58 1217.38C1130.66 1216.55 1129.03 1216.14 1127.69 1216.14C1125.38 1216.14 1123.4 1218.41 1121.74 1222.95C1120.14 1227.43 1119.34 1232.39 1119.34 1237.83C1119.34 1243.27 1120.52 1245.99 1122.89 1245.99ZM1179.38 1211.62C1179.25 1213.03 1178.68 1214.89 1177.65 1217.19C1175.22 1216.94 1172.82 1216.81 1170.45 1216.81H1170.07C1168.72 1232.62 1167.48 1244.3 1166.32 1251.85C1165.17 1259.4 1163.67 1264.68 1161.81 1267.69C1159.51 1267.62 1157.11 1267.3 1154.61 1266.73C1152.18 1266.22 1150.52 1265.67 1149.62 1265.1C1151.16 1260.36 1152.69 1253.22 1154.23 1243.69C1155.83 1234.15 1156.85 1225.35 1157.3 1217.29C1155.51 1217.42 1153.52 1217.64 1151.35 1217.96C1151.16 1217.13 1151.06 1216.3 1151.06 1215.46C1151.06 1214.57 1151.19 1213.29 1151.44 1211.62H1157.59C1157.72 1206.06 1158 1201.83 1158.45 1198.95C1159.22 1193.83 1160.98 1189.83 1163.73 1186.95C1166.55 1184.01 1170.16 1182.54 1174.58 1182.54C1177.4 1182.54 1179.6 1183.18 1181.2 1184.46C1182.87 1185.67 1183.7 1187.62 1183.7 1190.31C1183.7 1193 1182.48 1196.49 1180.05 1200.78C1177.62 1205 1174.42 1208.62 1170.45 1211.62H1179.38ZM1170.64 1205.58C1173.14 1203.46 1175.09 1201.13 1176.5 1198.57C1177.91 1196.01 1178.61 1193.7 1178.61 1191.66C1178.61 1189.54 1177.94 1188.49 1176.6 1188.49C1173.78 1188.49 1171.99 1191.72 1171.22 1198.18C1170.96 1200.36 1170.77 1202.82 1170.64 1205.58ZM1179.09 1236.39C1179.09 1228.39 1181.49 1222.09 1186.29 1217.48C1191.15 1212.81 1196.66 1210.47 1202.8 1210.47C1206.58 1210.47 1209.68 1211.4 1212.11 1213.26C1214.55 1215.11 1215.76 1217.61 1215.76 1220.74C1215.76 1223.82 1214.96 1226.41 1213.36 1228.52C1211.83 1230.63 1209.94 1232.26 1207.7 1233.42C1203.15 1235.66 1198.99 1237.06 1195.22 1237.64L1192.91 1237.93C1193.36 1243.94 1195.83 1246.95 1200.31 1246.95C1201.84 1246.95 1203.47 1246.57 1205.2 1245.8C1206.93 1245.03 1208.27 1244.26 1209.23 1243.5L1210.67 1242.34L1212.98 1245.42C1212.47 1246.12 1211.44 1247.05 1209.91 1248.2C1208.37 1249.35 1206.93 1250.31 1205.59 1251.08C1201.87 1253.13 1197.81 1254.15 1193.39 1254.15C1188.98 1254.15 1185.49 1252.58 1182.93 1249.45C1180.37 1246.31 1179.09 1241.96 1179.09 1236.39ZM1192.82 1233.22C1196.08 1232.65 1198.67 1231.27 1200.59 1229.1C1202.51 1226.92 1203.47 1224.1 1203.47 1220.65C1203.47 1217.19 1202.45 1215.46 1200.4 1215.46C1197.97 1215.46 1196.08 1217.54 1194.74 1221.7C1193.46 1225.8 1192.82 1229.64 1192.82 1233.22Z" fill="#131E42"/>
<defs>
<clipPath id="clip0_1004_129">
<rect width="99.9985" height="500.674" fill="white" transform="matrix(-0.230554 -0.97306 0.977657 -0.210207 1052 750.37)"/>
</clipPath>
<clipPath id="clip1_1004_129">
<rect width="644.851" height="674.383" fill="white" transform="translate(744) rotate(1.57202)"/>
</clipPath>
</defs>
</svg>
